<?xml version="1.0" standalone="no"?>
<!DOCTYPE svg PUBLIC "-//W3C//DTD SVG 1.1//EN" "http://www.w3.org/Graphics/SVG/1.1/DTD/svg11.dtd" >
<svg xmlns="http://www.w3.org/2000/svg" xmlns:xlink="http://www.w3.org/1999/xlink" version="1.1">
<metadata>
Created by FontForge 20170731 at Wed Feb 20 16:10:54 2019
 By Aleksey,,,
</metadata>
<defs>
<font id="StagSans-SemiBold" horiz-adv-x="815" >
  <font-face 
    font-family="Stag Sans SemBd"
    font-weight="600"
    font-stretch="normal"
    units-per-em="2048"
    panose-1="2 11 7 3 4 0 0 2 0 4"
    ascent="1638"
    descent="-410"
    x-height="1079"
    cap-height="1434"
    bbox="-98 -467 2185 2214"
    underline-thickness="102"
    underline-position="-511"
    unicode-range="U+0020-2013"
  />
<missing-glyph horiz-adv-x="791" 
 />
    <glyph glyph-name="_253" unicode="ff" horiz-adv-x="1378" 
d="M25 842v237h116v54q0 313 365 313q113 0 188 -29v-207h-59q-61 0 -93 -17t-32 -71v-43h278v66q0 168 96.5 240.5t270.5 72.5q116 0 197 -31v-204h-70q-64 0 -95.5 -17.5t-31.5 -75.5v-51h186v-237h-186v-842h-367v842h-278v-842h-369v842h-116z" />
    <glyph glyph-name=".notdef" horiz-adv-x="791" 
 />
    <glyph glyph-name=".null" horiz-adv-x="0" 
 />
    <glyph glyph-name="nonmarkingreturn" horiz-adv-x="682" 
 />
    <glyph glyph-name="uni0020" unicode=" " horiz-adv-x="385" 
 />
    <glyph glyph-name="uni0021" unicode="!" horiz-adv-x="616" 
d="M186 446l-73 773v215h391v-215l-76 -773h-242zM307 -14q-79 0 -135.5 54t-56.5 132q0 79 56.5 132.5t135.5 53.5q80 0 136.5 -53.5t56.5 -132.5t-57 -132.5t-136 -53.5z" />
    <glyph glyph-name="uni002C" unicode="," horiz-adv-x="614" 
d="M115 -236v152q137 20 137 82q0 15 -6 24q-10 10 -17 15q-4 2 -12 6.5t-12 6.5q-15 7 -27 16q-28 20 -45 51q-18 30 -18 80q0 74 55.5 117.5t130.5 43.5q99 0 151 -63t52 -162q0 -92 -27.5 -160t-81 -110.5t-122 -66t-158.5 -32.5z" />
    <glyph glyph-name="uni002D" unicode="-" horiz-adv-x="627" 
d="M61 459v280h504v-280h-504z" />
    <glyph glyph-name="uni002E" unicode="." horiz-adv-x="614" 
d="M307 -14q-79 0 -135.5 54t-56.5 132q0 79 56.5 132.5t135.5 53.5q80 0 136.5 -53.5t56.5 -132.5t-57 -132.5t-136 -53.5z" />
    <glyph glyph-name="uni0030" unicode="0" horiz-adv-x="1229" 
d="M614 -20q-124 0 -222 42.5t-161 113t-104.5 167.5t-58.5 199t-17 215q0 85 9.5 164t34 162.5t62.5 151.5t99 125.5t139 90.5q101 43 219 43q198 0 328 -107t192 -299q44 -141 44 -331q0 -116 -18 -220.5t-60.5 -200t-106 -165t-160.5 -110.5t-219 -41zM614 244
q36 0 64 17t44 41t28 60.5t17 64t9 63.5q10 84 10 219q0 251 -42 363q-39 104 -130 104q-35 0 -63 -17.5t-44 -41.5t-28 -61t-17 -64.5t-9 -63.5q-11 -93 -11 -219q0 -367 96 -441q32 -24 76 -24z" />
    <glyph glyph-name="uni0031" unicode="1" horiz-adv-x="1229" 
d="M901 0h-393v1047l-248 -136h-82v273l445 250h278v-1434z" />
    <glyph glyph-name="uni0032" unicode="2" horiz-adv-x="1229" 
d="M1110 295v-295h-1010v299l394 373q119 111 174 190q53 81 53 150q0 77 -49 112t-129 35q-143 0 -264 -96h-138v262q96 61 213.5 94t235.5 33q520 0 520 -420q0 -48 -11.5 -95t-27 -85t-45.5 -81.5t-53.5 -72.5t-65 -70.5t-65.5 -63.5t-70 -62l-233 -207h571z" />
    <glyph glyph-name="uni0033" unicode="3" horiz-adv-x="1229" 
d="M526 -18q-127 0 -230 22.5t-198 79.5v256h144q44 -44 112 -65t140 -21q45 0 85 9.5t73.5 29.5t53 55.5t19.5 81.5q0 50 -17.5 84t-50 51.5t-69.5 24t-86 6.5h-115v256h102q230 0 230 162q0 80 -48 117.5t-130 37.5q-143 0 -258 -79h-136v243q192 119 441 119
q82 0 153.5 -11.5t136.5 -40t111 -71.5t73.5 -110t27.5 -152q0 -254 -269 -326v-8q293 -47 293 -325q0 -94 -35.5 -169t-93 -122t-136 -78.5t-158 -44t-165.5 -12.5z" />
    <glyph glyph-name="uni0034" unicode="4" horiz-adv-x="1229" 
d="M1032 0h-387v299h-569v293l590 842h366v-885h144v-250h-144v-299zM330 557v-8h323v465h-8z" />
    <glyph glyph-name="uni0035" unicode="5" horiz-adv-x="1229" 
d="M1124 469q0 -103 -34.5 -186.5t-92 -138.5t-136.5 -92t-165 -53.5t-180 -16.5q-122 0 -221 22t-193 76v264h142q95 -88 252 -88q108 0 175.5 53.5t67.5 155.5q0 92 -45.5 143t-134.5 51q-116 0 -197 -81h-219v856h901v-295h-628v-293h6q97 74 260 74q214 0 328 -120.5
t114 -330.5z" />
    <glyph glyph-name="uni0036" unicode="6" horiz-adv-x="1229" 
d="M639 -18q-126 0 -226 37.5t-165.5 102t-109 155t-62.5 191.5t-19 216q0 358 182.5 563t526.5 205q195 0 334 -66v-270h-142q-66 58 -186 58q-85 0 -146.5 -27t-97.5 -79.5t-55 -112.5t-29 -142q118 98 308 98q206 0 318 -117.5t112 -318.5q0 -158 -74.5 -271.5
t-195.5 -167.5t-273 -54zM633 668q-108 0 -197 -60q9 -303 115 -360q35 -21 82 -21q54 0 90.5 18.5t55 52.5t25.5 72.5t7 88.5q0 209 -178 209z" />
    <glyph glyph-name="uni0037" unicode="7" horiz-adv-x="1229" 
d="M260 0v123l541 999v8h-695v304h1004v-324l-461 -1110h-389z" />
    <glyph glyph-name="uni0038" unicode="8" horiz-adv-x="1229" 
d="M614 -18q-90 0 -168 13t-150 44.5t-123 79t-81.5 121t-30.5 166.5q0 268 261 354v8q-211 74 -211 299q0 82 29.5 148t78.5 109.5t115 73t136 42t144 12.5q96 0 183.5 -22t161 -66t117.5 -120.5t44 -176.5q0 -115 -52 -188t-161 -111v-8q131 -44 194.5 -130.5t63.5 -223.5
q0 -95 -31.5 -169.5t-83 -121.5t-124.5 -77.5t-149 -43t-163 -12.5zM614 227q96 0 144.5 56t48.5 151q0 99 -49.5 154t-143.5 55q-97 0 -145.5 -56.5t-48.5 -152.5q0 -98 50 -152.5t144 -54.5zM614 870q78 0 119 43t41 121q0 79 -41 123.5t-119 44.5t-118.5 -44.5
t-40.5 -123.5q0 -78 41 -121t118 -43z" />
    <glyph glyph-name="uni0039" unicode="9" horiz-adv-x="1229" 
d="M455 -18q-196 0 -342 59v276h141q69 -59 199 -59q88 0 150.5 24.5t98.5 73t54.5 108.5t25.5 144q-121 -88 -303 -88q-206 0 -321 115.5t-115 316.5q0 158 75 273t197 171t275 56q126 0 226 -38t166 -102t109 -155t61.5 -192t18.5 -217q0 -369 -181 -567.5t-535 -198.5z
M594 764q102 0 197 57q-9 306 -114 365q-37 20 -83 20q-180 0 -180 -237q0 -205 180 -205z" />
    <glyph glyph-name="uni003A" unicode=":" horiz-adv-x="614" 
d="M307 567q-79 0 -135.5 53.5t-56.5 131.5q0 79 56.5 133.5t135.5 54.5t136 -55t57 -133t-57.5 -131.5t-135.5 -53.5zM307 -14q-79 0 -135.5 54t-56.5 132q0 79 56.5 132.5t135.5 53.5q80 0 136.5 -53.5t56.5 -132.5t-57 -132.5t-136 -53.5z" />
    <glyph glyph-name="uni003B" unicode=";" horiz-adv-x="614" 
d="M111 -236v152q137 20 137 82q0 15 -6 24q-10 10 -17 15q-4 2 -12 6.5t-12 6.5q-15 7 -27 16q-28 20 -45 51q-18 30 -18 80q0 74 55.5 117.5t130.5 43.5q99 0 151 -63t52 -162q0 -179 -101 -264.5t-288 -104.5zM307 567q-79 0 -135.5 53.5t-56.5 131.5q0 79 56.5 133.5
t135.5 54.5t136 -55t57 -133t-57.5 -131.5t-135.5 -53.5z" />
    <glyph glyph-name="uni003F" unicode="?" horiz-adv-x="950" 
d="M502 446h-266q-11 66 -10 110q2 77 36 136.5t98 122.5q42 40 61 59q99 99 99 183q0 59 -38 88t-99 29q-129 0 -211 -82h-139v251q173 109 395 109q101 0 183 -19.5t149 -62t104 -118.5t37 -181q0 -63 -16 -115.5t-49.5 -96.5t-69.5 -77t-90 -73q-39 -29 -77 -61
q-70 -58 -90 -121q-11 -37 -7 -81zM377 -14q-79 0 -136 54t-57 132q0 79 57 132.5t136 53.5t135.5 -54t56.5 -132q0 -79 -56.5 -132.5t-135.5 -53.5z" />
    <glyph glyph-name="uni0041" unicode="A" horiz-adv-x="1421" 
d="M39 0v92l457 1342h426l462 -1342v-92h-380l-101 324h-457l-96 -324h-311zM672 1073l-146 -483h297l-147 483h-4z" />
    <glyph glyph-name="uni0042" unicode="B" horiz-adv-x="1284" 
d="M115 0v1434h536q86 0 157 -8.5t143.5 -33t121.5 -64.5t80 -109t31 -160q0 -242 -258 -301v-8q311 -60 311 -334q0 -96 -34.5 -170t-89.5 -119.5t-132 -75t-154.5 -40.5t-164.5 -11h-547zM500 254h145q197 0 197 184q0 183 -197 183h-145v-367zM500 860h133q88 0 132 37
t44 123q0 158 -174 158h-135v-318z" />
    <glyph glyph-name="uni0043" unicode="C" horiz-adv-x="1300" 
d="M760 -18q-226 0 -386 92t-239.5 254.5t-79.5 380.5q0 346 199.5 544.5t538.5 198.5q247 0 430 -102v-273h-152q-102 94 -268 94q-78 0 -138.5 -24.5t-99 -66t-63.5 -100t-35 -121.5t-10 -136q0 -77 7.5 -139.5t29 -125.5t57 -106t95 -69.5t138.5 -26.5q187 0 312 125h139
v-260q-191 -139 -475 -139z" />
    <glyph glyph-name="uni0044" unicode="D" horiz-adv-x="1436" 
d="M115 0v1434h508q368 0 563.5 -173.5t195.5 -535.5q0 -369 -199 -547t-573 -178h-495zM508 264h96q90 0 157 22.5t108.5 60.5t67 97t35 123.5t9.5 147.5q0 112 -18 191.5t-60 138.5t-116 87.5t-183 28.5h-96v-897z" />
    <glyph glyph-name="uni0045" unicode="E" horiz-adv-x="1190" 
d="M115 0v1434h987v-275h-596v-305h420v-258h-420v-330h616v-266h-1007z" />
    <glyph glyph-name="uni0046" unicode="F" horiz-adv-x="1169" 
d="M508 0h-393v1434h993v-275h-600v-342h461v-262h-461v-555z" />
    <glyph glyph-name="uni0047" unicode="G" horiz-adv-x="1395" 
d="M760 -18q-353 0 -530 191t-177 536q0 360 200 551.5t552 191.5q239 0 430 -90v-283h-145q-55 41 -111 64q-75 26 -170 26q-84 0 -147.5 -25t-101.5 -65.5t-61 -101t-31.5 -123t-8.5 -139.5q0 -52 2.5 -95t10 -93t21 -89t36 -76.5t53.5 -62.5t75.5 -40t100.5 -15
q93 0 164 20v262h-170v238h542v-674q-220 -108 -534 -108z" />
    <glyph glyph-name="uni0048" unicode="H" horiz-adv-x="1456" 
d="M508 0h-393v1434h393v-566h440v566h393v-1434h-393v592h-440v-592z" />
    <glyph glyph-name="uni0049" unicode="I" horiz-adv-x="637" 
d="M516 0h-395v1434h395v-1434z" />
    <glyph glyph-name="uni004A" unicode="J" horiz-adv-x="1004" 
d="M383 -18q-214 0 -350 86v264h135q9 -9 31 -25q14 -12 40 -22q45 -21 113 -21q152 0 152 148v1022h393v-1022q0 -430 -514 -430z" />
    <glyph glyph-name="uni004B" unicode="K" horiz-adv-x="1419" 
d="M115 0v1434h393v-584l485 584h338v-88l-416 -480l459 -778v-88h-383l-352 596l-131 -143v-453h-393z" />
    <glyph glyph-name="uni004C" unicode="L" horiz-adv-x="1130" 
d="M1071 0h-956v1434h393v-1164h563v-270z" />
    <glyph glyph-name="uni004D" unicode="M" horiz-adv-x="1804" 
d="M115 0v1434h514l272 -852h6l273 852h510v-1434h-385v989h-7l-321 -989h-225l-318 989h-6v-989h-313z" />
    <glyph glyph-name="uni004E" unicode="N" horiz-adv-x="1448" 
d="M115 0v1434h420l469 -830h6v830h323v-1434h-356l-535 940h-6v-940h-321z" />
    <glyph glyph-name="uni004F" unicode="O" horiz-adv-x="1520" 
d="M760 -18q-216 0 -378 96t-245.5 261.5t-83.5 375.5q0 214 86.5 381t248 261.5t372.5 94.5q225 0 396 -109.5t256 -312.5q56 -139 56 -315q0 -327 -194.5 -530t-513.5 -203zM760 250q73 0 129 29t89 74.5t54 109t28 123t7 125.5q0 68 -7.5 128.5t-28.5 124t-54 109
t-89 74.5t-128 29q-61 0 -110.5 -20t-82 -56t-55.5 -80.5t-35.5 -99t-18 -105t-5.5 -104.5q0 -67 7.5 -128t29 -123.5t54.5 -107.5t88.5 -73.5t127.5 -28.5z" />
    <glyph glyph-name="uni0050" unicode="P" horiz-adv-x="1268" 
d="M115 0v1434h526q129 0 229.5 -22t183.5 -73.5t128 -145t45 -226.5q0 -463 -600 -463h-119v-504h-393zM506 1169v-419h119q112 0 162.5 53t50.5 162q0 113 -51 158.5t-162 45.5h-119z" />
    <glyph glyph-name="uni0051" unicode="Q" horiz-adv-x="1520" 
d="M1389 -244l-668 181q-165 44 -286 108.5t-208 158.5t-130.5 223t-43.5 294q0 159 51 294.5t143 231.5t224 150.5t289 54.5q224 0 397 -109.5t255 -311.5q56 -138 56 -314q0 -210 -94.5 -365.5t-281.5 -228.5v-6l424 -64v-297h-127zM760 244q74 0 130 30t89 76t53.5 110
t27.5 124t7 127q0 68 -7.5 128.5t-28.5 124t-54 109t-89 74.5t-128 29q-61 0 -110.5 -20t-82 -56t-55.5 -80.5t-35.5 -99t-18 -105t-5.5 -104.5q0 -68 7.5 -129t28.5 -124.5t54 -109.5t88.5 -75t128.5 -29z" />
    <glyph glyph-name="uni0052" unicode="R" horiz-adv-x="1348" 
d="M934 0l-277 526h-149v-526h-393v1434h538q94 0 174.5 -12t156 -43.5t128 -80t84 -126t31.5 -177.5q0 -263 -213 -383l284 -520v-92h-364zM504 1167v-385h125q103 0 156 46t53 147t-53 146.5t-156 45.5h-125z" />
    <glyph glyph-name="uni0053" unicode="S" horiz-adv-x="1135" 
d="M514 -18q-275 0 -469 114v273h145q115 -115 310 -115q40 0 75 5.5t70.5 20t56.5 44t21 71.5q0 45 -20 74q-23 29 -58 45.5t-86 30.5q-69 17 -110 28q-102 26 -172.5 59t-124.5 84t-79.5 125t-25.5 175q0 94 30 169t80 124t120 82t146.5 47t162.5 14q259 0 426 -96v-264
h-142q-115 88 -270 88q-209 0 -209 -133q0 -56 35 -83.5t98 -47.5q41 -13 103 -27q65 -15 114.5 -29.5t99 -35t85.5 -45t67.5 -58t50.5 -74.5t30 -94.5t11 -118.5q0 -101 -31.5 -179.5t-84.5 -129t-127.5 -83.5t-155 -46.5t-172.5 -13.5z" />
    <glyph glyph-name="uni0054" unicode="T" horiz-adv-x="1235" 
d="M814 0h-393v1161h-370v273h1133v-273h-370v-1161z" />
    <glyph glyph-name="uni0055" unicode="U" horiz-adv-x="1419" 
d="M750 268q71 0 118 19.5t71.5 59t34 86.5t9.5 114v887h326v-889q0 -561 -584 -561q-290 0 -453 138.5t-163 422.5v889h393v-887q0 -144 56 -211.5t192 -67.5z" />
    <glyph glyph-name="uni0056" unicode="V" horiz-adv-x="1403" 
d="M489 0l-454 1341v93h383l305 -983h4l309 983h330v-93l-455 -1341h-422z" />
    <glyph glyph-name="uni0057" unicode="W" horiz-adv-x="1933" 
d="M358 0l-319 1341v93h381l192 -945h4l220 945h311l225 -945h4l187 945h331v-93l-321 -1341h-414l-194 842h-4l-195 -842h-408z" />
    <glyph glyph-name="uni0058" unicode="X" horiz-adv-x="1395" 
d="M51 0v96l381 645l-371 596v97h390l280 -469l252 469h322v-97l-351 -600l389 -641v-96h-387l-303 514l-278 -514h-324z" />
    <glyph glyph-name="uni0059" unicode="Y" horiz-adv-x="1305" 
d="M860 0h-393v532l-438 805v97h368l287 -560h4l277 560h311v-97l-416 -794v-543z" />
    <glyph glyph-name="uni005A" unicode="Z" horiz-adv-x="1171" 
d="M53 0v285l637 868v8h-592v273h1014v-295l-637 -863v-8h637v-268h-1059z" />
    <glyph glyph-name="uni0061" unicode="a" horiz-adv-x="1133" 
d="M1040 0h-200q-61 0 -96 22.5t-52 79.5q-106 -116 -309 -116q-154 0 -248 86t-94 235q0 92 35.5 159.5t97 104.5t134 54.5t157.5 17.5q101 0 207 -20v73q0 81 -48 109.5t-135 28.5q-149 0 -256 -72h-110v248q196 86 438 86q87 0 156 -10t131 -35.5t103 -67t65 -107
t24 -153.5v-723zM528 201q78 0 144 59v191q-68 10 -121 10q-160 0 -160 -129q0 -64 36 -97.5t101 -33.5z" />
    <glyph glyph-name="uni0062" unicode="b" horiz-adv-x="1243" 
d="M467 1241v-270q139 125 321 125q91 0 162.5 -31t117 -81.5t75 -121.5t41.5 -144.5t12 -156.5q0 -85 -14 -164t-44.5 -155.5t-88 -135.5t-135.5 -89q-82 -33 -175 -33q-204 0 -321 122q-22 -42 -55.5 -74t-73.5 -32h-191v1434h234q65 0 93 -18t37 -76q5 -42 5 -99z
M621 821q-74 0 -154 -35v-516q67 -45 149 -45q64 0 107.5 26t64 73.5t28 95t7.5 108.5q0 243 -123 282q-39 11 -79 11z" />
    <glyph glyph-name="uni0063" unicode="c" horiz-adv-x="1040" 
d="M616 -16q-273 0 -424 144.5t-151 408.5q0 133 46 240t127 176.5t189.5 106t235.5 36.5q198 0 342 -76v-252h-133q-75 68 -193 68q-65 0 -113 -25.5t-74.5 -70t-39 -96.5t-12.5 -112q0 -63 12 -113.5t38 -92.5t72 -65t109 -23q132 0 215 75h123v-231q-151 -98 -369 -98z
" />
    <glyph glyph-name="uni0064" unicode="d" horiz-adv-x="1243" 
d="M1145 0h-260q-41 0 -61 23q-25 25 -36 90q-117 -131 -311 -131q-92 0 -166.5 30.5t-123 82t-80.5 122t-46 147t-14 160.5q0 86 14.5 165.5t46.5 155t90 134t137 88.5q81 29 161 29q89 0 156 -23t124 -80v441h234q63 0 93 -18.5t37 -75.5q5 -42 5 -99v-1241zM606 225
q94 0 170 66v493q-58 37 -145 37q-51 0 -89.5 -16.5t-61.5 -43t-36.5 -66t-18.5 -78t-5 -85.5t3 -84t14 -81t30 -73t54.5 -49t84.5 -20z" />
    <glyph glyph-name="uni0065" unicode="e" horiz-adv-x="1141" 
d="M1096 459h-682q14 -127 72.5 -178.5t181.5 -51.5q162 0 274 80h115v-219q-187 -106 -447 -106q-271 0 -420 143t-149 405q0 256 150.5 410t400.5 154q508 0 508 -543q0 -24 -2 -58zM592 870q-47 0 -80.5 -18.5t-52.5 -52t-28.5 -68.5t-14.5 -80h336q-3 49 -9.5 83.5
t-23 68t-48.5 50.5t-79 17z" />
    <glyph glyph-name="uni0066" unicode="f" horiz-adv-x="733" 
d="M25 842v237h116v66q0 313 369 313q116 0 197 -31v-204h-72q-62 0 -93.5 -18.5t-31.5 -74.5v-51h184v-237h-184v-842h-369v842h-116z" />
    <glyph glyph-name="uni0067" unicode="g" horiz-adv-x="1243" 
d="M1145 1079v-997q0 -99 -35.5 -176t-92.5 -124t-137 -77t-160.5 -41.5t-170.5 -11.5q-279 0 -447 82v250h115q120 -76 285 -76q57 0 99.5 6.5t85.5 24.5t66 56.5t23 96.5v53q-112 -92 -289 -92q-115 0 -201.5 38t-137.5 107t-76 157.5t-25 197.5q0 116 28 213t83.5 171.5
t145.5 116.5t206 42q92 0 163 -28.5t134 -92.5q36 104 139 104h199zM614 287q88 0 162 55v438q-65 41 -149 41q-60 0 -102 -20t-64 -57t-31.5 -80.5t-9.5 -100.5q0 -163 49 -221q43 -55 145 -55z" />
    <glyph glyph-name="uni0068" unicode="h" horiz-adv-x="1233" 
d="M467 1241v-287q172 142 381 142q293 0 293 -305v-791h-369v694q0 48 -14.5 76t-55.5 38q-27 5 -57 5q-78 0 -178 -35v-778h-369v1434h234q65 0 93 -18t37 -76q5 -42 5 -99z" />
    <glyph glyph-name="uni0069" unicode="i" horiz-adv-x="569" 
d="M467 0h-367v1079h238q40 0 67 -8q50 -18 58 -95q4 -36 4 -104v-872zM285 1145q-79 0 -135 48t-56 124q0 78 56.5 126t134.5 48q80 0 135 -48t55 -126t-55.5 -125t-134.5 -47z" />
    <glyph glyph-name="uni006A" unicode="j" horiz-adv-x="569" 
d="M-80 -319v200h57q68 0 95.5 27.5t27.5 95.5v1075h238q62 0 90 -23t35 -82q4 -36 4 -102v-886q0 -178 -91 -255t-267 -77q-115 0 -189 27zM285 1145q-79 0 -135 48t-56 124q0 78 56.5 126t134.5 48q80 0 135 -48t55 -126t-55.5 -125t-134.5 -47z" />
    <glyph glyph-name="uni006B" unicode="k" horiz-adv-x="1184" 
d="M467 1241v-563l336 401h307v-88l-297 -338l338 -565v-88h-346l-250 420l-88 -96v-324h-369v1434h234q65 0 93 -18t37 -76q5 -42 5 -99z" />
    <glyph glyph-name="uni006C" unicode="l" horiz-adv-x="573" 
d="M471 0h-369v1434h234q64 0 93.5 -18t36.5 -76q5 -42 5 -99v-1241z" />
    <glyph glyph-name="uni006D" unicode="m" horiz-adv-x="1862" 
d="M98 1079h256q45 0 69 -24q26 -30 36 -109q77 71 173.5 110.5t198.5 39.5q206 0 265 -154q172 154 387 154q286 0 286 -305v-791h-368v694q0 66 -27.5 92.5t-93.5 26.5q-78 0 -162 -33v-780h-368v694q0 66 -27.5 92.5t-93.5 26.5q-59 0 -162 -31v-782h-369v1079z" />
    <glyph glyph-name="uni006E" unicode="n" horiz-adv-x="1233" 
d="M98 1079h256q45 0 69 -24q25 -31 36 -107q177 148 389 148q293 0 293 -305v-791h-369v694q0 48 -14.5 76t-55.5 38q-27 5 -57 5q-78 0 -178 -35v-778h-369v1079z" />
    <glyph glyph-name="uni006F" unicode="o" horiz-adv-x="1231" 
d="M616 -16q-255 0 -415 151.5t-160 399.5q0 253 162.5 407t412.5 154q254 0 414 -156t160 -405q0 -168 -76 -294.5t-205.5 -191.5t-292.5 -65zM616 225q60 0 102 28t62 76t28.5 96.5t8.5 104.5q0 44 -5 84.5t-18.5 84t-35 74.5t-58 51t-84.5 20t-85 -20.5t-58.5 -52
t-35 -74.5t-18.5 -83t-5 -84q0 -57 9 -106.5t30 -96.5t62.5 -74.5t100.5 -27.5z" />
    <glyph glyph-name="uni0070" unicode="p" horiz-adv-x="1243" 
d="M731 10q-167 0 -264 76v-418h-369v1411h256q35 0 56 -12.5t33 -44.5q8 -25 14 -59q141 133 331 133q139 0 233.5 -73t139.5 -205q35 -102 35 -249q0 -85 -15 -163t-47 -152t-91 -130.5t-138 -83.5q-84 -30 -174 -30zM623 821q-75 0 -156 -35v-495q60 -43 149 -43
q52 0 90 17t60 43t35.5 65.5t17.5 77.5t4 86q0 61 -8 107t-28.5 88.5t-62 65.5t-101.5 23z" />
    <glyph glyph-name="uni0071" unicode="q" horiz-adv-x="1243" 
d="M776 -332v436q-110 -94 -289 -94q-115 0 -202 42.5t-137.5 117t-75.5 166t-25 199.5q0 94 16.5 176t52.5 153.5t89 122.5t131 80t174 29q94 0 164 -30t133 -97q41 110 139 110h199v-1411h-369zM614 250q88 0 162 55v475q-65 41 -149 41q-207 0 -207 -274q0 -245 107 -283
q37 -14 87 -14z" />
    <glyph glyph-name="uni0072" unicode="r" horiz-adv-x="850" 
d="M821 784h-49q-187 0 -305 -51v-733h-369v1079h256q21 0 39 -5q55 -20 66 -142q122 155 297 155q12 0 34 -2q11 -2 31 -6v-295z" />
    <glyph glyph-name="uni0073" unicode="s" horiz-adv-x="961" 
d="M440 -14q-113 0 -204 19.5t-185 66.5v241h125q44 -39 113 -59.5t137 -20.5q160 0 160 78q0 21 -7.5 35.5t-22.5 23.5t-28.5 13t-35.5 9q-53 11 -93 16q-87 11 -149 31.5t-111 58t-73.5 98t-24.5 145.5q0 77 26 138.5t69 101t103 65.5t123 37t134 11q214 0 364 -72v-238
h-117q-98 66 -237 66q-141 0 -141 -78q0 -17 10 -30q9 -13 31 -22q35 -18 143 -32q94 -12 156.5 -30.5t114.5 -55t77 -98.5t25 -152q0 -84 -27.5 -149.5t-72.5 -105.5t-109 -65.5t-130 -35.5t-143 -10z" />
    <glyph glyph-name="uni0074" unicode="t" horiz-adv-x="754" 
d="M25 842v237h116v275h369v-275h201v-237h-201v-492q0 -71 30.5 -99t102.5 -28h72v-213q-98 -28 -211 -28q-178 0 -270.5 73t-92.5 240v547h-116z" />
    <glyph glyph-name="uni0075" unicode="u" horiz-adv-x="1249" 
d="M608 254q69 0 168 35v790h367v-1079h-256q-48 0 -67 21q-14 14 -21 37q-9 24 -15 63q-181 -137 -368 -137q-316 0 -316 309v786h369v-702q0 -40 10 -63q14 -37 47.5 -48.5t81.5 -11.5z" />
    <glyph glyph-name="uni0076" unicode="v" horiz-adv-x="1176" 
d="M412 0l-381 995v84h352l231 -673h4l213 673h314v-84l-369 -995h-364z" />
    <glyph glyph-name="uni0077" unicode="w" horiz-adv-x="1675" 
d="M328 0l-293 993v86h354l156 -622h4l182 622h270l173 -622h4l165 622h297v-86l-301 -993h-327l-174 594h-4l-183 -594h-323z" />
    <glyph glyph-name="uni0078" unicode="x" horiz-adv-x="1169" 
d="M39 0v86l301 465l-281 442v86h361l194 -331l181 331h301v-86l-258 -422l292 -485v-86h-358l-209 365l-209 -365h-315z" />
    <glyph glyph-name="uni0079" unicode="y" horiz-adv-x="1165" 
d="M279 -332v84l141 299l-389 944v84h350l225 -612h6l209 612h316v-84l-525 -1327h-333z" />
    <glyph glyph-name="uni007A" unicode="z" horiz-adv-x="1040" 
d="M51 0v248l506 577h-479v254h903v-254l-508 -575h498v-250h-920z" />
    <glyph glyph-name="uni00A0" unicode="&#xa0;" horiz-adv-x="385" 
 />
    <glyph glyph-name="uni00C0" unicode="&#xc0;" horiz-adv-x="1421" 
d="M39 0v92l457 1342h426l462 -1342v-92h-380l-101 324h-457l-96 -324h-311zM672 1073l-146 -483h297l-147 483h-4zM827 1481h-215l-209 190v86h355l69 -209v-67z" />
    <glyph glyph-name="uni00C1" unicode="&#xc1;" horiz-adv-x="1421" 
d="M39 0v92l457 1342h426l462 -1342v-92h-380l-101 324h-457l-96 -324h-311zM672 1073l-146 -483h297l-147 483h-4zM582 1481v67l67 209h355v-86l-207 -190h-215z" />
    <glyph glyph-name="uni00C2" unicode="&#xc2;" horiz-adv-x="1421" 
d="M55 0v92l457 1342h426l462 -1342v-92h-380l-101 324h-457l-96 -324h-311zM688 1073l-146 -483h297l-147 483h-4zM411 1481v78l187 204h247l183 -204v-78h-199l-115 78l-112 -78h-191z" />
    <glyph glyph-name="uni00C3" unicode="&#xc3;" horiz-adv-x="1421" 
d="M39 0v92l457 1342h426l462 -1342v-92h-380l-101 324h-457l-96 -324h-311zM672 1073l-146 -483h297l-147 483h-4zM352 1481v82q16 97 70 154t147 57q55 0 132 -25q9 -3 26.5 -8.5t25.5 -8.5q24 -8 42 -8q25 0 41 14q15 15 22 36h184v-82q-15 -96 -68.5 -153.5
t-146.5 -57.5q-39 0 -70 9q-52 12 -113 36q-26 8 -42 8q-53 0 -65 -53h-185z" />
    <glyph glyph-name="uni00C4" unicode="&#xc4;" horiz-adv-x="1421" 
d="M39 0v92l457 1342h426l462 -1342v-92h-380l-101 324h-457l-96 -324h-311zM672 1073l-146 -483h297l-147 483h-4zM496 1481q-74 0 -124 45t-50 116q0 74 50 118t124 44t123 -45t49 -117t-50 -116.5t-122 -44.5zM913 1481q-73 0 -122.5 45t-49.5 116q0 73 49.5 117.5
t122.5 44.5q75 0 126 -45q49 -49 49 -117q0 -73 -51 -117t-124 -44z" />
    <glyph glyph-name="uni00C5" unicode="&#xc5;" horiz-adv-x="1421" 
d="M39 0v92l457 1342h426l462 -1342v-92h-380l-101 324h-457l-96 -324h-311zM672 1073l-146 -483h297l-147 483h-4zM703 1481q-94 0 -157 58.5t-63 150.5t64 150.5t156 58.5q93 0 156 -59t63 -150q0 -93 -63 -151t-156 -58zM703 1616q32 0 50.5 20.5t18.5 53.5t-18.5 53.5
t-50.5 20.5t-50 -20.5t-18 -53.5t18 -53.5t50 -20.5z" />
    <glyph glyph-name="uni00C6" unicode="&#xc6;" horiz-adv-x="1972" 
d="M897 0v338h-418l-155 -338h-306v92l652 1342h1214v-275h-596v-305h418v-258h-418v-330h617v-266h-1008zM856 1159l-256 -557h297v557h-41z" />
    <glyph glyph-name="uni00C7" unicode="&#xc7;" horiz-adv-x="1292" 
d="M1235 381v-260q-182 -131 -447 -139v-31q166 -9 166 -150q0 -46 -20.5 -78.5t-55.5 -49.5t-72.5 -24t-80.5 -7q-95 0 -168 32v127h64q8 -7 28 -16q17 -6 39 -6q53 0 53 33q0 15 -14 23q-13 9 -49 9h-45v146q-193 26 -325 128t-192.5 251.5t-60.5 339.5q0 346 199.5 544.5
t538.5 198.5q247 0 430 -102v-273h-152q-102 94 -268 94q-78 0 -138.5 -24.5t-99 -66t-63.5 -100t-35 -121.5t-10 -136q0 -77 7.5 -139.5t29 -125.5t57 -106t95 -69.5t138.5 -26.5q187 0 312 125h139z" />
    <glyph glyph-name="uni00C8" unicode="&#xc8;" horiz-adv-x="1190" 
d="M115 0v1434h987v-275h-596v-305h420v-258h-420v-330h616v-266h-1007zM755 1481h-215l-209 190v86h355l69 -209v-67z" />
    <glyph glyph-name="uni00C9" unicode="&#xc9;" horiz-adv-x="1190" 
d="M115 0v1434h987v-275h-596v-305h420v-258h-420v-330h616v-266h-1007zM516 1481v67l67 209h355v-86l-207 -190h-215z" />
    <glyph glyph-name="uni00CA" unicode="&#xca;" horiz-adv-x="1190" 
d="M115 0v1434h987v-275h-596v-305h420v-258h-420v-330h616v-266h-1007zM323 1481v78l187 204h247l183 -204v-78h-199l-115 78l-112 -78h-191z" />
    <glyph glyph-name="uni00CB" unicode="&#xcb;" horiz-adv-x="1190" 
d="M115 0v1434h987v-275h-596v-305h420v-258h-420v-330h616v-266h-1007zM424 1481q-74 0 -124 45t-50 116q0 74 50 118t124 44t123 -45t49 -117t-50 -116.5t-122 -44.5zM841 1481q-73 0 -122.5 45t-49.5 116q0 73 49.5 117.5t122.5 44.5q75 0 126 -45q49 -49 49 -117
q0 -73 -51 -117t-124 -44z" />
    <glyph glyph-name="uni00CC" unicode="&#xcc;" horiz-adv-x="637" 
d="M516 0h-395v1434h395v-1434zM442 1481h-215l-209 190v86h355l69 -209v-67z" />
    <glyph glyph-name="uni00CD" unicode="&#xcd;" horiz-adv-x="637" 
d="M516 0h-395v1434h395v-1434zM203 1481v67l67 209h355v-86l-207 -190h-215z" />
    <glyph glyph-name="uni00CE" unicode="&#xce;" horiz-adv-x="637" 
d="M516 0h-395v1434h395v-1434zM10 1481v78l187 204h247l183 -204v-78h-199l-115 78l-112 -78h-191z" />
    <glyph glyph-name="uni00CF" unicode="&#xcf;" horiz-adv-x="637" 
d="M516 0h-395v1434h395v-1434zM109 1481q-74 0 -124 45t-50 116q0 74 50 118t124 44t123 -45t49 -117t-50 -116.5t-122 -44.5zM526 1481q-73 0 -122.5 45t-49.5 116q0 73 49.5 117.5t122.5 44.5q75 0 126 -45q49 -49 49 -117q0 -73 -51 -117t-124 -44z" />
    <glyph glyph-name="uni00D1" unicode="&#xd1;" horiz-adv-x="1448" 
d="M115 0v1434h420l469 -830h6v830h323v-1434h-356l-535 940h-6v-940h-321zM411 1481v82q16 97 70 154t147 57q55 0 132 -25q10 -3 27 -8.5t25 -8.5q24 -8 42 -8q25 0 41 14q15 15 22 36h184v-82q-15 -96 -68.5 -153.5t-146.5 -57.5q-38 0 -70 9q-52 12 -113 36q-26 8 -42 8
q-53 0 -65 -53h-185z" />
    <glyph glyph-name="uni00D2" unicode="&#xd2;" horiz-adv-x="1520" 
d="M760 -18q-216 0 -378 96t-245.5 261.5t-83.5 375.5q0 214 86.5 381t248 261.5t372.5 94.5q225 0 396 -109.5t256 -312.5q56 -139 56 -315q0 -327 -194.5 -530t-513.5 -203zM760 250q73 0 129 29t89 74.5t54 109t28 123t7 125.5q0 68 -7.5 128.5t-28.5 124t-54 109
t-89 74.5t-128 29q-61 0 -110.5 -20t-82 -56t-55.5 -80.5t-35.5 -99t-18 -105t-5.5 -104.5q0 -67 7.5 -128t29 -123.5t54.5 -107.5t88.5 -73.5t127.5 -28.5zM882 1481h-215l-209 190v86h355l69 -209v-67z" />
    <glyph glyph-name="uni00D3" unicode="&#xd3;" horiz-adv-x="1520" 
d="M760 -18q-216 0 -378 96t-245.5 261.5t-83.5 375.5q0 214 86.5 381t248 261.5t372.5 94.5q225 0 396 -109.5t256 -312.5q56 -139 56 -315q0 -327 -194.5 -530t-513.5 -203zM760 250q73 0 129 29t89 74.5t54 109t28 123t7 125.5q0 68 -7.5 128.5t-28.5 124t-54 109
t-89 74.5t-128 29q-61 0 -110.5 -20t-82 -56t-55.5 -80.5t-35.5 -99t-18 -105t-5.5 -104.5q0 -67 7.5 -128t29 -123.5t54.5 -107.5t88.5 -73.5t127.5 -28.5zM643 1481v67l67 209h355v-86l-207 -190h-215z" />
    <glyph glyph-name="uni00D4" unicode="&#xd4;" horiz-adv-x="1520" 
d="M760 -18q-216 0 -378 96t-245.5 261.5t-83.5 375.5q0 214 86.5 381t248 261.5t372.5 94.5q225 0 396 -109.5t256 -312.5q56 -139 56 -315q0 -327 -194.5 -530t-513.5 -203zM760 250q73 0 129 29t89 74.5t54 109t28 123t7 125.5q0 68 -7.5 128.5t-28.5 124t-54 109
t-89 74.5t-128 29q-61 0 -110.5 -20t-82 -56t-55.5 -80.5t-35.5 -99t-18 -105t-5.5 -104.5q0 -67 7.5 -128t29 -123.5t54.5 -107.5t88.5 -73.5t127.5 -28.5zM450 1481v78l187 204h247l183 -204v-78h-199l-115 78l-112 -78h-191z" />
    <glyph glyph-name="uni00D5" unicode="&#xd5;" horiz-adv-x="1520" 
d="M760 -18q-216 0 -378 96t-245.5 261.5t-83.5 375.5q0 214 86.5 381t248 261.5t372.5 94.5q225 0 396 -109.5t256 -312.5q56 -139 56 -315q0 -327 -194.5 -530t-513.5 -203zM760 250q73 0 129 29t89 74.5t54 109t28 123t7 125.5q0 68 -7.5 128.5t-28.5 124t-54 109
t-89 74.5t-128 29q-61 0 -110.5 -20t-82 -56t-55.5 -80.5t-35.5 -99t-18 -105t-5.5 -104.5q0 -67 7.5 -128t29 -123.5t54.5 -107.5t88.5 -73.5t127.5 -28.5zM413 1481v82q16 97 70 154t147 57q55 0 132 -25q10 -3 27 -8.5t25 -8.5q24 -8 42 -8q25 0 41 14q15 15 22 36h184
v-82q-15 -96 -68.5 -153.5t-146.5 -57.5q-38 0 -70 9q-52 12 -113 36q-26 8 -42 8q-53 0 -65 -53h-185z" />
    <glyph glyph-name="uni00D6" unicode="&#xd6;" horiz-adv-x="1520" 
d="M760 -18q-216 0 -378 96t-245.5 261.5t-83.5 375.5q0 214 86.5 381t248 261.5t372.5 94.5q225 0 396 -109.5t256 -312.5q56 -139 56 -315q0 -327 -194.5 -530t-513.5 -203zM760 250q73 0 129 29t89 74.5t54 109t28 123t7 125.5q0 68 -7.5 128.5t-28.5 124t-54 109
t-89 74.5t-128 29q-61 0 -110.5 -20t-82 -56t-55.5 -80.5t-35.5 -99t-18 -105t-5.5 -104.5q0 -67 7.5 -128t29 -123.5t54.5 -107.5t88.5 -73.5t127.5 -28.5zM551 1481q-74 0 -124 45t-50 116q0 74 50 118t124 44t123 -45t49 -117t-50 -116.5t-122 -44.5zM968 1481
q-73 0 -122.5 45t-49.5 116q0 73 49.5 117.5t122.5 44.5q75 0 126 -45q49 -49 49 -117q0 -73 -51 -117t-124 -44z" />
    <glyph glyph-name="uni00D9" unicode="&#xd9;" horiz-adv-x="1419" 
d="M750 268q71 0 118 19.5t71.5 59t34 86.5t9.5 114v887h326v-889q0 -561 -584 -561q-290 0 -453 138.5t-163 422.5v889h393v-887q0 -144 56 -211.5t192 -67.5zM864 1481h-215l-209 190v86h355l69 -209v-67z" />
    <glyph glyph-name="uni00DA" unicode="&#xda;" horiz-adv-x="1419" 
d="M750 268q71 0 118 19.5t71.5 59t34 86.5t9.5 114v887h326v-889q0 -561 -584 -561q-290 0 -453 138.5t-163 422.5v889h393v-887q0 -144 56 -211.5t192 -67.5zM625 1481v67l67 209h355v-86l-207 -190h-215z" />
    <glyph glyph-name="uni00DB" unicode="&#xdb;" horiz-adv-x="1419" 
d="M750 268q71 0 118 19.5t71.5 59t34 86.5t9.5 114v887h326v-889q0 -561 -584 -561q-290 0 -453 138.5t-163 422.5v889h393v-887q0 -144 56 -211.5t192 -67.5zM432 1481v78l187 204h247l183 -204v-78h-199l-115 78l-112 -78h-191z" />
    <glyph glyph-name="uni00DC" unicode="&#xdc;" horiz-adv-x="1419" 
d="M750 268q71 0 118 19.5t71.5 59t34 86.5t9.5 114v887h326v-889q0 -561 -584 -561q-290 0 -453 138.5t-163 422.5v889h393v-887q0 -144 56 -211.5t192 -67.5zM531 1481q-74 0 -124 45t-50 116q0 74 50 118t124 44t123 -45t49 -117t-50 -116.5t-122 -44.5zM948 1481
q-73 0 -122.5 45t-49.5 116q0 73 49.5 117.5t122.5 44.5q75 0 126 -45q49 -49 49 -117q0 -73 -51 -117t-124 -44z" />
    <glyph glyph-name="uni00DD" unicode="&#xdd;" horiz-adv-x="1305" 
d="M860 0h-393v532l-438 805v97h368l287 -560h4l277 560h311v-97l-416 -794v-543zM555 1481v67l67 209h355v-86l-207 -190h-215z" />
    <glyph glyph-name="uni00DF" unicode="&#xdf;" horiz-adv-x="1335" 
d="M98 0v1020q0 99 33 176t87.5 125t131 79.5t155.5 43.5t169 12q59 0 112.5 -5t112 -17.5t105.5 -36t85.5 -57.5t60 -85.5t21.5 -115.5q0 -133 -163 -252q-33 -25 -54 -42q-19 -16 -33 -32q-22 -22 -22 -51q0 -24 24 -43q11 -8 38 -22q19 -10 61 -27q73 -31 119 -58.5
t84.5 -67.5t55.5 -93.5t17 -126.5q0 -92 -37 -160.5t-101.5 -106.5t-139 -55.5t-160.5 -17.5q-185 0 -293 69v240h117q15 -13 29 -22q59 -42 135 -42q25 0 49 4.5t46 20.5t22 41q0 32 -35 54q-23 13 -50 24q-11 4 -37 14.5t-40 15.5q-110 41 -170 108t-60 175q0 43 9.5 79
t32 70t41.5 55.5t55 59.5q33 38 40 45q36 40 50 71q6 16 6 38q0 53 -42.5 76.5t-100.5 23.5q-197 0 -197 -192v-1012h-369z" />
    <glyph glyph-name="uni00E0" unicode="&#xe0;" horiz-adv-x="1133" 
d="M1040 0h-200q-61 0 -96 22.5t-52 79.5q-106 -116 -309 -116q-154 0 -248 86t-94 235q0 92 35.5 159.5t97 104.5t134 54.5t157.5 17.5q101 0 207 -20v73q0 81 -48 109.5t-135 28.5q-149 0 -256 -72h-110v248q196 86 438 86q87 0 156 -10t131 -35.5t103 -67t65 -107
t24 -153.5v-723zM528 201q78 0 144 59v191q-68 10 -121 10q-160 0 -160 -129q0 -64 36 -97.5t101 -33.5zM667 1149h-215l-209 203v88h355l69 -223v-68z" />
    <glyph glyph-name="uni00E1" unicode="&#xe1;" horiz-adv-x="1133" 
d="M1040 0h-200q-61 0 -96 22.5t-52 79.5q-106 -116 -309 -116q-154 0 -248 86t-94 235q0 92 35.5 159.5t97 104.5t134 54.5t157.5 17.5q101 0 207 -20v73q0 81 -48 109.5t-135 28.5q-149 0 -256 -72h-110v248q196 86 438 86q87 0 156 -10t131 -35.5t103 -67t65 -107
t24 -153.5v-723zM528 201q78 0 144 59v191q-68 10 -121 10q-160 0 -160 -129q0 -64 36 -97.5t101 -33.5zM668 1149h-215v68l67 223h355v-88z" />
    <glyph glyph-name="uni00E2" unicode="&#xe2;" horiz-adv-x="1133" 
d="M1040 0h-200q-61 0 -96 22.5t-52 79.5q-106 -116 -309 -116q-154 0 -248 86t-94 235q0 92 35.5 159.5t97 104.5t134 54.5t157.5 17.5q101 0 207 -20v73q0 81 -48 109.5t-135 28.5q-149 0 -256 -72h-110v248q196 86 438 86q87 0 156 -10t131 -35.5t103 -67t65 -107
t24 -153.5v-723zM528 201q78 0 144 59v191q-68 10 -121 10q-160 0 -160 -129q0 -64 36 -97.5t101 -33.5zM250 1149v78l187 213h247l183 -213v-78h-199l-115 86l-112 -86h-191z" />
    <glyph glyph-name="uni00E3" unicode="&#xe3;" horiz-adv-x="1133" 
d="M1040 0h-200q-61 0 -96 22.5t-52 79.5q-106 -116 -309 -116q-154 0 -248 86t-94 235q0 92 35.5 159.5t97 104.5t134 54.5t157.5 17.5q101 0 207 -20v73q0 81 -48 109.5t-135 28.5q-149 0 -256 -72h-110v248q196 86 438 86q87 0 156 -10t131 -35.5t103 -67t65 -107
t24 -153.5v-723zM528 201q78 0 144 59v191q-68 10 -121 10q-160 0 -160 -129q0 -64 36 -97.5t101 -33.5zM213 1151v82q16 97 70 155t147 58q57 0 132 -24q69 -25 94 -25q27 0 41 13q15 15 22 36h184v-82q-15 -96 -69 -154.5t-146 -58.5q-38 0 -70 9q-52 12 -113 36
q-26 8 -42 8q-53 0 -65 -53h-185z" />
    <glyph glyph-name="uni00E4" unicode="&#xe4;" horiz-adv-x="1133" 
d="M1040 0h-200q-61 0 -96 22.5t-52 79.5q-106 -116 -309 -116q-154 0 -248 86t-94 235q0 92 35.5 159.5t97 104.5t134 54.5t157.5 17.5q101 0 207 -20v73q0 81 -48 109.5t-135 28.5q-149 0 -256 -72h-110v248q196 86 438 86q87 0 156 -10t131 -35.5t103 -67t65 -107
t24 -153.5v-723zM528 201q78 0 144 59v191q-68 10 -121 10q-160 0 -160 -129q0 -64 36 -97.5t101 -33.5zM349 1147q-74 0 -124 45t-50 117q0 73 50.5 118.5t123.5 45.5q74 0 123 -46t49 -118q0 -73 -49.5 -117.5t-122.5 -44.5zM766 1147q-73 0 -122.5 45t-49.5 117t50 118
t122 46q74 0 124.5 -46t50.5 -118q0 -73 -51 -117.5t-124 -44.5z" />
    <glyph glyph-name="uni00E5" unicode="&#xe5;" horiz-adv-x="1133" 
d="M1040 0h-200q-61 0 -96 22.5t-52 79.5q-106 -116 -309 -116q-154 0 -248 86t-94 235q0 92 35.5 159.5t97 104.5t134 54.5t157.5 17.5q101 0 207 -20v73q0 81 -48 109.5t-135 28.5q-149 0 -256 -72h-110v248q196 86 438 86q87 0 156 -10t131 -35.5t103 -67t65 -107
t24 -153.5v-723zM528 201q78 0 144 59v191q-68 10 -121 10q-160 0 -160 -129q0 -64 36 -97.5t101 -33.5zM558 1151q-94 0 -157 58.5t-63 150.5t64 150.5t156 58.5q93 0 156 -59t63 -150q0 -93 -63 -151t-156 -58zM558 1286q32 0 50.5 20.5t18.5 53.5t-18.5 53.5t-50.5 20.5
t-50 -20.5t-18 -53.5t18 -53.5t50 -20.5z" />
    <glyph glyph-name="uni00E6" unicode="&#xe6;" horiz-adv-x="1767" 
d="M414 -14q-170 0 -271.5 82t-101.5 243q0 75 26 134.5t68 96.5t100.5 61.5t120 34t129.5 9.5h187v51q0 42 -14 70t-41 42t-56.5 19t-71.5 5q-149 0 -256 -72h-110v248q193 86 432 86t334 -101q146 101 332 101q505 0 505 -543q0 -24 -2 -58l-2 -36h-682q14 -126 72 -178
t180 -52q161 0 277 80h114v-219q-187 -106 -446 -106q-294 0 -442 163q-135 -161 -381 -161zM522 201q109 0 187 86q-30 69 -39 172h-123q-156 0 -156 -127q0 -62 35 -96.5t96 -34.5zM1219 870q-47 0 -81 -18.5t-53 -52.5t-28.5 -69t-14.5 -81h336q-1 38 -5 67.5t-14.5 59.5
t-27.5 49.5t-45.5 32t-66.5 12.5z" />
    <glyph glyph-name="uni00E7" unicode="&#xe7;" horiz-adv-x="1040" 
d="M985 313v-231q-150 -98 -367 -98v-33q166 -9 166 -150q0 -46 -20.5 -78.5t-55.5 -49.5t-72.5 -24t-80.5 -7q-95 0 -168 32v127h64q8 -7 28 -16q17 -6 39 -6q53 0 53 33q0 15 -14 23q-13 9 -49 9h-45v154q-210 39 -316 179.5t-106 359.5q0 133 46 240t127 176.5t189.5 106
t235.5 36.5q198 0 342 -76v-252h-133q-75 68 -193 68q-65 0 -113 -25.5t-74.5 -70t-39 -96.5t-12.5 -112q0 -63 12 -113.5t38 -92.5t72 -65t109 -23q132 0 215 75h123z" />
    <glyph glyph-name="uni00E8" unicode="&#xe8;" horiz-adv-x="1141" 
d="M1096 459h-682q14 -127 72.5 -178.5t181.5 -51.5q162 0 274 80h115v-219q-187 -106 -447 -106q-271 0 -420 143t-149 405q0 256 150.5 410t400.5 154q508 0 508 -543q0 -24 -2 -58zM592 870q-47 0 -80.5 -18.5t-52.5 -52t-28.5 -68.5t-14.5 -80h336q-3 49 -9.5 83.5
t-23 68t-48.5 50.5t-79 17zM692 1149h-215l-209 203v88h355l69 -223v-68z" />
    <glyph glyph-name="uni00E9" unicode="&#xe9;" horiz-adv-x="1141" 
d="M1096 459h-682q14 -127 72.5 -178.5t181.5 -51.5q162 0 274 80h115v-219q-187 -106 -447 -106q-271 0 -420 143t-149 405q0 256 150.5 410t400.5 154q508 0 508 -543q0 -24 -2 -58zM592 870q-47 0 -80.5 -18.5t-52.5 -52t-28.5 -68.5t-14.5 -80h336q-3 49 -9.5 83.5
t-23 68t-48.5 50.5t-79 17zM692 1149h-215v68l67 223h355v-88z" />
    <glyph glyph-name="uni00EA" unicode="&#xea;" horiz-adv-x="1141" 
d="M1096 459h-682q14 -127 72.5 -178.5t181.5 -51.5q162 0 274 80h115v-219q-187 -106 -447 -106q-271 0 -420 143t-149 405q0 256 150.5 410t400.5 154q508 0 508 -543q0 -24 -2 -58zM592 870q-47 0 -80.5 -18.5t-52.5 -52t-28.5 -68.5t-14.5 -80h336q-3 49 -9.5 83.5
t-23 68t-48.5 50.5t-79 17zM274 1149v78l187 213h247l183 -213v-78h-199l-115 86l-112 -86h-191z" />
    <glyph glyph-name="uni00EB" unicode="&#xeb;" horiz-adv-x="1141" 
d="M1096 459h-682q14 -127 72.5 -178.5t181.5 -51.5q162 0 274 80h115v-219q-187 -106 -447 -106q-271 0 -420 143t-149 405q0 256 150.5 410t400.5 154q508 0 508 -543q0 -24 -2 -58zM592 870q-47 0 -80.5 -18.5t-52.5 -52t-28.5 -68.5t-14.5 -80h336q-3 49 -9.5 83.5
t-23 68t-48.5 50.5t-79 17zM373 1147q-74 0 -124 45t-50 117q0 73 50.5 118.5t123.5 45.5q74 0 123 -46t49 -118q0 -73 -49.5 -117.5t-122.5 -44.5zM790 1147q-73 0 -122.5 45t-49.5 117t50 118t122 46q74 0 124.5 -46t50.5 -118q0 -73 -51 -117.5t-124 -44.5z" />
    <glyph glyph-name="uni00EC" unicode="&#xec;" horiz-adv-x="569" 
d="M467 0h-367v1079h238q40 0 67 -8q50 -18 58 -95q4 -36 4 -104v-872zM409 1149h-215l-209 203v88h355l69 -223v-68z" />
    <glyph glyph-name="uni00ED" unicode="&#xed;" horiz-adv-x="569" 
d="M467 0h-367v1079h238q40 0 67 -8q50 -18 58 -95q4 -36 4 -104v-872zM371 1149h-215v68l67 223h355v-88z" />
    <glyph glyph-name="uni00EE" unicode="&#xee;" horiz-adv-x="569" 
d="M467 0h-367v1079h238q40 0 67 -8q50 -18 58 -95q4 -36 4 -104v-872zM-23 1149v78l187 213h247l183 -213v-78h-199l-115 86l-112 -86h-191z" />
    <glyph glyph-name="uni00EF" unicode="&#xef;" horiz-adv-x="569" 
d="M467 0h-367v1079h238q40 0 67 -8q50 -18 58 -95q4 -36 4 -104v-872zM76 1147q-74 0 -124 45t-50 117q0 73 50.5 118.5t123.5 45.5q74 0 123 -46t49 -118q0 -73 -49.5 -117.5t-122.5 -44.5zM493 1147q-73 0 -122.5 45t-49.5 117t50 118t122 46q74 0 124.5 -46t50.5 -118
q0 -73 -51 -117.5t-124 -44.5z" />
    <glyph glyph-name="uni00F1" unicode="&#xf1;" horiz-adv-x="1233" 
d="M98 1079h256q45 0 69 -24q25 -31 36 -107q177 148 389 148q293 0 293 -305v-791h-369v694q0 48 -14.5 76t-55.5 38q-27 5 -57 5q-78 0 -178 -35v-778h-369v1079zM278 1151v82q16 97 70 155t147 58q57 0 132 -24q69 -25 94 -25q27 0 41 13q15 15 22 36h184v-82
q-15 -96 -69 -154.5t-146 -58.5q-39 0 -70 9q-52 12 -113 36q-26 8 -42 8q-53 0 -65 -53h-185z" />
    <glyph glyph-name="uni00F2" unicode="&#xf2;" horiz-adv-x="1231" 
d="M616 -16q-255 0 -415 151.5t-160 399.5q0 253 162.5 407t412.5 154q254 0 414 -156t160 -405q0 -168 -76 -294.5t-205.5 -191.5t-292.5 -65zM616 225q60 0 102 28t62 76t28.5 96.5t8.5 104.5q0 44 -5 84.5t-18.5 84t-35 74.5t-58 51t-84.5 20t-85 -20.5t-58.5 -52
t-35 -74.5t-18.5 -83t-5 -84q0 -57 9 -106.5t30 -96.5t62.5 -74.5t100.5 -27.5zM725 1149h-215l-209 203v88h355l69 -223v-68z" />
    <glyph glyph-name="uni00F3" unicode="&#xf3;" horiz-adv-x="1231" 
d="M616 -16q-255 0 -415 151.5t-160 399.5q0 253 162.5 407t412.5 154q254 0 414 -156t160 -405q0 -168 -76 -294.5t-205.5 -191.5t-292.5 -65zM616 225q60 0 102 28t62 76t28.5 96.5t8.5 104.5q0 44 -5 84.5t-18.5 84t-35 74.5t-58 51t-84.5 20t-85 -20.5t-58.5 -52
t-35 -74.5t-18.5 -83t-5 -84q0 -57 9 -106.5t30 -96.5t62.5 -74.5t100.5 -27.5zM725 1149h-215v68l67 223h355v-88z" />
    <glyph glyph-name="uni00F4" unicode="&#xf4;" horiz-adv-x="1231" 
d="M616 -16q-255 0 -415 151.5t-160 399.5q0 253 162.5 407t412.5 154q254 0 414 -156t160 -405q0 -168 -76 -294.5t-205.5 -191.5t-292.5 -65zM616 225q60 0 102 28t62 76t28.5 96.5t8.5 104.5q0 44 -5 84.5t-18.5 84t-35 74.5t-58 51t-84.5 20t-85 -20.5t-58.5 -52
t-35 -74.5t-18.5 -83t-5 -84q0 -57 9 -106.5t30 -96.5t62.5 -74.5t100.5 -27.5zM307 1149v78l187 213h247l183 -213v-78h-199l-115 86l-112 -86h-191z" />
    <glyph glyph-name="uni00F5" unicode="&#xf5;" horiz-adv-x="1231" 
d="M616 -16q-255 0 -415 151.5t-160 399.5q0 253 162.5 407t412.5 154q254 0 414 -156t160 -405q0 -168 -76 -294.5t-205.5 -191.5t-292.5 -65zM616 225q60 0 102 28t62 76t28.5 96.5t8.5 104.5q0 44 -5 84.5t-18.5 84t-35 74.5t-58 51t-84.5 20t-85 -20.5t-58.5 -52
t-35 -74.5t-18.5 -83t-5 -84q0 -57 9 -106.5t30 -96.5t62.5 -74.5t100.5 -27.5zM270 1151v82q16 97 70 155t147 58q57 0 132 -24q69 -25 94 -25q27 0 41 13q15 15 22 36h184v-82q-15 -96 -69 -154.5t-146 -58.5q-39 0 -70 9q-52 12 -113 36q-26 8 -42 8q-53 0 -65 -53h-185z
" />
    <glyph glyph-name="uni00F6" unicode="&#xf6;" horiz-adv-x="1231" 
d="M616 -16q-255 0 -415 151.5t-160 399.5q0 253 162.5 407t412.5 154q254 0 414 -156t160 -405q0 -168 -76 -294.5t-205.5 -191.5t-292.5 -65zM616 225q60 0 102 28t62 76t28.5 96.5t8.5 104.5q0 44 -5 84.5t-18.5 84t-35 74.5t-58 51t-84.5 20t-85 -20.5t-58.5 -52
t-35 -74.5t-18.5 -83t-5 -84q0 -57 9 -106.5t30 -96.5t62.5 -74.5t100.5 -27.5zM406 1147q-74 0 -124 45t-50 117q0 73 50.5 118.5t123.5 45.5q74 0 123 -46t49 -118q0 -73 -49.5 -117.5t-122.5 -44.5zM823 1147q-73 0 -122.5 45t-49.5 117t50 118t122 46q74 0 124.5 -46
t50.5 -118q0 -73 -51 -117.5t-124 -44.5z" />
    <glyph glyph-name="uni00F9" unicode="&#xf9;" horiz-adv-x="1249" 
d="M608 254q69 0 168 35v790h367v-1079h-256q-48 0 -67 21q-14 14 -21 37q-9 24 -15 63q-181 -137 -368 -137q-316 0 -316 309v786h369v-702q0 -40 10 -63q14 -37 47.5 -48.5t81.5 -11.5zM735 1149h-215l-209 203v88h355l69 -223v-68z" />
    <glyph glyph-name="uni00FA" unicode="&#xfa;" horiz-adv-x="1249" 
d="M608 254q69 0 168 35v790h367v-1079h-256q-48 0 -67 21q-14 14 -21 37q-9 24 -15 63q-181 -137 -368 -137q-316 0 -316 309v786h369v-702q0 -40 10 -63q14 -37 47.5 -48.5t81.5 -11.5zM735 1149h-215v68l67 223h355v-88z" />
    <glyph glyph-name="uni00FB" unicode="&#xfb;" horiz-adv-x="1249" 
d="M608 254q69 0 168 35v790h367v-1079h-256q-48 0 -67 21q-14 14 -21 37q-9 24 -15 63q-181 -137 -368 -137q-316 0 -316 309v786h369v-702q0 -40 10 -63q14 -37 47.5 -48.5t81.5 -11.5zM315 1149v78l187 213h247l183 -213v-78h-199l-115 86l-112 -86h-191z" />
    <glyph glyph-name="uni00FC" unicode="&#xfc;" horiz-adv-x="1249" 
d="M608 254q69 0 168 35v790h367v-1079h-256q-48 0 -67 21q-14 14 -21 37q-9 24 -15 63q-181 -137 -368 -137q-316 0 -316 309v786h369v-702q0 -40 10 -63q14 -37 47.5 -48.5t81.5 -11.5zM416 1147q-74 0 -124 45t-50 117q0 73 50.5 118.5t123.5 45.5q74 0 123 -46t49 -118
q0 -73 -49.5 -117.5t-122.5 -44.5zM833 1147q-73 0 -122.5 45t-49.5 117t50 118t122 46q74 0 124.5 -46t50.5 -118q0 -73 -51 -117.5t-124 -44.5z" />
    <glyph glyph-name="uni00FD" unicode="&#xfd;" horiz-adv-x="1165" 
d="M279 -332v84l141 299l-389 944v84h350l225 -612h6l209 612h316v-84l-525 -1327h-333zM717 1149h-215v68l67 223h355v-88z" />
    <glyph glyph-name="uni00FF" unicode="&#xff;" horiz-adv-x="1165" 
d="M279 -332v84l141 299l-389 944v84h350l225 -612h6l209 612h316v-84l-525 -1327h-333zM398 1147q-74 0 -124 45t-50 117q0 73 50.5 118.5t123.5 45.5q74 0 123 -46t49 -118q0 -73 -49.5 -117.5t-122.5 -44.5zM815 1147q-73 0 -122.5 45t-49.5 117t50 118t122 46
q74 0 124.5 -46t50.5 -118q0 -73 -51 -117.5t-124 -44.5z" />
    <glyph glyph-name="uni0100" unicode="&#x100;" horiz-adv-x="1421" 
d="M39 0v92l457 1342h426l462 -1342v-92h-380l-101 324h-457l-96 -324h-311zM672 1073l-146 -483h297l-147 483h-4zM983 1724v-223h-565v223h565z" />
    <glyph glyph-name="uni0101" unicode="&#x101;" horiz-adv-x="1133" 
d="M1040 0h-200q-61 0 -96 22.5t-52 79.5q-106 -116 -309 -116q-154 0 -248 86t-94 235q0 92 35.5 159.5t97 104.5t134 54.5t157.5 17.5q101 0 207 -20v73q0 81 -48 109.5t-135 28.5q-149 0 -256 -72h-110v248q196 86 438 86q87 0 156 -10t131 -35.5t103 -67t65 -107
t24 -153.5v-723zM528 201q78 0 144 59v191q-68 10 -121 10q-160 0 -160 -129q0 -64 36 -97.5t101 -33.5zM834 1407v-221h-553v221h553z" />
    <glyph glyph-name="uni0102" unicode="&#x102;" horiz-adv-x="1421" 
d="M39 0v92l457 1342h426l462 -1342v-92h-380l-101 324h-457l-96 -324h-311zM672 1073l-146 -483h297l-147 483h-4zM703 1481q-108 0 -192 51.5t-105 150.5v80h211q4 -32 28 -47.5t58 -15.5q33 0 56.5 15.5t29.5 47.5h211v-80q-22 -97 -107 -149.5t-190 -52.5z" />
    <glyph glyph-name="uni0103" unicode="&#x103;" horiz-adv-x="1133" 
d="M1040 0h-200q-61 0 -96 22.5t-52 79.5q-106 -116 -309 -116q-154 0 -248 86t-94 235q0 92 35.5 159.5t97 104.5t134 54.5t157.5 17.5q101 0 207 -20v73q0 81 -48 109.5t-135 28.5q-149 0 -256 -72h-110v248q196 86 438 86q87 0 156 -10t131 -35.5t103 -67t65 -107
t24 -153.5v-723zM528 201q78 0 144 59v191q-68 10 -121 10q-160 0 -160 -129q0 -64 36 -97.5t101 -33.5zM558 1149q-111 0 -193.5 57t-103.5 160v82h211q6 -78 86 -78q75 0 86 78h211v-82q-21 -105 -104 -161t-193 -56z" />
    <glyph glyph-name="uni0104" unicode="&#x104;" horiz-adv-x="1421" 
d="M1219 -342q-58 0 -106 12.5t-85 49.5t-37 96q0 113 139 184h-126l-101 324h-457l-96 -324h-311v92l457 1342h426l462 -1342v-92h-45q-30 -28 -50 -52q-19 -22 -19 -50q0 -50 76 -50h36v-155q-60 -35 -163 -35zM672 1073l-146 -483h297l-147 483h-4z" />
    <glyph glyph-name="uni0105" unicode="&#x105;" horiz-adv-x="1133" 
d="M877 -342q-58 0 -106 12.5t-85 49.5t-37 96q0 62 42 111.5t104 76.5q-80 14 -103 98q-106 -116 -309 -116q-154 0 -248 86t-94 235q0 91 35.5 158.5t97 105t134 55t157.5 17.5q116 0 207 -20v73q0 81 -47.5 109.5t-135.5 28.5q-147 0 -256 -72h-110v248q209 86 438 86
q242 0 361 -86q118 -85 118 -287v-723h-43q-30 -28 -50 -52q-19 -22 -19 -50q0 -50 76 -50h36v-155q-60 -35 -163 -35zM528 201q74 0 144 59v191q-67 10 -121 10q-160 0 -160 -129q0 -64 36 -97.5t101 -33.5z" />
    <glyph glyph-name="uni0106" unicode="&#x106;" horiz-adv-x="1300" 
d="M760 -18q-226 0 -386 92t-239.5 254.5t-79.5 380.5q0 346 199.5 544.5t538.5 198.5q247 0 430 -102v-273h-152q-102 94 -268 94q-78 0 -138.5 -24.5t-99 -66t-63.5 -100t-35 -121.5t-10 -136q0 -77 7.5 -139.5t29 -125.5t57 -106t95 -69.5t138.5 -26.5q187 0 312 125h139
v-260q-191 -139 -475 -139zM623 1481v67l67 209h355v-86l-207 -190h-215z" />
    <glyph glyph-name="uni0107" unicode="&#x107;" horiz-adv-x="1040" 
d="M616 -16q-273 0 -424 144.5t-151 408.5q0 133 46 240t127 176.5t189.5 106t235.5 36.5q198 0 342 -76v-252h-133q-75 68 -193 68q-65 0 -113 -25.5t-74.5 -70t-39 -96.5t-12.5 -112q0 -63 12 -113.5t38 -92.5t72 -65t109 -23q132 0 215 75h123v-231q-151 -98 -369 -98z
M694 1149h-215v68l67 223h355v-88z" />
    <glyph glyph-name="uni0108" unicode="&#x108;" horiz-adv-x="1300" 
d="M760 -18q-226 0 -386 92t-239.5 254.5t-79.5 380.5q0 346 199.5 544.5t538.5 198.5q247 0 430 -102v-273h-152q-102 94 -268 94q-78 0 -138.5 -24.5t-99 -66t-63.5 -100t-35 -121.5t-10 -136q0 -77 7.5 -139.5t29 -125.5t57 -106t95 -69.5t138.5 -26.5q187 0 312 125h139
v-260q-191 -139 -475 -139zM432 1481v78l187 204h247l183 -204v-78h-199l-115 78l-112 -78h-191z" />
    <glyph glyph-name="uni0109" unicode="&#x109;" horiz-adv-x="1040" 
d="M616 -16q-273 0 -424 144.5t-151 408.5q0 133 46 240t127 176.5t189.5 106t235.5 36.5q198 0 342 -76v-252h-133q-75 68 -193 68q-65 0 -113 -25.5t-74.5 -70t-39 -96.5t-12.5 -112q0 -63 12 -113.5t38 -92.5t72 -65t109 -23q132 0 215 75h123v-231q-151 -98 -369 -98z
M274 1149v78l187 213h247l183 -213v-78h-199l-115 86l-112 -86h-191z" />
    <glyph glyph-name="uni010A" unicode="&#x10a;" horiz-adv-x="1300" 
d="M760 -18q-226 0 -386 92t-239.5 254.5t-79.5 380.5q0 346 199.5 544.5t538.5 198.5q247 0 430 -102v-273h-152q-102 94 -268 94q-78 0 -138.5 -24.5t-99 -66t-63.5 -100t-35 -121.5t-10 -136q0 -77 7.5 -139.5t29 -125.5t57 -106t95 -69.5t138.5 -26.5q187 0 312 125h139
v-260q-191 -139 -475 -139zM740 1481q-79 0 -135 48t-56 124q0 78 56.5 126t134.5 48q79 0 134.5 -48.5t55.5 -125.5t-56 -124.5t-134 -47.5z" />
    <glyph glyph-name="uni010B" unicode="&#x10b;" horiz-adv-x="1040" 
d="M616 -16q-273 0 -424 144.5t-151 408.5q0 133 46 240t127 176.5t189.5 106t235.5 36.5q198 0 342 -76v-252h-133q-75 68 -193 68q-65 0 -113 -25.5t-74.5 -70t-39 -96.5t-12.5 -112q0 -63 12 -113.5t38 -92.5t72 -65t109 -23q132 0 215 75h123v-231q-151 -98 -369 -98z
M584 1145q-79 0 -135 48t-56 124q0 78 56.5 126t134.5 48q79 0 134.5 -48.5t55.5 -125.5t-56 -124.5t-134 -47.5z" />
    <glyph glyph-name="uni010C" unicode="&#x10c;" horiz-adv-x="1300" 
d="M760 -18q-226 0 -386 92t-239.5 254.5t-79.5 380.5q0 346 199.5 544.5t538.5 198.5q247 0 430 -102v-273h-152q-102 94 -268 94q-78 0 -138.5 -24.5t-99 -66t-63.5 -100t-35 -121.5t-10 -136q0 -77 7.5 -139.5t29 -125.5t57 -106t95 -69.5t138.5 -26.5q187 0 312 125h139
v-260q-191 -139 -475 -139zM1049 1763v-77l-189 -205h-247l-181 205v77h199l115 -77l112 77h191z" />
    <glyph glyph-name="uni010D" unicode="&#x10d;" horiz-adv-x="1040" 
d="M616 -16q-273 0 -424 144.5t-151 408.5q0 133 46 240t127 176.5t189.5 106t235.5 36.5q198 0 342 -76v-252h-133q-75 68 -193 68q-65 0 -113 -25.5t-74.5 -70t-39 -96.5t-12.5 -112q0 -63 12 -113.5t38 -92.5t72 -65t109 -23q132 0 215 75h123v-231q-151 -98 -369 -98z
M891 1440v-78l-189 -213h-247l-181 213v78h199l115 -86l112 86h191z" />
    <glyph glyph-name="uni0112" unicode="&#x112;" horiz-adv-x="1190" 
d="M115 0v1434h987v-275h-596v-305h420v-258h-420v-330h616v-266h-1007zM915 1724v-223h-565v223h565z" />
    <glyph glyph-name="uni0113" unicode="&#x113;" horiz-adv-x="1141" 
d="M1096 459h-682q14 -127 72.5 -178.5t181.5 -51.5q162 0 274 80h115v-219q-187 -106 -447 -106q-271 0 -420 143t-149 405q0 256 150.5 410t400.5 154q508 0 508 -543q0 -24 -2 -58zM592 870q-47 0 -80.5 -18.5t-52.5 -52t-28.5 -68.5t-14.5 -80h336q-3 49 -9.5 83.5
t-23 68t-48.5 50.5t-79 17zM858 1407v-221h-553v221h553z" />
    <glyph glyph-name="uni0114" unicode="&#x114;" horiz-adv-x="1190" 
d="M115 0v1434h987v-275h-596v-305h420v-258h-420v-330h616v-266h-1007zM633 1481q-108 0 -192 51.5t-105 150.5v80h211q4 -32 28 -47.5t58 -15.5q33 0 56.5 15.5t29.5 47.5h211v-80q-22 -97 -107 -149.5t-190 -52.5z" />
    <glyph glyph-name="uni0115" unicode="&#x115;" horiz-adv-x="1141" 
d="M1096 459h-682q14 -127 72.5 -178.5t181.5 -51.5q162 0 274 80h115v-219q-187 -106 -447 -106q-271 0 -420 143t-149 405q0 256 150.5 410t400.5 154q508 0 508 -543q0 -24 -2 -58zM592 870q-47 0 -80.5 -18.5t-52.5 -52t-28.5 -68.5t-14.5 -80h336q-3 49 -9.5 83.5
t-23 68t-48.5 50.5t-79 17zM582 1149q-111 0 -193.5 57t-103.5 160v82h211q6 -78 86 -78q75 0 86 78h211v-82q-21 -105 -104 -161t-193 -56z" />
    <glyph glyph-name="uni0116" unicode="&#x116;" horiz-adv-x="1190" 
d="M115 0v1434h987v-275h-596v-305h420v-258h-420v-330h616v-266h-1007zM633 1481q-79 0 -135 48t-56 124q0 78 56.5 126t134.5 48q79 0 134.5 -48.5t55.5 -125.5t-56 -124.5t-134 -47.5z" />
    <glyph glyph-name="uni0117" unicode="&#x117;" horiz-adv-x="1141" 
d="M1096 459h-682q14 -127 72.5 -178.5t181.5 -51.5q162 0 274 80h115v-219q-187 -106 -447 -106q-271 0 -420 143t-149 405q0 256 150.5 410t400.5 154q508 0 508 -543q0 -24 -2 -58zM592 870q-47 0 -80.5 -18.5t-52.5 -52t-28.5 -68.5t-14.5 -80h336q-3 49 -9.5 83.5
t-23 68t-48.5 50.5t-79 17zM582 1145q-79 0 -135 48t-56 124q0 78 56.5 126t134.5 48q79 0 134.5 -48.5t55.5 -125.5t-56 -124.5t-134 -47.5z" />
    <glyph glyph-name="uni0118" unicode="&#x118;" horiz-adv-x="1190" 
d="M115 0v1434h987v-275h-596v-305h420v-258h-420v-330h616v-266h-88q-21 -18 -32.5 -29.5t-24 -32.5t-12.5 -40q0 -50 75 -50h37v-155q-60 -35 -164 -35q-42 0 -79.5 7.5t-72 24.5t-55 49t-20.5 77q0 113 139 184h-710z" />
    <glyph glyph-name="uni0119" unicode="&#x119;" horiz-adv-x="1141" 
d="M864 -102q0 -50 76 -50h37v-155q-60 -35 -164 -35q-59 0 -107 12.5t-85 50t-37 97.5q0 102 123 172q-14 -3 -47 -5q-18 -1 -50 -1q-270 0 -419.5 140t-149.5 408q0 256 150.5 410t400.5 154q508 0 508 -543q0 -24 -2 -58t-2 -36h-680q11 -122 70.5 -176t181.5 -54
q166 0 274 80h115v-219q-34 -27 -70 -47q-43 -24 -83 -65t-40 -80zM592 870q-60 0 -94.5 -26.5t-56.5 -83.5q-18 -47 -25 -109h336q-2 48 -8.5 82.5t-22.5 68t-48.5 51t-80.5 17.5z" />
    <glyph glyph-name="uni011A" unicode="&#x11a;" horiz-adv-x="1190" 
d="M115 0v1434h987v-275h-596v-305h420v-258h-420v-330h616v-266h-1007zM940 1763v-77l-189 -205h-247l-181 205v77h199l115 -77l112 77h191z" />
    <glyph glyph-name="uni011B" unicode="&#x11b;" horiz-adv-x="1141" 
d="M1096 459h-682q14 -127 72.5 -178.5t181.5 -51.5q162 0 274 80h115v-219q-187 -106 -447 -106q-271 0 -420 143t-149 405q0 256 150.5 410t400.5 154q508 0 508 -543q0 -24 -2 -58zM592 870q-47 0 -80.5 -18.5t-52.5 -52t-28.5 -68.5t-14.5 -80h336q-3 49 -9.5 83.5
t-23 68t-48.5 50.5t-79 17zM891 1440v-78l-189 -213h-247l-181 213v78h199l115 -86l112 86h191z" />
    <glyph glyph-name="uni011C" unicode="&#x11c;" horiz-adv-x="1395" 
d="M760 -18q-353 0 -530 191t-177 536q0 360 200 551.5t552 191.5q239 0 430 -90v-283h-145q-55 41 -111 64q-75 26 -170 26q-84 0 -147.5 -25t-101.5 -65.5t-61 -101t-31.5 -123t-8.5 -139.5q0 -52 2.5 -95t10 -93t21 -89t36 -76.5t53.5 -62.5t75.5 -40t100.5 -15
q93 0 164 20v262h-170v238h542v-674q-220 -108 -534 -108zM432 1481v78l187 204h247l183 -204v-78h-199l-115 78l-112 -78h-191z" />
    <glyph glyph-name="uni011D" unicode="&#x11d;" horiz-adv-x="1243" 
d="M1145 1079v-997q0 -99 -35.5 -176t-92.5 -124t-137 -77t-160.5 -41.5t-170.5 -11.5q-279 0 -447 82v250h115q120 -76 285 -76q57 0 99.5 6.5t85.5 24.5t66 56.5t23 96.5v53q-112 -92 -289 -92q-115 0 -201.5 38t-137.5 107t-76 157.5t-25 197.5q0 116 28 213t83.5 171.5
t145.5 116.5t206 42q92 0 163 -28.5t134 -92.5q36 104 139 104h199zM614 287q88 0 162 55v438q-65 41 -149 41q-60 0 -102 -20t-64 -57t-31.5 -80.5t-9.5 -100.5q0 -163 49 -221q43 -55 145 -55zM303 1149v78l187 213h247l183 -213v-78h-199l-115 86l-112 -86h-191z" />
    <glyph glyph-name="uni011E" unicode="&#x11e;" horiz-adv-x="1395" 
d="M760 -18q-353 0 -530 191t-177 536q0 360 200 551.5t552 191.5q239 0 430 -90v-283h-145q-55 41 -111 64q-75 26 -170 26q-84 0 -147.5 -25t-101.5 -65.5t-61 -101t-31.5 -123t-8.5 -139.5q0 -52 2.5 -95t10 -93t21 -89t36 -76.5t53.5 -62.5t75.5 -40t100.5 -15
q93 0 164 20v262h-170v238h542v-674q-220 -108 -534 -108zM742 1481q-108 0 -192 51.5t-105 150.5v80h211q4 -32 28 -47.5t58 -15.5q33 0 56.5 15.5t29.5 47.5h211v-80q-22 -97 -107 -149.5t-190 -52.5z" />
    <glyph glyph-name="uni011F" unicode="&#x11f;" horiz-adv-x="1243" 
d="M1145 1079v-997q0 -99 -35.5 -176t-92.5 -124t-137 -77t-160.5 -41.5t-170.5 -11.5q-279 0 -447 82v250h115q120 -76 285 -76q57 0 99.5 6.5t85.5 24.5t66 56.5t23 96.5v53q-112 -92 -289 -92q-115 0 -201.5 38t-137.5 107t-76 157.5t-25 197.5q0 116 28 213t83.5 171.5
t145.5 116.5t206 42q92 0 163 -28.5t134 -92.5q36 104 139 104h199zM614 287q88 0 162 55v438q-65 41 -149 41q-60 0 -102 -20t-64 -57t-31.5 -80.5t-9.5 -100.5q0 -163 49 -221q43 -55 145 -55zM611 1149q-111 0 -193.5 57t-103.5 160v82h211q6 -78 86 -78q75 0 86 78h211
v-82q-21 -105 -104 -161t-193 -56z" />
    <glyph glyph-name="uni0120" unicode="&#x120;" horiz-adv-x="1395" 
d="M760 -18q-353 0 -530 191t-177 536q0 360 200 551.5t552 191.5q239 0 430 -90v-283h-145q-55 41 -111 64q-75 26 -170 26q-84 0 -147.5 -25t-101.5 -65.5t-61 -101t-31.5 -123t-8.5 -139.5q0 -52 2.5 -95t10 -93t21 -89t36 -76.5t53.5 -62.5t75.5 -40t100.5 -15
q93 0 164 20v262h-170v238h542v-674q-220 -108 -534 -108zM742 1481q-79 0 -135 48t-56 124q0 78 56.5 126t134.5 48q79 0 134.5 -48.5t55.5 -125.5t-56 -124.5t-134 -47.5z" />
    <glyph glyph-name="uni0121" unicode="&#x121;" horiz-adv-x="1243" 
d="M1145 1079v-997q0 -99 -35.5 -176t-92.5 -124t-137 -77t-160.5 -41.5t-170.5 -11.5q-279 0 -447 82v250h115q120 -76 285 -76q57 0 99.5 6.5t85.5 24.5t66 56.5t23 96.5v53q-112 -92 -289 -92q-115 0 -201.5 38t-137.5 107t-76 157.5t-25 197.5q0 116 28 213t83.5 171.5
t145.5 116.5t206 42q92 0 163 -28.5t134 -92.5q36 104 139 104h199zM614 287q88 0 162 55v438q-65 41 -149 41q-60 0 -102 -20t-64 -57t-31.5 -80.5t-9.5 -100.5q0 -163 49 -221q43 -55 145 -55zM611 1145q-79 0 -135 48t-56 124q0 78 56.5 126t134.5 48q79 0 134.5 -48.5
t55.5 -125.5t-56 -124.5t-134 -47.5z" />
    <glyph glyph-name="uni0122" unicode="&#x122;" horiz-adv-x="1395" 
d="M760 -18q-353 0 -530 191t-177 536q0 360 200 551.5t552 191.5q239 0 430 -90v-283h-145q-55 41 -111 64q-75 26 -170 26q-84 0 -147.5 -25t-101.5 -65.5t-61 -101t-31.5 -123t-8.5 -139.5q0 -52 2.5 -95t10 -93t21 -89t36 -76.5t53.5 -62.5t75.5 -40t100.5 -15
q93 0 164 20v262h-170v238h542v-674q-220 -108 -534 -108zM592 -467v127q54 5 74 16q20 14 20 33q0 16 -14 24q-1 0 -12.5 6.5t-18.5 10.5q-51 33 -51 96q0 56 43.5 86.5t102.5 30.5q74 0 115.5 -44.5t41.5 -119.5q0 -135 -79 -195.5t-222 -70.5z" />
    <glyph glyph-name="uni0123" unicode="&#x123;" horiz-adv-x="1243" 
d="M1145 1079v-997q0 -99 -35.5 -176t-92.5 -124t-137 -77t-160.5 -41.5t-170.5 -11.5q-279 0 -447 82v250h115q120 -76 285 -76q57 0 99.5 6.5t85.5 24.5t66 56.5t23 96.5v53q-112 -92 -289 -92q-115 0 -201.5 38t-137.5 107t-76 157.5t-25 197.5q0 116 28 213t83.5 171.5
t145.5 116.5t206 42q92 0 163 -28.5t134 -92.5q36 104 139 104h199zM614 287q88 0 162 55v438q-65 41 -149 41q-60 0 -102 -20t-64 -57t-31.5 -80.5t-9.5 -100.5q0 -163 49 -221q43 -55 145 -55zM758 1585v-127q-55 -5 -73 -16q-21 -12 -21 -33q0 -15 15 -23q13 -8 30 -18
q29 -18 40 -39t11 -57q0 -56 -43.5 -86.5t-101.5 -30.5q-75 0 -116.5 44.5t-41.5 119.5q0 134 79.5 195t221.5 71z" />
    <glyph glyph-name="uni0124" unicode="&#x124;" horiz-adv-x="1456" 
d="M508 0h-393v1434h393v-566h440v566h393v-1434h-393v592h-440v-592zM417 1481v78l187 204h247l183 -204v-78h-199l-115 78l-112 -78h-191z" />
    <glyph glyph-name="uni0125" unicode="&#x125;" horiz-adv-x="1233" 
d="M467 1241v-287q172 142 381 142q293 0 293 -305v-791h-369v694q0 48 -14.5 76t-55.5 38q-27 5 -57 5q-78 0 -178 -35v-778h-369v1434h234q65 0 93 -18t37 -76q5 -42 5 -99zM307 1477v78l187 213h247l183 -213v-78h-199l-115 86l-112 -86h-191z" />
    <glyph glyph-name="uni0128" unicode="&#x128;" horiz-adv-x="641" 
d="M516 0h-395v1434h395v-1434zM-27 1481v82q16 97 70 154t147 57q55 0 132 -25q9 -3 26.5 -8.5t25.5 -8.5q24 -8 42 -8q25 0 41 14q15 15 22 36h184v-82q-15 -96 -68.5 -153.5t-146.5 -57.5q-38 0 -70 9q-52 12 -113 36q-26 8 -42 8q-53 0 -65 -53h-185z" />
    <glyph glyph-name="uni0129" unicode="&#x129;" horiz-adv-x="573" 
d="M467 0h-367v1079h238q40 0 67 -8q50 -18 58 -95q4 -36 4 -104v-872zM-60 1151v82q16 97 70 155t147 58q57 0 132 -24q69 -25 94 -25q27 0 41 13q15 15 22 36h184v-82q-15 -96 -69 -154.5t-146 -58.5q-39 0 -70 9q-52 12 -113 36q-26 8 -42 8q-53 0 -65 -53h-185z" />
    <glyph glyph-name="uni012A" unicode="&#x12a;" horiz-adv-x="637" 
d="M516 0h-395v1434h395v-1434zM600 1724v-223h-565v223h565z" />
    <glyph glyph-name="uni012B" unicode="&#x12b;" horiz-adv-x="569" 
d="M467 0h-367v1079h238q64 0 90.5 -21.5t33.5 -81.5q5 -45 5 -104v-872zM547 1407v-221h-527v221h527z" />
    <glyph glyph-name="uni012C" unicode="&#x12c;" horiz-adv-x="641" 
d="M516 0h-395v1434h395v-1434zM320 1481q-108 0 -192 51.5t-105 150.5v80h211q4 -32 28 -47.5t58 -15.5q33 0 56.5 15.5t29.5 47.5h211v-80q-22 -97 -107 -149.5t-190 -52.5z" />
    <glyph glyph-name="uni012D" unicode="&#x12d;" horiz-adv-x="573" 
d="M467 0h-367v1079h238q40 0 67 -8q50 -18 58 -95q4 -36 4 -104v-872zM283 1149q-111 0 -193.5 57t-103.5 160v82h211q6 -78 86 -78q75 0 86 78h211v-82q-21 -105 -104 -161t-193 -56z" />
    <glyph glyph-name="uni012E" unicode="&#x12e;" horiz-adv-x="637" 
d="M356 -342q-42 0 -79.5 7.5t-72 24.5t-55 49t-20.5 77q0 113 139 184h-147v1434h395v-1434h-39q-21 -18 -32.5 -29.5t-24 -32.5t-12.5 -40q0 -50 75 -50h37v-155q-60 -35 -164 -35z" />
    <glyph glyph-name="uni012F" unicode="&#x12f;" horiz-adv-x="569" 
d="M315 -342q-42 0 -79.5 7.5t-72 24.5t-55 49t-20.5 77q0 113 139 184h-127v1079h238q64 0 90.5 -21.5t33.5 -81.5q5 -45 5 -104v-872h-31q-21 -18 -32.5 -29.5t-24 -32.5t-12.5 -40q0 -50 75 -50h37v-155q-60 -35 -164 -35zM285 1145q-80 0 -135.5 47t-55.5 125
q0 79 55.5 126.5t135.5 47.5q81 0 135.5 -47.5t54.5 -126.5t-54.5 -125.5t-135.5 -46.5z" />
    <glyph glyph-name="uni0130" unicode="&#x130;" horiz-adv-x="637" 
d="M516 0h-395v1434h395v-1434zM318 1481q-79 0 -135 48t-56 124q0 78 56.5 126t134.5 48q79 0 134.5 -48.5t55.5 -125.5t-56 -124.5t-134 -47.5z" />
    <glyph glyph-name="uni0131" unicode="&#x131;" horiz-adv-x="569" 
d="M467 0h-367v1079h238q40 0 67 -8q50 -18 58 -95q4 -36 4 -104v-872z" />
    <glyph glyph-name="uni0136" unicode="&#x136;" horiz-adv-x="1419" 
d="M115 0v1434h393v-584l485 584h338v-88l-416 -480l459 -778v-88h-383l-352 596l-131 -143v-453h-393zM577 -467v127q54 5 74 16q20 14 20 33q0 16 -14 24q-1 0 -12.5 6.5t-18.5 10.5q-51 33 -51 96q0 56 43.5 86.5t102.5 30.5q74 0 115.5 -44.5t41.5 -119.5
q0 -135 -79 -195.5t-222 -70.5z" />
    <glyph glyph-name="uni0137" unicode="&#x137;" horiz-adv-x="1184" 
d="M467 1241v-563l336 401h307v-88l-297 -338l338 -565v-88h-346l-250 420l-88 -96v-324h-369v1434h234q65 0 93 -18t37 -76q5 -42 5 -99zM473 -467v127q54 5 74 16q20 14 20 33q0 16 -14 24q-1 0 -12.5 6.5t-18.5 10.5q-51 33 -51 96q0 56 43.5 86.5t102.5 30.5
q74 0 115.5 -44.5t41.5 -119.5q0 -135 -79 -195.5t-222 -70.5z" />
    <glyph glyph-name="uni0139" unicode="&#x139;" horiz-adv-x="1130" 
d="M1071 0h-956v1434h393v-1164h563v-270zM197 1481v67l67 209h355v-86l-207 -190h-215z" />
    <glyph glyph-name="uni013A" unicode="&#x13a;" horiz-adv-x="573" 
d="M471 0h-369v1434h234q64 0 93.5 -18t36.5 -76q5 -42 5 -99v-1241zM379 1477h-215v68l67 223h355v-88z" />
    <glyph glyph-name="uni013B" unicode="&#x13b;" horiz-adv-x="1130" 
d="M1071 0h-956v1434h393v-1164h563v-270zM452 -467v127q54 5 74 16q20 14 20 33q0 16 -14 24q-1 0 -12.5 6.5t-18.5 10.5q-51 33 -51 96q0 56 43.5 86.5t102.5 30.5q74 0 115.5 -44.5t41.5 -119.5q0 -135 -79 -195.5t-222 -70.5z" />
    <glyph glyph-name="uni013C" unicode="&#x13c;" horiz-adv-x="573" 
d="M471 0h-369v1434h234q64 0 93.5 -18t36.5 -76q5 -42 5 -99v-1241zM139 -467v127q54 5 74 16q20 14 20 33q0 16 -14 24q-1 0 -12.5 6.5t-18.5 10.5q-51 33 -51 96q0 56 43.5 86.5t102.5 30.5q74 0 115.5 -44.5t41.5 -119.5q0 -135 -79 -195.5t-222 -70.5z" />
    <glyph glyph-name="uni0143" unicode="&#x143;" horiz-adv-x="1448" 
d="M115 0v1434h420l469 -830h6v830h323v-1434h-356l-535 940h-6v-940h-321zM641 1481v67l67 209h355v-86l-207 -190h-215z" />
    <glyph glyph-name="uni0144" unicode="&#x144;" horiz-adv-x="1233" 
d="M98 1079h256q45 0 69 -24q25 -31 36 -107q177 148 389 148q293 0 293 -305v-791h-369v694q0 48 -14.5 76t-55.5 38q-27 5 -57 5q-78 0 -178 -35v-778h-369v1079zM735 1149h-215v68l67 223h355v-88z" />
    <glyph glyph-name="uni0145" unicode="&#x145;" horiz-adv-x="1448" 
d="M115 0v1434h420l469 -830h6v830h323v-1434h-356l-535 940h-6v-940h-321zM559 -467v127q54 5 74 16q20 14 20 33q0 16 -14 24q-1 0 -12.5 6.5t-18.5 10.5q-51 33 -51 96q0 56 43.5 86.5t102.5 30.5q74 0 115.5 -44.5t41.5 -119.5q0 -135 -79 -195.5t-222 -70.5z" />
    <glyph glyph-name="uni0146" unicode="&#x146;" horiz-adv-x="1233" 
d="M98 1079h256q45 0 69 -24q25 -31 36 -107q177 148 389 148q293 0 293 -305v-791h-369v694q0 48 -14.5 76t-55.5 38q-27 5 -57 5q-78 0 -178 -35v-778h-369v1079zM475 -467v127q54 5 74 16q20 14 20 33q0 16 -14 24q-1 0 -12.5 6.5t-18.5 10.5q-51 33 -51 96
q0 56 43.5 86.5t102.5 30.5q74 0 115.5 -44.5t41.5 -119.5q0 -135 -79 -195.5t-222 -70.5z" />
    <glyph glyph-name="uni0147" unicode="&#x147;" horiz-adv-x="1448" 
d="M115 0v1434h420l469 -830h6v830h323v-1434h-356l-535 940h-6v-940h-321zM1065 1763v-77l-189 -205h-247l-181 205v77h199l115 -77l112 77h191z" />
    <glyph glyph-name="uni0148" unicode="&#x148;" horiz-adv-x="1233" 
d="M98 1079h256q45 0 69 -24q25 -31 36 -107q177 148 389 148q293 0 293 -305v-791h-369v694q0 48 -14.5 76t-55.5 38q-27 5 -57 5q-78 0 -178 -35v-778h-369v1079zM932 1440v-78l-189 -213h-247l-181 213v78h199l115 -86l112 86h191z" />
    <glyph glyph-name="uni014C" unicode="&#x14c;" horiz-adv-x="1520" 
d="M760 -18q-216 0 -378 96t-245.5 261.5t-83.5 375.5q0 214 86.5 381t248 261.5t372.5 94.5q225 0 396 -109.5t256 -312.5q56 -139 56 -315q0 -327 -194.5 -530t-513.5 -203zM760 250q73 0 129 29t89 74.5t54 109t28 123t7 125.5q0 68 -7.5 128.5t-28.5 124t-54 109
t-89 74.5t-128 29q-61 0 -110.5 -20t-82 -56t-55.5 -80.5t-35.5 -99t-18 -105t-5.5 -104.5q0 -67 7.5 -128t29 -123.5t54.5 -107.5t88.5 -73.5t127.5 -28.5zM1042 1724v-223h-565v223h565z" />
    <glyph glyph-name="uni014D" unicode="&#x14d;" horiz-adv-x="1231" 
d="M616 -16q-255 0 -415 151.5t-160 399.5q0 253 162.5 407t412.5 154q254 0 414 -156t160 -405q0 -168 -76 -294.5t-205.5 -191.5t-292.5 -65zM616 225q60 0 102 28t62 76t28.5 96.5t8.5 104.5q0 44 -5 84.5t-18.5 84t-35 74.5t-58 51t-84.5 20t-85 -20.5t-58.5 -52
t-35 -74.5t-18.5 -83t-5 -84q0 -57 9 -106.5t30 -96.5t62.5 -74.5t100.5 -27.5zM891 1407v-221h-553v221h553z" />
    <glyph glyph-name="uni014E" unicode="&#x14e;" horiz-adv-x="1524" 
d="M760 1481q-108 0 -192 51.5t-105 150.5v80h211q4 -32 28 -47.5t58 -15.5q33 0 56.5 15.5t29.5 47.5h211v-80q-22 -97 -107 -149.5t-190 -52.5zM760 -18q-216 0 -378 96t-245.5 261.5t-83.5 375.5q0 214 86.5 381t248 261.5t372.5 94.5q225 0 396 -109.5t256 -312.5
q56 -139 56 -315q0 -327 -194.5 -530t-513.5 -203zM760 250q73 0 129 29t89 74.5t54 109t28 123t7 125.5q0 68 -7.5 128.5t-28.5 124t-54 109t-89 74.5t-128 29q-61 0 -110.5 -20t-82 -56t-55.5 -80.5t-35.5 -99t-18 -105t-5.5 -104.5q0 -67 7.5 -128t29 -123.5t54.5 -107.5
t88.5 -73.5t127.5 -28.5z" />
    <glyph glyph-name="uni014F" unicode="&#x14f;" horiz-adv-x="1235" 
d="M616 -16q-255 0 -415 151.5t-160 399.5q0 253 162.5 407t412.5 154q254 0 414 -156t160 -405q0 -168 -76 -294.5t-205.5 -191.5t-292.5 -65zM616 225q60 0 102 28t62 76t28.5 96.5t8.5 104.5q0 44 -5 84.5t-18.5 84t-35 74.5t-58 51t-84.5 20t-85 -20.5t-58.5 -52
t-35 -74.5t-18.5 -83t-5 -84q0 -57 9 -106.5t30 -96.5t62.5 -74.5t100.5 -27.5zM617 1149q-111 0 -193.5 57t-103.5 160v82h211q6 -78 86 -78q75 0 86 78h211v-82q-21 -105 -104 -161t-193 -56z" />
    <glyph glyph-name="uni0150" unicode="&#x150;" horiz-adv-x="1520" 
d="M760 -18q-216 0 -378 96t-245.5 261.5t-83.5 375.5q0 214 86.5 381t248 261.5t372.5 94.5q225 0 396 -109.5t256 -312.5q56 -139 56 -315q0 -327 -194.5 -530t-513.5 -203zM760 250q73 0 129 29t89 74.5t54 109t28 123t7 125.5q0 68 -7.5 128.5t-28.5 124t-54 109
t-89 74.5t-128 29q-61 0 -110.5 -20t-82 -56t-55.5 -80.5t-35.5 -99t-18 -105t-5.5 -104.5q0 -67 7.5 -128t29 -123.5t54.5 -107.5t88.5 -73.5t127.5 -28.5zM471 1481v59l63 217h289v-86l-156 -190h-196zM837 1481v59l64 217h289v-86l-154 -190h-199z" />
    <glyph glyph-name="uni0151" unicode="&#x151;" horiz-adv-x="1231" 
d="M616 -16q-255 0 -415 151.5t-160 399.5q0 253 162.5 407t412.5 154q254 0 414 -156t160 -405q0 -168 -76 -294.5t-205.5 -191.5t-292.5 -65zM616 225q60 0 102 28t62 76t28.5 96.5t8.5 104.5q0 44 -5 84.5t-18.5 84t-35 74.5t-58 51t-84.5 20t-85 -20.5t-58.5 -52
t-35 -74.5t-18.5 -83t-5 -84q0 -57 9 -106.5t30 -96.5t62.5 -74.5t100.5 -27.5zM332 1149v57l66 234h282v-86l-158 -205h-190zM692 1149v57l66 234h283v-86l-156 -205h-193z" />
    <glyph glyph-name="uni0154" unicode="&#x154;" horiz-adv-x="1348" 
d="M934 0l-277 526h-149v-526h-393v1434h538q94 0 174.5 -12t156 -43.5t128 -80t84 -126t31.5 -177.5q0 -263 -213 -383l284 -520v-92h-364zM504 1167v-385h125q103 0 156 46t53 147t-53 146.5t-156 45.5h-125zM524 1481v67l67 209h355v-86l-207 -190h-215z" />
    <glyph glyph-name="uni0155" unicode="&#x155;" horiz-adv-x="850" 
d="M821 784h-49q-187 0 -305 -51v-733h-369v1079h256q21 0 39 -5q55 -20 66 -142q122 155 297 155q12 0 34 -2q11 -2 31 -6v-295zM594 1149h-215v68l67 223h355v-88z" />
    <glyph glyph-name="uni0156" unicode="&#x156;" horiz-adv-x="1348" 
d="M934 0l-277 526h-149v-526h-393v1434h538q94 0 174.5 -12t156 -43.5t128 -80t84 -126t31.5 -177.5q0 -263 -213 -383l284 -520v-92h-364zM504 1167v-385h125q103 0 156 46t53 147t-53 146.5t-156 45.5h-125zM543 -467v127q54 5 74 16q20 14 20 33q0 16 -14 24
q-1 0 -12.5 6.5t-18.5 10.5q-51 33 -51 96q0 56 43.5 86.5t102.5 30.5q74 0 115.5 -44.5t41.5 -119.5q0 -135 -79 -195.5t-222 -70.5z" />
    <glyph glyph-name="uni0157" unicode="&#x157;" horiz-adv-x="842" 
d="M821 784h-49q-187 0 -305 -51v-733h-369v1079h256q21 0 39 -5q55 -20 66 -142q122 155 297 155q12 0 34 -2q11 -2 31 -6v-295zM127 -467v127q54 5 74 16q20 14 20 33q0 16 -14 24q-1 0 -12.5 6.5t-18.5 10.5q-51 33 -51 96q0 56 43.5 86.5t102.5 30.5q74 0 115.5 -44.5
t41.5 -119.5q0 -135 -79 -195.5t-222 -70.5z" />
    <glyph glyph-name="uni0158" unicode="&#x158;" horiz-adv-x="1348" 
d="M934 0l-277 526h-149v-526h-393v1434h538q94 0 174.5 -12t156 -43.5t128 -80t84 -126t31.5 -177.5q0 -263 -213 -383l284 -520v-92h-364zM504 1167v-385h125q103 0 156 46t53 147t-53 146.5t-156 45.5h-125zM951 1763v-77l-189 -205h-247l-181 205v77h199l115 -77l112 77
h191z" />
    <glyph glyph-name="uni0159" unicode="&#x159;" horiz-adv-x="842" 
d="M821 784h-49q-187 0 -305 -51v-733h-369v1079h256q21 0 39 -5q55 -20 66 -142q122 155 297 155q12 0 34 -2q11 -2 31 -6v-295zM793 1440v-78l-189 -213h-247l-181 213v78h199l115 -86l112 86h191z" />
    <glyph glyph-name="uni015A" unicode="&#x15a;" horiz-adv-x="1135" 
d="M518 -18q-275 0 -469 114v273h145q115 -115 310 -115q40 0 75 5.5t70.5 20t56.5 44t21 71.5q0 45 -20 74q-23 29 -58 45.5t-86 30.5q-69 17 -110 28q-102 26 -172.5 59t-124.5 84t-79.5 125t-25.5 175q0 94 30 169t80 124t120 82t146.5 47t162.5 14q259 0 426 -96v-264
h-142q-115 88 -270 88q-209 0 -209 -133q0 -56 35 -83.5t98 -47.5q41 -13 103 -27q65 -15 114.5 -29.5t99 -35t85.5 -45t67.5 -58t50.5 -74.5t30 -94.5t11 -118.5q0 -101 -31.5 -179.5t-84.5 -129t-127.5 -83.5t-155 -46.5t-172.5 -13.5zM459 1481v67l67 209h355v-86
l-207 -190h-215z" />
    <glyph glyph-name="uni015B" unicode="&#x15b;" horiz-adv-x="961" 
d="M440 -14q-113 0 -204 19.5t-185 66.5v241h125q44 -39 113 -59.5t137 -20.5q160 0 160 78q0 21 -7.5 35.5t-22.5 23.5t-28.5 13t-35.5 9q-53 11 -93 16q-87 11 -149 31.5t-111 58t-73.5 98t-24.5 145.5q0 77 26 138.5t69 101t103 65.5t123 37t134 11q214 0 364 -72v-238
h-117q-98 66 -237 66q-141 0 -141 -78q0 -17 10 -30q9 -13 31 -22q35 -18 143 -32q94 -12 156.5 -30.5t114.5 -55t77 -98.5t25 -152q0 -84 -27.5 -149.5t-72.5 -105.5t-109 -65.5t-130 -35.5t-143 -10zM598 1149h-215v68l67 223h355v-88z" />
    <glyph glyph-name="uni015C" unicode="&#x15c;" horiz-adv-x="1135" 
d="M518 -18q-275 0 -469 114v273h145q115 -115 310 -115q40 0 75 5.5t70.5 20t56.5 44t21 71.5q0 45 -20 74q-23 29 -58 45.5t-86 30.5q-69 17 -110 28q-102 26 -172.5 59t-124.5 84t-79.5 125t-25.5 175q0 94 30 169t80 124t120 82t146.5 47t162.5 14q259 0 426 -96v-264
h-142q-115 88 -270 88q-209 0 -209 -133q0 -56 35 -83.5t98 -47.5q41 -13 103 -27q65 -15 114.5 -29.5t99 -35t85.5 -45t67.5 -58t50.5 -74.5t30 -94.5t11 -118.5q0 -101 -31.5 -179.5t-84.5 -129t-127.5 -83.5t-155 -46.5t-172.5 -13.5zM268 1481v78l187 204h247l183 -204
v-78h-199l-115 78l-112 -78h-191z" />
    <glyph glyph-name="uni015D" unicode="&#x15d;" horiz-adv-x="961" 
d="M440 -14q-113 0 -204 19.5t-185 66.5v241h125q44 -39 113 -59.5t137 -20.5q160 0 160 78q0 21 -7.5 35.5t-22.5 23.5t-28.5 13t-35.5 9q-53 11 -93 16q-87 11 -149 31.5t-111 58t-73.5 98t-24.5 145.5q0 77 26 138.5t69 101t103 65.5t123 37t134 11q214 0 364 -72v-238
h-117q-98 66 -237 66q-141 0 -141 -78q0 -17 10 -30q9 -13 31 -22q35 -18 143 -32q94 -12 156.5 -30.5t114.5 -55t77 -98.5t25 -152q0 -84 -27.5 -149.5t-72.5 -105.5t-109 -65.5t-130 -35.5t-143 -10zM180 1149v78l187 213h247l183 -213v-78h-199l-115 86l-112 -86h-191z
" />
    <glyph glyph-name="uni015E" unicode="&#x15e;" horiz-adv-x="1139" 
d="M1090 434q0 -109 -35.5 -192t-101 -136t-150.5 -82.5t-191 -37.5v-35q166 -9 166 -150q0 -45 -20.5 -78t-55.5 -49.5t-72.5 -24t-80.5 -7.5q-100 0 -168 32v127h63q22 -22 68 -22q53 0 53 33q0 32 -63 32h-45v140q-238 10 -408 112v273h146q107 -115 309 -115
q40 0 75 5.5t70.5 20t56.5 44t21 71.5q0 36 -13.5 62t-40.5 43t-50 26t-61 19q-69 17 -109 28q-102 26 -172.5 59.5t-124 84.5t-79.5 125t-26 174q0 94 29.5 169t80 124.5t120.5 82t146.5 46.5t162.5 14q259 0 426 -96v-264h-142q-121 88 -270 88q-209 0 -209 -133
q0 -36 16 -59q34 -58 220 -99q91 -20 155.5 -42t125.5 -57.5t97.5 -82t58.5 -115.5t22 -158z" />
    <glyph glyph-name="uni015F" unicode="&#x15f;" horiz-adv-x="961" 
d="M922 352q0 -170 -103 -258t-280 -104v-39q166 -9 166 -150q0 -45 -20.5 -78t-56 -49.5t-73 -24t-80.5 -7.5q-100 0 -168 32v127h64q22 -22 67 -22q54 0 54 33q0 32 -64 32h-45v144q-187 8 -332 84v241h125q46 -40 114.5 -60t135.5 -20q160 0 160 78q0 20 -8 36
q-19 31 -86 44q-51 10 -93 17q-87 11 -149 31.5t-111 58t-73.5 98t-24.5 145.5q0 78 26 140t68.5 101t102.5 65t123.5 36.5t134.5 10.5q108 0 193 -15.5t171 -56.5v-238h-117q-93 66 -237 66q-27 0 -46 -2t-44 -8.5t-38 -24t-13 -43.5q0 -35 40 -53q38 -19 144 -31
q75 -9 128 -22t102 -37.5t78.5 -59.5t47 -89.5t17.5 -127.5z" />
    <glyph glyph-name="uni0160" unicode="&#x160;" horiz-adv-x="1120" 
d="M514 -18q-275 0 -469 114v273h145q115 -115 310 -115q40 0 75 5.5t70.5 20t56.5 44t21 71.5q0 45 -20 74q-23 29 -58 45.5t-86 30.5q-69 17 -110 28q-102 26 -172.5 59t-124.5 84t-79.5 125t-25.5 175q0 94 30 169t80 124t120 82t146.5 47t162.5 14q259 0 426 -96v-264
h-142q-115 88 -270 88q-209 0 -209 -133q0 -56 35 -83.5t98 -47.5q41 -13 103 -27q65 -15 114.5 -29.5t99 -35t85.5 -45t67.5 -58t50.5 -74.5t30 -94.5t11 -118.5q0 -101 -31.5 -179.5t-84.5 -129t-127.5 -83.5t-155 -46.5t-172.5 -13.5zM875 1763v-77l-189 -205h-247
l-181 205v77h199l115 -77l112 77h191z" />
    <glyph glyph-name="uni0161" unicode="&#x161;" horiz-adv-x="961" 
d="M440 -14q-113 0 -204 19.5t-185 66.5v241h125q44 -39 113 -59.5t137 -20.5q160 0 160 78q0 21 -7.5 35.5t-22.5 23.5t-28.5 13t-35.5 9q-53 11 -93 16q-87 11 -149 31.5t-111 58t-73.5 98t-24.5 145.5q0 77 26 138.5t69 101t103 65.5t123 37t134 11q214 0 364 -72v-238
h-117q-98 66 -237 66q-141 0 -141 -78q0 -17 10 -30q9 -13 31 -22q35 -18 143 -32q94 -12 156.5 -30.5t114.5 -55t77 -98.5t25 -152q0 -84 -27.5 -149.5t-72.5 -105.5t-109 -65.5t-130 -35.5t-143 -10zM797 1440v-78l-189 -213h-247l-181 213v78h199l115 -86l112 86h191z
" />
    <glyph glyph-name="uni0162" unicode="&#x162;" horiz-adv-x="1235" 
d="M814 0h-393v1161h-370v273h1133v-273h-370v-1161zM467 -467v127q54 5 74 16q20 14 20 33q0 16 -14 24q-1 0 -12.5 6.5t-18.5 10.5q-51 33 -51 96q0 56 43.5 86.5t102.5 30.5q74 0 115.5 -44.5t41.5 -119.5q0 -135 -79 -195.5t-222 -70.5z" />
    <glyph glyph-name="uni0163" unicode="&#x163;" horiz-adv-x="754" 
d="M25 842v237h116v275h369v-275h201v-237h-201v-492q0 -71 30.5 -99t102.5 -28h72v-213q-98 -28 -211 -28q-178 0 -270.5 73t-92.5 240v547h-116zM270 -467v127q54 5 74 16q20 14 20 33q0 16 -14 24q-1 0 -12.5 6.5t-18.5 10.5q-51 33 -51 96q0 56 43.5 86.5t102.5 30.5
q74 0 115.5 -44.5t41.5 -119.5q0 -135 -79 -195.5t-222 -70.5z" />
    <glyph glyph-name="uni0168" unicode="&#x168;" horiz-adv-x="1423" 
d="M387 1481v82q16 97 70 154t147 57q55 0 132 -25q9 -3 26.5 -8.5t25.5 -8.5q24 -8 42 -8q25 0 41 14q15 15 22 36h184v-82q-15 -96 -68.5 -153.5t-146.5 -57.5q-38 0 -70 9q-52 12 -113 36q-26 8 -42 8q-53 0 -65 -53h-185zM750 268q71 0 118 19.5t71.5 59t34 86.5
t9.5 114v887h326v-889q0 -561 -584 -561q-290 0 -453 138.5t-163 422.5v889h393v-887q0 -144 56 -211.5t192 -67.5z" />
    <glyph glyph-name="uni0169" unicode="&#x169;" horiz-adv-x="1253" 
d="M608 254q69 0 168 35v790h367v-1079h-256q-48 0 -67 21q-14 14 -21 37q-9 24 -15 63q-181 -137 -368 -137q-316 0 -316 309v786h369v-702q0 -40 10 -63q14 -37 47.5 -48.5t81.5 -11.5zM272 1151v82q16 97 70 155t147 58q57 0 132 -24q69 -25 94 -25q27 0 41 13
q15 15 22 36h184v-82q-15 -96 -69 -154.5t-146 -58.5q-39 0 -70 9q-52 12 -113 36q-26 8 -42 8q-53 0 -65 -53h-185z" />
    <glyph glyph-name="uni016A" unicode="&#x16a;" horiz-adv-x="1419" 
d="M750 268q71 0 118 19.5t71.5 59t34 86.5t9.5 114v887h326v-889q0 -561 -584 -561q-290 0 -453 138.5t-163 422.5v889h393v-887q0 -144 56 -211.5t192 -67.5zM1022 1724v-223h-565v223h565z" />
    <glyph glyph-name="uni016B" unicode="&#x16b;" horiz-adv-x="1249" 
d="M608 254q69 0 168 35v790h367v-1079h-256q-48 0 -67 21q-14 14 -21 37q-9 24 -15 63q-181 -137 -368 -137q-316 0 -316 309v786h369v-702q0 -40 10 -63q14 -37 47.5 -48.5t81.5 -11.5zM901 1407v-221h-553v221h553z" />
    <glyph glyph-name="uni016C" unicode="&#x16c;" horiz-adv-x="1419" 
d="M750 268q71 0 118 19.5t71.5 59t34 86.5t9.5 114v887h326v-889q0 -561 -584 -561q-290 0 -453 138.5t-163 422.5v889h393v-887q0 -144 56 -211.5t192 -67.5zM740 1481q-108 0 -192 51.5t-105 150.5v80h211q4 -32 28 -47.5t58 -15.5q33 0 56.5 15.5t29.5 47.5h211v-80
q-22 -97 -107 -149.5t-190 -52.5z" />
    <glyph glyph-name="uni016D" unicode="&#x16d;" horiz-adv-x="1249" 
d="M608 254q69 0 168 35v790h367v-1079h-256q-48 0 -67 21q-14 14 -21 37q-9 24 -15 63q-181 -137 -368 -137q-316 0 -316 309v786h369v-702q0 -40 10 -63q14 -37 47.5 -48.5t81.5 -11.5zM625 1149q-111 0 -193.5 57t-103.5 160v82h211q6 -78 86 -78q75 0 86 78h211v-82
q-21 -105 -104 -161t-193 -56z" />
    <glyph glyph-name="uni016E" unicode="&#x16e;" horiz-adv-x="1419" 
d="M756 268q71 0 118 19.5t71.5 59t34 86.5t9.5 114v887h326v-889q0 -561 -584 -561q-290 0 -453 138.5t-163 422.5v889h393v-887q0 -144 56 -211.5t192 -67.5zM750 1426q-94 0 -157 58.5t-63 150.5t64 150.5t156 58.5q93 0 156 -59t63 -150q0 -93 -63 -151t-156 -58z
M750 1561q32 0 50.5 20.5t18.5 53.5t-18.5 53.5t-50.5 20.5t-50 -20.5t-18 -53.5t18 -53.5t50 -20.5z" />
    <glyph glyph-name="uni016F" unicode="&#x16f;" horiz-adv-x="1249" 
d="M608 254q69 0 168 35v790h367v-1079h-256q-48 0 -67 21q-14 14 -21 37q-9 24 -15 63q-181 -137 -368 -137q-316 0 -316 309v786h369v-702q0 -40 10 -63q14 -37 47.5 -48.5t81.5 -11.5zM625 1151q-94 0 -157 58.5t-63 150.5t64 150.5t156 58.5q93 0 156 -59t63 -150
q0 -93 -63 -151t-156 -58zM625 1286q32 0 50.5 20.5t18.5 53.5t-18.5 53.5t-50.5 20.5t-50 -20.5t-18 -53.5t18 -53.5t50 -20.5z" />
    <glyph glyph-name="uni0170" unicode="&#x170;" horiz-adv-x="1419" 
d="M750 268q71 0 118 19.5t71.5 59t34 86.5t9.5 114v887h326v-889q0 -561 -584 -561q-290 0 -453 138.5t-163 422.5v889h393v-887q0 -144 56 -211.5t192 -67.5zM451 1481v59l63 217h289v-86l-156 -190h-196zM817 1481v59l64 217h289v-86l-154 -190h-199z" />
    <glyph glyph-name="uni0171" unicode="&#x171;" horiz-adv-x="1249" 
d="M608 254q69 0 168 35v790h367v-1079h-256q-48 0 -67 21q-14 14 -21 37q-9 24 -15 63q-181 -137 -368 -137q-316 0 -316 309v786h369v-702q0 -40 10 -63q14 -37 47.5 -48.5t81.5 -11.5zM342 1149v57l66 234h282v-86l-158 -205h-190zM702 1149v57l66 234h283v-86l-156 -205
h-193z" />
    <glyph glyph-name="uni0172" unicode="&#x172;" horiz-adv-x="1419" 
d="M809 -342q-43 0 -80.5 7.5t-72 24.5t-54.5 50t-20 78q0 99 112 168h-2q-274 0 -428.5 144t-154.5 415v889h393v-887q0 -144 56.5 -211.5t191.5 -67.5q71 0 118 19.5t71.5 59t34 86.5t9.5 114v887h326v-889q0 -84 -12 -153t-39 -135t-78 -118.5t-123 -89.5
q-41 -23 -84 -36q-44 -15 -78.5 -45.5t-34.5 -69.5q0 -50 76 -50h37v-155q-60 -35 -164 -35z" />
    <glyph glyph-name="uni0173" unicode="&#x173;" horiz-adv-x="1249" 
d="M981 -342q-42 0 -79.5 7.5t-72 24t-55 49t-20.5 77.5q0 113 139 184h-6q-44 0 -67 22q-26 21 -36 99q-173 -137 -368 -137q-316 0 -316 309v786h369v-702q0 -78 37 -100q38 -23 102 -23q70 0 168 35v790h367v-1079h-41q-70 -60 -70 -102q0 -50 76 -50h37v-155
q-60 -35 -164 -35z" />
    <glyph glyph-name="uni0174" unicode="&#x174;" horiz-adv-x="1937" 
d="M358 0l-319 1341v93h381l192 -945h4l220 945h311l225 -945h4l187 945h331v-93l-321 -1341h-414l-194 842h-4l-195 -842h-408zM680 1481v78l187 204h247l183 -204v-78h-199l-115 78l-112 -78h-191z" />
    <glyph glyph-name="uni0175" unicode="&#x175;" horiz-adv-x="1679" 
d="M557 1149v78l187 213h247l183 -213v-78h-199l-115 86l-112 -86h-191zM328 0l-293 993v86h354l156 -622h4l182 622h270l173 -622h4l165 622h297v-86l-301 -993h-327l-174 594h-4l-183 -594h-323z" />
    <glyph glyph-name="uni0176" unicode="&#x176;" horiz-adv-x="1309" 
d="M860 0h-393v532l-438 805v97h368l287 -560h4l277 560h311v-97l-416 -794v-543zM366 1481v78l187 204h247l183 -204v-78h-199l-115 78l-112 -78h-191z" />
    <glyph glyph-name="uni0177" unicode="&#x177;" horiz-adv-x="1169" 
d="M279 -332v84l141 299l-389 944v84h350l225 -612h6l209 612h316v-84l-525 -1327h-333zM291 1149v78l187 213h247l183 -213v-78h-199l-115 86l-112 -86h-191z" />
    <glyph glyph-name="uni0178" unicode="&#x178;" horiz-adv-x="1305" 
d="M860 0h-393v532l-438 805v97h368l287 -560h4l277 560h311v-97l-416 -794v-543zM471 1481q-74 0 -124 45t-50 116q0 74 50 118t124 44t123 -45t49 -117t-50 -116.5t-122 -44.5zM888 1481q-73 0 -122.5 45t-49.5 116q0 73 49.5 117.5t122.5 44.5q75 0 126 -45
q49 -49 49 -117q0 -73 -51 -117t-124 -44z" />
    <glyph glyph-name="uni0179" unicode="&#x179;" horiz-adv-x="1171" 
d="M37 0v285l637 868v8h-592v273h1014v-295l-637 -863v-8h637v-268h-1059zM484 1481v67l67 209h355v-86l-207 -190h-215z" />
    <glyph glyph-name="uni017A" unicode="&#x17a;" horiz-adv-x="1040" 
d="M51 0v248l506 577h-479v254h903v-254l-508 -575h498v-250h-920zM639 1149h-215v68l67 223h355v-88z" />
    <glyph glyph-name="uni017B" unicode="&#x17b;" horiz-adv-x="1171" 
d="M37 0v285l637 868v8h-592v273h1014v-295l-637 -863v-8h637v-268h-1059zM611 1481q-79 0 -135 48t-56 124q0 78 56.5 126t134.5 48q79 0 134.5 -48.5t55.5 -125.5t-56 -124.5t-134 -47.5z" />
    <glyph glyph-name="uni017C" unicode="&#x17c;" horiz-adv-x="1040" 
d="M51 0v248l506 577h-479v254h903v-254l-508 -575h498v-250h-920zM529 1145q-79 0 -135 48t-56 124q0 78 56.5 126t134.5 48q79 0 134.5 -48.5t55.5 -125.5t-56 -124.5t-134 -47.5z" />
    <glyph glyph-name="uni017D" unicode="&#x17d;" horiz-adv-x="1171" 
d="M37 0v285l637 868v8h-592v273h1014v-295l-637 -863v-8h637v-268h-1059zM918 1763v-77l-189 -205h-247l-181 205v77h199l115 -77l112 77h191z" />
    <glyph glyph-name="uni017E" unicode="&#x17e;" horiz-adv-x="1040" 
d="M51 0v248l506 577h-479v254h903v-254l-508 -575h498v-250h-920zM836 1440v-78l-189 -213h-247l-181 213v78h199l115 -86l112 86h191z" />
    <glyph glyph-name="uni01FA" unicode="&#x1fa;" horiz-adv-x="1425" 
d="M39 0v92l457 1342h426l462 -1342v-92h-380l-101 324h-457l-96 -324h-311zM672 1073l-146 -483h297l-147 483h-4zM592 1938v67l67 209h355v-86l-207 -190h-215zM703 1481q-94 0 -157 58.5t-63 150.5t64 150.5t156 58.5q93 0 156 -59t63 -150q0 -93 -63 -151t-156 -58z
M703 1616q32 0 50.5 20.5t18.5 53.5t-18.5 53.5t-50.5 20.5t-50 -20.5t-18 -53.5t18 -53.5t50 -20.5z" />
    <glyph glyph-name="uni01FB" unicode="&#x1fb;" horiz-adv-x="1137" 
d="M1040 0h-200q-61 0 -96 22.5t-52 79.5q-106 -116 -309 -116q-154 0 -248 86t-94 235q0 92 35.5 159.5t97 104.5t134 54.5t157.5 17.5q101 0 207 -20v73q0 81 -48 109.5t-135 28.5q-149 0 -256 -72h-110v248q196 86 438 86q87 0 156 -10t131 -35.5t103 -67t65 -107
t24 -153.5v-723zM528 201q78 0 144 59v191q-68 10 -121 10q-160 0 -160 -129q0 -64 36 -97.5t101 -33.5zM560 1151q-94 0 -157 58.5t-63 150.5t64 150.5t156 58.5q93 0 156 -59t63 -150q0 -93 -63 -151t-156 -58zM560 1286q32 0 50.5 20.5t18.5 53.5t-18.5 53.5t-50.5 20.5
t-50 -20.5t-18 -53.5t18 -53.5t50 -20.5zM438 1608v67l67 209h355v-86l-207 -190h-215z" />
    <glyph glyph-name="uni0218" unicode="&#x218;" horiz-adv-x="1139" 
d="M518 -18q-275 0 -469 114v273h145q115 -115 310 -115q40 0 75 5.5t70.5 20t56.5 44t21 71.5q0 45 -20 74q-23 29 -58 45.5t-86 30.5q-69 17 -110 28q-102 26 -172.5 59t-124.5 84t-79.5 125t-25.5 175q0 94 30 169t80 124t120 82t146.5 47t162.5 14q259 0 426 -96v-264
h-142q-115 88 -270 88q-209 0 -209 -133q0 -56 35 -83.5t98 -47.5q41 -13 103 -27q65 -15 114.5 -29.5t99 -35t85.5 -45t67.5 -58t50.5 -74.5t30 -94.5t11 -118.5q0 -101 -31.5 -179.5t-84.5 -129t-127.5 -83.5t-155 -46.5t-172.5 -13.5zM412 -467v127q54 5 74 16
q20 14 20 33q0 16 -14 24q-1 0 -12.5 6.5t-18.5 10.5q-51 33 -51 96q0 56 43.5 86.5t102.5 30.5q74 0 115.5 -44.5t41.5 -119.5q0 -135 -79 -195.5t-222 -70.5z" />
    <glyph glyph-name="uni0219" unicode="&#x219;" horiz-adv-x="961" 
d="M440 -14q-113 0 -204 19.5t-185 66.5v241h125q44 -39 113 -59.5t137 -20.5q160 0 160 78q0 21 -7.5 35.5t-22.5 23.5t-28.5 13t-35.5 9q-53 11 -93 16q-87 11 -149 31.5t-111 58t-73.5 98t-24.5 145.5q0 77 26 138.5t69 101t103 65.5t123 37t134 11q214 0 364 -72v-238
h-117q-98 66 -237 66q-141 0 -141 -78q0 -17 10 -30q9 -13 31 -22q35 -18 143 -32q94 -12 156.5 -30.5t114.5 -55t77 -98.5t25 -152q0 -84 -27.5 -149.5t-72.5 -105.5t-109 -65.5t-130 -35.5t-143 -10zM338 -467v127q54 5 74 16q20 14 20 33q0 16 -14 24q-1 0 -12.5 6.5
t-18.5 10.5q-51 33 -51 96q0 56 43.5 86.5t102.5 30.5q74 0 115.5 -44.5t41.5 -119.5q0 -135 -79 -195.5t-222 -70.5z" />
    <glyph glyph-name="uni0401" unicode="&#x401;" horiz-adv-x="1194" 
d="M404 1481q-74 0 -124 45t-50 116q0 74 50 118t124 44t123 -45t49 -117t-50 -116.5t-122 -44.5zM821 1481q-73 0 -122.5 45t-49.5 116q0 73 49.5 117.5t122.5 44.5q75 0 126 -45q49 -49 49 -117q0 -73 -51 -117t-124 -44zM117 0v1434h987v-275h-596v-305h420v-258h-420
v-330h616v-266h-1007z" />
    <glyph glyph-name="uni0403" unicode="&#x403;" horiz-adv-x="1096" 
d="M115 0v1434h950v-271h-557v-1163h-393zM473 1481v67l67 209h355v-86l-207 -190h-215z" />
    <glyph glyph-name="uni040E" unicode="&#x40e;" horiz-adv-x="1305" 
d="M655 1518q-135 0 -214 64q-79 62 -97 155v80h238q2 -45 17 -70t56 -25q29 0 45.5 14.5t21.5 32t9 48.5h236v-80q-20 -93 -97 -155q-79 -64 -215 -64zM399 -16q-99 0 -184 24v252h86q83 0 130.5 31.5t84.5 107.5l-487 942v93h364l299 -639l266 639h318v-93l-426 -976
q-32 -72 -59 -123t-67 -103t-84 -83.5t-105.5 -51.5t-135.5 -20z" />
    <glyph glyph-name="uni0410" unicode="&#x410;" horiz-adv-x="1425" 
d="M674 1073l-146 -483h297l-147 483h-4zM1006 0l-101 326h-454l-99 -326h-311v92l459 1342h424l462 -1342v-92h-380z" />
    <glyph glyph-name="uni0411" unicode="&#x411;" horiz-adv-x="1282" 
d="M115 0v1434h1005v-271h-612v-260h164q93 0 171.5 -12.5t151 -43.5t122.5 -79.5t80 -124.5t30 -174q0 -127 -42.5 -220t-121 -146.5t-177 -78t-222.5 -24.5h-549zM506 262h139q96 0 143.5 52t47.5 149q0 190 -191 190h-139v-391z" />
    <glyph glyph-name="uni0412" unicode="&#x412;" horiz-adv-x="1286" 
d="M115 0v1434h536q86 0 157 -8.5t143.5 -33t121.5 -64.5t80 -109t31 -160q0 -126 -65.5 -198.5t-192.5 -102.5v-8q143 -27 227 -105t84 -229q0 -96 -33.5 -170t-88 -119.5t-131.5 -75t-155 -40.5t-167 -11h-547zM500 860h133q176 0 176 160q0 158 -174 158h-135v-318z
M500 254h145q197 0 197 184q0 183 -197 183h-145v-367z" />
    <glyph glyph-name="uni0413" unicode="&#x413;" horiz-adv-x="1096" 
d="M115 0v1434h950v-271h-557v-1163h-393z" />
    <glyph glyph-name="uni0414" unicode="&#x414;" horiz-adv-x="1559" 
d="M494 279h485v872h-367q0 -166 -16 -404q-19 -316 -102 -468zM365 0l-41 -287h-306v566h95q112 126 137 588q16 275 16 567h1106v-1155h158v-566h-305l-41 287h-819z" />
    <glyph glyph-name="uni0415" unicode="&#x415;" horiz-adv-x="1194" 
d="M117 0v1434h987v-275h-596v-305h420v-258h-420v-330h616v-266h-1007z" />
    <glyph glyph-name="uni0416" unicode="&#x416;" horiz-adv-x="2234" 
d="M918 0v592h-138l-346 -592h-377v88l396 688l-365 570v88h344l346 -566h140v566h393v-566h139l346 566h338v-88l-358 -562l401 -696v-88h-383l-346 592h-137v-592h-393z" />
    <glyph glyph-name="uni0417" unicode="&#x417;" horiz-adv-x="1143" 
d="M514 -18q-298 0 -467 133v260h133q21 -21 48 -42q90 -79 251 -79q97 0 153 44.5t56 139.5q0 96 -55 134t-156 38h-137v252h121q97 0 155 33.5t58 122.5q0 153 -195 153q-95 0 -157 -30q-63 -32 -95 -60h-141v267q38 18 68 33q155 71 368 71q374 0 493 -211
q40 -71 40 -170q0 -256 -275 -317v-9q152 -23 231 -102t79 -227q0 -94 -34 -169.5t-90 -124t-132 -81t-155.5 -46t-164.5 -13.5z" />
    <glyph glyph-name="uni0418" unicode="&#x418;" horiz-adv-x="1477" 
d="M489 0h-374v1434h372v-887h7l475 887h393v-1434h-373v909h-6z" />
    <glyph glyph-name="uni0419" unicode="&#x419;" horiz-adv-x="1477" 
d="M727 1518q-135 0 -214 64q-79 62 -97 155v80h237q4 -95 74 -95q29 0 45.5 14.5t21.5 32t9 48.5h235v-80q-18 -93 -97 -155q-79 -64 -214 -64zM489 0h-374v1434h372v-887h7l475 887h393v-1434h-373v909h-6z" />
    <glyph glyph-name="uni041A" unicode="&#x41a;" horiz-adv-x="1452" 
d="M1012 0l-346 592h-158v-592h-393v1434h393v-566h160l346 566h338v-88l-359 -564l402 -694v-88h-383z" />
    <glyph glyph-name="uni041B" unicode="&#x41b;" horiz-adv-x="1427" 
d="M920 0v1151h-302q0 -107 -6 -225q-12 -278 -34 -488q-27 -220 -117 -339t-268 -119q-112 0 -175 28v264h62q27 0 49 13.5t36.5 39.5t24.5 50.5t16.5 61t9 55.5t5.5 49q7 79 11 136q6 98 9 148q11 170 13 291q4 108 10 318h1049v-1434h-393z" />
    <glyph glyph-name="uni041C" unicode="&#x41c;" horiz-adv-x="1804" 
d="M115 0v1434h514l272 -852h6l273 852h510v-1434h-385v989h-7l-321 -989h-225l-318 989h-6v-989h-313z" />
    <glyph glyph-name="uni041D" unicode="&#x41d;" horiz-adv-x="1456" 
d="M508 0h-393v1434h393v-566h440v566h393v-1434h-393v592h-440v-592z" />
    <glyph glyph-name="uni041E" unicode="&#x41e;" horiz-adv-x="1526" 
d="M762 -18q-216 0 -378 96t-245.5 261.5t-83.5 375.5q0 240 110.5 422.5t324.5 265.5q126 49 272 49q222 0 396.5 -110.5t255.5 -311.5q56 -138 56 -315q0 -215 -87.5 -381.5t-248.5 -259t-372 -92.5zM762 250q135 0 221 110t86 351q0 240 -86 353q-85 112 -221 112
t-221 -112q-86 -113 -86 -353q0 -241 86 -351t221 -110z" />
    <glyph glyph-name="uni041F" unicode="&#x41f;" horiz-adv-x="1436" 
d="M508 0h-393v1434h1206v-1434h-393v1155h-420v-1155z" />
    <glyph glyph-name="uni0420" unicode="&#x420;" horiz-adv-x="1270" 
d="M117 0v1434h526q102 0 185.5 -13t160 -45.5t128 -84t82 -133.5t30.5 -189q0 -465 -600 -465h-119v-504h-393zM508 1169v-419h119q111 0 162 52t51 163q0 112 -49.5 158t-163.5 46h-119z" />
    <glyph glyph-name="uni0421" unicode="&#x421;" horiz-adv-x="1294" 
d="M762 -18q-226 0 -386.5 92t-239.5 254.5t-79 380.5q0 345 200 544t538 199q128 0 230 -22.5t200 -79.5v-273h-152q-104 97 -268 97q-79 0 -139.5 -25t-99 -66t-63 -100.5t-34.5 -122.5t-10 -137q0 -62 5.5 -114.5t18 -107.5t36.5 -97.5t59 -76.5t88 -52.5t120 -18.5
q98 0 169.5 29t142.5 96h139v-260q-191 -139 -475 -139z" />
    <glyph glyph-name="uni0422" unicode="&#x422;" horiz-adv-x="1229" 
d="M811 0h-393v1161h-369v273h1131v-273h-369v-1161z" />
    <glyph glyph-name="uni0423" unicode="&#x423;" horiz-adv-x="1305" 
d="M399 -16q-99 0 -184 24v252h86q83 0 130.5 31.5t84.5 107.5l-487 942v93h364l299 -639l266 639h318v-93l-426 -976q-32 -72 -59 -123t-67 -103t-84 -83.5t-105.5 -51.5t-135.5 -20z" />
    <glyph glyph-name="uni0424" unicode="&#x424;" horiz-adv-x="1743" 
d="M1315 719q0 128 -67 218.5t-189 90.5v-614q126 5 191 90t65 215zM428 715q0 -129 67 -219t189 -90v612q-124 -1 -190 -88t-66 -215zM1065 156v-166h-387v166q-136 6 -247.5 43t-196.5 104t-132 172.5t-47 241.5q0 139 48.5 247t135 175t197 103t242.5 42v160h387v-160
q139 -6 251 -43t196 -105t130 -175t46 -244q0 -109 -33 -200t-90.5 -155t-136.5 -109.5t-170 -68.5t-193 -28z" />
    <glyph glyph-name="uni0425" unicode="&#x425;" horiz-adv-x="1399" 
d="M53 0v96l381 645l-371 596v97h390l280 -469l252 469h322v-97l-351 -600l390 -641v-96h-388l-303 514l-278 -514h-324z" />
    <glyph glyph-name="uni0426" unicode="&#x426;" horiz-adv-x="1507" 
d="M1479 -287h-305l-41 287h-1016v1434h393v-1155h420v1155h393v-1155h156v-566z" />
    <glyph glyph-name="uni0427" unicode="&#x427;" horiz-adv-x="1407" 
d="M1292 0h-393v543q-43 -16 -143 -41q-94 -23 -209 -23q-231 0 -344 122t-113 349v484h393v-469q0 -99 42 -146t139 -47q114 0 235 33v629h393v-1434z" />
    <glyph glyph-name="uni0428" unicode="&#x428;" horiz-adv-x="2095" 
d="M117 0v1434h393v-1155h342v1155h393v-1155h340v1155h393v-1434h-1861z" />
    <glyph glyph-name="uni0429" unicode="&#x429;" horiz-adv-x="2167" 
d="M2138 -287h-305l-41 287h-1675v1434h393v-1155h342v1155h393v-1155h340v1155h393v-1155h160v-566z" />
    <glyph glyph-name="uni042A" unicode="&#x42a;" horiz-adv-x="1509" 
d="M883 0h-545v1161h-309v273h702v-490h148q129 0 228.5 -23t179 -75.5t121.5 -146t42 -226.5q0 -106 -28 -187.5t-77 -135t-121.5 -87.5t-155.5 -48.5t-185 -14.5zM866 686h-137v-424h137q117 0 157 58q40 56 40 155q0 105 -47 158t-150 53z" />
    <glyph glyph-name="uni042B" unicode="&#x42b;" horiz-adv-x="1855" 
d="M117 0v1434h393v-490h145q103 0 186.5 -13.5t157 -47t123.5 -86.5t78.5 -135t28.5 -189q0 -106 -28 -187.5t-77 -135t-121.5 -87.5t-155.5 -48.5t-185 -14.5h-545zM645 686h-137v-424h137q117 0 157 58q40 56 40 155q0 105 -47 158t-150 53zM1737 0h-394v1434h394v-1434z
" />
    <glyph glyph-name="uni042C" unicode="&#x42c;" horiz-adv-x="1288" 
d="M117 0v1434h393v-490h145q103 0 186.5 -13.5t157 -47t123.5 -86.5t78.5 -135t28.5 -189q0 -106 -28 -187.5t-77 -135t-121.5 -87.5t-155.5 -48.5t-185 -14.5h-545zM645 686h-137v-424h137q117 0 157 58q40 56 40 155q0 105 -47 158t-150 53z" />
    <glyph glyph-name="uni042D" unicode="&#x42d;" horiz-adv-x="1280" 
d="M500 -18q-125 0 -243 32.5t-206 100.5v266h142q126 -121 288 -121q295 0 342 338h-499v264h497q-46 314 -327 314q-188 0 -285 -97h-150v262q105 61 214 86t241 25q334 0 522.5 -188.5t188.5 -513.5q0 -356 -190.5 -562t-534.5 -206z" />
    <glyph glyph-name="uni042E" unicode="&#x42e;" horiz-adv-x="2050" 
d="M1325 -18q-278 0 -454 167.5t-209 442.5h-152v-592h-393v1434h393v-566h158q36 264 216 424t441 160q216 0 378.5 -111t239.5 -311q52 -135 52 -315q0 -210 -78 -375t-231.5 -261.5t-360.5 -96.5zM1325 250q123 0 200 110t77 351q0 242 -77 354q-77 111 -200 111
t-198 -111q-76 -110 -76 -354q0 -242 76 -351q75 -110 198 -110z" />
    <glyph glyph-name="uni042F" unicode="&#x42f;" horiz-adv-x="1337" 
d="M831 752v415h-131q-206 0 -206 -206q0 -209 206 -209h131zM827 496h-125l-288 -496h-357v92l314 494q-269 98 -269 377q0 102 30 182.5t82 134t126 89t157.5 50.5t180.5 15h543v-1434h-394v496z" />
    <glyph glyph-name="uni0430" unicode="&#x430;" horiz-adv-x="1137" 
d="M530 201q78 0 144 59v191q-67 10 -121 10q-160 0 -160 -129q0 -64 36 -97.5t101 -33.5zM1042 0h-200q-60 0 -95.5 23t-52.5 79q-107 -116 -307 -116q-156 0 -250 86t-94 237q0 73 24 131t64 95.5t95 62t114.5 35t126.5 10.5q132 0 207 -18v73q0 42 -13.5 70t-40.5 42
t-56.5 19t-71.5 5q-142 0 -256 -70h-111v246q209 86 438 86q242 0 361 -86q118 -85 118 -287v-723z" />
    <glyph glyph-name="uni0431" unicode="&#x431;" horiz-adv-x="1204" 
d="M606 -16q-146 0 -254.5 46t-174 130t-97 194.5t-31.5 247.5v43q0 82 4 145.5t16 134.5t35 127t58.5 109.5t90.5 96t127 73.5q128 54 335 68q59 5 105 9q78 8 141 26h104v-250q-108 -32 -369 -51q-52 -4 -89.5 -10t-78 -20.5t-67 -36.5t-47.5 -59t-29 -87q150 96 332 96
q222 0 333 -129t111 -355q0 -255 -152.5 -401.5t-402.5 -146.5zM606 225q39 0 70 12.5t50 36t32 51t19 63t8.5 66t2.5 66.5q0 55 -7.5 95.5t-27 75.5t-57.5 53t-94 18q-88 0 -180 -60v-116q0 -34 0.5 -55.5t3 -62.5t9 -70t17 -62t28.5 -56.5t42 -35.5q34 -19 84 -19z" />
    <glyph glyph-name="uni0432" unicode="&#x432;" horiz-adv-x="1153" 
d="M1057 801q0 -96 -52 -156t-145 -76v-8q113 -16 176.5 -76t63.5 -168q0 -317 -434 -317h-566v1079h547q65 0 118 -5.5t109.5 -23.5t95 -47.5t63 -81t24.5 -120.5zM588 858h-129v-199h129q123 0 123 103q0 96 -123 96zM459 446v-225h143q69 0 101 25.5t32 91.5
q0 62 -33.5 85t-99.5 23h-143z" />
    <glyph glyph-name="uni0433" unicode="&#x433;" horiz-adv-x="915" 
d="M887 1079v-252h-418v-827h-369v1079h787z" />
    <glyph glyph-name="uni0434" unicode="&#x434;" horiz-adv-x="1341" 
d="M520 459q-17 -135 -67 -217h344v585h-260q0 -161 -17 -368zM328 0l-25 -246h-278v488h63q29 14 51 38.5t34.5 50t21.5 61t13 62t7 62.5q14 238 14 563h932v-837h135v-488h-278l-25 246h-665z" />
    <glyph glyph-name="uni0435" unicode="&#x435;" horiz-adv-x="1145" 
d="M594 870q-154 0 -174 -219h334q-2 48 -8.5 82.5t-22.5 68t-48.5 51t-80.5 17.5zM1059 309v-219q-188 -106 -447 -106q-270 0 -418.5 140.5t-148.5 407.5q0 255 150 409.5t399 154.5q508 0 508 -541q0 -25 -2 -59q-2 -36 -2 -37h-680q11 -124 69.5 -177t182.5 -53
q166 0 274 80h115z" />
    <glyph glyph-name="uni0436" unicode="&#x436;" horiz-adv-x="1792" 
d="M709 0v426h-84l-254 -426h-340v88l280 487l-252 416v88h314l248 -409h88v409h368v-409h88l248 409h307v-88l-245 -405l286 -498v-88h-346l-254 426h-84v-426h-368z" />
    <glyph glyph-name="uni0437" unicode="&#x437;" horiz-adv-x="1020" 
d="M436 242q162 0 162 104q0 31 -14.5 51t-41.5 28.5t-50 11.5t-54 3h-131v226h133q144 0 144 90q0 88 -148 88q-139 0 -221 -74h-131v246q143 80 385 80q66 0 125 -6.5t124 -26.5t111 -51.5t76.5 -86t30.5 -126.5q0 -97 -59 -154.5t-156 -75.5v-8q111 -13 178.5 -79
t67.5 -173q0 -145 -121 -235q-122 -90 -373 -90q-259 0 -410 92v239h125q41 -36 112 -54.5t136 -18.5z" />
    <glyph glyph-name="uni0438" unicode="&#x438;" horiz-adv-x="1266" 
d="M100 1079h357v-643h4l334 643h370v-1079h-356v643h-4l-334 -643h-371v1079z" />
    <glyph glyph-name="uni0439" unicode="&#x439;" horiz-adv-x="1266" 
d="M627 1149q-136 0 -213 64q-77 63 -97 153v82h236q5 -43 19 -67q14 -27 55 -27t55 23.5t20 70.5h236v-82q-18 -90 -97 -153q-79 -64 -214 -64zM100 1079h357v-643h4l334 643h370v-1079h-356v643h-4l-334 -643h-371v1079z" />
    <glyph glyph-name="uni043A" unicode="&#x43a;" horiz-adv-x="1202" 
d="M825 0l-254 426h-104v-426h-369v1079h369v-409h108l248 409h307v-88l-245 -405l286 -498v-88h-346z" />
    <glyph glyph-name="uni043B" unicode="&#x43b;" horiz-adv-x="1231" 
d="M762 0v825h-238q-1 -31 -2.5 -88t-1.5 -84q-3 -51 -7 -150q-2 -48 -4 -81t-7 -80.5t-12 -80.5t-20 -73.5t-30 -68.5t-41.5 -56t-55.5 -45t-72.5 -27.5t-90.5 -10.5q-70 0 -112 18q-24 8 -37 18v254h32q65 0 87 42q21 40 32 145q10 130 14 211q5 111 9 200q4 95 4 211h921
v-1079h-368z" />
    <glyph glyph-name="uni043C" unicode="&#x43c;" horiz-adv-x="1575" 
d="M100 0v1079h484l211 -581h6l194 581h480v-1079h-355v707h-4l-237 -707h-244l-250 707h-6v-707h-279z" />
    <glyph glyph-name="uni043D" unicode="&#x43d;" horiz-adv-x="1251" 
d="M784 0v426h-315v-426h-369v1079h369v-409h315v409h238q64 0 90.5 -21.5t33.5 -81.5q5 -45 5 -104v-872h-367z" />
    <glyph glyph-name="uni043E" unicode="&#x43e;" horiz-adv-x="1235" 
d="M618 -16q-254 0 -413.5 151.5t-159.5 399.5q0 168 75 296.5t205 196.5t293 68q254 0 414 -156t160 -405q0 -126 -44 -230.5t-121 -174.5t-182 -108t-227 -38zM618 225q60 0 102 27.5t62.5 75.5t28.5 96.5t8 105.5t-8 107t-28 100t-62.5 79.5t-102.5 29.5q-91 0 -147 -77
q-55 -76 -55 -239q0 -45 4.5 -84t18 -81t35.5 -72t59 -49t85 -19z" />
    <glyph glyph-name="uni043F" unicode="&#x43f;" horiz-adv-x="1241" 
d="M469 836v-836h-369v1079h1041v-1079h-369v836h-303z" />
    <glyph glyph-name="uni0440" unicode="&#x440;" horiz-adv-x="1247" 
d="M618 248q52 0 90.5 17t60.5 43t35 65.5t17 77.5t4 86q0 61 -8 107.5t-28 89.5t-61.5 66t-102.5 23q-75 0 -156 -37v-495q61 -43 149 -43zM733 10q-170 0 -264 76v-418h-369v1411h256q52 0 73 -29t30 -87q133 133 332 133q138 0 232 -73t140 -205q35 -102 35 -249
q0 -87 -15 -164.5t-47 -151t-90.5 -129.5t-138.5 -84q-84 -30 -174 -30z" />
    <glyph glyph-name="uni0441" unicode="&#x441;" horiz-adv-x="1044" 
d="M618 -16q-272 0 -422.5 142t-150.5 411q0 133 45.5 239.5t126 176t189 106.5t235.5 37q203 0 342 -76v-252h-133q-72 68 -193 68q-106 0 -172 -75q-67 -74 -67 -229q0 -61 11.5 -111.5t37.5 -93t72 -66t110 -23.5q125 0 215 75h123v-231q-53 -34 -144 -66
q-89 -32 -225 -32z" />
    <glyph glyph-name="uni0442" unicode="&#x442;" horiz-adv-x="1008" 
d="M29 827v252h950v-252h-291v-827h-369v827h-290z" />
    <glyph glyph-name="uni0443" unicode="&#x443;" horiz-adv-x="1169" 
d="M281 -332v84l141 299l-389 944v84h350l225 -612h6l209 612h316v-84l-525 -1327h-333z" />
    <glyph glyph-name="uni0444" unicode="&#x444;" horiz-adv-x="1694" 
d="M1028 1249v-153q182 0 320.5 -59.5t220.5 -185t82 -304.5q0 -190 -92.5 -328.5t-266.5 -195.5q-116 -39 -264 -39v-316h-364v316q-182 0 -320 60t-219.5 186t-81.5 305q0 113 31 205.5t87 158t134 110.5t170.5 66t198.5 21v338h231q27 0 41.5 -1t34.5 -9.5t33 -24.5
q15 -23 19 -56q5 -40 5 -94zM1028 854v-631q74 0 126 25t80 71.5t40 102t12 127.5q0 150 -57.5 227.5t-200.5 77.5zM408 530q0 -71 12.5 -124.5t40.5 -96t79 -64.5t124 -22v631q-256 0 -256 -324z" />
    <glyph glyph-name="uni0445" unicode="&#x445;" horiz-adv-x="1174" 
d="M41 0v86l301 465l-281 442v86h361l194 -331l181 331h301v-86l-258 -422l293 -485v-86h-359l-209 367l-209 -367h-315z" />
    <glyph glyph-name="uni0446" unicode="&#x446;" horiz-adv-x="1303" 
d="M1257 -246h-280l-25 246h-852v1079h369v-837h287v837h235q66 0 92.5 -21t33.5 -82q5 -45 5 -104v-630h135v-488z" />
    <glyph glyph-name="uni0447" unicode="&#x447;" horiz-adv-x="1208" 
d="M1108 0h-369v399q-143 -65 -309 -65q-346 0 -346 356v389h369v-338q0 -79 31.5 -113t109.5 -34q74 0 145 24v461h238q66 0 92.5 -21t33.5 -82q5 -45 5 -104v-872z" />
    <glyph glyph-name="uni0448" unicode="&#x448;" horiz-adv-x="1769" 
d="M1669 0h-1569v1079h369v-835h231v835h369v-835h234v835h237q64 0 90.5 -21.5t33.5 -81.5q5 -45 5 -104v-872z" />
    <glyph glyph-name="uni0449" unicode="&#x449;" horiz-adv-x="1849" 
d="M1804 -246h-278l-25 246h-1401v1079h369v-835h231v835h369v-835h234v835h237q64 0 90.5 -21.5t33.5 -81.5q5 -45 5 -104v-628h135v-490z" />
    <glyph glyph-name="uni044A" unicode="&#x44a;" horiz-adv-x="1321" 
d="M813 0h-518v836h-264v243h631v-323h157q78 0 144.5 -11.5t125.5 -39t101 -69.5t66 -106.5t24 -146.5q0 -102 -36.5 -178t-102.5 -119.5t-147.5 -64.5t-180.5 -21zM659 530v-303h101q75 0 116.5 38.5t41.5 113.5t-41 113t-117 38h-101z" />
    <glyph glyph-name="uni044B" unicode="&#x44b;" horiz-adv-x="1614" 
d="M1520 0h-367v1079h238q65 0 90 -21t34 -82q5 -45 5 -104v-872zM465 1079v-323h160q98 0 177.5 -19.5t144.5 -61.5t100.5 -116t35.5 -176t-36.5 -178t-101.5 -120t-146.5 -64.5t-180.5 -20.5h-518v1079h365zM463 530v-303h102q75 0 116.5 38.5t41.5 113.5t-41 113t-117 38
h-102z" />
    <glyph glyph-name="uni044C" unicode="&#x44c;" horiz-adv-x="1126" 
d="M465 1079v-323h160q98 0 177.5 -19.5t144.5 -61.5t100.5 -116t35.5 -176t-36.5 -178t-101.5 -120t-146.5 -64.5t-180.5 -20.5h-518v1079h365zM463 530v-303h102q75 0 116.5 38.5t41.5 113.5t-41 113t-117 38h-102z" />
    <glyph glyph-name="uni044D" unicode="&#x44d;" horiz-adv-x="1040" 
d="M414 -16q-202 0 -357 92v239h125q79 -71 211 -71q196 0 244 184h-352v231h352q-47 183 -248 183q-120 0 -196 -72h-134v246q151 80 355 80q275 0 431 -138.5t156 -402.5q0 -275 -155 -423t-432 -148z" />
    <glyph glyph-name="uni044E" unicode="&#x44e;" horiz-adv-x="1724" 
d="M1126 -18q-217 0 -364 117.5t-180 326.5h-113v-426h-367v1079h238q64 0 90.5 -21.5t33.5 -81.5q5 -45 5 -104v-202h117q41 203 186 314.5t354 111.5q254 0 403.5 -155.5t149.5 -405.5q0 -254 -152 -403.5t-401 -149.5zM1126 225q187 0 187 305q0 42 -3.5 80.5t-15.5 83.5
t-32 77t-55 53.5t-81 21.5q-57 0 -96.5 -31t-57.5 -83t-25 -100t-7 -102q0 -42 3.5 -79.5t15.5 -80.5t31.5 -73.5t54.5 -51t81 -20.5z" />
    <glyph glyph-name="uni044F" unicode="&#x44f;" horiz-adv-x="1139" 
d="M1055 -2h-365v330h-86l-227 -328h-324v88l236 303q-101 37 -152 115.5t-51 189.5q0 104 37.5 180t105 118.5t150 62.5t182.5 20h494v-1079zM692 553v297h-88q-158 0 -158 -148q0 -74 41.5 -111.5t116.5 -37.5h88z" />
    <glyph glyph-name="uni0451" unicode="&#x451;" horiz-adv-x="1145" 
d="M379 1147q-74 0 -124 45t-50 117q0 73 50.5 118.5t123.5 45.5q74 0 123 -46t49 -118q0 -73 -49.5 -117.5t-122.5 -44.5zM796 1147q-73 0 -122.5 45t-49.5 117t50 118t122 46q74 0 124.5 -46t50.5 -118q0 -73 -51 -117.5t-124 -44.5zM594 870q-154 0 -174 -219h334
q-2 48 -8.5 82.5t-22.5 68t-48.5 51t-80.5 17.5zM1059 309v-219q-188 -106 -447 -106q-270 0 -418.5 140.5t-148.5 407.5q0 255 150 409.5t399 154.5q508 0 508 -541q0 -25 -2 -59q-2 -36 -2 -37h-680q11 -124 69.5 -177t182.5 -53q166 0 274 80h115z" />
    <glyph glyph-name="uni0453" unicode="&#x453;" horiz-adv-x="915" 
d="M887 1079v-252h-418v-827h-369v1079h787zM594 1149h-215v68l67 223h355v-88z" />
    <glyph glyph-name="uni045E" unicode="&#x45e;" horiz-adv-x="1169" 
d="M623 1149q-130 0 -204 64q-75 63 -93 153v82h221q5 -43 19 -67q14 -27 57 -27q21 0 35 7.5t21.5 22t11 29t5.5 35.5h222v-82q-20 -91 -92 -153q-73 -64 -203 -64zM281 -332v84l141 299l-389 944v84h350l225 -612h6l209 612h316v-84l-525 -1327h-333z" />
    <glyph glyph-name="uni0490" unicode="&#x490;" horiz-adv-x="1114" 
d="M510 1163v-1163h-393v1434h628l39 284h297v-555h-571z" />
    <glyph glyph-name="uni1E80" unicode="&#x1e80;" horiz-adv-x="1937" 
d="M1106 1481h-215l-209 190v86h355l69 -209v-67zM358 0l-319 1341v93h381l192 -945h4l220 945h311l225 -945h4l187 945h331v-93l-321 -1341h-414l-194 842h-4l-195 -842h-408z" />
    <glyph glyph-name="uni1E81" unicode="&#x1e81;" horiz-adv-x="1679" 
d="M328 0l-293 993v86h354l156 -622h4l182 622h270l173 -622h4l165 622h297v-86l-301 -993h-327l-174 594h-4l-183 -594h-323zM977 1149h-215l-209 203v88h355l69 -223v-68z" />
    <glyph glyph-name="uni1E82" unicode="&#x1e82;" horiz-adv-x="1937" 
d="M875 1481v67l67 209h355v-86l-207 -190h-215zM358 0l-319 1341v93h381l192 -945h4l220 945h311l225 -945h4l187 945h331v-93l-321 -1341h-414l-194 842h-4l-195 -842h-408z" />
    <glyph glyph-name="uni1E83" unicode="&#x1e83;" horiz-adv-x="1679" 
d="M969 1149h-215v68l67 223h355v-88zM328 0l-293 993v86h354l156 -622h4l182 622h270l173 -622h4l165 622h297v-86l-301 -993h-327l-174 594h-4l-183 -594h-323z" />
    <glyph glyph-name="uni1E84" unicode="&#x1e84;" horiz-adv-x="1937" 
d="M781 1481q-74 0 -124 45t-50 116q0 74 50 118t124 44t123 -45t49 -117t-50 -116.5t-122 -44.5zM1198 1481q-73 0 -122.5 45t-49.5 116q0 73 49.5 117.5t122.5 44.5q75 0 126 -45q49 -49 49 -117q0 -73 -51 -117t-124 -44zM358 0l-319 1341v93h381l192 -945h4l220 945h311
l225 -945h4l187 945h331v-93l-321 -1341h-414l-194 842h-4l-195 -842h-408z" />
    <glyph glyph-name="uni1E85" unicode="&#x1e85;" horiz-adv-x="1679" 
d="M658 1147q-74 0 -124 45t-50 117q0 73 50.5 118.5t123.5 45.5q74 0 123 -46t49 -118q0 -73 -49.5 -117.5t-122.5 -44.5zM1075 1147q-73 0 -122.5 45t-49.5 117t50 118t122 46q74 0 124.5 -46t50.5 -118q0 -73 -51 -117.5t-124 -44.5zM328 0l-293 993v86h354l156 -622h4
l182 622h270l173 -622h4l165 622h297v-86l-301 -993h-327l-174 594h-4l-183 -594h-323z" />
    <glyph glyph-name="uni1EF2" unicode="&#x1ef2;" horiz-adv-x="1309" 
d="M860 0h-393v532l-438 805v97h368l287 -560h4l277 560h311v-97l-416 -794v-543zM788 1481h-215l-209 190v86h355l69 -209v-67z" />
    <glyph glyph-name="uni1EF3" unicode="&#x1ef3;" horiz-adv-x="1169" 
d="M279 -332v84l141 299l-389 944v84h350l225 -612h6l209 612h316v-84l-525 -1327h-333zM719 1149h-215l-209 203v88h355l69 -223v-68z" />
    <glyph glyph-name="uni2013" unicode="&#x2013;" horiz-adv-x="915" 
d="M78 442v271h758v-271h-758z" />
    <glyph glyph-name="_45" 
d="M526 1149h-215l-209 203v88h355l69 -223v-68z" />
    <glyph glyph-name="_73" 
d="M199 1147q-74 0 -124 45t-50 117q0 73 50.5 118.5t123.5 45.5q74 0 123 -46t49 -118q0 -73 -49.5 -117.5t-122.5 -44.5zM616 1147q-73 0 -122.5 45t-49.5 117t50 118t122 46q74 0 124.5 -46t50.5 -118q0 -73 -51 -117.5t-124 -44.5z" />
    <glyph glyph-name="_74" 
d="M684 1407v-221h-553v221h553z" />
    <glyph glyph-name="_75" 
d="M506 1149h-215v68l67 223h355v-88z" />
    <glyph glyph-name="_138" 
d="M98 1149v78l187 213h247l183 -213v-78h-199l-115 86l-112 -86h-191z" />
    <glyph glyph-name="_139" 
d="M715 1440v-78l-189 -213h-247l-181 213v78h199l115 -86l112 86h191z" />
    <glyph glyph-name="_140" 
d="M408 1149q-111 0 -193.5 57t-103.5 160v82h211q6 -78 86 -78q75 0 86 78h211v-82q-21 -105 -104 -161t-193 -56z" />
    <glyph glyph-name="_141" 
d="M408 1145q-79 0 -135 48t-56 124q0 78 56.5 126t134.5 48q79 0 134.5 -48.5t55.5 -125.5t-56 -124.5t-134 -47.5z" />
    <glyph glyph-name="_142" 
d="M408 1151q-94 0 -157 58.5t-63 150.5t64 150.5t156 58.5q93 0 156 -59t63 -150q0 -93 -63 -151t-156 -58zM408 1286q32 0 50.5 20.5t18.5 53.5t-18.5 53.5t-50.5 20.5t-50 -20.5t-18 -53.5t18 -53.5t50 -20.5z" />
    <glyph glyph-name="_143" 
d="M51 1151v82q16 97 70 155t147 58q57 0 132 -24q69 -25 94 -25q27 0 41 13q15 15 22 36h184v-82q-15 -96 -69 -154.5t-146 -58.5q-38 0 -70 9q-52 12 -113 36q-26 8 -42 8q-53 0 -65 -53h-185z" />
    <glyph glyph-name="_144" 
d="M127 1149v57l66 234h282v-86l-158 -205h-190zM487 1149v57l66 234h283v-86l-156 -205h-193z" />
    <glyph glyph-name="_254" 
d="M262 -467v127q54 5 74 16q20 14 20 33q0 16 -14 24q-1 0 -12.5 6.5t-18.5 10.5q-51 33 -51 96q0 56 43.5 86.5t102.5 30.5q74 0 115.5 -44.5t41.5 -119.5q0 -135 -79 -195.5t-222 -70.5z" />
    <glyph glyph-name="_255" horiz-adv-x="819" 
d="M559 1585v-127q-55 -5 -73 -16q-21 -12 -21 -33q0 -15 15 -23q14 -8 30 -18q29 -18 40 -39t11 -57q0 -56 -43.5 -86.5t-101.5 -30.5q-75 0 -116.5 44.5t-41.5 119.5q0 134 79.5 195t221.5 71z" />
    <glyph glyph-name="_256" 
d="M526 1481h-215l-209 190v86h355l69 -209v-67z" />
    <glyph glyph-name="_257" 
d="M199 1481q-74 0 -124 45t-50 116q0 74 50 118t124 44t123 -45t49 -117t-50 -116.5t-122 -44.5zM616 1481q-73 0 -122.5 45t-49.5 116q0 73 49.5 117.5t122.5 44.5q75 0 126 -45q49 -49 49 -117q0 -73 -51 -117t-124 -44z" />
    <glyph glyph-name="_258" 
d="M690 1724v-223h-565v223h565z" />
    <glyph glyph-name="_259" 
d="M291 1481v67l67 209h355v-86l-207 -190h-215z" />
    <glyph glyph-name="_260" 
d="M98 1481v78l187 204h247l183 -204v-78h-199l-115 78l-112 -78h-191z" />
    <glyph glyph-name="_261" 
d="M715 1763v-77l-189 -205h-247l-181 205v77h199l115 -77l112 77h191z" />
    <glyph glyph-name="_262" 
d="M408 1481q-108 0 -192 51.5t-105 150.5v80h211q4 -32 28 -47.5t58 -15.5q33 0 56.5 15.5t29.5 47.5h211v-80q-22 -97 -107 -149.5t-190 -52.5z" />
    <glyph glyph-name="_263" 
d="M408 1481q-79 0 -135 48t-56 124q0 78 56.5 126t134.5 48q79 0 134.5 -48.5t55.5 -125.5t-56 -124.5t-134 -47.5z" />
    <glyph glyph-name="_264" 
d="M408 1481q-94 0 -157 58.5t-63 150.5t64 150.5t156 58.5q93 0 156 -59t63 -150q0 -93 -63 -151t-156 -58zM408 1616q32 0 50.5 20.5t18.5 53.5t-18.5 53.5t-50.5 20.5t-50 -20.5t-18 -53.5t18 -53.5t50 -20.5z" />
    <glyph glyph-name="_265" 
d="M51 1481v82q16 97 70 154t147 57q55 0 132 -25q10 -3 27 -8.5t25 -8.5q24 -8 42 -8q25 0 41 14q15 15 22 36h184v-82q-15 -96 -68.5 -153.5t-146.5 -57.5q-38 0 -70 9q-52 12 -113 36q-26 8 -42 8q-53 0 -65 -53h-185z" />
    <glyph glyph-name="_266" 
d="M121 1481v59l63 217h289v-86l-156 -190h-196zM487 1481v59l64 217h289v-86l-154 -190h-199z" />
    <glyph glyph-name="_267" horiz-adv-x="690" 
d="M25 842v237h116v66q0 167 95.5 240t269.5 73q110 0 186 -28v-207h-57q-63 0 -94 -17.5t-31 -75.5v-51h182v-237h-182v-842h-369v842h-116z" />
    <glyph glyph-name="_268" horiz-adv-x="1335" 
d="M510 842v-842h-369v842h-116v237h116v54q0 313 365 313q113 0 188 -29v-207h-59q-61 0 -93 -17t-32 -71v-43h278v66q0 167 95.5 240t269.5 73q109 0 184 -28v-207h-55q-64 0 -95.5 -17.5t-31.5 -75.5v-51h182v-237h-182v-842h-367v842h-278z" />
    <glyph glyph-name="_277" horiz-adv-x="1569" 
d="M752 1073l-254 -794h501l-243 794h-4zM369 0l-41 -287h-305v566h141l399 1155h443l397 -1155h145v-566h-305l-41 287h-833z" />
    <glyph glyph-name="_280" horiz-adv-x="2243" 
d="M924 455l-129 139l-351 -594h-387v88l465 774l-424 484v88h344l484 -592v592h393v-590l487 590h334v-88l-416 -480l461 -778v-88h-387l-350 594l-129 -139v-455h-393v467z" />
    <glyph glyph-name="_285" horiz-adv-x="1434" 
d="M989 0l-350 594l-129 -141v-453h-393v1434h393v-584l485 584h338v-88l-415 -478l458 -780v-88h-387z" />
    <glyph glyph-name="_287" horiz-adv-x="1440" 
d="M41 0v92l459 1342h424l462 -1342v-92h-380l-328 1073h-4l-322 -1073h-311z" />
    <glyph glyph-name="_310" horiz-adv-x="1206" 
d="M604 -16q-150 0 -276 56.5t-204.5 169.5t-78.5 263q0 167 96 276t260 148l-39 12q-118 36 -182.5 100.5t-64.5 176.5q0 106 84 177q85 71 262 71h624v-252h-555q-100 0 -100 -58q0 -15 10 -25q9 -12 32 -23q25 -12 62 -24q46 -16 101 -32q94 -23 167.5 -50.5t143.5 -71
t116 -98t73.5 -132t27.5 -172.5q0 -119 -44.5 -217t-121.5 -162t-178 -98.5t-215 -34.5zM604 219q187 0 187 262q0 51 -8.5 95.5t-27.5 86.5t-58 66.5t-93 24.5t-93 -24.5t-58.5 -66.5t-28 -86.5t-8.5 -95.5q0 -52 8.5 -95.5t28.5 -82.5t58.5 -61.5t92.5 -22.5z" />
    <glyph glyph-name="_312" horiz-adv-x="1108" 
d="M551 -16q-139 0 -238 40.5t-156 117.5t-82.5 176.5t-25.5 230.5v393q0 563 500 563q104 0 188 -22t149.5 -68t101.5 -125t36 -186q0 -121 -61.5 -210t-176.5 -118q137 -28 208 -121.5t71 -232.5q0 -114 -39.5 -200t-110.5 -137t-162 -76t-202 -25zM416 997v-102h67
q91 0 138 48.5t47 139.5q0 179 -125 179q-80 0 -103 -68q-24 -68 -24 -197zM549 225q153 0 153 215q0 207 -219 207h-67v-162q0 -128 28 -193q27 -67 105 -67z" />
    <glyph glyph-name="_314" horiz-adv-x="969" 
d="M918 791q0 -111 -52.5 -181t-157.5 -117q-76 -36 -188 -69q-66 -18 -99 -40q-34 -22 -34 -62q0 -78 145 -78q151 0 254 78h119v-250q-154 -90 -405 -90q-86 0 -161 16t-141.5 51t-105.5 100t-39 154q0 68 22 122.5t56 91.5t87 67t103.5 47.5t116.5 34.5q72 20 114 42
q42 21 42 62q0 37 -29 55q-31 17 -98 17q-144 0 -234 -70h-114v240q146 82 387 82q81 0 150 -15t130 -47.5t96.5 -94t35.5 -146.5z" />
    <glyph glyph-name="_316" horiz-adv-x="1247" 
d="M1145 1079v-997q0 -99 -35.5 -176t-92.5 -124t-137 -77t-160.5 -41.5t-170.5 -11.5q-279 0 -447 82v250h115q120 -76 285 -76q57 0 99.5 6.5t85.5 24.5t66 56.5t23 96.5v53q-112 -92 -289 -92q-115 0 -201.5 38t-137.5 107t-76 157.5t-25 197.5q0 116 28 213t83.5 171.5
t145.5 116.5t206 42q92 0 163 -28.5t134 -92.5q36 104 139 104h199zM614 287q88 0 162 55v438q-65 41 -149 41q-60 0 -102 -20t-64 -57t-31.5 -80.5t-9.5 -100.5q0 -163 49 -221q43 -55 145 -55z" />
    <glyph glyph-name="_319" horiz-adv-x="1796" 
d="M715 322l-90 98l-250 -420h-344v88l342 559l-301 344v88h307l336 -409v764h233q27 0 41.5 -1t34.5 -9.5t33 -24.5q15 -23 19 -58q5 -42 5 -100v-571l338 409h307v-88l-301 -344l340 -559v-88h-344l-250 422l-90 -100v-322h-366v322z" />
    <glyph glyph-name="_321" horiz-adv-x="975" 
d="M426 -352q-232 0 -385 92v240h125q49 -42 95 -58t112 -16q95 0 145.5 49.5t50.5 144.5q0 93 -60.5 136t-158.5 43h-112v245h106q184 0 184 164q0 156 -153 156q-57 0 -99.5 -17.5t-87.5 -56.5h-131v246q143 80 369 80q74 0 140 -11.5t127 -38.5t105.5 -67.5t70.5 -102.5
t26 -139q0 -121 -62 -209.5t-176 -117.5q128 -29 203.5 -113.5t75.5 -210.5q0 -111 -41 -197t-112.5 -137.5t-161.5 -77.5t-195 -26z" />
    <glyph glyph-name="_323" horiz-adv-x="1245" 
d="M608 254q70 0 168 35v790h367v-1079h-256q-44 0 -67 22q-26 21 -36 99q-173 -137 -368 -137q-316 0 -316 309v786h369v-702q0 -78 37 -100q38 -23 102 -23z" />
    <glyph glyph-name="_325" horiz-adv-x="1245" 
d="M631 1149q-135 0 -214 64q-78 62 -98 153v82h236q5 -43 19 -67q14 -27 57 -27q40 0 54 23.5t20 70.5h237v-82q-18 -90 -97 -153q-79 -64 -214 -64zM608 254q70 0 168 35v790h367v-1079h-256q-44 0 -67 22q-26 21 -36 99q-173 -137 -368 -137q-316 0 -316 309v786h369
v-702q0 -78 37 -100q38 -23 102 -23z" />
    <glyph glyph-name="_327" horiz-adv-x="1182" 
d="M467 1241v-563l336 401h307v-88l-297 -338l338 -565v-88h-346l-250 420l-88 -96v-324h-369v1434h234q65 0 93 -18t37 -76q5 -42 5 -99z" />
    <glyph glyph-name="_329" horiz-adv-x="1180" 
d="M766 1079l381 -995v-84h-352l-232 674h-4l-213 -674h-313v84l368 995h365z" />
    <glyph glyph-name="_332" horiz-adv-x="1251" 
d="M784 0v426h-315v-426h-369v1079h369v-409h315v409h238q64 0 90.5 -21.5t33.5 -81.5q5 -45 5 -104v-872h-367z" />
    <glyph glyph-name="_335" horiz-adv-x="1237" 
d="M98 1079h256q45 0 69 -24q25 -31 36 -107q177 148 389 148q293 0 293 -305v-791h-369v694q0 48 -14.5 76t-55.5 38q-27 5 -57 5q-78 0 -178 -35v-778h-369v1079z" />
    <glyph glyph-name="_339" horiz-adv-x="1866" 
d="M98 1079h256q45 0 69 -24q26 -30 36 -109q77 71 173.5 110.5t198.5 39.5q206 0 265 -154q172 154 387 154q286 0 286 -305v-791h-368v694q0 66 -27.5 92.5t-93.5 26.5q-78 0 -162 -33v-780h-368v694q0 66 -27.5 92.5t-93.5 26.5q-59 0 -162 -31v-782h-369v1079z" />
    <glyph glyph-name="_344" horiz-adv-x="1341" 
d="M608 254q69 0 168 35v790h367v-837h153v-488h-278l-25 246h-106q-48 0 -67 21q-14 14 -21 37q-9 24 -15 63q-181 -137 -368 -137q-316 0 -316 309v786h369v-702q0 -40 10 -63q14 -37 47.5 -48.5t81.5 -11.5z" />
    <glyph glyph-name="_346" horiz-adv-x="1208" 
d="M1108 0h-369v399q-143 -65 -309 -65q-346 0 -346 356v389h369v-338q0 -79 31.5 -113t109.5 -34q74 0 145 24v461h238q66 0 92.5 -21t33.5 -82q5 -45 5 -104v-872z" />
    <glyph glyph-name="_348" horiz-adv-x="1868" 
d="M1767 0h-256q-30 0 -50 10.5t-31 32t-16 41t-9 51.5q-167 -153 -371 -153q-209 0 -266 153q-169 -153 -385 -153q-147 0 -217 80.5t-70 226.5v790h369v-694q0 -70 28 -94q26 -25 93 -25q61 0 162 31v782h368v-694q0 -70 28 -94q26 -25 93 -25q72 0 162 31v782h368v-1079z
" />
    <glyph glyph-name="_350" horiz-adv-x="1962" 
d="M1917 -246h-279l-24 246h-103q-30 0 -50 10.5t-31 32t-16 41t-9 51.5q-167 -153 -371 -153q-209 0 -266 153q-169 -153 -385 -153q-147 0 -217 80.5t-70 226.5v790h369v-694q0 -70 28 -94q26 -25 93 -25q61 0 162 31v782h368v-694q0 -70 28 -94q26 -25 93 -25
q72 0 162 31v782h368v-837h150v-488z" />
    <glyph glyph-name="_354" horiz-adv-x="1126" 
d="M592 -20q-243 0 -367 109q-125 108 -125 294v696h365v-329q64 6 160 6q98 0 177.5 -19.5t144.5 -61.5t100.5 -116t35.5 -176q0 -186 -128 -294q-127 -109 -363 -109zM592 207q131 0 131 172q0 75 -41 113t-117 38q-25 0 -59 -2q-36 -2 -41 -2v-147q0 -172 127 -172z" />
    <glyph glyph-name="_357" horiz-adv-x="1724" 
d="M1126 -18q-217 0 -364 117.5t-180 326.5h-113v-426h-367v1434h238q40 0 67 -8q49 -18 57 -94q5 -45 5 -103v-559h117q41 203 186 314.5t354 111.5q254 0 403.5 -155.5t149.5 -405.5q0 -254 -152 -403.5t-401 -149.5zM1126 225q187 0 187 305q0 42 -3.5 80.5t-15.5 83.5
t-32 77t-55 53.5t-81 21.5q-57 0 -96.5 -31t-57.5 -83t-25 -100t-7 -102q0 -42 3.5 -79.5t15.5 -80.5t31.5 -73.5t54.5 -51t81 -20.5z" />
    <glyph glyph-name="_363" horiz-adv-x="569" 
d="M467 0h-367v1079h238q40 0 67 -8q50 -18 58 -95q4 -36 4 -104v-872zM285 1145q-79 0 -135 48t-56 124q0 78 56.5 126t134.5 48q80 0 135 -48t55 -126t-55.5 -125t-134.5 -47z" />
    </font>
</defs>
</svg>
