<?xml version="1.0" standalone="no"?>
<!DOCTYPE svg PUBLIC "-//W3C//DTD SVG 1.1//EN" "http://www.w3.org/Graphics/SVG/1.1/DTD/svg11.dtd" >
<svg xmlns="http://www.w3.org/2000/svg" xmlns:xlink="http://www.w3.org/1999/xlink" version="1.1">
<metadata>
Created by FontForge 20170731 at Wed Feb 20 16:10:46 2019
 By Aleksey,,,
</metadata>
<defs>
<font id="StagSans-Light" horiz-adv-x="848" >
  <font-face 
    font-family="Stag Sans Light"
    font-weight="300"
    font-stretch="normal"
    units-per-em="2048"
    panose-1="2 11 3 3 4 0 0 2 0 4"
    ascent="1638"
    descent="-410"
    x-height="1067"
    cap-height="1434"
    bbox="-61 -356 2013 2107"
    underline-thickness="102"
    underline-position="-511"
    unicode-range="U+0020-2013"
  />
<missing-glyph horiz-adv-x="1024" 
 />
    <glyph glyph-name="_253" unicode="ff" horiz-adv-x="1077" 
d="M25 989v78h141v94q0 125 63.5 195.5t186.5 70.5q74 0 131 -12v-72h-107q-96 0 -134 -44.5t-38 -143.5v-88h422v107q0 125 63.5 195.5t186.5 70.5q75 0 131 -13v-71h-106q-96 0 -134 -45.5t-38 -143.5v-100h258v-78h-258v-989h-103v989h-422v-989h-102v989h-141z" />
    <glyph glyph-name=".notdef" horiz-adv-x="1024" 
 />
    <glyph glyph-name=".null" horiz-adv-x="0" 
 />
    <glyph glyph-name="nonmarkingreturn" horiz-adv-x="682" 
 />
    <glyph glyph-name="uni0020" unicode=" " horiz-adv-x="494" 
 />
    <glyph glyph-name="uni0021" unicode="!" horiz-adv-x="465" 
d="M190 295l-12 1065v74h111v-74l-13 -1065h-86zM231 -8q-34 0 -55.5 22t-21.5 56q0 33 22 56.5t55 23.5q17 0 32 -6q48 -26 48 -74q0 -34 -23 -56t-57 -22z" />
    <glyph glyph-name="uni002C" unicode="," horiz-adv-x="614" 
d="M207 -166v64q35 6 60.5 25t25.5 50q0 22 -10 29q-7 4 -23 14q-33 21 -33 62q0 33 22.5 52.5t55.5 19.5q43 0 62.5 -31.5t19.5 -77.5q0 -95 -48 -151q-46 -46 -132 -56z" />
    <glyph glyph-name="uni002D" unicode="-" horiz-adv-x="467" 
d="M51 565v90h365v-90h-365z" />
    <glyph glyph-name="uni002E" unicode="." horiz-adv-x="614" 
d="M307 -8q-35 0 -56.5 22t-21.5 56q0 33 22.5 56.5t55.5 23.5q16 0 31 -6q28 -15 43 -43q6 -15 6 -31q0 -33 -23.5 -55.5t-56.5 -22.5z" />
    <glyph glyph-name="uni0030" unicode="0" horiz-adv-x="1229" 
d="M614 -8q-90 0 -168 32t-135 88.5t-98.5 127.5t-67.5 156q-43 135 -43 321q0 100 16 196t51 191.5t100 173t152 119.5q91 45 193 45q90 0 168 -32.5t135.5 -89.5t99 -128.5t67.5 -156.5q42 -137 42 -318q0 -101 -15.5 -196.5t-50 -191.5t-99.5 -173.5t-153 -119.5
q-94 -44 -194 -44zM614 80q94 0 167 42t116 106.5t70.5 152t37 168.5t9.5 166q0 71 -7 139t-23.5 142.5t-47 136.5t-73 113t-106.5 79.5t-143 28.5q-68 0 -125.5 -22t-98 -59t-72 -89t-51 -108.5t-32 -121t-17.5 -122.5t-5 -117q0 -66 5.5 -129t22 -136.5t42 -134t69.5 -114
t101 -82.5q73 -39 161 -39z" />
    <glyph glyph-name="uni0031" unicode="1" horiz-adv-x="1229" 
d="M752 0h-111v1315l-375 -217h-47v71l459 265h74v-1434z" />
    <glyph glyph-name="uni0032" unicode="2" horiz-adv-x="1229" 
d="M1044 92v-92h-892v92l432 428q173 173 251 283q95 135 95 260q0 143 -83.5 216t-228.5 73q-110 0 -193.5 -35.5t-160.5 -112.5h-53v78q81 77 190 118.5t224 41.5q194 0 303.5 -96.5t109.5 -282.5q0 -116 -63.5 -225.5t-167.5 -222.5q-77 -82 -145 -150l-381 -373h763z
" />
    <glyph glyph-name="uni0033" unicode="3" horiz-adv-x="1229" 
d="M563 -8q-113 0 -221 33.5t-186 101.5v84h55q61 -65 154.5 -98t191.5 -33q174 0 275.5 83.5t101.5 248.5q0 78 -28.5 135.5t-79.5 89.5t-112 46.5t-134 14.5h-129v93h112q151 0 245.5 70t94.5 212q0 281 -315 281q-204 0 -332 -113h-51v74q150 127 387 127
q194 0 305 -87.5t111 -275.5q0 -125 -64.5 -207t-183.5 -120v-4q284 -69 284 -338q0 -110 -37 -192t-104 -130.5t-152 -72t-188 -23.5z" />
    <glyph glyph-name="uni0034" unicode="4" horiz-adv-x="1229" 
d="M926 0h-111v371h-688v104l698 959h101v-977h184v-86h-184v-371zM223 461v-4h592v811h-4z" />
    <glyph glyph-name="uni0035" unicode="5" horiz-adv-x="1229" 
d="M1059 485q0 -154 -70 -267t-187.5 -169.5t-266.5 -56.5q-233 0 -390 127v86h54q120 -127 336 -127q192 0 302.5 107t110.5 294q0 170 -88.5 263.5t-253.5 93.5q-202 0 -325 -150h-80v748h786v-95h-698v-538h6q60 60 150.5 91.5t183.5 31.5q204 0 317 -119.5t113 -319.5z
" />
    <glyph glyph-name="uni0036" unicode="6" horiz-adv-x="1229" 
d="M643 -8q-183 0 -299.5 101t-172.5 280q-40 129 -40 313q0 125 23.5 236t73.5 207t123 165t178 108.5t233 39.5q127 0 227 -37q31 -14 51 -25v-90h-51q-83 66 -231 66q-113 0 -202.5 -38.5t-147.5 -102.5t-96 -152.5t-54.5 -181t-17.5 -195.5v-8q80 92 196.5 143t241.5 51
q203 0 320.5 -109.5t117.5 -305.5q0 -216 -130 -340.5t-343 -124.5zM655 786q-120 0 -229 -55t-182 -151q6 -81 21 -149.5t45.5 -135.5t73.5 -113.5t109 -75t150 -28.5q176 0 270.5 102t94.5 275q0 169 -93 250t-260 81z" />
    <glyph glyph-name="uni0037" unicode="7" horiz-adv-x="1229" 
d="M360 0v59l631 1276v4h-825v95h911v-105l-622 -1329h-95z" />
    <glyph glyph-name="uni0038" unicode="8" horiz-adv-x="1229" 
d="M614 -8q-100 0 -187.5 23.5t-158.5 70.5t-112 126t-41 181q0 136 86.5 238t220.5 133v4q-108 33 -175 119.5t-67 197.5q0 89 37 159.5t99 112.5t138 63.5t160 21.5q68 0 131 -13.5t118.5 -42.5t96 -70.5t64 -100.5t23.5 -130q0 -111 -67 -197.5t-173 -119.5v-4
q138 -34 222.5 -133.5t84.5 -237.5q0 -105 -42.5 -184.5t-114.5 -125.5t-158.5 -68.5t-184.5 -22.5zM614 76q82 0 151 18.5t124.5 56t87 100.5t31.5 146q0 84 -32.5 148.5t-89 102.5t-125 56.5t-147.5 18.5q-110 0 -196.5 -33t-141.5 -108.5t-55 -184.5q0 -85 32.5 -148.5
t89 -100t124.5 -54.5t147 -18zM614 809q141 0 233.5 69.5t92.5 202.5q0 93 -46.5 157.5t-118 92t-161.5 27.5q-142 0 -233.5 -71t-91.5 -206t93.5 -203.5t231.5 -68.5z" />
    <glyph glyph-name="uni0039" unicode="9" horiz-adv-x="1229" 
d="M471 -8q-175 0 -297 61v90h51q41 -29 96 -43q67 -22 154 -22q116 0 206.5 37t147 98.5t93 149.5t51 182t14.5 203v8q-80 -94 -192.5 -144.5t-237.5 -50.5q-202 0 -325 109.5t-123 304.5q0 217 134.5 342t348.5 125q182 0 297.5 -101t169.5 -280q39 -131 39 -313
q0 -130 -21.5 -241.5t-70 -207.5t-120.5 -163.5t-177.5 -105.5t-237.5 -38zM580 647q118 0 222.5 54t180.5 149q-39 506 -391 506q-176 0 -274.5 -102t-98.5 -275q0 -168 97.5 -250t263.5 -82z" />
    <glyph glyph-name="uni003A" unicode=":" horiz-adv-x="614" 
d="M307 629q-33 0 -55.5 22.5t-22.5 55.5q0 35 22 57t56 22t56 -22.5t22 -56.5q0 -32 -23 -55t-55 -23zM307 -8q-35 0 -56.5 22t-21.5 56q0 33 22.5 56.5t55.5 23.5q32 0 55 -24t23 -56q0 -33 -22.5 -55.5t-55.5 -22.5z" />
    <glyph glyph-name="uni003B" unicode=";" horiz-adv-x="614" 
d="M207 -166v64q34 6 60 25t26 50q0 22 -10 29q-7 4 -23 14q-33 21 -33 62q0 32 22 52t54 20q43 0 62.5 -31.5t19.5 -77.5q0 -188 -178 -207zM307 629q-33 0 -55.5 22.5t-22.5 55.5q0 35 22 57t56 22t56 -22.5t22 -56.5q0 -32 -23 -55t-55 -23z" />
    <glyph glyph-name="uni003F" unicode="?" horiz-adv-x="881" 
d="M385 295h-88q-11 85 -5 143q4 49 19 92t44 84.5t53 68.5t67 71q50 50 77 75q150 137 150 291q0 121 -70 178.5t-194 57.5q-218 0 -311 -123h-53v86q139 123 366 123q172 0 272.5 -81t100.5 -245q0 -95 -44.5 -173t-124.5 -153q-48 -46 -99 -96q-74 -72 -112.5 -128
t-48.5 -135q-8 -59 1 -136zM348 -8q-34 0 -56 22t-22 56q0 33 22.5 56.5t55.5 23.5q16 0 31 -6q28 -15 43 -43q6 -15 6 -31q0 -33 -23.5 -55.5t-56.5 -22.5z" />
    <glyph glyph-name="uni0041" unicode="A" horiz-adv-x="1253" 
d="M61 0v45l504 1389h129l498 -1389v-45h-96l-162 449h-621l-159 -449h-93zM623 1313l-279 -774h559l-276 774h-4z" />
    <glyph glyph-name="uni0042" unicode="B" horiz-adv-x="1188" 
d="M176 0v1434h406q454 0 454 -357q0 -89 -32 -152.5t-85 -100.5t-137 -66v-2q163 -36 243.5 -120.5t80.5 -240.5q0 -87 -27 -156t-72.5 -113t-109.5 -73t-133.5 -41t-149.5 -12h-438zM285 90h327q82 0 149 17t120 52.5t82.5 96.5t29.5 143q0 308 -405 308h-303v-617z
M285 797h290q75 0 136 14.5t110.5 45.5t77 86t27.5 130q0 270 -346 270h-295v-546z" />
    <glyph glyph-name="uni0043" unicode="C" horiz-adv-x="1262" 
d="M717 -8q-127 0 -231 39t-175 107t-120 161t-71 198.5t-22 223.5t26 225.5t78.5 198t127 157t177 103.5t222.5 37q220 0 355 -85q36 -24 81 -59v-88h-51q-79 79 -170 111.5t-209 32.5q-177 0 -302 -94t-182 -262q-40 -117 -40 -273q0 -104 17 -196.5t55.5 -175.5
t96.5 -143t144.5 -95t194.5 -35q262 0 424 170h47v-82q-191 -176 -473 -176z" />
    <glyph glyph-name="uni0044" unicode="D" horiz-adv-x="1366" 
d="M176 0v1434h383q375 0 548 -176t173 -539q0 -375 -180 -547t-543 -172h-381zM285 90h272q167 0 284.5 39t189.5 119.5t104 195t32 273.5q0 331 -146 478.5t-464 147.5h-272v-1253z" />
    <glyph glyph-name="uni0045" unicode="E" horiz-adv-x="1128" 
d="M176 0v1434h854v-93h-745v-557h563v-90h-563v-604h774v-90h-883z" />
    <glyph glyph-name="uni0046" unicode="F" horiz-adv-x="1100" 
d="M285 0h-109v1434h854v-93h-745v-593h553v-91h-553v-657z" />
    <glyph glyph-name="uni0047" unicode="G" horiz-adv-x="1372" 
d="M745 -8q-169 0 -297 55t-206 154t-117 230t-39 290q0 214 77.5 376t230 253.5t362.5 91.5q252 0 420 -113v-94h-54q-123 119 -366 119q-115 0 -207.5 -32t-156.5 -88.5t-107 -136.5t-62.5 -172.5t-19.5 -199.5q0 -114 18.5 -210t60 -177t104 -138t153.5 -88.5t206 -31.5
q214 0 365 80v452h-317v90h426v-593q-195 -117 -474 -117z" />
    <glyph glyph-name="uni0048" unicode="H" horiz-adv-x="1399" 
d="M285 0h-109v1434h109v-650h829v650h109v-1434h-109v694h-829v-694z" />
    <glyph glyph-name="uni0049" unicode="I" horiz-adv-x="471" 
d="M291 0h-111v1434h111v-1434z" />
    <glyph glyph-name="uni004A" unicode="J" horiz-adv-x="842" 
d="M315 -10q-165 0 -280 76v88h47q76 -76 227 -76q254 0 254 252v1104h111v-1106q0 -171 -95 -254.5t-264 -83.5z" />
    <glyph glyph-name="uni004B" unicode="K" horiz-adv-x="1266" 
d="M176 0v1434h109v-824l764 824h86v-43l-506 -543l557 -805v-43h-96l-533 772l-272 -289v-483h-109z" />
    <glyph glyph-name="uni004C" unicode="L" horiz-adv-x="1104" 
d="M1032 0h-856v1434h109v-1344h747v-90z" />
    <glyph glyph-name="uni004D" unicode="M" horiz-adv-x="1663" 
d="M176 0v1434h170l488 -1268h4l485 1268h166v-1434h-111v1303h-10l-502 -1303h-80l-499 1303h-8v-1303h-103z" />
    <glyph glyph-name="uni004E" unicode="N" horiz-adv-x="1389" 
d="M176 0v1434h135l797 -1237h2v1237h104v-1434h-104l-827 1288h-4v-1288h-103z" />
    <glyph glyph-name="uni004F" unicode="O" horiz-adv-x="1458" 
d="M731 -8q-209 0 -364.5 109t-228.5 304q-52 134 -52 312q0 202 74 364.5t222.5 261.5t348.5 99q238 0 400 -138t218 -370q23 -103 23 -217q0 -150 -43 -281t-122 -230t-202 -156.5t-274 -57.5zM731 78q178 0 304 95.5t184 264.5q41 120 41 277q0 129 -32.5 242.5
t-95.5 203.5t-166.5 142.5t-234.5 52.5q-180 0 -307 -96.5t-184 -267.5q-41 -121 -41 -277q0 -95 17.5 -182.5t54 -168.5t100.5 -145t150 -100q99 -41 210 -41z" />
    <glyph glyph-name="uni0050" unicode="P" horiz-adv-x="1130" 
d="M176 0v1434h373q115 0 204 -20.5t159 -66.5t107.5 -127.5t37.5 -195.5q0 -121 -39 -206t-111 -131.5t-159.5 -66.5t-200.5 -20h-262v-600h-109zM285 1343v-655h262q196 0 297.5 75t101.5 257q0 77 -21 134.5t-55.5 93t-87 57.5t-108.5 30t-127 8h-262z" />
    <glyph glyph-name="uni0051" unicode="Q" horiz-adv-x="1466" 
d="M1335 -186l-700 176q-549 139 -549 727q0 151 43.5 282.5t123.5 230t203.5 155.5t274.5 57q237 0 399.5 -138t218.5 -369q23 -103 23 -218q0 -200 -76.5 -369.5t-234.5 -260.5q-94 -55 -203 -73v-4l539 -106v-90h-62zM733 76q180 0 305 95t182 266q40 119 40 278
q0 131 -32 244.5t-95 203t-166 141.5t-236 52q-110 0 -200 -35t-150.5 -95.5t-102 -143t-60.5 -174.5t-19 -193q0 -97 17.5 -184.5t54 -168.5t101 -145t151.5 -100q99 -41 210 -41z" />
    <glyph glyph-name="uni0052" unicode="R" horiz-adv-x="1229" 
d="M1042 0l-354 655q-59 -6 -125 -6h-272v-649h-111v1434h383q492 0 492 -390q0 -288 -260 -366l342 -635v-43h-95zM291 1343v-606h268q72 0 127.5 8t105.5 28t82.5 54t51 87.5t18.5 125.5t-21 126.5t-55 87.5t-85 53.5t-104.5 28t-119.5 7.5h-268z" />
    <glyph glyph-name="uni0053" unicode="S" horiz-adv-x="1044" 
d="M489 -8q-221 0 -363 83q-48 27 -79 52v96h49q143 -143 391 -143q82 0 147.5 17t116.5 52.5t79 96t28 141.5q0 109 -58.5 170.5t-168.5 95.5q-86 25 -146 41q-62 16 -106.5 31t-94.5 37.5t-83.5 50.5t-62 65t-42.5 87.5t-14 111.5q0 92 35.5 163.5t97 114.5t137.5 65
t162 22q236 0 383 -113v-92h-51q-25 22 -61 48q-108 69 -269 69q-146 0 -238 -66t-92 -203q0 -190 197 -252q56 -19 133 -40q74 -19 119 -32.5t108 -41t106 -60.5q116 -88 116 -264q0 -86 -25 -154.5t-68.5 -114.5t-104.5 -76.5t-130 -44t-148 -13.5z" />
    <glyph glyph-name="uni0054" unicode="T" horiz-adv-x="1137" 
d="M625 0h-111v1343h-469v91h1047v-91h-467v-1343z" />
    <glyph glyph-name="uni0055" unicode="U" horiz-adv-x="1380" 
d="M702 82q410 0 410 399v953h105v-949q0 -250 -137.5 -371.5t-383.5 -121.5q-253 0 -391.5 125t-138.5 368v949h108v-953q0 -207 112 -303t316 -96z" />
    <glyph glyph-name="uni0056" unicode="V" horiz-adv-x="1245" 
d="M565 0l-506 1389v45h95l469 -1303h4l469 1303h90v-45l-506 -1389h-115z" />
    <glyph glyph-name="uni0057" unicode="W" horiz-adv-x="1776" 
d="M422 0l-359 1391v43h101l319 -1260h6l355 1260h94l356 -1260h6l318 1260h94v-43l-358 -1391h-119l-344 1243h-4l-346 -1243h-119z" />
    <glyph glyph-name="uni0058" unicode="X" horiz-adv-x="1227" 
d="M72 0v45l471 700l-441 644v45h95l421 -617l412 617h86v-45l-432 -646l471 -698v-45h-94l-453 674l-450 -674h-86z" />
    <glyph glyph-name="uni0059" unicode="Y" horiz-adv-x="1126" 
d="M621 0h-111v600l-457 789v45h94l420 -732h2l420 732h86v-45l-454 -785v-604z" />
    <glyph glyph-name="uni005A" unicode="Z" horiz-adv-x="1151" 
d="M68 0v94l893 1249v3h-838v88h954v-97l-891 -1247v-4h869v-86h-987z" />
    <glyph glyph-name="uni0061" unicode="a" horiz-adv-x="1010" 
d="M768 104v41q-85 -85 -166.5 -120t-198.5 -35q-153 0 -248.5 81t-95.5 228q0 88 37.5 151.5t102 97.5t135.5 49t153 15q152 0 281 -32v192q0 225 -262 225q-214 0 -332 -94h-43v84q161 92 379 92q172 0 266 -70t94 -231v-778h-28q-46 0 -59 20q-9 10 -12 32q-3 20 -3 52z
M418 70q114 0 194 42t156 132v262q-150 33 -274 33q-64 0 -118.5 -11t-104 -35.5t-78.5 -72t-29 -113.5q0 -119 68.5 -178t185.5 -59z" />
    <glyph glyph-name="uni0062" unicode="b" horiz-adv-x="1135" 
d="M250 1335v-458q80 95 184 148.5t221 53.5q277 0 375 -276q35 -105 35 -256q0 -289 -146 -435q-123 -120 -311 -120q-221 0 -360 125q-15 -117 -74 -117h-27v1434h37q22 0 36 -3q13 -4 20 -14q7 -12 8 -30q2 -26 2 -52zM639 995q-208 0 -389 -219v-563
q69 -76 150.5 -108.5t187.5 -32.5q250 0 340 239q33 90 33 228q0 66 -9 127.5t-30.5 126t-65 113t-104.5 69.5q-58 20 -113 20z" />
    <glyph glyph-name="uni0063" unicode="c" horiz-adv-x="983" 
d="M567 -8q-123 0 -219.5 41.5t-157 115.5t-91.5 172.5t-31 215.5q0 241 135.5 391.5t369.5 150.5q207 0 334 -102v-82h-53q-102 102 -283 102q-100 0 -178 -37t-125.5 -101.5t-71.5 -146t-24 -175.5q0 -100 24.5 -183t72.5 -146.5t125 -98.5t177 -35q195 0 308 123h47v-78
q-65 -65 -160.5 -96t-198.5 -31z" />
    <glyph glyph-name="uni0064" unicode="d" horiz-adv-x="1139" 
d="M883 119v65q-69 -89 -173.5 -140.5t-217.5 -51.5q-143 0 -241.5 73.5t-144.5 208.5q-36 100 -36 250q0 96 18.5 180.5t57.5 159t108 128t162 75.5q55 12 110 12q228 0 357 -133v488h35q22 0 36 -3q26 -8 31 -44q2 -26 2 -52v-1335h-53q-27 0 -36.5 14.5t-11.5 44.5
q-2 23 -3 60zM502 72q120 0 212 56.5t169 160.5v565q-132 145 -340 145q-83 0 -148 -26t-106 -70t-67.5 -105.5t-37 -127.5t-10.5 -142q0 -70 9.5 -132.5t33 -123t59.5 -104t94 -70t132 -26.5z" />
    <glyph glyph-name="uni0065" unicode="e" horiz-adv-x="1042" 
d="M977 530h-805q0 -216 98 -335t308 -119q221 0 331 110h45v-75q-151 -119 -387 -119q-124 0 -220 40t-156.5 113t-91.5 170t-31 215q0 111 31 209.5t89 174.5t149 120.5t204 44.5q117 0 203 -37.5t136.5 -106.5t74.5 -157.5t24 -197.5q0 -21 -1 -31t-1 -19zM541 1001
q-86 0 -154.5 -31.5t-112 -86.5t-68.5 -124t-32 -151h703q-10 393 -336 393z" />
    <glyph glyph-name="uni0066" unicode="f" horiz-adv-x="553" 
d="M25 989v78h141v107q0 126 64.5 196t185.5 70q75 0 131 -13v-71h-107q-97 0 -134.5 -46.5t-37.5 -142.5v-100h258v-78h-258v-989h-102v989h-141z" />
    <glyph glyph-name="uni0067" unicode="g" horiz-adv-x="1135" 
d="M987 1067v-1055q0 -92 -39.5 -162t-105.5 -110t-143.5 -60t-163.5 -20q-254 0 -408 94v80h41q61 -49 159 -71.5t195 -22.5q59 0 110.5 8.5t98 29t80 52t53 79.5t19.5 109v179q-77 -90 -178.5 -139.5t-217.5 -49.5q-140 0 -237 72.5t-144 205.5q-36 100 -36 246
q0 113 28 210.5t82.5 173.5t143.5 119.5t204 43.5q225 0 355 -133q5 85 38 111q11 10 33 10h33zM502 88q119 0 210.5 56t170.5 159v549q-134 147 -336 147q-82 0 -147 -25t-107 -67.5t-69 -103t-38.5 -126t-11.5 -140.5q0 -70 9.5 -132t33 -121.5t60 -101.5t94 -68
t131.5 -26z" />
    <glyph glyph-name="uni0068" unicode="h" horiz-adv-x="1133" 
d="M250 1335v-438q226 182 469 182q276 0 276 -284v-795h-102v782q0 112 -52 161.5t-161 49.5q-194 0 -430 -180v-813h-103v1434h37q22 0 35 -3q27 -6 29 -43q2 -26 2 -53z" />
    <glyph glyph-name="uni0069" unicode="i" horiz-adv-x="408" 
d="M254 0h-102v1067h32q24 0 37 -3q15 -5 22 -15q8 -12 9 -34q2 -30 2 -59v-956zM205 1231q-29 0 -49.5 20t-20.5 49q0 28 20.5 49t49.5 21q28 0 48.5 -20.5t20.5 -49.5t-20 -49t-49 -20z" />
    <glyph glyph-name="uni006A" unicode="j" horiz-adv-x="408" 
d="M-47 -328v70h57q142 0 142 152v1173h30q24 0 38 -3q15 -5 22 -15q7 -11 10 -34q2 -30 2 -59v-1067q0 -108 -54 -166.5t-161 -58.5q-53 0 -86 8zM205 1231q-29 0 -49.5 20t-20.5 49q0 28 20.5 49t49.5 21q28 0 48.5 -20.5t20.5 -49.5t-20 -49t-49 -20z" />
    <glyph glyph-name="uni006B" unicode="k" horiz-adv-x="975" 
d="M250 1335v-870l553 602h80v-41l-373 -403l405 -584v-39h-90l-383 553l-192 -207v-346h-103v1434h37q22 0 36 -3q13 -4 20 -14q7 -12 8 -30q2 -26 2 -52z" />
    <glyph glyph-name="uni006C" unicode="l" horiz-adv-x="401" 
d="M252 0h-102v1434h36q22 0 36 -3q13 -4 20 -14q7 -12 8 -30q2 -26 2 -52v-1335z" />
    <glyph glyph-name="uni006D" unicode="m" horiz-adv-x="1761" 
d="M250 961v-56q207 174 426 174q97 0 164.5 -43.5t89.5 -132.5q207 176 430 176q129 0 196.5 -68.5t67.5 -193.5v-817h-102v791q0 107 -48 154.5t-151 47.5q-102 0 -190.5 -44.5t-194.5 -127.5v-821h-102v791q0 105 -48 153.5t-149 48.5q-184 0 -389 -174v-819h-103v1067
h48q17 0 28 -3q21 -9 25 -47q2 -28 2 -56z" />
    <glyph glyph-name="uni006E" unicode="n" horiz-adv-x="1133" 
d="M250 961v-64q226 182 469 182q276 0 276 -284v-795h-102v782q0 112 -52 161.5t-161 49.5q-194 0 -430 -180v-813h-103v1067h48q17 0 28 -3q21 -9 25 -47q2 -28 2 -56z" />
    <glyph glyph-name="uni006F" unicode="o" horiz-adv-x="1128" 
d="M563 -8q-119 0 -214.5 42.5t-156 117t-92.5 172t-32 211.5q0 240 132 392t363 152q120 0 216 -42.5t157 -116.5t93 -172.5t32 -212.5q0 -242 -132.5 -392.5t-365.5 -150.5zM563 72q102 0 179.5 37t123 102.5t68 146.5t22.5 177q0 99 -24 182t-70.5 146.5t-123 99.5
t-175.5 36q-81 0 -147 -25t-111 -68t-75.5 -102.5t-44 -126.5t-13.5 -142q0 -98 23.5 -180.5t70 -146.5t123 -100t174.5 -36z" />
    <glyph glyph-name="uni0070" unicode="p" horiz-adv-x="1135" 
d="M250 961v-84q80 95 184 148.5t221 53.5q278 0 375 -273q35 -103 35 -255q0 -86 -15 -164t-47.5 -151.5t-91.5 -129t-140 -81.5q-83 -27 -165 -27q-217 0 -356 125v-455h-103v1399h48q17 0 28 -3q21 -9 25 -47q2 -28 2 -56zM639 995q-208 0 -389 -219v-555
q69 -76 150.5 -108.5t187.5 -32.5q82 0 147 25t107 67.5t69 102t38.5 125t11.5 141.5q0 69 -8.5 130.5t-31.5 122t-58.5 104t-92.5 70.5t-131 27z" />
    <glyph glyph-name="uni0071" unicode="q" horiz-adv-x="1135" 
d="M883 -332v522q-69 -89 -173.5 -140.5t-217.5 -51.5q-285 0 -386 278q-36 100 -36 250q0 85 15.5 163t48 151t91.5 128.5t138 82.5q80 28 163 28q234 0 359 -135q1 19 4 37t10 39t21.5 34t33.5 13h33v-1399h-104zM502 80q222 0 381 215v557q-134 147 -340 147
q-83 0 -148 -26t-106 -69t-67.5 -104t-37 -126.5t-10.5 -141.5q0 -245 104 -359q83 -93 224 -93z" />
    <glyph glyph-name="uni0072" unicode="r" horiz-adv-x="702" 
d="M250 950v-67q161 192 350 192q37 0 49 -6v-84q-10 0 -15 1q-10 0 -15 1q-114 0 -200.5 -51.5t-168.5 -149.5v-786h-103v1067h48q17 0 28 -3q20 -9 25 -51q2 -32 2 -63z" />
    <glyph glyph-name="uni0073" unicode="s" horiz-adv-x="874" 
d="M416 -8q-206 0 -344 100v84h41q22 -20 47 -36q93 -68 252 -68q290 0 290 229q0 77 -37 118t-113 63q-56 17 -136 30q-72 11 -126.5 29t-104.5 49.5t-76.5 83.5t-26.5 123q0 75 30.5 131.5t82.5 88.5t113.5 47t131.5 15q190 0 310 -80v-84h-41q-60 48 -122 66t-145 18
q-264 0 -264 -194q0 -74 36.5 -112.5t111.5 -62.5q52 -16 131 -30q64 -10 108.5 -21t93 -32.5t77.5 -51t48 -77t19 -109.5q0 -71 -20.5 -126t-55.5 -90.5t-85.5 -58.5t-105.5 -32.5t-120 -9.5z" />
    <glyph glyph-name="uni0074" unicode="t" horiz-adv-x="608" 
d="M25 989v78h141v297h102v-297h285v-78h-285v-745q0 -48 12 -80q27 -88 173 -88h122v-72q-62 -12 -157 -12q-127 0 -189.5 58.5t-62.5 180.5v758h-141z" />
    <glyph glyph-name="uni0075" unicode="u" horiz-adv-x="1124" 
d="M870 115v41q-95 -75 -213 -121.5t-231 -46.5q-289 0 -289 278v801h105v-791q0 -105 48 -154.5t150 -49.5q199 0 430 170v825h103v-1067h-47q-29 0 -40 13t-13 42q-3 23 -3 60z" />
    <glyph glyph-name="uni0076" unicode="v" horiz-adv-x="1018" 
d="M463 0l-410 1030v37h92l367 -928h4l365 928h84v-37l-406 -1030h-96z" />
    <glyph glyph-name="uni0077" unicode="w" horiz-adv-x="1481" 
d="M367 0l-310 1028v39h93l268 -911h4l283 911h86l276 -911h4l268 911h84v-39l-309 -1028h-90l-279 903h-4l-280 -903h-94z" />
    <glyph glyph-name="uni0078" unicode="x" horiz-adv-x="981" 
d="M57 0v41l357 514l-342 473v39h92l323 -446l304 446h83v-39l-321 -471l373 -516v-41h-92l-353 492l-340 -492h-84z" />
    <glyph glyph-name="uni0079" unicode="y" horiz-adv-x="1032" 
d="M315 -332v33l162 373l-426 962v31h94l381 -872h2l361 872h92v-31l-575 -1368h-91z" />
    <glyph glyph-name="uni007A" unicode="z" horiz-adv-x="938" 
d="M70 0v80l708 907h-665v80h780v-82l-709 -905h697v-80h-811z" />
    <glyph glyph-name="uni00A0" unicode="&#xa0;" horiz-adv-x="494" 
 />
    <glyph glyph-name="uni00C0" unicode="&#xc0;" horiz-adv-x="1253" 
d="M61 0v45l504 1389h129l498 -1389v-45h-96l-162 449h-621l-159 -449h-93zM623 1313l-279 -774h559l-276 774h-4zM670 1481h-61l-158 184v39h102l117 -193v-30z" />
    <glyph glyph-name="uni00C1" unicode="&#xc1;" horiz-adv-x="1253" 
d="M61 0v45l504 1389h129l498 -1389v-45h-96l-162 449h-621l-159 -449h-93zM623 1313l-279 -774h559l-276 774h-4zM588 1481v30l121 193h98v-39l-156 -184h-63z" />
    <glyph glyph-name="uni00C2" unicode="&#xc2;" horiz-adv-x="1253" 
d="M61 0v45l504 1389h129l498 -1389v-45h-96l-162 449h-621l-159 -449h-93zM623 1313l-279 -774h559l-276 774h-4zM406 1481v37l182 188h82l178 -188v-37h-61l-162 143l-160 -143h-59z" />
    <glyph glyph-name="uni00C3" unicode="&#xc3;" horiz-adv-x="1253" 
d="M61 0v45l504 1389h129l498 -1389v-45h-96l-162 449h-621l-159 -449h-93zM623 1313l-279 -774h559l-276 774h-4zM367 1499v39q10 58 51 95.5t98 37.5q46 0 120 -41q8 -4 25 -13.5t26 -14.5q23 -13 46 -13q35 0 56.5 24.5t27.5 61.5h70v-37q-12 -60 -50.5 -96.5
t-97.5 -36.5q-54 0 -121 40q-45 25 -50 28q-24 12 -46 12q-70 0 -86 -86h-69z" />
    <glyph glyph-name="uni00C4" unicode="&#xc4;" horiz-adv-x="1253" 
d="M61 0v45l504 1389h129l498 -1389v-45h-96l-162 449h-621l-159 -449h-93zM623 1313l-279 -774h559l-276 774h-4zM481 1501q-29 0 -49 20.5t-20 49.5t20 49t49 20q28 0 50 -20q20 -22 20 -49q0 -29 -20.5 -49.5t-49.5 -20.5zM774 1501q-28 0 -47.5 21t-19.5 49t19.5 48.5
t47.5 20.5t50 -20q20 -22 20 -49q0 -29 -20.5 -49.5t-49.5 -20.5z" />
    <glyph glyph-name="uni00C5" unicode="&#xc5;" horiz-adv-x="1253" 
d="M61 0v45l504 1389h129l498 -1389v-45h-96l-162 449h-621l-159 -449h-93zM623 1313l-279 -774h559l-276 774h-4zM629 1489q-76 0 -128 49.5t-52 124.5q0 76 52.5 126t127.5 50q34 0 67 -12q52 -23 81.5 -65.5t29.5 -98.5q0 -75 -51.5 -124.5t-126.5 -49.5zM629 1556
q47 0 75.5 30.5t28.5 76.5t-30 79q-33 30 -74 30q-47 0 -76 -31t-29 -78t29 -77t76 -30z" />
    <glyph glyph-name="uni00C6" unicode="&#xc6;" horiz-adv-x="1888" 
d="M934 0v451h-574l-235 -451h-88v45l735 1389h1018v-93h-746v-557h562v-90h-562v-604h775v-90h-885zM829 1341l-421 -800h526v800h-105z" />
    <glyph glyph-name="uni00C7" unicode="&#xc7;" horiz-adv-x="1262" 
d="M717 -8h-15v-74q72 -2 117 -36t45 -103q0 -66 -50.5 -100.5t-119.5 -34.5q-81 0 -145 41v63h43q31 -31 96 -31q36 0 62 15t26 49q0 69 -102 69h-47v148q-139 18 -243.5 84.5t-165.5 167.5t-90.5 219t-29.5 252q0 118 26 225.5t78.5 198t127 157t177 103.5t222.5 37
q220 0 355 -85q36 -24 81 -59v-88h-51q-79 79 -170 111.5t-209 32.5q-177 0 -302 -94t-182 -262q-40 -117 -40 -273q0 -104 17 -196.5t55.5 -175.5t96.5 -143t144.5 -95t194.5 -35q262 0 424 170h47v-82q-191 -176 -473 -176z" />
    <glyph glyph-name="uni00C8" unicode="&#xc8;" horiz-adv-x="1128" 
d="M176 0v1434h854v-93h-745v-557h563v-90h-563v-604h774v-90h-883zM661 1481h-61l-158 184v39h102l117 -193v-30z" />
    <glyph glyph-name="uni00C9" unicode="&#xc9;" horiz-adv-x="1128" 
d="M176 0v1434h854v-93h-745v-557h563v-90h-563v-604h774v-90h-883zM580 1481v30l121 193h98v-39l-156 -184h-63z" />
    <glyph glyph-name="uni00CA" unicode="&#xca;" horiz-adv-x="1128" 
d="M176 0v1434h854v-93h-745v-557h563v-90h-563v-604h774v-90h-883zM396 1481v37l182 188h82l178 -188v-37h-61l-162 143l-160 -143h-59z" />
    <glyph glyph-name="uni00CB" unicode="&#xcb;" horiz-adv-x="1128" 
d="M176 0v1434h854v-93h-745v-557h563v-90h-563v-604h774v-90h-883zM471 1501q-29 0 -49 20.5t-20 49.5t20 49t49 20q28 0 50 -20q20 -22 20 -49q0 -29 -20.5 -49.5t-49.5 -20.5zM764 1501q-28 0 -47.5 21t-19.5 49t19.5 48.5t47.5 20.5t50 -20q20 -22 20 -49
q0 -29 -20.5 -49.5t-49.5 -20.5z" />
    <glyph glyph-name="uni00CC" unicode="&#xcc;" horiz-adv-x="471" 
d="M291 0h-111v1434h111v-1434zM278 1481h-61l-158 184v39h102l117 -193v-30z" />
    <glyph glyph-name="uni00CD" unicode="&#xcd;" horiz-adv-x="471" 
d="M291 0h-111v1434h111v-1434zM197 1481v30l121 193h98v-39l-156 -184h-63z" />
    <glyph glyph-name="uni00CE" unicode="&#xce;" horiz-adv-x="471" 
d="M291 0h-111v1434h111v-1434zM15 1481v37l182 188h82l178 -188v-37h-61l-162 143l-160 -143h-59z" />
    <glyph glyph-name="uni00CF" unicode="&#xcf;" horiz-adv-x="471" 
d="M291 0h-111v1434h111v-1434zM90 1501q-29 0 -49 20.5t-20 49.5t20 49t49 20q28 0 50 -20q20 -22 20 -49q0 -29 -20.5 -49.5t-49.5 -20.5zM383 1501q-28 0 -47.5 21t-19.5 49t19.5 48.5t47.5 20.5t50 -20q20 -22 20 -49q0 -29 -20.5 -49.5t-49.5 -20.5z" />
    <glyph glyph-name="uni00D1" unicode="&#xd1;" horiz-adv-x="1389" 
d="M176 0v1434h135l797 -1237h2v1237h104v-1434h-104l-827 1288h-4v-1288h-103zM455 1499v39q10 58 51 95.5t98 37.5q46 0 120 -41q8 -4 25 -13.5t26 -14.5q23 -13 46 -13q35 0 56.5 24.5t27.5 61.5h70v-37q-12 -60 -50.5 -96.5t-97.5 -36.5q-54 0 -121 40q-45 25 -50 28
q-24 12 -46 12q-70 0 -86 -86h-69z" />
    <glyph glyph-name="uni00D2" unicode="&#xd2;" horiz-adv-x="1458" 
d="M731 -8q-209 0 -364.5 109t-228.5 304q-52 134 -52 312q0 202 74 364.5t222.5 261.5t348.5 99q238 0 400 -138t218 -370q23 -103 23 -217q0 -150 -43 -281t-122 -230t-202 -156.5t-274 -57.5zM731 78q178 0 304 95.5t184 264.5q41 120 41 277q0 129 -32.5 242.5
t-95.5 203.5t-166.5 142.5t-234.5 52.5q-180 0 -307 -96.5t-184 -267.5q-41 -121 -41 -277q0 -95 17.5 -182.5t54 -168.5t100.5 -145t150 -100q99 -41 210 -41zM770 1481h-61l-158 184v39h102l117 -193v-30z" />
    <glyph glyph-name="uni00D3" unicode="&#xd3;" horiz-adv-x="1458" 
d="M731 -8q-209 0 -364.5 109t-228.5 304q-52 134 -52 312q0 202 74 364.5t222.5 261.5t348.5 99q238 0 400 -138t218 -370q23 -103 23 -217q0 -150 -43 -281t-122 -230t-202 -156.5t-274 -57.5zM731 78q178 0 304 95.5t184 264.5q41 120 41 277q0 129 -32.5 242.5
t-95.5 203.5t-166.5 142.5t-234.5 52.5q-180 0 -307 -96.5t-184 -267.5q-41 -121 -41 -277q0 -95 17.5 -182.5t54 -168.5t100.5 -145t150 -100q99 -41 210 -41zM688 1481v30l121 193h98v-39l-156 -184h-63z" />
    <glyph glyph-name="uni00D4" unicode="&#xd4;" horiz-adv-x="1458" 
d="M731 -8q-209 0 -364.5 109t-228.5 304q-52 134 -52 312q0 202 74 364.5t222.5 261.5t348.5 99q238 0 400 -138t218 -370q23 -103 23 -217q0 -150 -43 -281t-122 -230t-202 -156.5t-274 -57.5zM731 78q178 0 304 95.5t184 264.5q41 120 41 277q0 129 -32.5 242.5
t-95.5 203.5t-166.5 142.5t-234.5 52.5q-180 0 -307 -96.5t-184 -267.5q-41 -121 -41 -277q0 -95 17.5 -182.5t54 -168.5t100.5 -145t150 -100q99 -41 210 -41zM506 1481v37l182 188h82l178 -188v-37h-61l-162 143l-160 -143h-59z" />
    <glyph glyph-name="uni00D5" unicode="&#xd5;" horiz-adv-x="1458" 
d="M731 -8q-209 0 -364.5 109t-228.5 304q-52 134 -52 312q0 202 74 364.5t222.5 261.5t348.5 99q238 0 400 -138t218 -370q23 -103 23 -217q0 -150 -43 -281t-122 -230t-202 -156.5t-274 -57.5zM731 78q178 0 304 95.5t184 264.5q41 120 41 277q0 129 -32.5 242.5
t-95.5 203.5t-166.5 142.5t-234.5 52.5q-180 0 -307 -96.5t-184 -267.5q-41 -121 -41 -277q0 -95 17.5 -182.5t54 -168.5t100.5 -145t150 -100q99 -41 210 -41zM467 1499v39q10 58 51 95.5t98 37.5q46 0 120 -41q8 -4 25 -13.5t26 -14.5q23 -13 46 -13q35 0 56.5 24.5
t27.5 61.5h70v-37q-12 -60 -50.5 -96.5t-97.5 -36.5q-54 0 -121 40q-45 25 -50 28q-24 12 -46 12q-70 0 -86 -86h-69z" />
    <glyph glyph-name="uni00D6" unicode="&#xd6;" horiz-adv-x="1458" 
d="M731 -8q-209 0 -364.5 109t-228.5 304q-52 134 -52 312q0 202 74 364.5t222.5 261.5t348.5 99q238 0 400 -138t218 -370q23 -103 23 -217q0 -150 -43 -281t-122 -230t-202 -156.5t-274 -57.5zM731 78q178 0 304 95.5t184 264.5q41 120 41 277q0 129 -32.5 242.5
t-95.5 203.5t-166.5 142.5t-234.5 52.5q-180 0 -307 -96.5t-184 -267.5q-41 -121 -41 -277q0 -95 17.5 -182.5t54 -168.5t100.5 -145t150 -100q99 -41 210 -41zM581 1501q-29 0 -49 20.5t-20 49.5t20 49t49 20q28 0 50 -20q20 -22 20 -49q0 -29 -20.5 -49.5t-49.5 -20.5z
M874 1501q-28 0 -47.5 21t-19.5 49t19.5 48.5t47.5 20.5t50 -20q20 -22 20 -49q0 -29 -20.5 -49.5t-49.5 -20.5z" />
    <glyph glyph-name="uni00D9" unicode="&#xd9;" horiz-adv-x="1380" 
d="M702 82q410 0 410 399v953h105v-949q0 -250 -137.5 -371.5t-383.5 -121.5q-253 0 -391.5 125t-138.5 368v949h108v-953q0 -207 112 -303t316 -96zM733 1481h-61l-158 184v39h102l117 -193v-30z" />
    <glyph glyph-name="uni00DA" unicode="&#xda;" horiz-adv-x="1380" 
d="M702 82q410 0 410 399v953h105v-949q0 -250 -137.5 -371.5t-383.5 -121.5q-253 0 -391.5 125t-138.5 368v949h108v-953q0 -207 112 -303t316 -96zM653 1481v30l121 193h98v-39l-156 -184h-63z" />
    <glyph glyph-name="uni00DB" unicode="&#xdb;" horiz-adv-x="1380" 
d="M702 82q410 0 410 399v953h105v-949q0 -250 -137.5 -371.5t-383.5 -121.5q-253 0 -391.5 125t-138.5 368v949h108v-953q0 -207 112 -303t316 -96zM469 1481v37l182 188h82l178 -188v-37h-61l-162 143l-160 -143h-59z" />
    <glyph glyph-name="uni00DC" unicode="&#xdc;" horiz-adv-x="1380" 
d="M702 82q410 0 410 399v953h105v-949q0 -250 -137.5 -371.5t-383.5 -121.5q-253 0 -391.5 125t-138.5 368v949h108v-953q0 -207 112 -303t316 -96zM544 1501q-29 0 -49 20.5t-20 49.5t20 49t49 20q28 0 50 -20q20 -22 20 -49q0 -29 -20.5 -49.5t-49.5 -20.5zM837 1501
q-28 0 -47.5 21t-19.5 49t19.5 48.5t47.5 20.5t50 -20q20 -22 20 -49q0 -29 -20.5 -49.5t-49.5 -20.5z" />
    <glyph glyph-name="uni00DD" unicode="&#xdd;" horiz-adv-x="1126" 
d="M621 0h-111v600l-457 789v45h94l420 -732h2l420 732h86v-45l-454 -785v-604zM529 1481v30l121 193h98v-39l-156 -184h-63z" />
    <glyph glyph-name="uni00DF" unicode="&#xdf;" horiz-adv-x="1159" 
d="M147 0v1014q0 210 126 320t333 110q69 0 128.5 -12t114 -38.5t86.5 -77.5t32 -122q0 -37 -15.5 -74.5t-36 -66t-55.5 -61t-59.5 -51.5t-61.5 -46q-35 -25 -60 -45q-73 -59 -73 -117q0 -38 29.5 -63t75.5 -45q53 -23 92 -37q54 -20 90 -35.5t77.5 -42t65.5 -55.5t40 -72
t16 -96q0 -77 -29 -135.5t-80 -92.5t-113 -50.5t-135 -16.5q-170 0 -274 78v75h41q95 -73 233 -73q116 0 187 48.5t71 158.5q0 69 -35 112t-103 73q-35 16 -101 40q-41 15 -64.5 24.5t-60.5 28t-61.5 41t-39.5 50.5q-16 31 -16 73q0 37 12.5 69.5t39 62.5t47.5 48t57 47
q61 47 75 58q37 30 59 52.5t42 59t20 74.5q0 41 -16.5 72t-42 49.5t-60.5 30.5t-68.5 16t-70.5 4q-170 0 -263 -94t-93 -260v-1010h-103z" />
    <glyph glyph-name="uni00E0" unicode="&#xe0;" horiz-adv-x="1010" 
d="M768 104v41q-85 -85 -166.5 -120t-198.5 -35q-153 0 -248.5 81t-95.5 228q0 88 37.5 151.5t102 97.5t135.5 49t153 15q152 0 281 -32v192q0 225 -262 225q-214 0 -332 -94h-43v84q161 92 379 92q172 0 266 -70t94 -231v-778h-28q-46 0 -59 20q-9 10 -12 32q-3 20 -3 52z
M418 70q114 0 194 42t156 132v262q-150 33 -274 33q-64 0 -118.5 -11t-104 -35.5t-78.5 -72t-29 -113.5q0 -119 68.5 -178t185.5 -59zM547 1174h-61l-193 219v41h100l154 -228v-32z" />
    <glyph glyph-name="uni00E1" unicode="&#xe1;" horiz-adv-x="1010" 
d="M768 104v41q-85 -85 -166.5 -120t-198.5 -35q-153 0 -248.5 81t-95.5 228q0 88 37.5 151.5t102 97.5t135.5 49t153 15q152 0 281 -32v192q0 225 -262 225q-214 0 -332 -94h-43v84q161 92 379 92q172 0 266 -70t94 -231v-778h-28q-46 0 -59 20q-9 10 -12 32q-3 20 -3 52z
M418 70q114 0 194 42t156 132v262q-150 33 -274 33q-64 0 -118.5 -11t-104 -35.5t-78.5 -72t-29 -113.5q0 -119 68.5 -178t185.5 -59zM538 1174h-63v32l153 228h103v-41z" />
    <glyph glyph-name="uni00E2" unicode="&#xe2;" horiz-adv-x="1010" 
d="M768 104v41q-85 -85 -166.5 -120t-198.5 -35q-153 0 -248.5 81t-95.5 228q0 88 37.5 151.5t102 97.5t135.5 49t153 15q152 0 281 -32v192q0 225 -262 225q-214 0 -332 -94h-43v84q161 92 379 92q172 0 266 -70t94 -231v-778h-28q-46 0 -59 20q-9 10 -12 32q-3 20 -3 52z
M418 70q114 0 194 42t156 132v262q-150 33 -274 33q-64 0 -118.5 -11t-104 -35.5t-78.5 -72t-29 -113.5q0 -119 68.5 -178t185.5 -59zM283 1174v38l188 222h82l184 -222v-38h-61l-168 178l-168 -178h-57z" />
    <glyph glyph-name="uni00E3" unicode="&#xe3;" horiz-adv-x="1010" 
d="M768 104v41q-85 -85 -166.5 -120t-198.5 -35q-153 0 -248.5 81t-95.5 228q0 88 37.5 151.5t102 97.5t135.5 49t153 15q152 0 281 -32v192q0 225 -262 225q-214 0 -332 -94h-43v84q161 92 379 92q172 0 266 -70t94 -231v-778h-28q-46 0 -59 20q-9 10 -12 32q-3 20 -3 52z
M418 70q114 0 194 42t156 132v262q-150 33 -274 33q-64 0 -118.5 -11t-104 -35.5t-78.5 -72t-29 -113.5q0 -119 68.5 -178t185.5 -59zM250 1202v37q9 58 50.5 95.5t98.5 37.5q34 0 64 -12q38 -18 56 -28q27 -15 51 -27q23 -13 46 -13q36 0 57 24t27 62h70v-39
q-13 -59 -51.5 -96t-96.5 -37q-52 0 -121 41q-45 25 -50 28q-23 13 -46 13q-69 0 -86 -86h-69z" />
    <glyph glyph-name="uni00E4" unicode="&#xe4;" horiz-adv-x="1010" 
d="M768 104v41q-85 -85 -166.5 -120t-198.5 -35q-153 0 -248.5 81t-95.5 228q0 88 37.5 151.5t102 97.5t135.5 49t153 15q152 0 281 -32v192q0 225 -262 225q-214 0 -332 -94h-43v84q161 92 379 92q172 0 266 -70t94 -231v-778h-28q-46 0 -59 20q-9 10 -12 32q-3 20 -3 52z
M418 70q114 0 194 42t156 132v262q-150 33 -274 33q-64 0 -118.5 -11t-104 -35.5t-78.5 -72t-29 -113.5q0 -119 68.5 -178t185.5 -59zM364 1231q-28 0 -48.5 19.5t-20.5 47.5q0 29 20 49.5t49 20.5q28 0 50 -20q20 -22 20 -50t-21 -47.5t-49 -19.5zM657 1231q-27 0 -47 20
t-20 47q0 28 19.5 49t47.5 21t50 -20q20 -22 20 -50t-21 -47.5t-49 -19.5z" />
    <glyph glyph-name="uni00E5" unicode="&#xe5;" horiz-adv-x="1010" 
d="M768 104v41q-85 -85 -166.5 -120t-198.5 -35q-153 0 -248.5 81t-95.5 228q0 88 37.5 151.5t102 97.5t135.5 49t153 15q152 0 281 -32v192q0 225 -262 225q-214 0 -332 -94h-43v84q161 92 379 92q172 0 266 -70t94 -231v-778h-28q-46 0 -59 20q-9 10 -12 32q-3 20 -3 52z
M418 70q114 0 194 42t156 132v262q-150 33 -274 33q-64 0 -118.5 -11t-104 -35.5t-78.5 -72t-29 -113.5q0 -119 68.5 -178t185.5 -59zM512 1176q-76 0 -128 50t-52 124q0 76 52.5 126t127.5 50q34 0 67 -12q52 -23 81.5 -65.5t29.5 -98.5q0 -75 -52 -124.5t-126 -49.5z
M512 1243q45 0 74.5 31t29.5 76q0 47 -29 78.5t-75 31.5q-47 0 -76 -31.5t-29 -78.5t29.5 -77t75.5 -30z" />
    <glyph glyph-name="uni00E6" unicode="&#xe6;" horiz-adv-x="1743" 
d="M406 -10q-155 0 -251 81t-96 230q0 70 26 124.5t67.5 88.5t98.5 56.5t115 31t121 8.5h281v162q0 225 -262 225q-214 0 -332 -94h-43v84q161 92 379 92q300 0 344 -217q62 104 163 160.5t224 56.5q117 0 203.5 -37.5t136.5 -106.5t74 -157t24 -198q0 -19 -1 -29t-1 -19
h-805v-2q0 -216 98 -335t308 -119q214 0 332 110h45v-75q-150 -119 -387 -119q-308 0 -432 231q-157 -233 -430 -233zM418 70q129 0 220.5 57.5t164.5 169.5q-35 105 -35 233v2h-274q-63 0 -117 -10t-104.5 -33.5t-79.5 -70t-29 -111.5q0 -119 68.5 -178t185.5 -59z
M1241 1001q-86 0 -154 -31t-111.5 -86t-68.5 -123.5t-33 -150.5h701q-5 391 -334 391z" />
    <glyph glyph-name="uni00E7" unicode="&#xe7;" horiz-adv-x="983" 
d="M459 0h4q-102 16 -179.5 66t-123.5 123.5t-69 161t-23 186.5q0 241 135.5 391.5t369.5 150.5q207 0 334 -102v-82h-53q-102 102 -283 102q-100 0 -178 -37t-125.5 -101.5t-71.5 -146t-24 -175.5q0 -100 24.5 -183t72.5 -146.5t125 -98.5t177 -35q195 0 308 123h47v-78
q-65 -65 -160.5 -96t-198.5 -31h-16q-6 0 -16 2v-76q72 -2 116.5 -36t44.5 -103q0 -67 -50 -101t-120 -34q-81 0 -145 41v63h43q31 -31 96 -31q36 0 62 15t26 49q0 69 -102 69h-47v150z" />
    <glyph glyph-name="uni00E8" unicode="&#xe8;" horiz-adv-x="1042" 
d="M977 530h-805q0 -216 98 -335t308 -119q221 0 331 110h45v-75q-151 -119 -387 -119q-124 0 -220 40t-156.5 113t-91.5 170t-31 215q0 111 31 209.5t89 174.5t149 120.5t204 44.5q117 0 203 -37.5t136.5 -106.5t74.5 -157.5t24 -197.5q0 -21 -1 -31t-1 -19zM541 1001
q-86 0 -154.5 -31.5t-112 -86.5t-68.5 -124t-32 -151h703q-10 393 -336 393zM575 1174h-61l-193 219v41h100l154 -228v-32z" />
    <glyph glyph-name="uni00E9" unicode="&#xe9;" horiz-adv-x="1042" 
d="M977 530h-805q0 -216 98 -335t308 -119q221 0 331 110h45v-75q-151 -119 -387 -119q-124 0 -220 40t-156.5 113t-91.5 170t-31 215q0 111 31 209.5t89 174.5t149 120.5t204 44.5q117 0 203 -37.5t136.5 -106.5t74.5 -157.5t24 -197.5q0 -21 -1 -31t-1 -19zM541 1001
q-86 0 -154.5 -31.5t-112 -86.5t-68.5 -124t-32 -151h703q-10 393 -336 393zM567 1174h-63v32l153 228h103v-41z" />
    <glyph glyph-name="uni00EA" unicode="&#xea;" horiz-adv-x="1042" 
d="M977 530h-805q0 -216 98 -335t308 -119q221 0 331 110h45v-75q-151 -119 -387 -119q-124 0 -220 40t-156.5 113t-91.5 170t-31 215q0 111 31 209.5t89 174.5t149 120.5t204 44.5q117 0 203 -37.5t136.5 -106.5t74.5 -157.5t24 -197.5q0 -21 -1 -31t-1 -19zM541 1001
q-86 0 -154.5 -31.5t-112 -86.5t-68.5 -124t-32 -151h703q-10 393 -336 393zM312 1174v38l188 222h82l184 -222v-38h-61l-168 178l-168 -178h-57z" />
    <glyph glyph-name="uni00EB" unicode="&#xeb;" horiz-adv-x="1042" 
d="M977 530h-805q0 -216 98 -335t308 -119q221 0 331 110h45v-75q-151 -119 -387 -119q-124 0 -220 40t-156.5 113t-91.5 170t-31 215q0 111 31 209.5t89 174.5t149 120.5t204 44.5q117 0 203 -37.5t136.5 -106.5t74.5 -157.5t24 -197.5q0 -21 -1 -31t-1 -19zM541 1001
q-86 0 -154.5 -31.5t-112 -86.5t-68.5 -124t-32 -151h703q-10 393 -336 393zM393 1231q-28 0 -48.5 19.5t-20.5 47.5q0 29 20 49.5t49 20.5q28 0 50 -20q20 -22 20 -50t-21 -47.5t-49 -19.5zM686 1231q-27 0 -47 20t-20 47q0 28 19.5 49t47.5 21t50 -20q20 -22 20 -50
t-21 -47.5t-49 -19.5z" />
    <glyph glyph-name="uni00EC" unicode="&#xec;" horiz-adv-x="408" 
d="M254 0h-102v1067h32q24 0 37 -3q15 -5 22 -15q8 -12 9 -34q2 -30 2 -59v-956zM242 1174h-61l-193 219v41h100l154 -228v-32z" />
    <glyph glyph-name="uni00ED" unicode="&#xed;" horiz-adv-x="408" 
d="M254 0h-102v1067h32q24 0 37 -3q15 -5 22 -15q8 -12 9 -34q2 -30 2 -59v-956zM229 1174h-63v32l153 228h103v-41z" />
    <glyph glyph-name="uni00EE" unicode="&#xee;" horiz-adv-x="408" 
d="M254 0h-102v1067h32q24 0 37 -3q15 -5 22 -15q8 -12 9 -34q2 -30 2 -59v-956zM-24 1174v38l188 222h82l184 -222v-38h-61l-168 178l-168 -178h-57z" />
    <glyph glyph-name="uni00EF" unicode="&#xef;" horiz-adv-x="408" 
d="M254 0h-102v1067h32q24 0 37 -3q15 -5 22 -15q8 -12 9 -34q2 -30 2 -59v-956zM57 1231q-28 0 -48.5 19.5t-20.5 47.5q0 29 20 49.5t49 20.5q28 0 50 -20q20 -22 20 -50t-21 -47.5t-49 -19.5zM350 1231q-27 0 -47 20t-20 47q0 28 19.5 49t47.5 21t50 -20q20 -22 20 -50
t-21 -47.5t-49 -19.5z" />
    <glyph glyph-name="uni00F1" unicode="&#xf1;" horiz-adv-x="1133" 
d="M250 961v-64q226 182 469 182q276 0 276 -284v-795h-102v782q0 112 -52 161.5t-161 49.5q-194 0 -430 -180v-813h-103v1067h48q17 0 28 -3q21 -9 25 -47q2 -28 2 -56zM318 1202v37q9 58 50.5 95.5t98.5 37.5q34 0 64 -12q38 -18 56 -28q27 -15 51 -27q23 -13 46 -13
q36 0 57 24t27 62h70v-39q-13 -59 -51.5 -96t-96.5 -37q-52 0 -121 41q-45 25 -50 28q-23 13 -46 13q-69 0 -86 -86h-69z" />
    <glyph glyph-name="uni00F2" unicode="&#xf2;" horiz-adv-x="1128" 
d="M563 -8q-119 0 -214.5 42.5t-156 117t-92.5 172t-32 211.5q0 240 132 392t363 152q120 0 216 -42.5t157 -116.5t93 -172.5t32 -212.5q0 -242 -132.5 -392.5t-365.5 -150.5zM563 72q102 0 179.5 37t123 102.5t68 146.5t22.5 177q0 99 -24 182t-70.5 146.5t-123 99.5
t-175.5 36q-81 0 -147 -25t-111 -68t-75.5 -102.5t-44 -126.5t-13.5 -142q0 -98 23.5 -180.5t70 -146.5t123 -100t174.5 -36zM598 1174h-61l-193 219v41h100l154 -228v-32z" />
    <glyph glyph-name="uni00F3" unicode="&#xf3;" horiz-adv-x="1128" 
d="M563 -8q-119 0 -214.5 42.5t-156 117t-92.5 172t-32 211.5q0 240 132 392t363 152q120 0 216 -42.5t157 -116.5t93 -172.5t32 -212.5q0 -242 -132.5 -392.5t-365.5 -150.5zM563 72q102 0 179.5 37t123 102.5t68 146.5t22.5 177q0 99 -24 182t-70.5 146.5t-123 99.5
t-175.5 36q-81 0 -147 -25t-111 -68t-75.5 -102.5t-44 -126.5t-13.5 -142q0 -98 23.5 -180.5t70 -146.5t123 -100t174.5 -36zM590 1174h-63v32l153 228h103v-41z" />
    <glyph glyph-name="uni00F4" unicode="&#xf4;" horiz-adv-x="1128" 
d="M563 -8q-119 0 -214.5 42.5t-156 117t-92.5 172t-32 211.5q0 240 132 392t363 152q120 0 216 -42.5t157 -116.5t93 -172.5t32 -212.5q0 -242 -132.5 -392.5t-365.5 -150.5zM563 72q102 0 179.5 37t123 102.5t68 146.5t22.5 177q0 99 -24 182t-70.5 146.5t-123 99.5
t-175.5 36q-81 0 -147 -25t-111 -68t-75.5 -102.5t-44 -126.5t-13.5 -142q0 -98 23.5 -180.5t70 -146.5t123 -100t174.5 -36zM334 1174v38l188 222h82l184 -222v-38h-61l-168 178l-168 -178h-57z" />
    <glyph glyph-name="uni00F5" unicode="&#xf5;" horiz-adv-x="1128" 
d="M563 -8q-119 0 -214.5 42.5t-156 117t-92.5 172t-32 211.5q0 240 132 392t363 152q120 0 216 -42.5t157 -116.5t93 -172.5t32 -212.5q0 -242 -132.5 -392.5t-365.5 -150.5zM563 72q102 0 179.5 37t123 102.5t68 146.5t22.5 177q0 99 -24 182t-70.5 146.5t-123 99.5
t-175.5 36q-81 0 -147 -25t-111 -68t-75.5 -102.5t-44 -126.5t-13.5 -142q0 -98 23.5 -180.5t70 -146.5t123 -100t174.5 -36zM303 1202v37q9 58 50.5 95.5t98.5 37.5q34 0 64 -12q38 -18 56 -28q27 -15 51 -27q23 -13 46 -13q36 0 57 24t27 62h70v-39q-13 -59 -51.5 -96
t-96.5 -37q-52 0 -121 41q-45 25 -50 28q-23 13 -46 13q-69 0 -86 -86h-69z" />
    <glyph glyph-name="uni00F6" unicode="&#xf6;" horiz-adv-x="1128" 
d="M563 -8q-119 0 -214.5 42.5t-156 117t-92.5 172t-32 211.5q0 240 132 392t363 152q120 0 216 -42.5t157 -116.5t93 -172.5t32 -212.5q0 -242 -132.5 -392.5t-365.5 -150.5zM563 72q102 0 179.5 37t123 102.5t68 146.5t22.5 177q0 99 -24 182t-70.5 146.5t-123 99.5
t-175.5 36q-81 0 -147 -25t-111 -68t-75.5 -102.5t-44 -126.5t-13.5 -142q0 -98 23.5 -180.5t70 -146.5t123 -100t174.5 -36zM415 1231q-28 0 -48.5 19.5t-20.5 47.5q0 29 20 49.5t49 20.5q28 0 50 -20q20 -22 20 -50t-21 -47.5t-49 -19.5zM708 1231q-27 0 -47 20t-20 47
q0 28 19.5 49t47.5 21t50 -20q20 -22 20 -50t-21 -47.5t-49 -19.5z" />
    <glyph glyph-name="uni00F9" unicode="&#xf9;" horiz-adv-x="1124" 
d="M870 115v41q-95 -75 -213 -121.5t-231 -46.5q-289 0 -289 278v801h105v-791q0 -105 48 -154.5t150 -49.5q199 0 430 170v825h103v-1067h-47q-29 0 -40 13t-13 42q-3 23 -3 60zM594 1174h-61l-193 219v41h100l154 -228v-32z" />
    <glyph glyph-name="uni00FA" unicode="&#xfa;" horiz-adv-x="1124" 
d="M870 115v41q-95 -75 -213 -121.5t-231 -46.5q-289 0 -289 278v801h105v-791q0 -105 48 -154.5t150 -49.5q199 0 430 170v825h103v-1067h-47q-29 0 -40 13t-13 42q-3 23 -3 60zM585 1174h-63v32l153 228h103v-41z" />
    <glyph glyph-name="uni00FB" unicode="&#xfb;" horiz-adv-x="1124" 
d="M870 115v41q-95 -75 -213 -121.5t-231 -46.5q-289 0 -289 278v801h105v-791q0 -105 48 -154.5t150 -49.5q199 0 430 170v825h103v-1067h-47q-29 0 -40 13t-13 42q-3 23 -3 60zM330 1174v38l188 222h82l184 -222v-38h-61l-168 178l-168 -178h-57z" />
    <glyph glyph-name="uni00FC" unicode="&#xfc;" horiz-adv-x="1124" 
d="M870 115v41q-95 -75 -213 -121.5t-231 -46.5q-289 0 -289 278v801h105v-791q0 -105 48 -154.5t150 -49.5q199 0 430 170v825h103v-1067h-47q-29 0 -40 13t-13 42q-3 23 -3 60zM411 1231q-28 0 -48.5 19.5t-20.5 47.5q0 29 20 49.5t49 20.5q28 0 50 -20q20 -22 20 -50
t-21 -47.5t-49 -19.5zM704 1231q-27 0 -47 20t-20 47q0 28 19.5 49t47.5 21t50 -20q20 -22 20 -50t-21 -47.5t-49 -19.5z" />
    <glyph glyph-name="uni00FD" unicode="&#xfd;" horiz-adv-x="1032" 
d="M315 -332v33l162 373l-426 962v31h94l381 -872h2l361 872h92v-31l-575 -1368h-91zM553 1174h-63v32l153 228h103v-41z" />
    <glyph glyph-name="uni00FF" unicode="&#xff;" horiz-adv-x="1032" 
d="M315 -332v33l162 373l-426 962v31h94l381 -872h2l361 872h92v-31l-575 -1368h-91zM378 1231q-28 0 -48.5 19.5t-20.5 47.5q0 29 20 49.5t49 20.5q28 0 50 -20q20 -22 20 -50t-21 -47.5t-49 -19.5zM671 1231q-27 0 -47 20t-20 47q0 28 19.5 49t47.5 21t50 -20
q20 -22 20 -50t-21 -47.5t-49 -19.5z" />
    <glyph glyph-name="uni0100" unicode="&#x100;" horiz-adv-x="1253" 
d="M61 0v45l504 1389h129l498 -1389v-45h-96l-162 449h-621l-159 -449h-93zM623 1313l-279 -774h559l-276 774h-4zM864 1616v-80h-471v80h471z" />
    <glyph glyph-name="uni0101" unicode="&#x101;" horiz-adv-x="1010" 
d="M768 104v41q-85 -85 -166.5 -120t-198.5 -35q-153 0 -248.5 81t-95.5 228q0 88 37.5 151.5t102 97.5t135.5 49t153 15q152 0 281 -32v192q0 225 -262 225q-214 0 -332 -94h-43v84q161 92 379 92q172 0 266 -70t94 -231v-778h-28q-46 0 -59 20q-9 10 -12 32q-3 20 -3 52z
M418 70q114 0 194 42t156 132v262q-150 33 -274 33q-64 0 -118.5 -11t-104 -35.5t-78.5 -72t-29 -113.5q0 -119 68.5 -178t185.5 -59zM729 1327v-76h-450v76h450z" />
    <glyph glyph-name="uni0102" unicode="&#x102;" horiz-adv-x="1253" 
d="M61 0v45l504 1389h129l498 -1389v-45h-96l-162 449h-621l-159 -449h-93zM623 1313l-279 -774h559l-276 774h-4zM629 1485q-84 0 -149 46t-82 126v41h73q8 -64 50 -96.5t108 -32.5q140 0 156 129h75v-41q-17 -81 -82 -126.5t-149 -45.5z" />
    <glyph glyph-name="uni0103" unicode="&#x103;" horiz-adv-x="1010" 
d="M768 104v41q-85 -85 -166.5 -120t-198.5 -35q-153 0 -248.5 81t-95.5 228q0 88 37.5 151.5t102 97.5t135.5 49t153 15q152 0 281 -32v192q0 225 -262 225q-214 0 -332 -94h-43v84q161 92 379 92q172 0 266 -70t94 -231v-778h-28q-46 0 -59 20q-9 10 -12 32q-3 20 -3 52z
M418 70q114 0 194 42t156 132v262q-150 33 -274 33q-64 0 -118.5 -11t-104 -35.5t-78.5 -72t-29 -113.5q0 -119 68.5 -178t185.5 -59zM512 1178q-87 0 -150.5 52.5t-80.5 137.5v39h75q8 -69 48 -108t108 -39q69 0 108.5 38.5t47.5 108.5h75v-39q-16 -86 -80 -138t-151 -52z
" />
    <glyph glyph-name="uni0104" unicode="&#x104;" horiz-adv-x="1253" 
d="M1135 -336q-74 0 -121 37t-47 109q0 98 129 190l-162 449h-621l-159 -449h-93v45l504 1389h129l498 -1389v-43q-36 -27 -59.5 -48t-46.5 -57t-23 -71q0 -88 100 -88h66v-60q-39 -14 -94 -14zM623 1313l-279 -774h559l-276 774h-4z" />
    <glyph glyph-name="uni0105" unicode="&#x105;" horiz-adv-x="1010" 
d="M817 -336q-74 0 -121 37t-47 109q0 102 144 200q-25 20 -25 94v41q-80 -83 -164.5 -119t-200.5 -36q-152 0 -248 81.5t-96 227.5q0 71 25.5 126.5t66.5 90t98.5 57t115.5 31t122 8.5q150 0 281 -32v192q0 126 -72 175q-74 50 -190 50q-214 0 -332 -94h-43v84
q94 49 183 70.5t196 21.5q173 0 266.5 -70t93.5 -231v-778q-37 -29 -58.5 -48.5t-44 -55t-22.5 -70.5q0 -88 101 -88h65v-60q-39 -14 -94 -14zM418 70q129 0 208 49q80 50 142 125v262q-150 33 -274 33q-50 0 -95 -6.5t-89 -22.5t-75.5 -41.5t-51 -67t-19.5 -94.5
q0 -127 73 -182q71 -55 181 -55z" />
    <glyph glyph-name="uni0106" unicode="&#x106;" horiz-adv-x="1262" 
d="M717 -8q-127 0 -231 39t-175 107t-120 161t-71 198.5t-22 223.5t26 225.5t78.5 198t127 157t177 103.5t222.5 37q220 0 355 -85q36 -24 81 -59v-88h-51q-79 79 -170 111.5t-209 32.5q-177 0 -302 -94t-182 -262q-40 -117 -40 -273q0 -104 17 -196.5t55.5 -175.5
t96.5 -143t144.5 -95t194.5 -35q262 0 424 170h47v-82q-191 -176 -473 -176zM674 1481v30l121 193h98v-39l-156 -184h-63z" />
    <glyph glyph-name="uni0107" unicode="&#x107;" horiz-adv-x="983" 
d="M567 -8q-123 0 -219.5 41.5t-157 115.5t-91.5 172.5t-31 215.5q0 241 135.5 391.5t369.5 150.5q207 0 334 -102v-82h-53q-102 102 -283 102q-100 0 -178 -37t-125.5 -101.5t-71.5 -146t-24 -175.5q0 -100 24.5 -183t72.5 -146.5t125 -98.5t177 -35q195 0 308 123h47v-78
q-65 -65 -160.5 -96t-198.5 -31zM573 1174h-63v32l153 228h103v-41z" />
    <glyph glyph-name="uni0108" unicode="&#x108;" horiz-adv-x="1262" 
d="M717 -8q-127 0 -231 39t-175 107t-120 161t-71 198.5t-22 223.5t26 225.5t78.5 198t127 157t177 103.5t222.5 37q220 0 355 -85q36 -24 81 -59v-88h-51q-79 79 -170 111.5t-209 32.5q-177 0 -302 -94t-182 -262q-40 -117 -40 -273q0 -104 17 -196.5t55.5 -175.5
t96.5 -143t144.5 -95t194.5 -35q262 0 424 170h47v-82q-191 -176 -473 -176zM490 1481v37l182 188h82l178 -188v-37h-61l-162 143l-160 -143h-59z" />
    <glyph glyph-name="uni0109" unicode="&#x109;" horiz-adv-x="983" 
d="M567 -8q-123 0 -219.5 41.5t-157 115.5t-91.5 172.5t-31 215.5q0 241 135.5 391.5t369.5 150.5q207 0 334 -102v-82h-53q-102 102 -283 102q-100 0 -178 -37t-125.5 -101.5t-71.5 -146t-24 -175.5q0 -100 24.5 -183t72.5 -146.5t125 -98.5t177 -35q195 0 308 123h47v-78
q-65 -65 -160.5 -96t-198.5 -31zM318 1174v38l188 222h82l184 -222v-38h-61l-168 178l-168 -178h-57z" />
    <glyph glyph-name="uni010A" unicode="&#x10a;" horiz-adv-x="1262" 
d="M717 -8q-127 0 -231 39t-175 107t-120 161t-71 198.5t-22 223.5t26 225.5t78.5 198t127 157t177 103.5t222.5 37q220 0 355 -85q36 -24 81 -59v-88h-51q-79 79 -170 111.5t-209 32.5q-177 0 -302 -94t-182 -262q-40 -117 -40 -273q0 -104 17 -196.5t55.5 -175.5
t96.5 -143t144.5 -95t194.5 -35q262 0 424 170h47v-82q-191 -176 -473 -176zM713 1503q-29 0 -49.5 20.5t-20.5 49.5t20.5 49t49.5 20t49.5 -20.5t20.5 -48.5q0 -29 -20.5 -49.5t-49.5 -20.5z" />
    <glyph glyph-name="uni010B" unicode="&#x10b;" horiz-adv-x="983" 
d="M567 -8q-123 0 -219.5 41.5t-157 115.5t-91.5 172.5t-31 215.5q0 241 135.5 391.5t369.5 150.5q207 0 334 -102v-82h-53q-102 102 -283 102q-100 0 -178 -37t-125.5 -101.5t-71.5 -146t-24 -175.5q0 -100 24.5 -183t72.5 -146.5t125 -98.5t177 -35q195 0 308 123h47v-78
q-65 -65 -160.5 -96t-198.5 -31zM547 1231q-29 0 -49.5 20t-20.5 49q0 28 20.5 49t49.5 21t49.5 -21t20.5 -49t-20.5 -48.5t-49.5 -20.5z" />
    <glyph glyph-name="uni010C" unicode="&#x10c;" horiz-adv-x="1262" 
d="M717 -8q-127 0 -231 39t-175 107t-120 161t-71 198.5t-22 223.5t26 225.5t78.5 198t127 157t177 103.5t222.5 37q220 0 355 -85q36 -24 81 -59v-88h-51q-79 79 -170 111.5t-209 32.5q-177 0 -302 -94t-182 -262q-40 -117 -40 -273q0 -104 17 -196.5t55.5 -175.5
t96.5 -143t144.5 -95t194.5 -35q262 0 424 170h47v-82q-191 -176 -473 -176zM932 1706v-37l-182 -188h-82l-178 188v37h59l162 -143l162 143h59z" />
    <glyph glyph-name="uni010D" unicode="&#x10d;" horiz-adv-x="983" 
d="M567 -8q-123 0 -219.5 41.5t-157 115.5t-91.5 172.5t-31 215.5q0 241 135.5 391.5t369.5 150.5q207 0 334 -102v-82h-53q-102 102 -283 102q-100 0 -178 -37t-125.5 -101.5t-71.5 -146t-24 -175.5q0 -100 24.5 -183t72.5 -146.5t125 -98.5t177 -35q195 0 308 123h47v-78
q-65 -65 -160.5 -96t-198.5 -31zM772 1434v-37l-188 -223h-82l-184 223v37h61l168 -177l168 177h57z" />
    <glyph glyph-name="uni0112" unicode="&#x112;" horiz-adv-x="1128" 
d="M176 0v1434h854v-93h-745v-557h563v-90h-563v-604h774v-90h-883zM854 1616v-80h-471v80h471z" />
    <glyph glyph-name="uni0113" unicode="&#x113;" horiz-adv-x="1042" 
d="M977 530h-805q0 -216 98 -335t308 -119q221 0 331 110h45v-75q-151 -119 -387 -119q-124 0 -220 40t-156.5 113t-91.5 170t-31 215q0 111 31 209.5t89 174.5t149 120.5t204 44.5q117 0 203 -37.5t136.5 -106.5t74.5 -157.5t24 -197.5q0 -21 -1 -31t-1 -19zM541 1001
q-86 0 -154.5 -31.5t-112 -86.5t-68.5 -124t-32 -151h703q-10 393 -336 393zM766 1327v-76h-450v76h450z" />
    <glyph glyph-name="uni0114" unicode="&#x114;" horiz-adv-x="1128" 
d="M176 0v1434h854v-93h-745v-557h563v-90h-563v-604h774v-90h-883zM617 1485q-84 0 -149 46t-82 126v41h73q8 -64 50 -96.5t108 -32.5q140 0 156 129h75v-41q-17 -81 -82 -126.5t-149 -45.5z" />
    <glyph glyph-name="uni0115" unicode="&#x115;" horiz-adv-x="1042" 
d="M977 530h-805q0 -216 98 -335t308 -119q221 0 331 110h45v-75q-151 -119 -387 -119q-124 0 -220 40t-156.5 113t-91.5 170t-31 215q0 111 31 209.5t89 174.5t149 120.5t204 44.5q117 0 203 -37.5t136.5 -106.5t74.5 -157.5t24 -197.5q0 -21 -1 -31t-1 -19zM541 1001
q-86 0 -154.5 -31.5t-112 -86.5t-68.5 -124t-32 -151h703q-10 393 -336 393zM539 1178q-87 0 -150.5 52.5t-80.5 137.5v39h75q8 -69 48 -108t108 -39q69 0 108.5 38.5t47.5 108.5h75v-39q-16 -86 -80 -138t-151 -52z" />
    <glyph glyph-name="uni0116" unicode="&#x116;" horiz-adv-x="1128" 
d="M176 0v1434h854v-93h-745v-557h563v-90h-563v-604h774v-90h-883zM619 1503q-29 0 -49.5 20.5t-20.5 49.5t20.5 49t49.5 20t49.5 -20.5t20.5 -48.5q0 -29 -20.5 -49.5t-49.5 -20.5z" />
    <glyph glyph-name="uni0117" unicode="&#x117;" horiz-adv-x="1042" 
d="M977 530h-805q0 -216 98 -335t308 -119q221 0 331 110h45v-75q-151 -119 -387 -119q-124 0 -220 40t-156.5 113t-91.5 170t-31 215q0 111 31 209.5t89 174.5t149 120.5t204 44.5q117 0 203 -37.5t136.5 -106.5t74.5 -157.5t24 -197.5q0 -21 -1 -31t-1 -19zM541 1001
q-86 0 -154.5 -31.5t-112 -86.5t-68.5 -124t-32 -151h703q-10 393 -336 393zM541 1231q-29 0 -49.5 20t-20.5 49q0 28 20.5 49t49.5 21t49.5 -21t20.5 -49t-20.5 -48.5t-49.5 -20.5z" />
    <glyph glyph-name="uni0118" unicode="&#x118;" horiz-adv-x="1128" 
d="M176 0v1434h854v-93h-745v-557h563v-90h-563v-604h774v-90h-78q-37 -29 -58.5 -48.5t-44 -55t-22.5 -70.5q0 -88 100 -88h66v-60q-39 -14 -94 -14q-74 0 -121 37t-47 109q0 98 129 190h-713z" />
    <glyph glyph-name="uni0119" unicode="&#x119;" horiz-adv-x="1042" 
d="M662 -174q0 -88 100 -88h65v-60q-37 -14 -94 -14q-74 0 -121 37t-47 109q0 102 133 194q-56 -12 -131 -12q-124 0 -220 40t-156.5 113t-91.5 170t-31 215q0 89 19 170t58.5 150t95 120t133 80t167.5 29q94 0 168 -25t124 -69t83.5 -107.5t48 -137t14.5 -160.5
q0 -22 -1 -31t-1 -19h-805v-4q2 -213 100 -331.5t306 -118.5q221 0 331 110h45v-75q-23 -20 -50 -36q-18 -11 -56 -33q-73 -42 -129.5 -99t-56.5 -117zM541 1001q-147 0 -248 -98q-100 -97 -117 -295h701q-5 213 -96 303t-240 90z" />
    <glyph glyph-name="uni011A" unicode="&#x11a;" horiz-adv-x="1128" 
d="M176 0v1434h854v-93h-745v-557h563v-90h-563v-604h774v-90h-883zM838 1706v-37l-182 -188h-82l-178 188v37h59l162 -143l162 143h59z" />
    <glyph glyph-name="uni011B" unicode="&#x11b;" horiz-adv-x="1042" 
d="M977 530h-805q0 -216 98 -335t308 -119q221 0 331 110h45v-75q-151 -119 -387 -119q-124 0 -220 40t-156.5 113t-91.5 170t-31 215q0 111 31 209.5t89 174.5t149 120.5t204 44.5q117 0 203 -37.5t136.5 -106.5t74.5 -157.5t24 -197.5q0 -21 -1 -31t-1 -19zM541 1001
q-86 0 -154.5 -31.5t-112 -86.5t-68.5 -124t-32 -151h703q-10 393 -336 393zM766 1434v-37l-188 -223h-82l-184 223v37h61l168 -177l168 177h57z" />
    <glyph glyph-name="uni011C" unicode="&#x11c;" horiz-adv-x="1372" 
d="M745 -8q-169 0 -297 55t-206 154t-117 230t-39 290q0 214 77.5 376t230 253.5t362.5 91.5q252 0 420 -113v-94h-54q-123 119 -366 119q-115 0 -207.5 -32t-156.5 -88.5t-107 -136.5t-62.5 -172.5t-19.5 -199.5q0 -114 18.5 -210t60 -177t104 -138t153.5 -88.5t206 -31.5
q214 0 365 80v452h-317v90h426v-593q-195 -117 -474 -117zM525 1481v37l182 188h82l178 -188v-37h-61l-162 143l-160 -143h-59z" />
    <glyph glyph-name="uni011D" unicode="&#x11d;" horiz-adv-x="1135" 
d="M987 1067v-1055q0 -92 -39.5 -162t-105.5 -110t-143.5 -60t-163.5 -20q-254 0 -408 94v80h41q61 -49 159 -71.5t195 -22.5q59 0 110.5 8.5t98 29t80 52t53 79.5t19.5 109v179q-77 -90 -178.5 -139.5t-217.5 -49.5q-140 0 -237 72.5t-144 205.5q-36 100 -36 246
q0 113 28 210.5t82.5 173.5t143.5 119.5t204 43.5q225 0 355 -133q5 85 38 111q11 10 33 10h33zM502 88q119 0 210.5 56t170.5 159v549q-134 147 -336 147q-82 0 -147 -25t-107 -67.5t-69 -103t-38.5 -126t-11.5 -140.5q0 -70 9.5 -132t33 -121.5t60 -101.5t94 -68
t131.5 -26zM324 1174v38l188 222h82l184 -222v-38h-61l-168 178l-168 -178h-57z" />
    <glyph glyph-name="uni011E" unicode="&#x11e;" horiz-adv-x="1372" 
d="M745 -8q-169 0 -297 55t-206 154t-117 230t-39 290q0 214 77.5 376t230 253.5t362.5 91.5q252 0 420 -113v-94h-54q-123 119 -366 119q-115 0 -207.5 -32t-156.5 -88.5t-107 -136.5t-62.5 -172.5t-19.5 -199.5q0 -114 18.5 -210t60 -177t104 -138t153.5 -88.5t206 -31.5
q214 0 365 80v452h-317v90h426v-593q-195 -117 -474 -117zM748 1485q-84 0 -149 46t-82 126v41h73q8 -64 50 -96.5t108 -32.5q140 0 156 129h75v-41q-17 -81 -82 -126.5t-149 -45.5z" />
    <glyph glyph-name="uni011F" unicode="&#x11f;" horiz-adv-x="1135" 
d="M987 1067v-1055q0 -92 -39.5 -162t-105.5 -110t-143.5 -60t-163.5 -20q-254 0 -408 94v80h41q61 -49 159 -71.5t195 -22.5q59 0 110.5 8.5t98 29t80 52t53 79.5t19.5 109v179q-77 -90 -178.5 -139.5t-217.5 -49.5q-140 0 -237 72.5t-144 205.5q-36 100 -36 246
q0 113 28 210.5t82.5 173.5t143.5 119.5t204 43.5q225 0 355 -133q5 85 38 111q11 10 33 10h33zM502 88q119 0 210.5 56t170.5 159v549q-134 147 -336 147q-82 0 -147 -25t-107 -67.5t-69 -103t-38.5 -126t-11.5 -140.5q0 -70 9.5 -132t33 -121.5t60 -101.5t94 -68
t131.5 -26zM553 1178q-87 0 -150.5 52.5t-80.5 137.5v39h75q8 -69 48 -108t108 -39q69 0 108.5 38.5t47.5 108.5h75v-39q-16 -86 -80 -138t-151 -52z" />
    <glyph glyph-name="uni0120" unicode="&#x120;" horiz-adv-x="1372" 
d="M745 -8q-169 0 -297 55t-206 154t-117 230t-39 290q0 214 77.5 376t230 253.5t362.5 91.5q252 0 420 -113v-94h-54q-123 119 -366 119q-115 0 -207.5 -32t-156.5 -88.5t-107 -136.5t-62.5 -172.5t-19.5 -199.5q0 -114 18.5 -210t60 -177t104 -138t153.5 -88.5t206 -31.5
q214 0 365 80v452h-317v90h426v-593q-195 -117 -474 -117zM748 1503q-28 0 -49 20.5t-21 49.5t20.5 49t49.5 20t49.5 -20.5t20.5 -48.5q0 -29 -21 -49.5t-49 -20.5z" />
    <glyph glyph-name="uni0121" unicode="&#x121;" horiz-adv-x="1135" 
d="M987 1067v-1055q0 -92 -39.5 -162t-105.5 -110t-143.5 -60t-163.5 -20q-254 0 -408 94v80h41q61 -49 159 -71.5t195 -22.5q59 0 110.5 8.5t98 29t80 52t53 79.5t19.5 109v179q-77 -90 -178.5 -139.5t-217.5 -49.5q-140 0 -237 72.5t-144 205.5q-36 100 -36 246
q0 113 28 210.5t82.5 173.5t143.5 119.5t204 43.5q225 0 355 -133q5 85 38 111q11 10 33 10h33zM502 88q119 0 210.5 56t170.5 159v549q-134 147 -336 147q-82 0 -147 -25t-107 -67.5t-69 -103t-38.5 -126t-11.5 -140.5q0 -70 9.5 -132t33 -121.5t60 -101.5t94 -68
t131.5 -26zM553 1231q-29 0 -49.5 20t-20.5 49q0 28 20.5 49t49.5 21t49.5 -21t20.5 -49t-20.5 -48.5t-49.5 -20.5z" />
    <glyph glyph-name="uni0122" unicode="&#x122;" horiz-adv-x="1372" 
d="M745 -8q-169 0 -297 55t-206 154t-117 230t-39 290q0 214 77.5 376t230 253.5t362.5 91.5q252 0 420 -113v-94h-54q-123 119 -366 119q-115 0 -207.5 -32t-156.5 -88.5t-107 -136.5t-62.5 -172.5t-19.5 -199.5q0 -114 18.5 -210t60 -177t104 -138t153.5 -88.5t206 -31.5
q214 0 365 80v452h-317v90h426v-593q-195 -117 -474 -117zM670 -356v61q70 16 70 59q0 18 -11 26q-16 10 -24 17q-29 20 -29 60q0 29 21 46t51 17q42 0 60 -29t18 -73q0 -155 -156 -184z" />
    <glyph glyph-name="uni0123" unicode="&#x123;" horiz-adv-x="1135" 
d="M987 1067v-1055q0 -92 -39.5 -162t-105.5 -110t-143.5 -60t-163.5 -20q-254 0 -408 94v80h41q61 -49 159 -71.5t195 -22.5q59 0 110.5 8.5t98 29t80 52t53 79.5t19.5 109v179q-77 -90 -178.5 -139.5t-217.5 -49.5q-140 0 -237 72.5t-144 205.5q-36 100 -36 246
q0 113 28 210.5t82.5 173.5t143.5 119.5t204 43.5q225 0 355 -133q5 85 38 111q11 10 33 10h33zM502 88q119 0 210.5 56t170.5 159v549q-134 147 -336 147q-82 0 -147 -25t-107 -67.5t-69 -103t-38.5 -126t-11.5 -140.5q0 -70 9.5 -132t33 -121.5t60 -101.5t94 -68
t131.5 -26zM639 1491v-61q-69 -16 -69 -60q0 -17 11 -25q11 -7 24 -18q28 -18 28 -59q0 -29 -20.5 -46.5t-50.5 -17.5q-41 0 -59.5 29.5t-18.5 73.5q0 154 155 184z" />
    <glyph glyph-name="uni0124" unicode="&#x124;" horiz-adv-x="1399" 
d="M285 0h-109v1434h109v-650h829v650h109v-1434h-109v694h-829v-694zM475 1481v37l182 188h82l178 -188v-37h-61l-162 143l-160 -143h-59z" />
    <glyph glyph-name="uni0125" unicode="&#x125;" horiz-adv-x="1133" 
d="M250 1335v-438q226 182 469 182q276 0 276 -284v-795h-102v782q0 112 -52 161.5t-161 49.5q-194 0 -430 -180v-813h-103v1434h37q22 0 35 -3q27 -6 29 -43q2 -26 2 -53zM349 1491v38l188 222h82l184 -222v-38h-61l-168 178l-168 -178h-57z" />
    <glyph glyph-name="uni0128" unicode="&#x128;" horiz-adv-x="467" 
d="M291 0h-111v1434h111v-1434zM-26 1499v39q10 59 50.5 96t98.5 37q46 0 120 -41q8 -4 25 -13.5t26 -14.5q23 -13 46 -13q35 0 56.5 24.5t27.5 61.5h70v-37q-12 -60 -50.5 -96.5t-97.5 -36.5q-54 0 -121 40q-45 25 -50 28q-24 12 -46 12q-70 0 -86 -86h-69z" />
    <glyph glyph-name="uni0129" unicode="&#x129;" horiz-adv-x="403" 
d="M254 0h-102v1067h32q24 0 37 -3q15 -5 22 -15q8 -12 9 -34q2 -30 2 -59v-956zM-61 1202v37q9 58 50 95.5t99 37.5q34 0 64 -12q38 -18 56 -28q27 -15 51 -27q23 -13 46 -13q36 0 57 24t27 62h70v-39q-13 -59 -51.5 -96t-96.5 -37q-52 0 -121 41q-45 25 -50 28
q-23 13 -46 13q-69 0 -86 -86h-69z" />
    <glyph glyph-name="uni012A" unicode="&#x12a;" horiz-adv-x="471" 
d="M291 0h-111v1434h111v-1434zM473 1616v-80h-471v80h471z" />
    <glyph glyph-name="uni012B" unicode="&#x12b;" horiz-adv-x="408" 
d="M254 0h-102v1067h32q44 0 58 -18q12 -19 12 -93v-956zM389 1327v-76h-371v76h371z" />
    <glyph glyph-name="uni012C" unicode="&#x12c;" horiz-adv-x="467" 
d="M291 0h-111v1434h111v-1434zM234 1485q-84 0 -149 46t-82 126v41h73q8 -64 50 -96.5t108 -32.5q140 0 156 129h75v-41q-17 -81 -82 -126.5t-149 -45.5z" />
    <glyph glyph-name="uni012D" unicode="&#x12d;" horiz-adv-x="403" 
d="M254 0h-102v1067h32q24 0 37 -3q15 -5 22 -15q8 -12 9 -34q2 -30 2 -59v-956zM201 1178q-87 0 -150.5 52.5t-80.5 137.5v39h75q8 -69 48 -108t108 -39q69 0 108.5 38.5t47.5 108.5h75v-39q-16 -86 -80 -138t-151 -52z" />
    <glyph glyph-name="uni012E" unicode="&#x12e;" horiz-adv-x="471" 
d="M236 -336q-74 0 -121 37t-47 109q0 98 129 190h-17v1434h111v-1434q-36 -27 -59 -48t-45.5 -56.5t-22.5 -69.5q0 -88 100 -88h66v-60q-39 -14 -94 -14z" />
    <glyph glyph-name="uni012F" unicode="&#x12f;" horiz-adv-x="408" 
d="M201 -336q-74 0 -121 37t-47 109q0 101 119 184v1073h32q44 0 58 -18q12 -19 12 -93v-956q-37 -29 -58.5 -48.5t-44 -55t-22.5 -70.5q0 -88 100 -88h66v-60q-39 -14 -94 -14zM205 1231q-29 0 -49 21q-21 20 -21 48q0 29 20.5 49.5t49.5 20.5q27 0 49 -20q20 -22 20 -50
t-20 -48.5t-49 -20.5z" />
    <glyph glyph-name="uni0130" unicode="&#x130;" horiz-adv-x="471" 
d="M291 0h-111v1434h111v-1434zM238 1503q-28 0 -49 20.5t-21 49.5t20.5 49t49.5 20t49.5 -20.5t20.5 -48.5q0 -29 -21 -49.5t-49 -20.5z" />
    <glyph glyph-name="uni0131" unicode="&#x131;" horiz-adv-x="408" 
d="M254 0h-102v1067h32q24 0 37 -3q15 -5 22 -15q8 -12 9 -34q2 -30 2 -59v-956z" />
    <glyph glyph-name="uni0136" unicode="&#x136;" horiz-adv-x="1266" 
d="M176 0v1434h109v-824l764 824h86v-43l-506 -543l557 -805v-43h-96l-533 772l-272 -289v-483h-109zM551 -356v61q70 16 70 59q0 18 -11 26q-16 10 -24 17q-29 20 -29 60q0 29 21 46t51 17q41 0 59.5 -29t18.5 -73q0 -155 -156 -184z" />
    <glyph glyph-name="uni0137" unicode="&#x137;" horiz-adv-x="975" 
d="M250 1335v-870l553 602h80v-41l-373 -403l405 -584v-39h-90l-383 553l-192 -207v-346h-103v1434h37q22 0 36 -3q13 -4 20 -14q7 -12 8 -30q2 -26 2 -52zM440 -356v61q70 16 70 59q0 18 -11 26q-16 10 -24 17q-29 20 -29 60q0 29 21 46t51 17q42 0 60 -29t18 -73
q0 -155 -156 -184z" />
    <glyph glyph-name="uni0139" unicode="&#x139;" horiz-adv-x="1104" 
d="M1032 0h-856v1434h109v-1344h747v-90zM195 1481v30l121 193h98v-39l-156 -184h-63z" />
    <glyph glyph-name="uni013A" unicode="&#x13a;" horiz-adv-x="401" 
d="M252 0h-102v1434h36q22 0 36 -3q13 -4 20 -14q7 -12 8 -30q2 -26 2 -52v-1335zM229 1491h-63v32l153 228h103v-41z" />
    <glyph glyph-name="uni013B" unicode="&#x13b;" horiz-adv-x="1104" 
d="M1032 0h-856v1434h109v-1344h747v-90zM526 -356v61q70 16 70 59q0 18 -11 26q-16 10 -24 17q-29 20 -29 60q0 29 21 46t51 17q42 0 60 -29t18 -73q0 -155 -156 -184z" />
    <glyph glyph-name="uni013C" unicode="&#x13c;" horiz-adv-x="401" 
d="M252 0h-102v1434h36q22 0 36 -3q13 -4 20 -14q7 -12 8 -30q2 -26 2 -52v-1335zM125 -356v61q70 16 70 59q0 18 -11 26q-16 10 -24 17q-29 20 -29 60q0 29 21 46t51 17q41 0 59.5 -29t18.5 -73q0 -155 -156 -184z" />
    <glyph glyph-name="uni0143" unicode="&#x143;" horiz-adv-x="1389" 
d="M176 0v1434h135l797 -1237h2v1237h104v-1434h-104l-827 1288h-4v-1288h-103zM676 1481v30l121 193h98v-39l-156 -184h-63z" />
    <glyph glyph-name="uni0144" unicode="&#x144;" horiz-adv-x="1133" 
d="M250 961v-64q226 182 469 182q276 0 276 -284v-795h-102v782q0 112 -52 161.5t-161 49.5q-194 0 -430 -180v-813h-103v1067h48q17 0 28 -3q21 -9 25 -47q2 -28 2 -56zM606 1174h-63v32l153 228h103v-41z" />
    <glyph glyph-name="uni0145" unicode="&#x145;" horiz-adv-x="1389" 
d="M176 0v1434h135l797 -1237h2v1237h104v-1434h-104l-827 1288h-4v-1288h-103zM616 -356v61q70 16 70 59q0 18 -11 26q-16 10 -24 17q-29 20 -29 60q0 29 21 46t51 17q42 0 60 -29t18 -73q0 -155 -156 -184z" />
    <glyph glyph-name="uni0146" unicode="&#x146;" horiz-adv-x="1133" 
d="M250 961v-64q226 182 469 182q276 0 276 -284v-795h-102v782q0 112 -52 161.5t-161 49.5q-194 0 -430 -180v-813h-103v1067h48q17 0 28 -3q21 -9 25 -47q2 -28 2 -56zM502 -356v61q70 16 70 59q0 18 -11 26q-16 10 -24 17q-29 20 -29 60q0 29 21 46t51 17q42 0 60 -29
t18 -73q0 -155 -156 -184z" />
    <glyph glyph-name="uni0147" unicode="&#x147;" horiz-adv-x="1389" 
d="M176 0v1434h135l797 -1237h2v1237h104v-1434h-104l-827 1288h-4v-1288h-103zM936 1706v-37l-182 -188h-82l-178 188v37h59l162 -143l162 143h59z" />
    <glyph glyph-name="uni0148" unicode="&#x148;" horiz-adv-x="1133" 
d="M250 961v-64q226 182 469 182q276 0 276 -284v-795h-102v782q0 112 -52 161.5t-161 49.5q-194 0 -430 -180v-813h-103v1067h48q17 0 28 -3q21 -9 25 -47q2 -28 2 -56zM805 1434v-37l-188 -223h-82l-184 223v37h61l168 -177l168 177h57z" />
    <glyph glyph-name="uni014C" unicode="&#x14c;" horiz-adv-x="1458" 
d="M731 -8q-209 0 -364.5 109t-228.5 304q-52 134 -52 312q0 202 74 364.5t222.5 261.5t348.5 99q238 0 400 -138t218 -370q23 -103 23 -217q0 -150 -43 -281t-122 -230t-202 -156.5t-274 -57.5zM731 78q178 0 304 95.5t184 264.5q41 120 41 277q0 129 -32.5 242.5
t-95.5 203.5t-166.5 142.5t-234.5 52.5q-180 0 -307 -96.5t-184 -267.5q-41 -121 -41 -277q0 -95 17.5 -182.5t54 -168.5t100.5 -145t150 -100q99 -41 210 -41zM964 1616v-80h-471v80h471z" />
    <glyph glyph-name="uni014D" unicode="&#x14d;" horiz-adv-x="1128" 
d="M563 -8q-119 0 -214.5 42.5t-156 117t-92.5 172t-32 211.5q0 240 132 392t363 152q120 0 216 -42.5t157 -116.5t93 -172.5t32 -212.5q0 -242 -132.5 -392.5t-365.5 -150.5zM563 72q102 0 179.5 37t123 102.5t68 146.5t22.5 177q0 99 -24 182t-70.5 146.5t-123 99.5
t-175.5 36q-81 0 -147 -25t-111 -68t-75.5 -102.5t-44 -126.5t-13.5 -142q0 -98 23.5 -180.5t70 -146.5t123 -100t174.5 -36zM788 1327v-76h-450v76h450z" />
    <glyph glyph-name="uni014E" unicode="&#x14e;" horiz-adv-x="1454" 
d="M729 1485q-84 0 -149 46t-82 126v41h73q8 -64 50 -96.5t108 -32.5q140 0 156 129h75v-41q-17 -81 -82 -126.5t-149 -45.5zM731 -8q-209 0 -364.5 109t-228.5 304q-52 134 -52 312q0 202 74 364.5t222.5 261.5t348.5 99q238 0 400 -138t218 -370q23 -103 23 -217
q0 -150 -43 -281t-122 -230t-202 -156.5t-274 -57.5zM731 78q178 0 304 95.5t184 264.5q41 120 41 277q0 129 -32.5 242.5t-95.5 203.5t-166.5 142.5t-234.5 52.5q-180 0 -307 -96.5t-184 -267.5q-41 -121 -41 -277q0 -95 17.5 -182.5t54 -168.5t100.5 -145t150 -100
q99 -41 210 -41z" />
    <glyph glyph-name="uni014F" unicode="&#x14f;" horiz-adv-x="1124" 
d="M563 -8q-119 0 -214.5 42.5t-156 117t-92.5 172t-32 211.5q0 240 132 392t363 152q120 0 216 -42.5t157 -116.5t93 -172.5t32 -212.5q0 -242 -132.5 -392.5t-365.5 -150.5zM563 72q102 0 179.5 37t123 102.5t68 146.5t22.5 177q0 99 -24 182t-70.5 146.5t-123 99.5
t-175.5 36q-81 0 -147 -25t-111 -68t-75.5 -102.5t-44 -126.5t-13.5 -142q0 -98 23.5 -180.5t70 -146.5t123 -100t174.5 -36zM565 1178q-87 0 -150.5 52.5t-80.5 137.5v39h75q8 -69 48 -108t108 -39q69 0 108.5 38.5t47.5 108.5h75v-39q-16 -86 -80 -138t-151 -52z" />
    <glyph glyph-name="uni0150" unicode="&#x150;" horiz-adv-x="1458" 
d="M731 -8q-209 0 -364.5 109t-228.5 304q-52 134 -52 312q0 202 74 364.5t222.5 261.5t348.5 99q238 0 400 -138t218 -370q23 -103 23 -217q0 -150 -43 -281t-122 -230t-202 -156.5t-274 -57.5zM731 78q178 0 304 95.5t184 264.5q41 120 41 277q0 129 -32.5 242.5
t-95.5 203.5t-166.5 142.5t-234.5 52.5q-180 0 -307 -96.5t-184 -267.5q-41 -121 -41 -277q0 -95 17.5 -182.5t54 -168.5t100.5 -145t150 -100q99 -41 210 -41zM571 1481v26l84 197h91v-39l-111 -184h-64zM813 1481v26l84 197h90v-39l-110 -184h-64z" />
    <glyph glyph-name="uni0151" unicode="&#x151;" horiz-adv-x="1128" 
d="M563 -8q-119 0 -214.5 42.5t-156 117t-92.5 172t-32 211.5q0 240 132 392t363 152q120 0 216 -42.5t157 -116.5t93 -172.5t32 -212.5q0 -242 -132.5 -392.5t-365.5 -150.5zM563 72q102 0 179.5 37t123 102.5t68 146.5t22.5 177q0 99 -24 182t-70.5 146.5t-123 99.5
t-175.5 36q-81 0 -147 -25t-111 -68t-75.5 -102.5t-44 -126.5t-13.5 -142q0 -98 23.5 -180.5t70 -146.5t123 -100t174.5 -36zM411 1174v26l103 234h88v-41l-127 -219h-64zM653 1174v26l103 234h88v-41l-127 -219h-64z" />
    <glyph glyph-name="uni0154" unicode="&#x154;" horiz-adv-x="1229" 
d="M1042 0l-354 655q-59 -6 -125 -6h-272v-649h-111v1434h383q492 0 492 -390q0 -288 -260 -366l342 -635v-43h-95zM291 1343v-606h268q72 0 127.5 8t105.5 28t82.5 54t51 87.5t18.5 125.5t-21 126.5t-55 87.5t-85 53.5t-104.5 28t-119.5 7.5h-268zM549 1481v30l121 193h98
v-39l-156 -184h-63z" />
    <glyph glyph-name="uni0155" unicode="&#x155;" horiz-adv-x="702" 
d="M250 950v-67q161 192 350 192q37 0 49 -6v-84q-10 0 -15 1q-10 0 -15 1q-114 0 -200.5 -51.5t-168.5 -149.5v-786h-103v1067h48q17 0 28 -3q20 -9 25 -51q2 -32 2 -63zM432 1174h-63v32l153 228h103v-41z" />
    <glyph glyph-name="uni0156" unicode="&#x156;" horiz-adv-x="1229" 
d="M1042 0l-354 655q-59 -6 -125 -6h-272v-649h-111v1434h383q492 0 492 -390q0 -288 -260 -366l342 -635v-43h-95zM291 1343v-606h268q72 0 127.5 8t105.5 28t82.5 54t51 87.5t18.5 125.5t-21 126.5t-55 87.5t-85 53.5t-104.5 28t-119.5 7.5h-268zM541 -356v61q70 16 70 59
q0 18 -11 26q-16 10 -24 17q-29 20 -29 60q0 29 21 46t51 17q41 0 59.5 -29t18.5 -73q0 -155 -156 -184z" />
    <glyph glyph-name="uni0157" unicode="&#x157;" horiz-adv-x="700" 
d="M250 950v-67q161 192 350 192q37 0 49 -6v-84q-10 0 -15 1q-10 0 -15 1q-114 0 -200.5 -51.5t-168.5 -149.5v-786h-103v1067h48q17 0 28 -3q20 -9 25 -51q2 -32 2 -63zM121 -356v61q70 16 70 59q0 18 -11 26q-16 10 -24 17q-29 20 -29 60q0 29 21 46t51 17q41 0 59.5 -29
t18.5 -73q0 -155 -156 -184z" />
    <glyph glyph-name="uni0158" unicode="&#x158;" horiz-adv-x="1229" 
d="M1042 0l-354 655q-59 -6 -125 -6h-272v-649h-111v1434h383q492 0 492 -390q0 -288 -260 -366l342 -635v-43h-95zM291 1343v-606h268q72 0 127.5 8t105.5 28t82.5 54t51 87.5t18.5 125.5t-21 126.5t-55 87.5t-85 53.5t-104.5 28t-119.5 7.5h-268zM809 1706v-37l-182 -188
h-82l-178 188v37h59l162 -143l162 143h59z" />
    <glyph glyph-name="uni0159" unicode="&#x159;" horiz-adv-x="700" 
d="M250 950v-67q161 192 350 192q37 0 49 -6v-84q-10 0 -15 1q-10 0 -15 1q-114 0 -200.5 -51.5t-168.5 -149.5v-786h-103v1067h48q17 0 28 -3q20 -9 25 -51q2 -32 2 -63zM631 1434v-37l-188 -223h-82l-184 223v37h61l168 -177l168 177h57z" />
    <glyph glyph-name="uni015A" unicode="&#x15a;" horiz-adv-x="1044" 
d="M489 -8q-221 0 -363 83q-48 27 -79 52v96h49q143 -143 391 -143q82 0 147.5 17t116.5 52.5t79 96t28 141.5q0 109 -58.5 170.5t-168.5 95.5q-86 25 -146 41q-62 16 -106.5 31t-94.5 37.5t-83.5 50.5t-62 65t-42.5 87.5t-14 111.5q0 92 35.5 163.5t97 114.5t137.5 65
t162 22q236 0 383 -113v-92h-51q-25 22 -61 48q-108 69 -269 69q-146 0 -238 -66t-92 -203q0 -190 197 -252q56 -19 133 -40q74 -19 119 -32.5t108 -41t106 -60.5q116 -88 116 -264q0 -86 -25 -154.5t-68.5 -114.5t-104.5 -76.5t-130 -44t-148 -13.5zM477 1481v30l121 193
h98v-39l-156 -184h-63z" />
    <glyph glyph-name="uni015B" unicode="&#x15b;" horiz-adv-x="874" 
d="M416 -8q-206 0 -344 100v84h41q22 -20 47 -36q93 -68 252 -68q290 0 290 229q0 77 -37 118t-113 63q-56 17 -136 30q-72 11 -126.5 29t-104.5 49.5t-76.5 83.5t-26.5 123q0 75 30.5 131.5t82.5 88.5t113.5 47t131.5 15q190 0 310 -80v-84h-41q-60 48 -122 66t-145 18
q-264 0 -264 -194q0 -74 36.5 -112.5t111.5 -62.5q52 -16 131 -30q64 -10 108.5 -21t93 -32.5t77.5 -51t48 -77t19 -109.5q0 -71 -20.5 -126t-55.5 -90.5t-85.5 -58.5t-105.5 -32.5t-120 -9.5zM460 1174h-63v32l153 228h103v-41z" />
    <glyph glyph-name="uni015C" unicode="&#x15c;" horiz-adv-x="1044" 
d="M489 -8q-221 0 -363 83q-48 27 -79 52v96h49q143 -143 391 -143q82 0 147.5 17t116.5 52.5t79 96t28 141.5q0 109 -58.5 170.5t-168.5 95.5q-86 25 -146 41q-62 16 -106.5 31t-94.5 37.5t-83.5 50.5t-62 65t-42.5 87.5t-14 111.5q0 92 35.5 163.5t97 114.5t137.5 65
t162 22q236 0 383 -113v-92h-51q-25 22 -61 48q-108 69 -269 69q-146 0 -238 -66t-92 -203q0 -190 197 -252q56 -19 133 -40q74 -19 119 -32.5t108 -41t106 -60.5q116 -88 116 -264q0 -86 -25 -154.5t-68.5 -114.5t-104.5 -76.5t-130 -44t-148 -13.5zM293 1481v37l182 188
h82l178 -188v-37h-61l-162 143l-160 -143h-59z" />
    <glyph glyph-name="uni015D" unicode="&#x15d;" horiz-adv-x="874" 
d="M416 -8q-206 0 -344 100v84h41q22 -20 47 -36q93 -68 252 -68q290 0 290 229q0 77 -37 118t-113 63q-56 17 -136 30q-72 11 -126.5 29t-104.5 49.5t-76.5 83.5t-26.5 123q0 75 30.5 131.5t82.5 88.5t113.5 47t131.5 15q190 0 310 -80v-84h-41q-60 48 -122 66t-145 18
q-264 0 -264 -194q0 -74 36.5 -112.5t111.5 -62.5q52 -16 131 -30q64 -10 108.5 -21t93 -32.5t77.5 -51t48 -77t19 -109.5q0 -71 -20.5 -126t-55.5 -90.5t-85.5 -58.5t-105.5 -32.5t-120 -9.5zM205 1174v38l188 222h82l184 -222v-38h-61l-168 178l-168 -178h-57z" />
    <glyph glyph-name="uni015E" unicode="&#x15e;" horiz-adv-x="1044" 
d="M965 395q0 -82 -23 -148.5t-64 -113t-98.5 -78t-124.5 -47t-143 -16.5v-74q162 -9 162 -139q0 -68 -49 -101.5t-121 -33.5q-80 0 -146 41v63h43q35 -31 97 -31q38 0 64 15q24 17 24 49q0 69 -103 69h-47v144q-230 9 -389 133v96h49q58 -57 149 -100q90 -43 242 -43
q171 0 271 73.5t100 233.5q0 58 -15.5 102t-47.5 74.5t-70.5 51t-93.5 38.5q-74 23 -146 41q-76 20 -127.5 38t-108.5 49t-90 69t-55 95.5t-22 131.5q0 92 35.5 163.5t97 114.5t137.5 65t162 22q233 0 383 -113v-92h-51q-72 65 -149 91t-181 26q-148 0 -239 -65.5
t-91 -203.5q0 -43 10.5 -79t26 -62t43 -48t51.5 -36t63 -28t65.5 -21t70.5 -18q242 -64 333 -135q116 -92 116 -263z" />
    <glyph glyph-name="uni015F" unicode="&#x15f;" horiz-adv-x="874" 
d="M803 309q0 -160 -98 -235.5t-265 -81.5v-74q162 -9 162 -139q0 -68 -49 -101.5t-121 -33.5q-81 0 -145 41v63h43q31 -31 96 -31q38 0 64 15q24 17 24 49q0 69 -102 69h-47v144q-117 6 -183 37q-72 31 -110 61v84h41q39 -34 111 -69t188 -35q290 0 290 229q0 77 -36.5 117
t-113.5 65q-58 18 -136 29q-155 26 -244 88q-90 62 -90 197q0 75 30 131t81.5 88t113.5 47.5t133 15.5q183 0 310 -80v-84h-41q-61 48 -121.5 66t-145.5 18q-264 0 -264 -194q0 -94 62 -136q56 -43 217 -69q62 -9 108 -20.5t93.5 -33t77 -51.5t48.5 -77.5t19 -108.5z" />
    <glyph glyph-name="uni0160" unicode="&#x160;" horiz-adv-x="1042" 
d="M489 -8q-221 0 -363 83q-48 27 -79 52v96h49q143 -143 391 -143q82 0 147.5 17t116.5 52.5t79 96t28 141.5q0 109 -58.5 170.5t-168.5 95.5q-86 25 -146 41q-62 16 -106.5 31t-94.5 37.5t-83.5 50.5t-62 65t-42.5 87.5t-14 111.5q0 92 35.5 163.5t97 114.5t137.5 65
t162 22q236 0 383 -113v-92h-51q-25 22 -61 48q-108 69 -269 69q-146 0 -238 -66t-92 -203q0 -190 197 -252q56 -19 133 -40q74 -19 119 -32.5t108 -41t106 -60.5q116 -88 116 -264q0 -86 -25 -154.5t-68.5 -114.5t-104.5 -76.5t-130 -44t-148 -13.5zM735 1706v-37
l-182 -188h-82l-178 188v37h59l162 -143l162 143h59z" />
    <glyph glyph-name="uni0161" unicode="&#x161;" horiz-adv-x="874" 
d="M416 -8q-206 0 -344 100v84h41q22 -20 47 -36q93 -68 252 -68q290 0 290 229q0 77 -37 118t-113 63q-56 17 -136 30q-72 11 -126.5 29t-104.5 49.5t-76.5 83.5t-26.5 123q0 75 30.5 131.5t82.5 88.5t113.5 47t131.5 15q190 0 310 -80v-84h-41q-60 48 -122 66t-145 18
q-264 0 -264 -194q0 -74 36.5 -112.5t111.5 -62.5q52 -16 131 -30q64 -10 108.5 -21t93 -32.5t77.5 -51t48 -77t19 -109.5q0 -71 -20.5 -126t-55.5 -90.5t-85.5 -58.5t-105.5 -32.5t-120 -9.5zM659 1434v-37l-188 -223h-82l-184 223v37h61l168 -177l168 177h57z" />
    <glyph glyph-name="uni0162" unicode="&#x162;" horiz-adv-x="1137" 
d="M625 0h-111v1343h-469v91h1047v-91h-467v-1343zM489 -356v61q70 16 70 59q0 18 -11 26q-16 10 -24 17q-29 20 -29 60q0 29 21 46t51 17q41 0 59.5 -29t18.5 -73q0 -155 -156 -184z" />
    <glyph glyph-name="uni0163" unicode="&#x163;" horiz-adv-x="608" 
d="M25 989v78h141v297h102v-297h285v-78h-285v-745q0 -48 12 -80q27 -88 173 -88h122v-72q-62 -12 -157 -12q-127 0 -189.5 58.5t-62.5 180.5v758h-141zM293 -356v61q70 16 70 59q0 18 -11 26q-16 10 -24 17q-29 20 -29 60q0 29 21 46t51 17q41 0 59.5 -29t18.5 -73
q0 -155 -156 -184z" />
    <glyph glyph-name="uni0168" unicode="&#x168;" horiz-adv-x="1376" 
d="M428 1499v39q10 58 51 95.5t98 37.5q46 0 120 -41q8 -4 25 -13.5t26 -14.5q23 -13 46 -13q35 0 56.5 24.5t27.5 61.5h70v-37q-12 -60 -50.5 -96.5t-97.5 -36.5q-54 0 -121 40q-45 25 -50 28q-24 12 -46 12q-70 0 -86 -86h-69zM702 82q410 0 410 399v953h105v-949
q0 -250 -137.5 -371.5t-383.5 -121.5q-253 0 -391.5 125t-138.5 368v949h108v-953q0 -207 112 -303t316 -96z" />
    <glyph glyph-name="uni0169" unicode="&#x169;" horiz-adv-x="1120" 
d="M870 115v41q-95 -75 -213 -121.5t-231 -46.5q-289 0 -289 278v801h105v-791q0 -105 48 -154.5t150 -49.5q199 0 430 170v825h103v-1067h-47q-29 0 -40 13t-13 42q-3 23 -3 60zM295 1202v37q9 58 50.5 95.5t98.5 37.5q34 0 64 -12q38 -18 56 -28q27 -15 51 -27
q23 -13 46 -13q36 0 57 24t27 62h70v-39q-13 -59 -51.5 -96t-96.5 -37q-52 0 -121 41q-45 25 -50 28q-23 13 -46 13q-69 0 -86 -86h-69z" />
    <glyph glyph-name="uni016A" unicode="&#x16a;" horiz-adv-x="1380" 
d="M702 82q410 0 410 399v953h105v-949q0 -250 -137.5 -371.5t-383.5 -121.5q-253 0 -391.5 125t-138.5 368v949h108v-953q0 -207 112 -303t316 -96zM927 1616v-80h-471v80h471z" />
    <glyph glyph-name="uni016B" unicode="&#x16b;" horiz-adv-x="1124" 
d="M870 115v41q-95 -75 -213 -121.5t-231 -46.5q-289 0 -289 278v801h105v-791q0 -105 48 -154.5t150 -49.5q199 0 430 170v825h103v-1067h-47q-29 0 -40 13t-13 42q-3 23 -3 60zM784 1327v-76h-450v76h450z" />
    <glyph glyph-name="uni016C" unicode="&#x16c;" horiz-adv-x="1380" 
d="M702 82q410 0 410 399v953h105v-949q0 -250 -137.5 -371.5t-383.5 -121.5q-253 0 -391.5 125t-138.5 368v949h108v-953q0 -207 112 -303t316 -96zM692 1485q-84 0 -149 46t-82 126v41h73q8 -64 50 -96.5t108 -32.5q140 0 156 129h75v-41q-17 -81 -82 -126.5t-149 -45.5z
" />
    <glyph glyph-name="uni016D" unicode="&#x16d;" horiz-adv-x="1124" 
d="M870 115v41q-95 -75 -213 -121.5t-231 -46.5q-289 0 -289 278v801h105v-791q0 -105 48 -154.5t150 -49.5q199 0 430 170v825h103v-1067h-47q-29 0 -40 13t-13 42q-3 23 -3 60zM559 1178q-87 0 -150.5 52.5t-80.5 137.5v39h75q8 -69 48 -108t108 -39q69 0 108.5 38.5
t47.5 108.5h75v-39q-16 -86 -80 -138t-151 -52z" />
    <glyph glyph-name="uni016E" unicode="&#x16e;" horiz-adv-x="1380" 
d="M702 82q410 0 410 399v953h105v-949q0 -250 -137.5 -371.5t-383.5 -121.5q-253 0 -391.5 125t-138.5 368v949h108v-953q0 -207 112 -303t316 -96zM692 1428q-76 0 -128 49.5t-52 124.5q0 76 52.5 126t127.5 50q34 0 67 -12q52 -23 81.5 -65.5t29.5 -98.5
q0 -75 -51.5 -124.5t-126.5 -49.5zM692 1495q47 0 75.5 30.5t28.5 76.5t-30 79q-33 30 -74 30q-47 0 -76 -31t-29 -78t29 -77t76 -30z" />
    <glyph glyph-name="uni016F" unicode="&#x16f;" horiz-adv-x="1124" 
d="M870 115v41q-95 -75 -213 -121.5t-231 -46.5q-289 0 -289 278v801h105v-791q0 -105 48 -154.5t150 -49.5q199 0 430 170v825h103v-1067h-47q-29 0 -40 13t-13 42q-3 23 -3 60zM559 1176q-76 0 -128 50t-52 124q0 76 52.5 126t127.5 50q34 0 67 -12q52 -23 81.5 -65.5
t29.5 -98.5q0 -75 -52 -124.5t-126 -49.5zM559 1243q45 0 74.5 31t29.5 76q0 47 -29 78.5t-75 31.5q-47 0 -76 -31.5t-29 -78.5t29.5 -77t75.5 -30z" />
    <glyph glyph-name="uni0170" unicode="&#x170;" horiz-adv-x="1380" 
d="M702 82q410 0 410 399v953h105v-949q0 -250 -137.5 -371.5t-383.5 -121.5q-253 0 -391.5 125t-138.5 368v949h108v-953q0 -207 112 -303t316 -96zM534 1481v26l84 197h91v-39l-111 -184h-64zM776 1481v26l84 197h90v-39l-110 -184h-64z" />
    <glyph glyph-name="uni0171" unicode="&#x171;" horiz-adv-x="1124" 
d="M870 115v41q-95 -75 -213 -121.5t-231 -46.5q-289 0 -289 278v801h105v-791q0 -105 48 -154.5t150 -49.5q199 0 430 170v825h103v-1067h-47q-29 0 -40 13t-13 42q-3 23 -3 60zM405 1174v26l103 234h88v-41l-127 -219h-64zM647 1174v26l103 234h88v-41l-127 -219h-64z" />
    <glyph glyph-name="uni0172" unicode="&#x172;" horiz-adv-x="1380" 
d="M776 -336q-73 0 -120.5 37.5t-47.5 108.5q0 99 123 184q-10 -2 -18 -2h-19q-250 0 -389 126.5t-139 366.5v949h108v-953q0 -205 113 -302t315 -97q207 0 308.5 99.5t101.5 299.5v953h105v-949q0 -189 -77 -299q-77 -111 -204 -157q-25 -12 -50 -19q-56 -15 -79 -33
q-14 -9 -41 -32q-59 -59 -59 -119q0 -88 98 -88h65v-60q-36 -14 -94 -14z" />
    <glyph glyph-name="uni0173" unicode="&#x173;" horiz-adv-x="1124" 
d="M870 115v41q-224 -168 -444 -168q-289 0 -289 278v801h105v-791q0 -106 48 -155t150 -49q124 0 231 52q112 55 199 118v825h103v-1067h-2q-35 -26 -58.5 -47.5t-45 -56.5t-21.5 -70q0 -88 100 -88h66v-60q-39 -14 -94 -14q-74 0 -121 37t-47 109q0 104 139 198
q-19 19 -19 107z" />
    <glyph glyph-name="uni0174" unicode="&#x174;" horiz-adv-x="1776" 
d="M422 0l-359 1391v43h101l319 -1260h6l355 1260h94l356 -1260h6l318 1260h94v-43l-358 -1391h-119l-344 1243h-4l-346 -1243h-119zM674 1481v37l182 188h82l178 -188v-37h-61l-162 143l-160 -143h-59z" />
    <glyph glyph-name="uni0175" unicode="&#x175;" horiz-adv-x="1487" 
d="M521 1174v38l188 222h82l184 -222v-38h-61l-168 178l-168 -178h-57zM367 0l-310 1028v39h93l268 -911h4l283 911h86l276 -911h4l268 911h84v-39l-309 -1028h-90l-279 903h-4l-280 -903h-94z" />
    <glyph glyph-name="uni0176" unicode="&#x176;" horiz-adv-x="1122" 
d="M621 0h-111v600l-457 789v45h94l420 -732h2l420 732h86v-45l-454 -785v-604zM348 1481v37l182 188h82l178 -188v-37h-61l-162 143l-160 -143h-59z" />
    <glyph glyph-name="uni0177" unicode="&#x177;" horiz-adv-x="1024" 
d="M315 -332v33l162 373l-426 962v31h94l381 -872h2l361 872h92v-31l-575 -1368h-91zM295 1174v38l188 222h82l184 -222v-38h-61l-168 178l-168 -178h-57z" />
    <glyph glyph-name="uni0178" unicode="&#x178;" horiz-adv-x="1126" 
d="M621 0h-111v600l-457 789v45h94l420 -732h2l420 732h86v-45l-454 -785v-604zM421 1501q-29 0 -49 20.5t-20 49.5t20 49t49 20q28 0 50 -20q20 -22 20 -49q0 -29 -20.5 -49.5t-49.5 -20.5zM714 1501q-28 0 -47.5 21t-19.5 49t19.5 48.5t47.5 20.5t50 -20q20 -22 20 -49
q0 -29 -20.5 -49.5t-49.5 -20.5z" />
    <glyph glyph-name="uni0179" unicode="&#x179;" horiz-adv-x="1151" 
d="M37 0v94l893 1249v3h-838v88h954v-97l-891 -1247v-4h869v-86h-987zM543 1481v30l121 193h98v-39l-156 -184h-63z" />
    <glyph glyph-name="uni017A" unicode="&#x17a;" horiz-adv-x="938" 
d="M70 0v80l708 907h-665v80h780v-82l-709 -905h697v-80h-811zM534 1174h-63v32l153 228h103v-41z" />
    <glyph glyph-name="uni017B" unicode="&#x17b;" horiz-adv-x="1090" 
d="M37 0v94l893 1249v3h-838v88h954v-97l-891 -1247v-4h869v-86h-987zM582 1503q-28 0 -49 20.5t-21 49.5t20.5 49t49.5 20t49.5 -20.5t20.5 -48.5q0 -29 -21 -49.5t-49 -20.5z" />
    <glyph glyph-name="uni017C" unicode="&#x17c;" horiz-adv-x="938" 
d="M70 0v80l708 907h-665v80h780v-82l-709 -905h697v-80h-811zM508 1231q-29 0 -49.5 20t-20.5 49q0 28 21 49t49 21t49 -21t21 -49t-20.5 -48.5t-49.5 -20.5z" />
    <glyph glyph-name="uni017D" unicode="&#x17d;" horiz-adv-x="1090" 
d="M37 0v94l893 1249v3h-838v88h954v-97l-891 -1247v-4h869v-86h-987zM801 1706v-37l-182 -188h-82l-178 188v37h59l162 -143l162 143h59z" />
    <glyph glyph-name="uni017E" unicode="&#x17e;" horiz-adv-x="938" 
d="M70 0v80l708 907h-665v80h780v-82l-709 -905h697v-80h-811zM733 1434v-37l-188 -223h-82l-184 223v37h61l168 -177l168 177h57z" />
    <glyph glyph-name="uni01FA" unicode="&#x1fa;" horiz-adv-x="1249" 
d="M61 0v45l504 1389h129l498 -1389v-45h-96l-162 449h-621l-159 -449h-93zM623 1313l-279 -774h559l-276 774h-4zM592 1884v30l121 193h98v-39l-156 -184h-63zM629 1489q-76 0 -128 49.5t-52 124.5q0 76 52.5 126t127.5 50q34 0 67 -12q52 -23 81.5 -65.5t29.5 -98.5
q0 -75 -51.5 -124.5t-126.5 -49.5zM629 1556q47 0 75.5 30.5t28.5 76.5t-30 79q-33 30 -74 30q-47 0 -76 -31t-29 -78t29 -77t76 -30z" />
    <glyph glyph-name="uni01FB" unicode="&#x1fb;" horiz-adv-x="1006" 
d="M768 104v41q-85 -85 -166.5 -120t-198.5 -35q-153 0 -248.5 81t-95.5 228q0 88 37.5 151.5t102 97.5t135.5 49t153 15q152 0 281 -32v192q0 225 -262 225q-214 0 -332 -94h-43v84q161 92 379 92q172 0 266 -70t94 -231v-778h-28q-46 0 -59 20q-9 10 -12 32q-3 20 -3 52z
M418 70q114 0 194 42t156 132v262q-150 33 -274 33q-64 0 -118.5 -11t-104 -35.5t-78.5 -72t-29 -113.5q0 -119 68.5 -178t185.5 -59zM514 1176q-76 0 -128 50t-52 124q0 76 52.5 126t127.5 50q34 0 67 -12q52 -23 81.5 -65.5t29.5 -98.5q0 -75 -52 -124.5t-126 -49.5z
M514 1243q45 0 74.5 31t29.5 76q0 47 -29 78.5t-75 31.5q-47 0 -76 -31.5t-29 -78.5t29.5 -77t75.5 -30zM483 1598v30l121 193h98v-39l-156 -184h-63z" />
    <glyph glyph-name="uni0218" unicode="&#x218;" horiz-adv-x="1044" 
d="M489 -8q-221 0 -363 83q-48 27 -79 52v96h49q143 -143 391 -143q82 0 147.5 17t116.5 52.5t79 96t28 141.5q0 109 -58.5 170.5t-168.5 95.5q-86 25 -146 41q-62 16 -106.5 31t-94.5 37.5t-83.5 50.5t-62 65t-42.5 87.5t-14 111.5q0 92 35.5 163.5t97 114.5t137.5 65
t162 22q236 0 383 -113v-92h-51q-25 22 -61 48q-108 69 -269 69q-146 0 -238 -66t-92 -203q0 -190 197 -252q56 -19 133 -40q74 -19 119 -32.5t108 -41t106 -60.5q116 -88 116 -264q0 -86 -25 -154.5t-68.5 -114.5t-104.5 -76.5t-130 -44t-148 -13.5zM426 -356v61
q70 16 70 59q0 18 -11 26q-16 10 -24 17q-29 20 -29 60q0 29 21 46t51 17q42 0 60 -29t18 -73q0 -155 -156 -184z" />
    <glyph glyph-name="uni0219" unicode="&#x219;" horiz-adv-x="874" 
d="M416 -8q-206 0 -344 100v84h41q22 -20 47 -36q93 -68 252 -68q290 0 290 229q0 77 -37 118t-113 63q-56 17 -136 30q-72 11 -126.5 29t-104.5 49.5t-76.5 83.5t-26.5 123q0 75 30.5 131.5t82.5 88.5t113.5 47t131.5 15q190 0 310 -80v-84h-41q-60 48 -122 66t-145 18
q-264 0 -264 -194q0 -74 36.5 -112.5t111.5 -62.5q52 -16 131 -30q64 -10 108.5 -21t93 -32.5t77.5 -51t48 -77t19 -109.5q0 -71 -20.5 -126t-55.5 -90.5t-85.5 -58.5t-105.5 -32.5t-120 -9.5zM356 -356v61q70 16 70 59q0 18 -11 26q-16 10 -24 17q-29 20 -29 60q0 29 21 46
t51 17q42 0 60 -29t18 -73q0 -155 -156 -184z" />
    <glyph glyph-name="uni0401" unicode="&#x401;" horiz-adv-x="1124" 
d="M479 1501q-29 0 -49 20.5t-20 49.5t20 49t49 20q28 0 50 -20q20 -22 20 -49q0 -29 -20.5 -49.5t-49.5 -20.5zM772 1501q-28 0 -47.5 21t-19.5 49t19.5 48.5t47.5 20.5t50 -20q20 -22 20 -49q0 -29 -20.5 -49.5t-49.5 -20.5zM174 0v1434h854v-93h-745v-557h563v-90h-563
v-604h774v-90h-883z" />
    <glyph glyph-name="uni0403" unicode="&#x403;" horiz-adv-x="1071" 
d="M201 0v1434h831v-91h-723v-1343h-108zM582 1481v30l121 193h98v-39l-156 -184h-63z" />
    <glyph glyph-name="uni040E" unicode="&#x40e;" horiz-adv-x="1157" 
d="M590 1487q-87 0 -150.5 45.5t-81.5 128.5v39h76q17 -131 156 -131q146 0 155 131h78v-39q-18 -85 -81 -129.5t-152 -44.5zM246 -8q-47 0 -84 8v88h80q104 0 166 52t104 153l14 33l19 39l-492 1024v45h94l451 -949l420 949h86v-45l-492 -1102q-28 -60 -50 -99.5t-54 -80
t-67.5 -63.5t-84.5 -37.5t-110 -14.5z" />
    <glyph glyph-name="uni0410" unicode="&#x410;" horiz-adv-x="1249" 
d="M621 1313l-277 -774h557l-276 774h-4zM1094 0l-160 449h-623l-159 -449h-93v45l504 1389h129l498 -1389v-45h-96z" />
    <glyph glyph-name="uni0411" unicode="&#x411;" horiz-adv-x="1188" 
d="M174 0v1434h840v-91h-731v-487h276q88 0 163.5 -13t144 -43.5t116.5 -77.5t76 -120t28 -166q0 -94 -29.5 -169.5t-80 -124.5t-121 -81.5t-148.5 -46.5t-167 -14h-367zM283 90h258q73 0 135 10t118.5 35t96 63.5t63 98.5t23.5 137q0 332 -418 332h-276v-676z" />
    <glyph glyph-name="uni0412" unicode="&#x412;" horiz-adv-x="1184" 
d="M174 0v1434h406q454 0 454 -357q0 -131 -63.5 -204t-190.5 -115v-2q163 -36 243.5 -120.5t80.5 -240.5q0 -88 -27 -157t-72 -113t-109.5 -72.5t-134 -40.5t-149.5 -12h-438zM283 797h290q75 0 135.5 14.5t110.5 45.5t77.5 86t27.5 130q0 270 -346 270h-295v-546zM283 90
h327q82 0 149 17t120 52.5t82.5 96.5t29.5 143q0 308 -405 308h-303v-617z" />
    <glyph glyph-name="uni0413" unicode="&#x413;" horiz-adv-x="1071" 
d="M201 0v1434h831v-91h-723v-1343h-108z" />
    <glyph glyph-name="uni0414" unicode="&#x414;" horiz-adv-x="1483" 
d="M403 502q-7 -63 -15.5 -111t-25 -108.5t-45 -109.5t-67.5 -83h854v1251h-643q-10 -220 -33 -549q-12 -164 -25 -290zM129 0l-12 -287h-97v377h62q46 11 82.5 46.5t58 77t38 100t23.5 99.5t13 93q40 342 57 928h858v-1344h183v-377h-97l-12 287h-1157z" />
    <glyph glyph-name="uni0415" unicode="&#x415;" horiz-adv-x="1124" 
d="M174 0v1434h854v-93h-745v-557h563v-90h-563v-604h774v-90h-883z" />
    <glyph glyph-name="uni0416" unicode="&#x416;" horiz-adv-x="2023" 
d="M956 0v694h-182l-602 -694h-94v43l606 698l-561 650v43h90l557 -650h186v650h109v-650h186l557 650h86v-43l-559 -646l611 -702v-43h-97l-602 694h-182v-694h-109z" />
    <glyph glyph-name="uni0417" unicode="&#x417;" horiz-adv-x="1036" 
d="M471 -8q-138 0 -240 40q-107 42 -170 95v84h54q66 -66 158.5 -98.5t193.5 -32.5q174 0 273.5 82t99.5 252q0 78 -30 135.5t-82.5 89t-114 46.5t-134.5 15h-151v91h135q161 0 246.5 68.5t85.5 221.5q0 135 -84.5 204t-223.5 69q-197 0 -321 -113h-51v76q151 125 372 125
q185 0 299.5 -90.5t114.5 -270.5q0 -256 -244 -329v-4q140 -31 216.5 -116t76.5 -222q0 -109 -35.5 -190.5t-100.5 -130.5t-150.5 -73t-192.5 -24z" />
    <glyph glyph-name="uni0418" unicode="&#x418;" horiz-adv-x="1436" 
d="M285 0h-111v1434h109v-1262h6l862 1262h111v-1434h-109v1262h-6z" />
    <glyph glyph-name="uni0419" unicode="&#x419;" horiz-adv-x="1436" 
d="M717 1487q-87 0 -150.5 45.5t-81.5 128.5v39h76q17 -131 156 -131q146 0 155 131h78v-39q-18 -85 -81 -129.5t-152 -44.5zM285 0h-111v1434h109v-1262h6l862 1262h111v-1434h-109v1262h-6z" />
    <glyph glyph-name="uni041A" unicode="&#x41a;" horiz-adv-x="1264" 
d="M1090 0l-603 694h-202v-694h-109v1434h109v-650h207l557 650h86v-43l-560 -646l611 -702v-43h-96z" />
    <glyph glyph-name="uni041B" unicode="&#x41b;" horiz-adv-x="1372" 
d="M1087 0v1341h-643q0 -199 -25 -553q-9 -129 -28 -309q-32 -276 -97 -381q-62 -104 -194 -104h-28q-9 0 -23 2q-4 1 -10.5 2.5t-7.5 1.5v90h55q40 0 70.5 19.5t49.5 55t29.5 66.5t19.5 73q42 199 59 503q3 51 9 152.5t9 152.5q9 191 10 322h856v-1434h-111z" />
    <glyph glyph-name="uni041C" unicode="&#x41c;" horiz-adv-x="1661" 
d="M174 0v1434h170l487 -1268h5l485 1268h166v-1434h-111v1303h-10l-502 -1303h-80l-499 1303h-9v-1303h-102z" />
    <glyph glyph-name="uni041D" unicode="&#x41d;" horiz-adv-x="1395" 
d="M283 0h-109v1434h109v-650h829v650h109v-1434h-109v694h-829v-694z" />
    <glyph glyph-name="uni041E" unicode="&#x41e;" horiz-adv-x="1454" 
d="M729 -8q-210 0 -365.5 109t-228.5 305q-51 135 -51 311q0 151 43 282.5t123.5 230t204 155.5t274.5 57q209 0 362.5 -109.5t227.5 -304.5q51 -135 51 -311q0 -149 -39.5 -278.5t-130.5 -237.5t-224 -162q-117 -47 -247 -47zM729 78q177 0 304 96t184 264q40 117 40 277
q0 94 -17 182t-53 170t-100 147t-150 101q-99 41 -208 41q-180 0 -307 -96.5t-184 -267.5q-41 -121 -41 -277q0 -130 33 -243.5t96.5 -202t167 -140t235.5 -51.5z" />
    <glyph glyph-name="uni041F" unicode="&#x41f;" horiz-adv-x="1374" 
d="M283 0h-109v1434h1026v-1434h-108v1343h-809v-1343z" />
    <glyph glyph-name="uni0420" unicode="&#x420;" horiz-adv-x="1126" 
d="M174 0v1434h373q115 0 204 -20.5t159 -66.5t107.5 -127.5t37.5 -195.5q0 -97 -26.5 -171.5t-71.5 -121.5t-111 -77t-139 -42t-162 -12h-262v-600h-109zM283 1343v-655h262q192 0 296 74q103 73 103 258q0 77 -20.5 134.5t-55.5 93t-87.5 57.5t-108.5 30t-127 8h-262z" />
    <glyph glyph-name="uni0421" unicode="&#x421;" horiz-adv-x="1257" 
d="M715 -8q-127 0 -231.5 39t-175.5 106.5t-119.5 160.5t-70.5 199t-22 224q0 149 41.5 279t119.5 229t199 156t271 57q141 0 238 -31t198 -113v-88h-51q-79 79 -169.5 111.5t-209.5 32.5q-177 0 -301.5 -94t-182.5 -261q-40 -117 -40 -274q0 -105 17 -197.5t55.5 -175.5
t96 -142.5t144.5 -94.5t195 -35q261 0 424 170h47v-82q-74 -70 -186 -123q-114 -53 -287 -53z" />
    <glyph glyph-name="uni0422" unicode="&#x422;" horiz-adv-x="1133" 
d="M621 0h-111v1343h-467v91h1047v-91h-469v-1343z" />
    <glyph glyph-name="uni0423" unicode="&#x423;" horiz-adv-x="1157" 
d="M246 -8q-47 0 -84 8v88h80q104 0 166 52t104 153l14 33l19 39l-492 1024v45h94l451 -949l420 949h86v-45l-492 -1102q-28 -60 -50 -99.5t-54 -80t-67.5 -63.5t-84.5 -37.5t-110 -14.5z" />
    <glyph glyph-name="uni0424" unicode="&#x424;" horiz-adv-x="1665" 
d="M190 717q0 -479 590 -479v964q-421 0 -547 -266q-43 -90 -43 -219zM1475 717q0 108 -31.5 192t-85 138.5t-130 90t-160.5 50t-183 14.5v-964q590 0 590 479zM887 147v-157h-109v157q-117 0 -219 19.5t-191 63.5t-152.5 109.5t-99.5 161.5t-36 216q0 123 38 222t102 164.5
t154 109t190.5 62.5t213.5 19v150h109v-150q118 0 220.5 -20.5t191 -65t151.5 -111t99 -163.5t36 -217q0 -123 -38 -220.5t-103 -162t-155.5 -107.5t-190 -61.5t-211.5 -18.5z" />
    <glyph glyph-name="uni0425" unicode="&#x425;" horiz-adv-x="1223" 
d="M70 0v45l475 700l-445 644v45h93l423 -611l412 611h86v-45l-436 -646l475 -698v-45h-92l-455 670l-452 -670h-84z" />
    <glyph glyph-name="uni0426" unicode="&#x426;" horiz-adv-x="1470" 
d="M1384 -287h-96l-12 287h-1102v1434h109v-1344h809v1344h108v-1344h184v-377z" />
    <glyph glyph-name="uni0427" unicode="&#x427;" horiz-adv-x="1262" 
d="M1090 0h-111v641q-49 -25 -144 -54q-96 -30 -223 -30q-253 0 -367 123t-114 379v375h111v-379q0 -213 87 -309.5t289 -96.5q193 0 361 76v709h111v-1434z" />
    <glyph glyph-name="uni0428" unicode="&#x428;" horiz-adv-x="2005" 
d="M174 0v1434h109v-1344h665v1344h109v-1344h665v1344h109v-1434h-1657z" />
    <glyph glyph-name="uni0429" unicode="&#x429;" horiz-adv-x="2099" 
d="M2013 -287h-96l-12 287h-1731v1434h109v-1344h665v1344h109v-1344h665v1344h109v-1344h182v-377z" />
    <glyph glyph-name="uni042A" unicode="&#x42a;" horiz-adv-x="1446" 
d="M817 0h-366v1343h-408v91h518v-553h275q89 0 166 -14t144.5 -47t115 -82t75 -123.5t27.5 -168.5q0 -117 -44 -205.5t-121.5 -139.5t-173 -76t-208.5 -25zM836 791h-275v-701h256q92 0 168 19t137.5 59.5t96 111t34.5 166.5q0 94 -31.5 162.5t-90 107.5t-131 57t-164.5 18
z" />
    <glyph glyph-name="uni042B" unicode="&#x42b;" horiz-adv-x="1624" 
d="M174 0v1434h109v-553h276q112 0 204.5 -23.5t166.5 -73.5t115.5 -136t41.5 -202q0 -117 -44 -205t-121.5 -139.5t-173 -76.5t-207.5 -25h-367zM559 791h-276v-701h258q92 0 168 19t137.5 59.5t96 111t34.5 166.5q0 76 -21.5 135.5t-58 98.5t-90.5 64.5t-114.5 36
t-133.5 10.5zM1450 0h-113v1434h113v-1434z" />
    <glyph glyph-name="uni042C" unicode="&#x42c;" horiz-adv-x="1167" 
d="M174 0v1434h109v-553h276q112 0 204.5 -23.5t166.5 -73.5t115.5 -136t41.5 -202q0 -117 -44 -205t-121.5 -139.5t-173 -76.5t-207.5 -25h-367zM559 791h-276v-701h258q92 0 168 19t137.5 59.5t96 111t34.5 166.5q0 76 -21.5 135.5t-58 98.5t-90.5 64.5t-114.5 36
t-133.5 10.5z" />
    <glyph glyph-name="uni042D" unicode="&#x42d;" horiz-adv-x="1235" 
d="M532 -8q-143 0 -256.5 41.5t-214.5 134.5v82h48q64 -69 163 -119q99 -51 256 -51q105 0 190 34.5t142 92t96.5 137.5t58.5 166.5t23 183.5h-704v90h704q-4 97 -26 182t-64 156.5t-101 123t-141 80t-180 28.5q-120 0 -211.5 -33t-169.5 -111h-51v88q97 82 198 113t238 31
q206 0 353 -102.5t219 -293.5q49 -132 49 -311q0 -121 -23.5 -230t-73 -203t-121 -163t-174.5 -108t-227 -39z" />
    <glyph glyph-name="uni042E" unicode="&#x42e;" horiz-adv-x="1931" 
d="M1227 -8q-150 0 -270 57t-195.5 154.5t-116 223t-41.5 267.5h-321v-694h-109v1434h109v-650h323q9 187 83 334.5t213.5 235.5t324.5 88q207 0 355 -109.5t217 -304.5q48 -135 48 -311q0 -149 -39.5 -279t-115 -230t-195.5 -158t-270 -58zM1227 78q175 0 294.5 96
t174.5 264q39 118 39 277q0 101 -18 192.5t-57.5 174t-97.5 143t-144 96t-191 35.5q-176 0 -297.5 -97t-174.5 -267q-38 -122 -38 -277q0 -101 18 -193t58 -173.5t98.5 -141.5t144.5 -94.5t191 -34.5z" />
    <glyph glyph-name="uni042F" unicode="&#x42f;" horiz-adv-x="1235" 
d="M950 643v700h-256q-92 0 -168 -18.5t-137.5 -58t-96 -109.5t-34.5 -166q0 -94 32 -163t90 -108.5t131.5 -58t164.5 -18.5h274zM950 553h-274q-68 0 -121 8l-344 -561h-100v41l340 543q-147 44 -225.5 149t-78.5 258q0 94 29.5 169.5t80 126t121 84t149 48.5t167.5 15h367
v-1434h-111v553z" />
    <glyph glyph-name="uni0430" unicode="&#x430;" horiz-adv-x="1006" 
d="M416 70q131 0 211 50q81 51 139 126v260q-143 33 -274 33q-50 0 -95 -6.5t-89 -22.5t-75.5 -41.5t-51 -67t-19.5 -94.5q0 -127 73 -182q71 -55 181 -55zM766 104v43q-78 -84 -164 -120.5t-201 -36.5q-152 0 -248 81.5t-96 227.5q0 71 25.5 126.5t66.5 90t98.5 57
t115.5 31t122 8.5q153 0 281 -30v190q0 126 -72 175q-74 50 -190 50q-214 0 -332 -94h-43v84q94 49 183 70.5t196 21.5q173 0 266.5 -70t93.5 -231v-778h-28q-21 0 -35 5.5t-21.5 13t-11.5 23t-5 27.5t-1 35z" />
    <glyph glyph-name="uni0431" unicode="&#x431;" horiz-adv-x="1122" 
d="M563 -6q-227 0 -362 153q-135 151 -135 465v39q0 148 17 257.5t58.5 201t111 150t174 94t247.5 43.5q55 5 95 9q73 8 128 28h57v-78q-48 -13 -67 -17q-87 -16 -201 -24q-259 -14 -382.5 -129.5t-139.5 -362.5q67 110 177.5 164.5t244.5 54.5q226 0 349.5 -134t123.5 -357
q0 -168 -53 -291.5t-166 -194.5t-277 -71zM563 72q86 0 153.5 26t111 70t72 106t40.5 130t12 147q0 188 -95 300t-279 112q-143 0 -252.5 -75.5t-157.5 -209.5v-66q0 -86 10.5 -159.5t38 -145.5t70.5 -122.5t113.5 -81.5t162.5 -31z" />
    <glyph glyph-name="uni0432" unicode="&#x432;" horiz-adv-x="1038" 
d="M905 807q0 -95 -48 -157.5t-140 -84.5v-4q107 -6 174 -72.5t67 -173.5q0 -315 -419 -315h-389v1065h387q69 0 129.5 -12.5t116.5 -40t89 -80t33 -125.5zM539 985h-287v-387h301q53 0 96.5 10t80 31.5t57 61t20.5 94.5q0 54 -24 92.5t-65 59t-85 29.5t-94 9zM252 518v-438
h295q60 0 111 10.5t97 34t72.5 68.5t26.5 108q0 51 -15.5 90t-41.5 62.5t-64 38.5t-77.5 20.5t-88.5 5.5h-315z" />
    <glyph glyph-name="uni0433" unicode="&#x433;" horiz-adv-x="850" 
d="M811 1065v-80h-559v-985h-102v1065h661z" />
    <glyph glyph-name="uni0434" unicode="&#x434;" horiz-adv-x="1217" 
d="M358 467q-17 -150 -40 -242q-25 -94 -78 -145h659v905h-510q-8 -192 -15 -290q-4 -58 -5 -86q-1 -31 -5 -78q-5 -38 -6 -64zM117 0l-11 -248h-86v328h62q37 6 65.5 29t45.5 58.5t26 66.5t17 72q11 61 22 165q2 30 6 70q3 28 7 88q4 69 7 97q4 66 5 99q6 113 12 240h706
v-985h164v-328h-86l-10 248h-952z" />
    <glyph glyph-name="uni0435" unicode="&#x435;" horiz-adv-x="1038" 
d="M539 1001q-148 0 -248 -97q-101 -98 -117 -296h700q-5 214 -95 303q-91 90 -240 90zM952 186v-75q-55 -44 -149 -82q-90 -37 -238 -37q-124 0 -220 40t-156.5 113t-91.5 170t-31 215q0 89 19 170t58.5 150t95 120t133 80t167.5 29q94 0 168 -25t124 -69t83.5 -107.5
t48 -137t14.5 -160.5q0 -22 -1 -31t-1 -19h-805q0 -214 98.5 -334t306.5 -120q222 0 332 110h45z" />
    <glyph glyph-name="uni0436" unicode="&#x436;" horiz-adv-x="1544" 
d="M721 0v514h-162l-414 -514h-90v39l414 514l-381 473v41h80l381 -473h172v473h102v-473h172l381 473h80v-41l-381 -473l414 -514v-39h-90l-414 514h-162v-514h-102z" />
    <glyph glyph-name="uni0437" unicode="&#x437;" horiz-adv-x="946" 
d="M440 72q129 0 216 63t87 184q0 54 -21 94t-57.5 62.5t-79.5 33.5t-93 11h-183v80h185q100 0 162.5 52t62.5 149q0 194 -277 194q-83 0 -161.5 -25t-130.5 -77h-46v74q131 110 340 110q57 0 108.5 -8t101.5 -27.5t86.5 -50t58.5 -78.5t22 -110q0 -95 -49.5 -157.5
t-142.5 -78.5v-8q101 -22 159 -82t58 -158q0 -88 -32 -153t-89.5 -102.5t-128 -55.5t-154.5 -18q-254 0 -381 127v78h50q55 -65 143 -94t186 -29z" />
    <glyph glyph-name="uni0438" unicode="&#x438;" horiz-adv-x="1159" 
d="M150 1065h102v-909h6l649 909h103v-1065h-103v909h-6l-649 -909h-102v1065z" />
    <glyph glyph-name="uni0439" unicode="&#x439;" horiz-adv-x="1159" 
d="M594 1178q-88 0 -151.5 51.5t-82.5 138.5v39h78q8 -69 48 -109.5t108 -40.5q69 0 108.5 40t47.5 110h77v-39q-19 -88 -81 -139t-152 -51zM150 1065h102v-909h6l649 909h103v-1065h-103v909h-6l-649 -909h-102v1065z" />
    <glyph glyph-name="uni043A" unicode="&#x43a;" horiz-adv-x="991" 
d="M846 0l-414 514h-182v-514h-103v1067h103v-473h192l381 473h80v-41l-381 -473l414 -514v-39h-90z" />
    <glyph glyph-name="uni043B" unicode="&#x43b;" horiz-adv-x="1114" 
d="M860 0v985h-506q-13 -328 -30 -524q-22 -256 -71 -354q-54 -111 -187 -111h-23q-8 0 -16 2q-4 1 -9 2.5t-6 1.5v76h43q32 0 57.5 14t40.5 34t26.5 51t16.5 55.5t10 56.5q13 88 19 178q4 38 13 160q15 250 18 438h709v-1065h-105z" />
    <glyph glyph-name="uni043C" unicode="&#x43c;" horiz-adv-x="1438" 
d="M150 0v1065h155l416 -922h2l405 922h162v-1065h-104v952h-8l-424 -952h-74l-432 952h-8v-952h-90z" />
    <glyph glyph-name="uni043D" unicode="&#x43d;" horiz-adv-x="1139" 
d="M887 0v514h-635v-514h-102v1065h102v-471h635v473h33q44 0 58 -18q13 -19 13 -93v-956h-104z" />
    <glyph glyph-name="uni043E" unicode="&#x43e;" horiz-adv-x="1124" 
d="M561 -8q-120 0 -215.5 42.5t-155.5 117t-92 172t-32 211.5q0 157 57 279t170 193.5t268 71.5q120 0 216 -42.5t157 -116.5t93 -172.5t32 -212.5q0 -159 -57.5 -281t-171 -192t-269.5 -70zM561 72q102 0 179 36t123 100.5t68.5 146.5t22.5 180t-23 180t-69 146.5t-123 101
t-178 36.5q-100 0 -177 -37t-122.5 -101.5t-68.5 -146.5t-23 -179q0 -98 22.5 -179.5t68.5 -146t122.5 -101t177.5 -36.5z" />
    <glyph glyph-name="uni043F" unicode="&#x43f;" horiz-adv-x="1124" 
d="M252 985v-985h-102v1065h827v-1065h-105v985h-620z" />
    <glyph glyph-name="uni0440" unicode="&#x440;" horiz-adv-x="1130" 
d="M586 80q248 0 339 232q33 88 33 229q0 248 -105 364q-82 90 -216 90q-210 0 -389 -219v-553q71 -77 150.5 -110t187.5 -33zM604 -2q-218 0 -356 125v-455h-103v1399h48q32 0 44 -18q11 -20 11 -88v-84q90 98 187.5 150t217.5 52q276 0 374 -273q36 -100 36 -255
q0 -66 -9 -129t-30.5 -127t-54.5 -116t-84 -93t-116 -61q-83 -27 -165 -27z" />
    <glyph glyph-name="uni0441" unicode="&#x441;" horiz-adv-x="983" 
d="M565 -8q-123 0 -219.5 41.5t-157 115.5t-91.5 172.5t-31 215.5q0 242 135 392t370 150q207 0 334 -102v-82h-53q-102 102 -283 102q-100 0 -178 -37t-125.5 -101t-71.5 -146t-24 -176q0 -100 23.5 -182t70.5 -146t125 -99.5t180 -35.5q193 0 308 123h47v-78
q-44 -43 -132 -85q-87 -42 -227 -42z" />
    <glyph glyph-name="uni0442" unicode="&#x442;" horiz-adv-x="948" 
d="M41 985v80h866v-80h-381v-985h-104v985h-381z" />
    <glyph glyph-name="uni0443" unicode="&#x443;" horiz-adv-x="1030" 
d="M313 -332v33l164 373l-426 962v31h96l379 -870h2l363 870h90v-31l-575 -1368h-93z" />
    <glyph glyph-name="uni0444" unicode="&#x444;" horiz-adv-x="1464" 
d="M680 -332v324q-134 0 -244 32.5t-193.5 97.5t-130 170.5t-46.5 242.5q0 185 92 317.5t263 189.5q112 37 259 37v357h47q35 0 46 -17q11 -19 11 -88v-252q135 0 246.5 -34t195 -100.5t129.5 -171t46 -238.5q0 -111 -31.5 -201.5t-87.5 -153.5t-134.5 -105.5t-169.5 -62.5
t-194 -20v-324h-104zM784 999v-927q238 0 374 115t136 348q0 232 -136.5 348t-373.5 116zM680 72v927q-237 0 -373.5 -116t-136.5 -348q0 -233 136 -348t374 -115z" />
    <glyph glyph-name="uni0445" unicode="&#x445;" horiz-adv-x="981" 
d="M55 0v41l359 514l-353 473v39h91l331 -446l301 446h84v-39l-319 -471l379 -516v-41h-90l-359 494l-340 -494h-84z" />
    <glyph glyph-name="uni0446" unicode="&#x446;" horiz-adv-x="1188" 
d="M1137 -248h-86l-11 248h-890v1065h102v-985h620v987h33q45 0 58 -18q12 -19 12 -93v-876h162v-328z" />
    <glyph glyph-name="uni0447" unicode="&#x447;" horiz-adv-x="1055" 
d="M907 0h-104v481q-146 -78 -334 -78q-182 0 -269 85t-87 266v311h102v-309q0 -138 62.5 -205.5t199.5 -67.5q147 0 276 55q40 17 50 21v508h33q44 0 58 -18q13 -19 13 -93v-956z" />
    <glyph glyph-name="uni0448" unicode="&#x448;" horiz-adv-x="1702" 
d="M1552 0h-1402v1065h102v-985h547v985h102v-985h547v987h33q45 0 58 -18q13 -19 13 -93v-956z" />
    <glyph glyph-name="uni0449" unicode="&#x449;" horiz-adv-x="1765" 
d="M1714 -248h-86l-10 248h-1468v1065h102v-985h547v985h102v-985h547v987h33q45 0 58 -18q13 -19 13 -93v-876h162v-328z" />
    <glyph glyph-name="uni044A" unicode="&#x44a;" horiz-adv-x="1227" 
d="M698 0h-329v985h-328v80h430v-401h236q440 0 440 -328q0 -77 -26 -136.5t-68.5 -96.5t-102 -61t-121 -33t-131.5 -9zM471 584v-504h227q158 0 252 57q94 55 94 199q0 61 -19.5 106t-50.5 71.5t-77 43t-91.5 22t-100.5 5.5h-234z" />
    <glyph glyph-name="uni044B" unicode="&#x44b;" horiz-adv-x="1384" 
d="M1235 0h-102v1067h32q45 0 58 -18q12 -19 12 -93v-956zM252 1065v-401h235q441 0 441 -328q0 -77 -26 -136.5t-68.5 -96.5t-102 -61t-121 -33t-131.5 -9h-329v1065h102zM252 584v-504h227q157 0 252 57q94 55 94 199q0 61 -19.5 106.5t-50.5 72t-77.5 42.5t-91.5 21.5
t-101 5.5h-233z" />
    <glyph glyph-name="uni044C" unicode="&#x44c;" horiz-adv-x="1008" 
d="M252 1065v-401h235q441 0 441 -328q0 -77 -26 -136.5t-68.5 -96.5t-102 -61t-121 -33t-131.5 -9h-329v1065h102zM252 584v-504h227q157 0 252 57q94 55 94 199q0 61 -19.5 106.5t-50.5 72t-77.5 42.5t-91.5 21.5t-101 5.5h-233z" />
    <glyph glyph-name="uni044D" unicode="&#x44d;" horiz-adv-x="977" 
d="M410 -10q-138 0 -225 42q-89 43 -134 85v78h49q114 -123 308 -123q188 0 287.5 118t109.5 312h-529v80h531q-10 187 -113 300t-286 113q-182 0 -291 -102h-45v74q126 110 334 110q159 0 274.5 -68.5t173 -187t57.5 -272.5q0 -164 -55.5 -288.5t-170 -197.5t-275.5 -73z
" />
    <glyph glyph-name="uni044E" unicode="&#x44e;" horiz-adv-x="1546" 
d="M1004 -8q-152 0 -261 71.5t-161 187.5t-54 263h-276v-514h-102v1067h32q44 0 58 -18q12 -19 12 -93v-362h278q16 220 137.5 352.5t336.5 132.5q120 0 213 -43t150 -118.5t85.5 -172t28.5 -210.5q0 -116 -29 -213.5t-86.5 -172t-150 -116t-211.5 -41.5zM1004 72
q99 0 172.5 37.5t115.5 103.5t62 146.5t20 175.5t-20 175t-62 146.5t-115.5 104.5t-172.5 38q-98 0 -172 -38t-116 -104.5t-62.5 -147t-20.5 -174.5q0 -95 20 -175t62.5 -146.5t116 -104t172.5 -37.5z" />
    <glyph glyph-name="uni044F" unicode="&#x44f;" horiz-adv-x="1034" 
d="M784 477v508h-209q-157 0 -250 -57q-94 -58 -94 -197q0 -136 94 -194q93 -60 246 -60h213zM784 397h-215q-32 0 -96 4l-291 -401h-92v39l285 381q-246 71 -246 311q0 76 26.5 135.5t69 96.5t102 60.5t121 32.5t130.5 9h309v-1065h-103v397z" />
    <glyph glyph-name="uni0451" unicode="&#x451;" horiz-adv-x="1038" 
d="M374 1231q-28 0 -48.5 19.5t-20.5 47.5q0 29 20 49.5t49 20.5q28 0 50 -20q20 -22 20 -50t-21 -47.5t-49 -19.5zM667 1231q-27 0 -47 20t-20 47q0 28 19.5 49t47.5 21t50 -20q20 -22 20 -50t-21 -47.5t-49 -19.5zM539 1001q-148 0 -248 -97q-101 -98 -117 -296h700
q-5 214 -95 303q-91 90 -240 90zM952 186v-75q-55 -44 -149 -82q-90 -37 -238 -37q-124 0 -220 40t-156.5 113t-91.5 170t-31 215q0 89 19 170t58.5 150t95 120t133 80t167.5 29q94 0 168 -25t124 -69t83.5 -107.5t48 -137t14.5 -160.5q0 -22 -1 -31t-1 -19h-805
q0 -214 98.5 -334t306.5 -120q222 0 332 110h45z" />
    <glyph glyph-name="uni0453" unicode="&#x453;" horiz-adv-x="850" 
d="M811 1065v-80h-559v-985h-102v1065h661zM520 1174h-63v32l153 228h103v-41z" />
    <glyph glyph-name="uni045E" unicode="&#x45e;" horiz-adv-x="1030" 
d="M524 1178q-89 0 -150.5 51t-80.5 139v39h76q7 -69 47 -109.5t108 -40.5q69 0 109.5 40.5t46.5 109.5h76v-39q-19 -88 -80.5 -139t-151.5 -51zM313 -332v33l164 373l-426 962v31h96l379 -870h2l363 870h90v-31l-575 -1368h-93z" />
    <glyph glyph-name="uni0490" unicode="&#x490;" horiz-adv-x="1073" 
d="M309 1343v-1343h-108v1434h725l12 286h94v-377h-723z" />
    <glyph glyph-name="uni1E80" unicode="&#x1e80;" horiz-adv-x="1776" 
d="M928 1481h-61l-158 184v39h102l117 -193v-30zM422 0l-359 1391v43h101l319 -1260h6l355 1260h94l356 -1260h6l318 1260h94v-43l-358 -1391h-119l-344 1243h-4l-346 -1243h-119z" />
    <glyph glyph-name="uni1E81" unicode="&#x1e81;" horiz-adv-x="1487" 
d="M367 0l-310 1028v39h93l268 -911h4l283 911h86l276 -911h4l268 911h84v-39l-309 -1028h-90l-279 903h-4l-280 -903h-94zM784 1174h-61l-193 219v41h100l154 -228v-32z" />
    <glyph glyph-name="uni1E82" unicode="&#x1e82;" horiz-adv-x="1776" 
d="M858 1481v30l121 193h98v-39l-156 -184h-63zM422 0l-359 1391v43h101l319 -1260h6l355 1260h94l356 -1260h6l318 1260h94v-43l-358 -1391h-119l-344 1243h-4l-346 -1243h-119z" />
    <glyph glyph-name="uni1E83" unicode="&#x1e83;" horiz-adv-x="1487" 
d="M774 1174h-63v32l153 228h103v-41zM367 0l-310 1028v39h93l268 -911h4l283 911h86l276 -911h4l268 911h84v-39l-309 -1028h-90l-279 903h-4l-280 -903h-94z" />
    <glyph glyph-name="uni1E84" unicode="&#x1e84;" horiz-adv-x="1776" 
d="M747 1501q-29 0 -49 20.5t-20 49.5t20 49t49 20q28 0 50 -20q20 -22 20 -49q0 -29 -20.5 -49.5t-49.5 -20.5zM1040 1501q-28 0 -47.5 21t-19.5 49t19.5 48.5t47.5 20.5t50 -20q20 -22 20 -49q0 -29 -20.5 -49.5t-49.5 -20.5zM422 0l-359 1391v43h101l319 -1260h6
l355 1260h94l356 -1260h6l318 1260h94v-43l-358 -1391h-119l-344 1243h-4l-346 -1243h-119z" />
    <glyph glyph-name="uni1E85" unicode="&#x1e85;" horiz-adv-x="1487" 
d="M600 1231q-28 0 -48.5 19.5t-20.5 47.5q0 29 20 49.5t49 20.5q28 0 50 -20q20 -22 20 -50t-21 -47.5t-49 -19.5zM893 1231q-27 0 -47 20t-20 47q0 28 19.5 49t47.5 21t50 -20q20 -22 20 -50t-21 -47.5t-49 -19.5zM367 0l-310 1028v39h93l268 -911h4l283 911h86l276 -911
h4l268 911h84v-39l-309 -1028h-90l-279 903h-4l-280 -903h-94z" />
    <glyph glyph-name="uni1EF2" unicode="&#x1ef2;" horiz-adv-x="1122" 
d="M621 0h-111v600l-457 789v45h94l420 -732h2l420 732h86v-45l-454 -785v-604zM602 1481h-61l-158 184v39h102l117 -193v-30z" />
    <glyph glyph-name="uni1EF3" unicode="&#x1ef3;" horiz-adv-x="1024" 
d="M315 -332v33l162 373l-426 962v31h94l381 -872h2l361 872h92v-31l-575 -1368h-91zM573 1174h-61l-193 219v41h100l154 -228v-32z" />
    <glyph glyph-name="uni2013" unicode="&#x2013;" horiz-adv-x="809" 
d="M57 543v92h695v-92h-695z" />
    <glyph glyph-name="_44" 
d="M471 1174h-61l-193 219v41h100l154 -228v-32z" />
    <glyph glyph-name="_72" 
d="M276 1231q-28 0 -48.5 19.5t-20.5 47.5q0 29 20 49.5t49 20.5q28 0 50 -20q20 -22 20 -50t-21 -47.5t-49 -19.5zM569 1231q-27 0 -47 20t-20 47q0 28 19.5 49t47.5 21t50 -20q20 -22 20 -50t-21 -47.5t-49 -19.5z" />
    <glyph glyph-name="_73" 
d="M649 1327v-76h-450v76h450z" />
    <glyph glyph-name="_74" 
d="M440 1174h-63v32l153 228h103v-41z" />
    <glyph glyph-name="_131" 
d="M197 1174v38l188 222h82l184 -222v-38h-61l-168 178l-168 -178h-57z" />
    <glyph glyph-name="_132" 
d="M651 1434v-37l-188 -223h-82l-184 223v37h61l168 -177l168 177h57z" />
    <glyph glyph-name="_133" 
d="M424 1178q-87 0 -150.5 52.5t-80.5 137.5v39h75q8 -69 48 -108t108 -39q69 0 108.5 38.5t47.5 108.5h75v-39q-16 -86 -80 -138t-151 -52z" />
    <glyph glyph-name="_134" 
d="M426 1231q-29 0 -49.5 20t-20.5 49q0 28 21 49t49 21t49 -21t21 -49t-20.5 -48.5t-49.5 -20.5z" />
    <glyph glyph-name="_135" 
d="M424 1176q-76 0 -128 50t-52 124q0 76 52.5 126t127.5 50q34 0 67 -12q52 -23 81.5 -65.5t29.5 -98.5q0 -75 -52 -124.5t-126 -49.5zM424 1243q45 0 74.5 31t29.5 76q0 47 -29 78.5t-75 31.5q-47 0 -76 -31.5t-29 -78.5t29.5 -77t75.5 -30z" />
    <glyph glyph-name="_136" 
d="M160 1202v37q9 58 50.5 95.5t98.5 37.5q34 0 64 -12q38 -18 56 -28q27 -15 51 -27q23 -13 46 -13q36 0 57 24t27 62h70v-39q-13 -59 -51.5 -96t-96.5 -37q-52 0 -121 41q-45 25 -50 28q-23 13 -46 13q-69 0 -86 -86h-69z" />
    <glyph glyph-name="_137" 
d="M276 1174v26l103 234h88v-41l-127 -219h-64zM518 1174v26l103 234h88v-41l-127 -219h-64z" />
    <glyph glyph-name="_254" 
d="M342 -356v61q70 16 70 59q0 18 -11 26q-16 10 -24 17q-29 20 -29 60q0 29 21 46t51 17q42 0 60 -29t18 -73q0 -155 -156 -184z" />
    <glyph glyph-name="_255" horiz-adv-x="819" 
d="M487 1491v-61q-69 -16 -69 -60q0 -17 11 -25q11 -7 24 -18q28 -18 28 -59q0 -29 -20.5 -46.5t-50.5 -17.5q-41 0 -59.5 29.5t-18.5 73.5q0 154 155 184z" />
    <glyph glyph-name="_256" 
d="M471 1481h-61l-158 184v39h102l117 -193v-30z" />
    <glyph glyph-name="_257" 
d="M276 1501q-29 0 -49 20.5t-20 49.5t20 49t49 20q28 0 50 -20q20 -22 20 -49q0 -29 -20.5 -49.5t-49.5 -20.5zM569 1501q-28 0 -47.5 21t-19.5 49t19.5 48.5t47.5 20.5t50 -20q20 -22 20 -49q0 -29 -20.5 -49.5t-49.5 -20.5z" />
    <glyph glyph-name="_258" 
d="M659 1616v-80h-471v80h471z" />
    <glyph glyph-name="_259" 
d="M377 1481v30l121 193h98v-39l-156 -184h-63z" />
    <glyph glyph-name="_260" 
d="M203 1481v37l182 188h82l178 -188v-37h-61l-162 143l-160 -143h-59z" />
    <glyph glyph-name="_261" 
d="M645 1706v-37l-182 -188h-82l-178 188v37h59l162 -143l162 143h59z" />
    <glyph glyph-name="_262" 
d="M424 1485q-84 0 -149 46t-82 126v41h73q8 -64 50 -96.5t108 -32.5q140 0 156 129h75v-41q-17 -81 -82 -126.5t-149 -45.5z" />
    <glyph glyph-name="_263" 
d="M426 1503q-28 0 -49 20.5t-21 49.5t20.5 49t49.5 20t49.5 -20.5t20.5 -48.5q0 -29 -21 -49.5t-49 -20.5z" />
    <glyph glyph-name="_264" 
d="M424 1489q-76 0 -128 49.5t-52 124.5q0 76 52.5 126t127.5 50q34 0 67 -12q52 -23 81.5 -65.5t29.5 -98.5q0 -75 -51.5 -124.5t-126.5 -49.5zM424 1556q47 0 75.5 30.5t28.5 76.5t-30 79q-33 30 -74 30q-47 0 -76 -31t-29 -78t29 -77t76 -30z" />
    <glyph glyph-name="_265" 
d="M160 1499v39q10 58 51 95.5t98 37.5q46 0 120 -41q8 -4 25 -13.5t26 -14.5q23 -13 46 -13q35 0 56.5 24.5t27.5 61.5h70v-37q-12 -60 -50.5 -96.5t-97.5 -36.5q-54 0 -121 40q-45 25 -50 28q-24 12 -46 12q-70 0 -86 -86h-69z" />
    <glyph glyph-name="_266" 
d="M276 1481v26l84 197h91v-39l-111 -184h-64zM518 1481v26l84 197h90v-39l-110 -184h-64z" />
    <glyph glyph-name="_267" horiz-adv-x="539" 
d="M25 989v78h141v107q0 125 63.5 195.5t186.5 70.5q57 0 110 -13v-71h-86q-96 0 -134 -45.5t-38 -143.5v-100h258v-78h-258v-989h-102v989h-141z" />
    <glyph glyph-name="_268" horiz-adv-x="1063" 
d="M268 989v-989h-102v989h-141v78h141v94q0 125 63.5 195.5t186.5 70.5q74 0 131 -12v-72h-107q-96 0 -134 -44.5t-38 -143.5v-88h422v107q0 125 63.5 195.5t186.5 70.5q49 0 111 -13v-71h-86q-96 0 -134 -45.5t-38 -143.5v-100h258v-78h-258v-989h-103v989h-422z" />
    <glyph glyph-name="_277" horiz-adv-x="1389" 
d="M692 1313l-438 -1223h876l-434 1223h-4zM111 0l-13 -287h-96v377h143l488 1344h131l481 -1344h141v-377h-96l-12 287h-1167z" />
    <glyph glyph-name="_280" horiz-adv-x="2068" 
d="M979 483l-272 289l-533 -772h-94v43l557 803l-508 545v43h86l764 -822v822h111v-822l763 822h86v-43l-505 -543l557 -805v-43h-97l-532 772l-272 -289v-483h-111v483z" />
    <glyph glyph-name="_285" horiz-adv-x="1262" 
d="M1087 0l-532 774l-272 -289v-485h-109v1434h109v-822l764 822h86v-43l-506 -543l557 -805v-43h-97z" />
    <glyph glyph-name="_287" horiz-adv-x="1251" 
d="M59 0v45l504 1389h129l498 -1389v-45h-96l-469 1313h-4l-469 -1313h-93z" />
    <glyph glyph-name="_310" horiz-adv-x="1128" 
d="M565 -8q-218 0 -356.5 135.5t-138.5 349.5q0 194 118 323.5t308 149.5q-47 9 -81 17t-80 22.5t-77.5 34t-61 46.5t-44.5 65t-15 84q0 71 43 121.5t113 74.5q56 19 145 19h570v-80h-566q-206 0 -206 -135q0 -40 16.5 -71.5t47.5 -53t60.5 -35t69.5 -25.5q63 -21 162 -43
q230 -49 348.5 -171t118.5 -343q0 -217 -140 -351t-354 -134zM565 70q177 0 282 115.5t105 291.5q0 180 -106 295t-281 115q-176 0 -282.5 -117.5t-106.5 -292.5q0 -179 107.5 -293t281.5 -114z" />
    <glyph glyph-name="_312" horiz-adv-x="1018" 
d="M524 1452q165 0 274 -91.5t109 -250.5q0 -151 -83.5 -236t-235.5 -98v-4q167 -5 263.5 -96.5t96.5 -257.5q0 -197 -115 -315.5t-307 -118.5q-198 0 -317 114q-119 113 -119 363v504q0 226 109.5 356.5t324.5 130.5zM195 963v-150h264q159 0 251.5 71t92.5 224
q0 124 -77 193t-200 69q-90 0 -156 -33t-103 -91.5t-54.5 -128.5t-17.5 -154zM526 63q154 0 236 99.5t82 257.5q0 313 -385 313h-264v-278q0 -86 18 -155.5t55.5 -123.5t103 -83.5t154.5 -29.5z" />
    <glyph glyph-name="_314" horiz-adv-x="872" 
d="M774 836q0 -181 -215 -264q-24 -10 -70 -28t-57 -22q-55 -19 -94 -37.5t-80.5 -48.5t-63.5 -72.5t-22 -95.5q0 -57 26.5 -98t72 -61t92.5 -28.5t102 -8.5q108 0 183 35q74 35 114 69h39v-84q-136 -100 -332 -100q-60 0 -113 7t-106.5 25.5t-91.5 48.5t-62 80t-24 115
q0 59 20.5 108t49 81t78.5 62t87.5 46t98.5 39q62 23 102 40q170 66 170 190q0 51 -22.5 86t-62.5 51t-79.5 22t-89.5 6q-148 0 -264 -81h-43v79q131 82 311 82q66 0 123.5 -11.5t109.5 -37.5t82.5 -76t30.5 -118z" />
    <glyph glyph-name="_316" horiz-adv-x="1130" 
d="M987 1067v-1055q0 -92 -39.5 -162t-105.5 -110t-143.5 -60t-163.5 -20q-254 0 -408 94v80h41q61 -49 159 -71.5t195 -22.5q59 0 110.5 8.5t98 29t80 52t53 79.5t19.5 109v179q-77 -90 -178.5 -139.5t-217.5 -49.5q-140 0 -237 72.5t-144 205.5q-36 100 -36 246
q0 113 28 210.5t82.5 173.5t143.5 119.5t204 43.5q225 0 355 -133q5 85 38 111q11 10 33 10h33zM502 88q119 0 210.5 56t170.5 159v549q-134 147 -336 147q-82 0 -147 -25t-107 -67.5t-69 -103t-38.5 -126t-11.5 -140.5q0 -70 9.5 -132t33 -121.5t60 -101.5t94 -68
t131.5 -26z" />
    <glyph glyph-name="_319" horiz-adv-x="1548" 
d="M825 467l553 600h80v-41l-373 -401l404 -586v-39h-88l-381 553l-195 -203v-350h-102v350l-195 203l-381 -553h-88v39l404 586l-373 401v41h80l553 -600v967h37q44 0 55 -17q10 -17 10 -82v-868z" />
    <glyph glyph-name="_321" horiz-adv-x="903" 
d="M399 -272q168 0 255 90t87 254q0 145 -84.5 226t-226.5 81h-115v82h117q126 0 199.5 76t73.5 202q0 106 -71 182q-71 74 -208 74q-179 0 -289 -102h-45v74q127 110 334 110q167 0 275 -90t108 -250q0 -112 -66 -200.5t-172 -112.5v-4q133 -27 204 -118.5t71 -229.5
q0 -198 -121 -312t-315 -114q-136 0 -225 42q-90 43 -134 85v77h47q122 -122 301 -122z" />
    <glyph glyph-name="_323" horiz-adv-x="1120" 
d="M870 115v41q-224 -168 -444 -168q-289 0 -289 278v801h105v-791q0 -106 48 -155t150 -49q124 0 231 52q112 55 199 118v825h103v-1067h-47q-34 0 -45 20t-11 95z" />
    <glyph glyph-name="_325" horiz-adv-x="1120" 
d="M565 1178q-89 0 -150.5 51t-80.5 139v39h76q7 -69 47 -109.5t108 -40.5q70 0 110 40t46 110h78v-39q-19 -88 -82 -139t-152 -51zM870 115v41q-224 -168 -444 -168q-289 0 -289 278v801h105v-791q0 -106 48 -155t150 -49q124 0 231 52q112 55 199 118v825h103v-1067h-47
q-34 0 -45 20t-11 95z" />
    <glyph glyph-name="_327" horiz-adv-x="971" 
d="M250 1335v-870l553 602h80v-41l-373 -403l405 -584v-39h-90l-383 553l-192 -207v-346h-103v1434h37q22 0 36 -3q13 -4 20 -14q7 -12 8 -30q2 -26 2 -52z" />
    <glyph glyph-name="_329" horiz-adv-x="1014" 
d="M553 1067l410 -1030v-37h-93l-366 928h-4l-365 -928h-84v37l408 1030h94z" />
    <glyph glyph-name="_332" horiz-adv-x="1139" 
d="M887 0v514h-635v-514h-102v1065h102v-471h635v473h33q44 0 58 -18q13 -19 13 -93v-956h-104z" />
    <glyph glyph-name="_335" horiz-adv-x="1128" 
d="M250 961v-64q226 182 469 182q276 0 276 -284v-795h-102v782q0 112 -52 161.5t-161 49.5q-194 0 -430 -180v-813h-103v1067h48q17 0 28 -3q21 -9 25 -47q2 -28 2 -56z" />
    <glyph glyph-name="_339" horiz-adv-x="1757" 
d="M250 961v-56q207 174 426 174q97 0 164.5 -43.5t89.5 -132.5q207 176 430 176q129 0 196.5 -68.5t67.5 -193.5v-817h-102v791q0 107 -48 154.5t-151 47.5q-102 0 -190.5 -44.5t-194.5 -127.5v-821h-102v791q0 105 -48 153.5t-149 48.5q-184 0 -389 -174v-819h-103v1067
h48q17 0 28 -3q21 -9 25 -47q2 -28 2 -56z" />
    <glyph glyph-name="_344" horiz-adv-x="1186" 
d="M870 115v41q-95 -75 -213 -121.5t-231 -46.5q-289 0 -289 278v801h105v-791q0 -105 48 -154.5t150 -49.5q199 0 430 170v825h103v-987h162v-328h-86l-11 248h-112q-29 0 -40 13t-13 42q-3 23 -3 60z" />
    <glyph glyph-name="_346" horiz-adv-x="1055" 
d="M907 0h-104v481q-146 -78 -334 -78q-182 0 -269 85t-87 266v311h102v-309q0 -138 62.5 -205.5t199.5 -67.5q147 0 276 55q40 17 50 21v508h33q44 0 58 -18q13 -19 13 -93v-956z" />
    <glyph glyph-name="_348" horiz-adv-x="1769" 
d="M1518 109v55q-207 -176 -426 -176q-96 0 -163.5 45t-90.5 133q-203 -178 -430 -178q-130 0 -197.5 68t-67.5 194v817h103v-788q0 -106 46.5 -155.5t151.5 -49.5q103 0 194 45.5t191 126.5v821h103v-788q0 -119 55 -162t141 -43q108 0 197.5 44.5t192.5 129.5v819h102
v-1067h-47q-35 0 -45 19q-10 17 -10 90z" />
    <glyph glyph-name="_350" horiz-adv-x="1833" 
d="M1782 -248h-86l-10 248h-113q-35 0 -45 19q-10 17 -10 90v55q-207 -176 -426 -176q-96 0 -163.5 45t-90.5 133q-203 -178 -430 -178q-130 0 -197.5 68t-67.5 194v817h103v-788q0 -106 46.5 -155.5t151.5 -49.5q103 0 194 45.5t191 126.5v821h103v-788q0 -119 55 -162
t141 -43q108 0 197.5 44.5t192.5 129.5v819h102v-987h162v-328z" />
    <glyph glyph-name="_354" horiz-adv-x="1008" 
d="M524 -20q-374 0 -374 356v729h102v-412q85 11 235 11q441 0 441 -328q0 -179 -110 -267.5t-294 -88.5zM524 59q301 0 301 277q0 61 -19.5 106.5t-50.5 72t-77.5 42.5t-91.5 21.5t-101 5.5q-148 0 -233 -11v-237q0 -143 65 -210t207 -67z" />
    <glyph glyph-name="_357" horiz-adv-x="1546" 
d="M1004 -8q-152 0 -261 71.5t-161 187.5t-54 263h-276v-514h-102v1434h32q45 0 58 -19q12 -19 12 -94v-727h278q16 220 137.5 352.5t336.5 132.5q120 0 213 -43t150 -118.5t85.5 -172t28.5 -210.5q0 -116 -29 -213.5t-86.5 -172t-150 -116t-211.5 -41.5zM1004 72
q99 0 172.5 37.5t115.5 103.5t62 146.5t20 175.5t-20 175t-62 146.5t-115.5 104.5t-172.5 38q-98 0 -172 -38t-116 -104.5t-62.5 -147t-20.5 -174.5q0 -95 20 -175t62.5 -146.5t116 -104t172.5 -37.5z" />
    <glyph glyph-name="_363" horiz-adv-x="408" 
d="M254 0h-102v1067h32q24 0 37 -3q15 -5 22 -15q8 -12 9 -34q2 -30 2 -59v-956zM205 1231q-29 0 -49.5 20t-20.5 49q0 28 20.5 49t49.5 21q28 0 48.5 -20.5t20.5 -49.5t-20 -49t-49 -20z" />
    </font>
</defs>
</svg>
