<?xml version="1.0" standalone="no"?>
<!DOCTYPE svg PUBLIC "-//W3C//DTD SVG 1.1//EN" "http://www.w3.org/Graphics/SVG/1.1/DTD/svg11.dtd" >
<svg xmlns="http://www.w3.org/2000/svg" xmlns:xlink="http://www.w3.org/1999/xlink" version="1.1">
<metadata>
Created by FontForge 20170731 at Wed Feb 20 16:10:48 2019
 By Aleksey,,,
</metadata>
<defs>
<font id="StagSans-BlackItalic" horiz-adv-x="400" >
  <font-face 
    font-family="Stag Sans Black"
    font-weight="900"
    font-style="italic"
    font-stretch="normal"
    units-per-em="1000"
    panose-1="2 11 10 3 4 0 0 2 0 4"
    ascent="800"
    descent="-200"
    x-height="530"
    cap-height="700"
    bbox="-124 -243 1235 1101"
    underline-thickness="50"
    underline-position="-250"
    unicode-range="U+0020-2013"
  />
<missing-glyph horiz-adv-x="120" 
 />
    <glyph glyph-name="_253" unicode="ff" horiz-adv-x="736" 
d="M0 0l86 375h-46l36 155h46l3 13q22 92 79.5 130t155.5 38q66 0 117 -16l-30 -131h-13q-28 0 -40 -5q-9 -4 -14 -24l-1 -5h89l3 13q24 99 83 136t162 37q64 0 115 -16l-30 -131h-18q-26 0 -39 -6t-18 -29l-1 -4h65l-36 -155h-64l-86 -375h-258l86 375h-88l-86 -375h-258z
" />
    <glyph glyph-name=".notdef" horiz-adv-x="120" 
 />
    <glyph glyph-name=".null" horiz-adv-x="0" 
 />
    <glyph glyph-name="nonmarkingreturn" horiz-adv-x="333" 
 />
    <glyph glyph-name="uni0020" unicode=" " horiz-adv-x="145" 
 />
    <glyph glyph-name="uni0021" unicode="!" horiz-adv-x="346" 
d="M86 247l19 303l35 150h274l-35 -150l-129 -303h-164zM139 -8q-48 0 -81.5 30t-33.5 78q0 27 10 48q14 36 46 55t72 19q23 0 45 -8q71 -30 71 -100q0 -37 -22 -68t-56 -44q-23 -10 -51 -10z" />
    <glyph glyph-name="uni002C" unicode="," horiz-adv-x="266" 
d="M-69 -125l21 97q47 5 65 14q20 11 20 25q0 10 -9 17q-14 10 -21 17q-32 29 -32 73q0 48 35 76t84 28q59 0 92.5 -33.5t33.5 -91.5q0 -60 -24.5 -104.5t-67 -68.5t-91.5 -36t-106 -13z" />
    <glyph glyph-name="uni002D" unicode="-" horiz-adv-x="319" 
d="M4 191l41 179h281l-41 -179h-281z" />
    <glyph glyph-name="uni002E" unicode="." horiz-adv-x="266" 
d="M94 -8q-48 0 -81.5 30t-33.5 78q0 26 9 48q35 74 119 74q23 0 45 -8q71 -30 71 -100q0 -37 -22 -68t-56 -44q-23 -10 -51 -10z" />
    <glyph glyph-name="uni0030" unicode="0" horiz-adv-x="720" 
d="M348 169q37 0 65 54.5t39 114.5t11 103q0 42 -11 59q-12 15 -35 15q-38 0 -67 -52.5t-41.5 -111t-12.5 -101.5q0 -81 52 -81zM329 -12q-133 0 -215 78.5t-82 208.5q0 187 110 311.5t291 124.5q138 0 217 -78t79 -212q0 -186 -109.5 -309.5t-290.5 -123.5z" />
    <glyph glyph-name="uni0031" unicode="1" horiz-adv-x="447" 
d="M66 0l105 457l-73 -35h-40l47 202l187 76h211l-161 -700h-276z" />
    <glyph glyph-name="uni0032" unicode="2" horiz-adv-x="587" 
d="M-36 0l46 202l188 130q62 43 100 73q39 31 39 66q0 22 -17 31q-18 8 -39 8q-47 0 -87 -34h-114l44 187q115 49 234 49q52 0 96.5 -10t82.5 -31.5t60 -60.5t22 -92q0 -91 -53.5 -152t-149.5 -118l-89 -53h217l-45 -195h-535z" />
    <glyph glyph-name="uni0033" unicode="3" horiz-adv-x="575" 
d="M238 -13q-171 0 -271 62l35 150h103q18 -13 38 -21q20 -10 56 -10q31 0 54 13.5t23 41.5q0 24 -16 34q-16 9 -50 9h-60l37 161h58q81 0 81 51q0 42 -68 42q-49 0 -86 -20h-98l40 172q87 41 219 41q50 0 92.5 -8t82.5 -27.5t62.5 -56.5t22.5 -90q0 -146 -165 -186v-3
q62 -14 93 -46.5t31 -93.5q0 -59 -29.5 -103t-77.5 -67t-100 -34t-107 -11z" />
    <glyph glyph-name="uni0034" unicode="4" horiz-adv-x="651" 
d="M243 0l32 140h-281l43 186l380 374h259l-91 -395h56l-38 -165h-56l-32 -140h-272zM222 305h103l32 141h-4l-131 -137v-4z" />
    <glyph glyph-name="uni0035" unicode="5" horiz-adv-x="587" 
d="M237 -12q-174 0 -270 60l35 154h110q39 -28 97 -28q87 0 87 66q0 44 -53 44q-39 0 -69 -24h-140l101 440h486l-45 -194h-296l-23 -102h3q59 44 135 44q86 0 134 -48t48 -133q0 -72 -28.5 -127t-77 -87.5t-108 -48.5t-126.5 -16z" />
    <glyph glyph-name="uni0036" unicode="6" horiz-adv-x="670" 
d="M332 -12q-302 0 -302 280q0 148 79.5 265.5t217.5 158.5q71 21 165 21q146 0 222 -52l-39 -172h-108q-12 8 -33 16q-19 6 -47 6q-64 0 -98.5 -25.5t-62.5 -84.5q74 47 151 47q78 0 133 -48q51 -51 51 -135q0 -90 -48.5 -154.5t-121 -93.5t-159.5 -29zM330 291
q-7 0 -21 -2l-18 -5q-6 -38 -6 -74q0 -55 42 -55q32 0 47.5 27t15.5 61q0 28 -15.5 38t-44.5 10z" />
    <glyph glyph-name="uni0037" unicode="7" horiz-adv-x="564" 
d="M24 0v57l336 431v4h-287l48 208h522l-50 -215l-295 -485h-274z" />
    <glyph glyph-name="uni0038" unicode="8" horiz-adv-x="667" 
d="M314 -13q-53 0 -103.5 10t-99 31.5t-78 63.5t-29.5 98q0 78 43.5 121.5t122.5 65.5v4q-37 21 -55 50q-21 30 -21 74q0 56 29 98t76 64.5t97 33.5t102 11q50 0 97.5 -10t92 -31t71.5 -60.5t27 -92.5q0 -123 -142 -159v-4q99 -41 99 -138q0 -65 -29.5 -112t-80 -71.5
t-104.5 -35.5t-115 -11zM318 154q33 0 50.5 28.5t17.5 63.5q0 49 -48 49q-33 0 -50.5 -28.5t-17.5 -63.5q0 -21 12 -34q10 -15 36 -15zM378 434q26 0 40.5 21.5t14.5 49.5q0 19 -11 30t-30 11q-27 0 -41.5 -21.5t-14.5 -49.5q0 -18 11 -29q11 -12 31 -12z" />
    <glyph glyph-name="uni0039" unicode="9" horiz-adv-x="676" 
d="M233 -13q-146 0 -229 51l38 169h100q14 -8 34 -14q18 -7 52 -7q71 0 106 25t58 90q-66 -54 -159 -54q-81 0 -131.5 49t-50.5 128q0 91 49.5 158t125 98.5t163.5 31.5q139 0 216.5 -70.5t77.5 -207.5q0 -143 -71.5 -262t-199.5 -160q-78 -25 -179 -25zM374 403q12 0 22 3
q4 1 11 2.5t8 1.5q1 6 2 19t1 19q1 12 1 36q0 55 -42 55q-30 0 -46.5 -28t-16.5 -60q0 -48 60 -48z" />
    <glyph glyph-name="uni003A" unicode=":" horiz-adv-x="270" 
d="M93 -8q-48 0 -81.5 30t-33.5 78q0 26 9 48q35 74 119 74q23 0 45 -8q71 -30 71 -100q0 -37 -22 -68t-56 -44q-23 -10 -51 -10zM153 260q-48 0 -81.5 30t-33.5 78q0 27 10 48q14 36 46 55t72 19q23 0 45 -8q71 -30 71 -100q0 -37 -22 -68t-56 -44q-23 -10 -51 -10z" />
    <glyph glyph-name="uni003B" unicode=";" horiz-adv-x="271" 
d="M-64 -125l21 97q47 5 65 14q20 11 20 25q0 10 -9 17q-14 10 -21 17q-32 29 -32 73q0 48 35 76t84 28q59 0 92.5 -33.5t33.5 -91.5q0 -60 -24.5 -104.5t-67 -68.5t-91.5 -36t-106 -13zM150 260q-48 0 -81.5 30t-33.5 78q0 27 10 48q14 36 46 55t72 19q23 0 45 -8
q71 -30 71 -100q0 -37 -22 -68t-56 -44q-23 -10 -51 -10z" />
    <glyph glyph-name="uni003F" unicode="?" horiz-adv-x="506" 
d="M295 247h-190q-1 67 24 108q31 51 103 91q34 19 47 32q7 7 7 18q0 27 -44 27q-39 0 -77 -24h-95l38 165q85 48 215 48q45 0 84 -8.5t73.5 -26.5t54.5 -52t20 -81q0 -60 -24.5 -102t-58.5 -64.5t-92 -46.5q-37 -16 -58.5 -34t-26.5 -50zM172 -8q-48 0 -81.5 30t-33.5 78
q0 27 10 48q14 36 46 55t72 19q23 0 45 -8q71 -30 71 -100q0 -37 -22 -68t-56 -44q-23 -10 -51 -10z" />
    <glyph glyph-name="uni0041" unicode="A" horiz-adv-x="754" 
d="M-34 0v53l351 647h319l61 -647v-53h-273l-3 113h-189l-55 -113h-211zM411 477l-90 -183h97l-4 183h-3z" />
    <glyph glyph-name="uni0042" unicode="B" horiz-adv-x="685" 
d="M-14 0l161 700h290q47 0 88.5 -6.5t83.5 -23t66.5 -50.5t24.5 -83q0 -77 -39.5 -116t-116.5 -58v-4q121 -25 121 -131q0 -54 -22.5 -95.5t-57 -66t-82.5 -40t-93 -21t-94 -5.5h-330zM293 156h30q34 0 52 18q22 19 22 64q0 44 -51 44h-24zM355 427h19q70 0 70 71
q0 41 -45 41h-18z" />
    <glyph glyph-name="uni0043" unicode="C" horiz-adv-x="673" 
d="M363 -12q-153 0 -244 73.5t-91 218.5q0 200 133 316t333 116q141 0 235 -52l-39 -172h-117q-33 33 -95 33q-56 0 -96 -42.5t-56 -96.5t-16 -109q0 -101 100 -101q64 0 106 42h112l-40 -179q-90 -47 -225 -47z" />
    <glyph glyph-name="uni0044" unicode="D" horiz-adv-x="760" 
d="M302 174h25q44 0 77 25t50 65t25 81.5t8 82.5q0 48 -20 69.5t-67 21.5h-19zM-14 0l161 700h295q149 0 235 -67.5t86 -212.5q0 -205 -124.5 -312.5t-328.5 -107.5h-324z" />
    <glyph glyph-name="uni0045" unicode="E" horiz-adv-x="617" 
d="M-14 0l161 700h525l-42 -182h-249l-19 -82h171l-39 -170h-171l-20 -89h264l-41 -177h-540z" />
    <glyph glyph-name="uni0046" unicode="F" horiz-adv-x="606" 
d="M-14 0l161 700h525l-42 -182h-249l-25 -107h191l-40 -176h-191l-54 -235h-276z" />
    <glyph glyph-name="uni0047" unicode="G" horiz-adv-x="719" 
d="M376 -12q-347 0 -347 279q0 207 131.5 326t337.5 119q159 0 255 -53l-40 -172h-127q-39 33 -100 33q-46 0 -81.5 -27t-55.5 -69t-30 -87t-10 -88q0 -42 16.5 -64t56.5 -22q25 0 37 4l17 75h-51l34 149h303l-83 -359q-118 -44 -263 -44z" />
    <glyph glyph-name="uni0048" unicode="H" horiz-adv-x="758" 
d="M-14 0l161 700h276l-57 -249h116l57 249h276l-161 -700h-276l58 255h-116l-58 -255h-276z" />
    <glyph glyph-name="uni0049" unicode="I" horiz-adv-x="374" 
d="M-10 0l161 700h276l-161 -700h-276z" />
    <glyph glyph-name="uni004A" unicode="J" horiz-adv-x="555" 
d="M172 -10q-144 0 -206 60l38 163h106q18 -25 61 -25q54 0 65 49l107 463h276l-112 -485q-54 -225 -335 -225z" />
    <glyph glyph-name="uni004B" unicode="K" horiz-adv-x="769" 
d="M-14 0l161 700h276l-54 -236l205 236h260v-44l-247 -256l117 -356v-44h-273l-75 231l-52 -47l-42 -184h-276z" />
    <glyph glyph-name="uni004C" unicode="L" horiz-adv-x="586" 
d="M-14 0l161 700h276l-119 -518h237l-42 -182h-513z" />
    <glyph glyph-name="uni004D" unicode="M" horiz-adv-x="943" 
d="M-14 0l161 700h331l11 -298h3l150 298h358l-161 -700h-266l90 393h-3l-199 -393h-149l-17 393h-3l-90 -393h-216z" />
    <glyph glyph-name="uni004E" unicode="N" horiz-adv-x="743" 
d="M-14 0l161 700h276l81 -313h3l72 313h221l-161 -700h-256l-93 348h-3l-80 -348h-221z" />
    <glyph glyph-name="uni004F" unicode="O" horiz-adv-x="778" 
d="M368 172q35 0 63 27.5t43.5 69t23.5 82.5t8 76q0 37 -14 64.5t-48 27.5q-36 0 -64.5 -27.5t-44.5 -69t-24 -83t-8 -76.5q0 -38 15 -64.5t50 -26.5zM351 -12q-144 0 -233.5 75t-89.5 213q0 189 121 313t307 124q148 0 236.5 -77.5t88.5 -219.5q0 -186 -123 -307t-307 -121
z" />
    <glyph glyph-name="uni0050" unicode="P" horiz-adv-x="681" 
d="M-14 0l161 700h287q61 0 106.5 -7.5t87.5 -27.5t64.5 -62t22.5 -104q0 -76 -28 -132t-77.5 -88t-110 -47t-133.5 -15h-54l-50 -217h-276zM344 385h34q32 0 56 30q18 27 18 67q0 49 -46 49h-28z" />
    <glyph glyph-name="uni0051" unicode="Q" horiz-adv-x="778" 
d="M628 -113l-287 78q-69 19 -120.5 41.5t-98 58.5t-70.5 89t-24 122q0 189 121 313t307 124q144 0 234.5 -75.5t90.5 -213.5q0 -118 -57.5 -203t-166.5 -121v-3l182 -19l-45 -191h-66zM368 166q47 0 80 49.5t45.5 106t12.5 105.5q0 37 -14 64.5t-48 27.5q-36 0 -64.5 -27.5
t-44.5 -69t-24 -83t-8 -76.5q0 -97 65 -97z" />
    <glyph glyph-name="uni0052" unicode="R" horiz-adv-x="719" 
d="M410 0l-73 231h-22l-53 -231h-276l161 700h303q47 0 84.5 -4t75.5 -17t63.5 -34.5t41.5 -58t16 -86.5q0 -158 -143 -226l80 -221v-53h-258zM346 384h42q38 0 56.5 26.5t18.5 66.5q0 49 -47 49h-36z" />
    <glyph glyph-name="uni0053" unicode="S" horiz-adv-x="608" 
d="M252 -12q-178 0 -270 67l35 156h122q18 -18 52.5 -28t64.5 -10t45 7q16 6 16 23q0 14 -20 22q-16 6 -67 21q-84 23 -125 67t-41 126q0 74 25.5 128.5t71.5 85.5t103 46t126 15q154 0 256 -64l-37 -156h-120q-40 37 -113 37q-55 0 -55 -29q0 -15 19 -22q25 -10 58 -19
q42 -11 74 -25t61 -36.5t44.5 -55.5t15.5 -76q0 -73 -28.5 -128.5t-77 -87.5t-108 -48t-127.5 -16z" />
    <glyph glyph-name="uni0054" unicode="T" horiz-adv-x="638" 
d="M122 0l118 513h-152l43 187h579l-43 -187h-151l-118 -513h-276z" />
    <glyph glyph-name="uni0055" unicode="U" horiz-adv-x="733" 
d="M352 -8q-53 0 -95.5 6t-87.5 21.5t-76 48.5t-44 82q-16 61 6 157l90 393h276l-98 -429q-11 -46 2 -65q13 -21 56 -21q37 0 54 17t27 56l101 442h229l-105 -454q-33 -139 -113.5 -196.5t-221.5 -57.5z" />
    <glyph glyph-name="uni0056" unicode="V" horiz-adv-x="739" 
d="M163 0l-59 647v53h275l15 -395h3l194 395h227v-53l-352 -647h-303z" />
    <glyph glyph-name="uni0057" unicode="W" horiz-adv-x="1014" 
d="M117 0l-11 647v53h274l-15 -353h3l150 353h200l3 -353h3l142 353h226v-53l-299 -647h-266l-5 301h-3l-140 -301h-262z" />
    <glyph glyph-name="uni0058" unicode="X" horiz-adv-x="745" 
d="M-33 0v53l239 306l-92 288v53h277l50 -191l132 191h236v-53l-224 -283l101 -311v-53h-278l-60 211l-146 -211h-235z" />
    <glyph glyph-name="uni0059" unicode="Y" horiz-adv-x="700" 
d="M156 0l56 244l-113 403v53h261l51 -218h3l142 218h225v-53l-295 -413l-54 -234h-276z" />
    <glyph glyph-name="uni005A" unicode="Z" horiz-adv-x="624" 
d="M-26 0l43 187l317 325v4h-226l42 184h543l-45 -197l-317 -315v-4h243l-42 -184h-558z" />
    <glyph glyph-name="uni0061" unicode="a" horiz-adv-x="606" 
d="M515 0h-129q-80 0 -98 61q-63 -69 -151 -69q-63 0 -103 34.5t-40 96.5q0 186 248 186q16 0 44 -2q25 -4 40 -5q4 30 -9 45q-14 14 -53 14q-34 0 -60 -6q-32 -9 -41 -14h-86l38 163q104 36 235 36q140 0 202 -54t36 -168zM265 127q11 0 22 6l17 74q-11 3 -25 3
q-40 0 -40 -54q0 -29 26 -29z" />
    <glyph glyph-name="uni0062" unicode="b" horiz-adv-x="651" 
d="M-24 0l161 700h149q32 0 49 -4q38 -9 41 -56q0 -24 -9 -63l-26 -113q70 76 159 76q78 0 112.5 -53.5t34.5 -134.5q0 -92 -28.5 -172t-94 -135.5t-158.5 -55.5q-107 0 -147 70q-43 -59 -99 -59h-144zM324 356q-7 0 -9 -1l-47 -205q12 -5 29 -5q31 0 50.5 29.5t25.5 62
t6 64.5q0 31 -12 43t-43 12z" />
    <glyph glyph-name="uni0063" unicode="c" horiz-adv-x="530" 
d="M286 -10q-121 0 -197.5 51.5t-76.5 166.5q0 154 104.5 243t258.5 89q110 0 186 -40l-36 -155h-90q-20 20 -52 20q-52 0 -80.5 -43t-28.5 -98q0 -69 63 -69q43 0 69 26h86l-35 -153q-27 -19 -77.5 -28.5t-93.5 -9.5z" />
    <glyph glyph-name="uni0064" unicode="d" horiz-adv-x="650" 
d="M560 0h-129q-92 0 -101 74q-55 -85 -154 -85q-82 0 -124 55t-42 138q0 61 16 122t47 115t83 87.5t116 33.5q53 0 87 -17q34 -19 52 -46l52 223h149q32 0 49 -4q38 -9 41 -56q0 -24 -9 -63zM327 152l57 205q-12 4 -27 4q-29 0 -48.5 -30t-26.5 -64t-7 -64q0 -26 14 -38
q13 -13 38 -13z" />
    <glyph glyph-name="uni0065" unicode="e" horiz-adv-x="598" 
d="M300 -10q-127 0 -207.5 52.5t-79.5 171.5q0 150 94 236.5t243 89.5q170 0 223 -112q20 -42 19 -102q-2 -38 -4 -58q-6 -34 -14 -59h-308q3 -35 24 -47.5t59 -12.5q55 0 112 22h83l-32 -135q-87 -46 -212 -46zM336 388q-23 0 -37.5 -21.5t-21.5 -48.5h87q1 2 1.5 5.5
t0.5 5.5v13q0 16 -1 23.5t-8 15t-21 7.5z" />
    <glyph glyph-name="uni0066" unicode="f" horiz-adv-x="390" 
d="M0 0l86 375h-46l36 155h46l3 13q24 99 83 136t162 37q64 0 115 -16l-30 -131h-18q-26 0 -39 -6t-18 -29l-1 -4h65l-36 -155h-64l-86 -375h-258z" />
    <glyph glyph-name="uni0067" unicode="g" horiz-adv-x="650" 
d="M213 -170q-149 0 -242 40l36 157h83q43 -24 102 -24q108 0 123 57l8 34q-51 -51 -141 -51q-33 0 -60 10q-31 9 -53 31q-52 46 -52 138q0 81 29.5 152t91.5 118.5t143 47.5q93 0 144 -78q43 68 122 68h135l-111 -483q-49 -217 -358 -217zM332 184h12l40 172q-12 5 -25 5
q-37 0 -57 -40t-20 -83q0 -54 50 -54z" />
    <glyph glyph-name="uni0068" unicode="h" horiz-adv-x="653" 
d="M-24 0l161 700h149q32 0 49 -4q38 -9 41 -56q0 -24 -9 -63l-29 -125q82 88 185 88q65 0 100 -41q17 -23 23 -57q5 -37 -7 -87l-82 -355h-190q-34 0 -46 20q-13 19 -1 72l46 196q6 26 -2 40q-7 13 -42 13h-10l-78 -341h-258z" />
    <glyph glyph-name="uni0069" unicode="i" horiz-adv-x="328" 
d="M-20 0l122 530h150q61 0 79 -22q18 -23 3 -88l-96 -420h-258zM238 542q-47 0 -81.5 21.5t-34.5 65.5q0 56 38 86t95 30q49 0 83 -21.5t34 -68.5q0 -55 -38.5 -84t-95.5 -29z" />
    <glyph glyph-name="uni006A" unicode="j" horiz-adv-x="328" 
d="M9 -171q-83 0 -133 19l29 128h22q26 0 38 6.5t17 28.5l120 519h150q61 0 79 -22q18 -23 3 -88l-96 -419q-19 -93 -76.5 -132.5t-152.5 -39.5zM238 542q-47 0 -81.5 21.5t-34.5 65.5q0 56 38 86t95 30q49 0 83 -21.5t34 -68.5q0 -55 -38.5 -84t-95.5 -29z" />
    <glyph glyph-name="uni006B" unicode="k" horiz-adv-x="649" 
d="M-24 0l161 700h149q32 0 49 -4q38 -9 41 -56q0 -24 -9 -63l-45 -196l131 149h222v-53l-170 -176l89 -252v-49h-248l-52 153l-33 -33l-27 -120h-258z" />
    <glyph glyph-name="uni006C" unicode="l" horiz-adv-x="324" 
d="M-24 0l161 700h149q32 0 49 -4q38 -9 41 -56q0 -24 -9 -63l-133 -577h-258z" />
    <glyph glyph-name="uni006D" unicode="m" horiz-adv-x="952" 
d="M-24 0l122 530h129q52 0 75 -20t23 -71q45 50 90.5 75.5t104.5 25.5q50 0 80.5 -27t34.5 -77q91 104 198 104q50 0 80 -25t36 -73q5 -37 -7 -87l-82 -355h-190q-34 0 -46 20q-13 19 -1 72l46 196q6 26 0 40q-6 13 -35 13h-8l-79 -341h-258l67 288q6 26 0 40q-6 13 -35 13
h-9l-78 -341h-258z" />
    <glyph glyph-name="uni006E" unicode="n" horiz-adv-x="648" 
d="M-24 0l122 530h129q52 0 75 -20.5t23 -71.5q45 50 91.5 76t106.5 26q65 0 100 -41q17 -23 23 -57q5 -37 -7 -87l-82 -355h-190q-34 0 -46 20q-13 19 -1 72l46 196q6 26 -2 40q-7 13 -42 13h-10l-78 -341h-258z" />
    <glyph glyph-name="uni006F" unicode="o" horiz-adv-x="627" 
d="M295 141q19 0 33.5 22t22.5 53.5t12 60.5t4 49q0 48 -29 48q-26 0 -44 -38t-24 -77.5t-6 -69.5q0 -48 31 -48zM284 -10q-120 0 -196 58t-76 172q0 148 95.5 234t242.5 86q120 0 195.5 -59t75.5 -172q0 -148 -95 -233.5t-242 -85.5z" />
    <glyph glyph-name="uni0070" unicode="p" horiz-adv-x="651" 
d="M-62 -162l160 692h129q48 0 71.5 -17.5t26.5 -64.5q71 92 172 92q79 0 114.5 -54t35.5 -136q0 -141 -73 -244t-206 -103q-84 0 -126 36l-46 -201h-258zM324 356q-7 0 -9 -1l-45 -197q12 -5 28 -5q31 0 50.5 28t25 58.5t5.5 61.5t-12 43t-43 12z" />
    <glyph glyph-name="uni0071" unicode="q" horiz-adv-x="650" 
d="M264 -162l50 219q-47 -54 -135 -54q-83 0 -126 52.5t-43 134.5q0 85 28.5 162.5t92.5 132.5t150 55q95 0 144 -79q42 69 122 69h135l-160 -692h-258zM325 151h11l48 205q-12 5 -25 5q-23 0 -40 -16.5t-26 -42t-13.5 -50.5t-4.5 -47q0 -54 50 -54z" />
    <glyph glyph-name="uni0072" unicode="r" horiz-adv-x="474" 
d="M-24 0l122 530h129q48 0 74 -20t24 -79q78 102 165 102q16 0 29 -3l-49 -211h-20q-87 0 -146 -15l-70 -304h-258z" />
    <glyph glyph-name="uni0073" unicode="s" horiz-adv-x="507" 
d="M210 -9q-149 0 -239 48l31 136h97q33 -33 105 -33q17 0 29 3q12 1 12 13q0 3 -2 7q-3 3 -11 6q-10 2 -23 6q-5 2 -39 10q-67 16 -103 50.5t-36 97.5q0 57 22.5 98.5t61.5 64t83.5 32.5t97.5 10q134 0 220 -41l-31 -133h-95q-19 12 -36 20q-21 8 -56 8q-38 0 -38 -16
q0 -8 14 -13q19 -6 55 -14q77 -16 115 -47.5t38 -100.5q0 -59 -22.5 -101.5t-62.5 -66t-86 -34t-101 -10.5z" />
    <glyph glyph-name="uni0074" unicode="t" horiz-adv-x="413" 
d="M214 -12q-107 0 -146 37q-25 21 -33 59t6 98l45 193h-46l36 155h46l28 122h258l-28 -122h74l-36 -155h-74l-39 -171q-7 -33 0 -46t36 -13h26l-33 -142q-67 -15 -120 -15z" />
    <glyph glyph-name="uni0075" unicode="u" horiz-adv-x="648" 
d="M553 0h-128q-92 0 -103 82q-84 -92 -187 -92q-113 0 -129 99q-6 35 6 86l82 355h189q33 0 47 -20q12 -20 0 -72l-49 -213q-6 -25 2 -39t38 -14h8l88 358h258z" />
    <glyph glyph-name="uni0076" unicode="v" horiz-adv-x="622" 
d="M131 0l-66 483v47h252l12 -252h3l118 252h219v-47l-280 -483h-258z" />
    <glyph glyph-name="uni0077" unicode="w" horiz-adv-x="879" 
d="M95 0l-29 480v50h252l-6 -238h3l112 238h176l2 -238h3l105 238h210v-50l-250 -480h-233l-7 207h-3l-105 -207h-230z" />
    <glyph glyph-name="uni0078" unicode="x" horiz-adv-x="642" 
d="M-39 0v50l187 236l-80 194v50h256l36 -127l85 127h211v-50l-158 -205l86 -225v-50h-256l-42 135l-98 -135h-227z" />
    <glyph glyph-name="uni0079" unicode="y" horiz-adv-x="622" 
d="M28 -162v47l106 150l-69 448v47h251l17 -226h4l115 226h217v-47l-392 -645h-249z" />
    <glyph glyph-name="uni007A" unicode="z" horiz-adv-x="544" 
d="M-36 0l39 169l234 189h-185l40 172h498l-40 -174l-235 -189h193l-38 -167h-506z" />
    <glyph glyph-name="uni00A0" unicode="&#xa0;" horiz-adv-x="145" 
 />
    <glyph glyph-name="uni00C0" unicode="&#xc0;" horiz-adv-x="754" 
d="M-34 0v53l351 647h319l61 -647v-53h-273l-3 113h-189l-55 -113h-211zM411 477l-90 -183h97l-4 183h-3zM565 726h-157l-102 108v44h216l43 -115v-37z" />
    <glyph glyph-name="uni00C1" unicode="&#xc1;" horiz-adv-x="754" 
d="M-34 0v53l351 647h319l61 -647v-53h-273l-3 113h-189l-55 -113h-211zM411 477l-90 -183h97l-4 183h-3zM390 726v37l54 115h221v-44l-127 -108h-148z" />
    <glyph glyph-name="uni00C2" unicode="&#xc2;" horiz-adv-x="754" 
d="M-34 0v53l351 647h319l61 -647v-53h-273l-3 113h-189l-55 -113h-211zM411 477l-90 -183h97l-4 183h-3zM299 726v41l117 111h159l78 -111v-41h-139l-35 32l-50 -32h-130z" />
    <glyph glyph-name="uni00C3" unicode="&#xc3;" horiz-adv-x="754" 
d="M-34 0v53l351 647h319l61 -647v-53h-273l-3 113h-189l-55 -113h-211zM411 477l-90 -183h97l-4 183h-3zM539 724q-42 0 -66 10t-43 10q-20 0 -29 -19h-113v46q33 122 141 122q37 0 62 -9q24 -10 42 -10q22 0 29 19h114v-46q-37 -123 -137 -123z" />
    <glyph glyph-name="uni00C4" unicode="&#xc4;" horiz-adv-x="754" 
d="M-34 0v53l351 647h319l61 -647v-53h-273l-3 113h-189l-55 -113h-211zM411 477l-90 -183h97l-4 183h-3zM375 722q-42 0 -70.5 20t-28.5 60q0 51 31.5 79.5t83.5 28.5q45 0 73 -21q27 -23 27 -62q0 -50 -32.5 -77.5t-83.5 -27.5zM609 722q-42 0 -70.5 20t-28.5 60
q0 51 31.5 79.5t83.5 28.5q45 0 73 -21q27 -23 27 -62q0 -50 -32.5 -77.5t-83.5 -27.5z" />
    <glyph glyph-name="uni00C5" unicode="&#xc5;" horiz-adv-x="754" 
d="M-34 0v53l351 647h319l61 -647v-53h-273l-3 113h-189l-55 -113h-211zM411 477l-90 -183h97l-4 183h-3zM493 722q-44 0 -73.5 26.5t-29.5 69.5q0 49 35 81t84 32q45 0 74 -27t29 -71q0 -49 -35 -80t-84 -31zM499 797q30 0 30 33q0 26 -26 26q-29 0 -29 -34q0 -25 25 -25z
" />
    <glyph glyph-name="uni00C6" unicode="&#xc6;" horiz-adv-x="1000" 
d="M-46 0v53l431 647h670l-42 -182h-243l-19 -82h165l-39 -170h-165l-20 -89h258l-41 -177h-534l26 113h-176l-71 -113h-200zM482 517l-142 -223h102l52 223h-12z" />
    <glyph glyph-name="uni00C7" unicode="&#xc7;" horiz-adv-x="673" 
d="M348 -12q-5 1 -16 1l-3 -14q67 -11 67 -62q0 -88 -132 -88q-59 0 -105 21l15 64h35q6 -4 10 -6q8 -2 17 -2q21 0 21 12q0 9 -17 9h-17l18 78q-213 55 -213 279q0 200 133 316t333 116q141 0 235 -52l-39 -172h-117q-33 33 -95 33q-56 0 -96 -42.5t-56 -96.5t-16 -109
q0 -101 100 -101q64 0 106 42h112l-40 -179q-92 -47 -240 -47z" />
    <glyph glyph-name="uni00C8" unicode="&#xc8;" horiz-adv-x="617" 
d="M-14 0l161 700h525l-42 -182h-249l-19 -82h171l-39 -170h-171l-20 -89h264l-41 -177h-540zM503 726h-157l-102 108v44h216l43 -115v-37z" />
    <glyph glyph-name="uni00C9" unicode="&#xc9;" horiz-adv-x="617" 
d="M-14 0l161 700h525l-42 -182h-249l-19 -82h171l-39 -170h-171l-20 -89h264l-41 -177h-540zM328 726v37l54 115h221v-44l-127 -108h-148z" />
    <glyph glyph-name="uni00CA" unicode="&#xca;" horiz-adv-x="617" 
d="M-14 0l161 700h525l-42 -182h-249l-19 -82h171l-39 -170h-171l-20 -89h264l-41 -177h-540zM245 726v41l117 111h159l78 -111v-41h-139l-35 32l-50 -32h-130z" />
    <glyph glyph-name="uni00CB" unicode="&#xcb;" horiz-adv-x="617" 
d="M-14 0l161 700h525l-42 -182h-249l-19 -82h171l-39 -170h-171l-20 -89h264l-41 -177h-540zM313 722q-42 0 -70.5 20t-28.5 60q0 51 31.5 79.5t83.5 28.5q45 0 73 -21q27 -23 27 -62q0 -50 -32.5 -77.5t-83.5 -27.5zM547 722q-42 0 -70.5 20t-28.5 60q0 51 31.5 79.5
t83.5 28.5q45 0 73 -21q27 -23 27 -62q0 -50 -32.5 -77.5t-83.5 -27.5z" />
    <glyph glyph-name="uni00CC" unicode="&#xcc;" horiz-adv-x="374" 
d="M-10 0l161 700h276l-161 -700h-276zM381 726h-157l-102 108v44h216l43 -115v-37z" />
    <glyph glyph-name="uni00CD" unicode="&#xcd;" horiz-adv-x="374" 
d="M-10 0l161 700h276l-161 -700h-276zM206 726v37l54 115h221v-44l-127 -108h-148z" />
    <glyph glyph-name="uni00CE" unicode="&#xce;" horiz-adv-x="374" 
d="M-10 0l161 700h276l-161 -700h-276zM123 726v41l117 111h159l78 -111v-41h-139l-35 32l-50 -32h-130z" />
    <glyph glyph-name="uni00CF" unicode="&#xcf;" horiz-adv-x="374" 
d="M-10 0l161 700h276l-161 -700h-276zM191 722q-42 0 -70.5 20t-28.5 60q0 51 31.5 79.5t83.5 28.5q45 0 73 -21q27 -23 27 -62q0 -50 -32.5 -77.5t-83.5 -27.5zM425 722q-42 0 -70.5 20t-28.5 60q0 51 31.5 79.5t83.5 28.5q45 0 73 -21q27 -23 27 -62q0 -50 -32.5 -77.5
t-83.5 -27.5z" />
    <glyph glyph-name="uni00D1" unicode="&#xd1;" horiz-adv-x="743" 
d="M-14 0l161 700h276l81 -313h3l72 313h221l-161 -700h-256l-93 348h-3l-80 -348h-221zM553 724q-42 0 -66 10t-43 10q-20 0 -29 -19h-113v46q33 122 141 122q37 0 62 -9q24 -10 42 -10q22 0 29 19h114v-46q-37 -123 -137 -123z" />
    <glyph glyph-name="uni00D2" unicode="&#xd2;" horiz-adv-x="778" 
d="M368 172q35 0 63 27.5t43.5 69t23.5 82.5t8 76q0 37 -14 64.5t-48 27.5q-36 0 -64.5 -27.5t-44.5 -69t-24 -83t-8 -76.5q0 -38 15 -64.5t50 -26.5zM351 -12q-144 0 -233.5 75t-89.5 213q0 189 121 313t307 124q148 0 236.5 -77.5t88.5 -219.5q0 -186 -123 -307t-307 -121
zM572 726h-157l-102 108v44h216l43 -115v-37z" />
    <glyph glyph-name="uni00D3" unicode="&#xd3;" horiz-adv-x="778" 
d="M368 172q35 0 63 27.5t43.5 69t23.5 82.5t8 76q0 37 -14 64.5t-48 27.5q-36 0 -64.5 -27.5t-44.5 -69t-24 -83t-8 -76.5q0 -38 15 -64.5t50 -26.5zM351 -12q-144 0 -233.5 75t-89.5 213q0 189 121 313t307 124q148 0 236.5 -77.5t88.5 -219.5q0 -186 -123 -307t-307 -121
zM397 726v37l54 115h221v-44l-127 -108h-148z" />
    <glyph glyph-name="uni00D4" unicode="&#xd4;" horiz-adv-x="778" 
d="M368 172q35 0 63 27.5t43.5 69t23.5 82.5t8 76q0 37 -14 64.5t-48 27.5q-36 0 -64.5 -27.5t-44.5 -69t-24 -83t-8 -76.5q0 -38 15 -64.5t50 -26.5zM351 -12q-144 0 -233.5 75t-89.5 213q0 189 121 313t307 124q148 0 236.5 -77.5t88.5 -219.5q0 -186 -123 -307t-307 -121
zM314 726v41l117 111h159l78 -111v-41h-139l-35 32l-50 -32h-130z" />
    <glyph glyph-name="uni00D5" unicode="&#xd5;" horiz-adv-x="778" 
d="M368 172q35 0 63 27.5t43.5 69t23.5 82.5t8 76q0 37 -14 64.5t-48 27.5q-36 0 -64.5 -27.5t-44.5 -69t-24 -83t-8 -76.5q0 -38 15 -64.5t50 -26.5zM351 -12q-144 0 -233.5 75t-89.5 213q0 189 121 313t307 124q148 0 236.5 -77.5t88.5 -219.5q0 -186 -123 -307t-307 -121
zM556 724q-42 0 -66 10t-43 10q-20 0 -29 -19h-113v46q33 122 141 122q36 0 62 -9q24 -10 42 -10q22 0 29 19h114v-46q-37 -123 -137 -123z" />
    <glyph glyph-name="uni00D6" unicode="&#xd6;" horiz-adv-x="778" 
d="M368 172q35 0 63 27.5t43.5 69t23.5 82.5t8 76q0 37 -14 64.5t-48 27.5q-36 0 -64.5 -27.5t-44.5 -69t-24 -83t-8 -76.5q0 -38 15 -64.5t50 -26.5zM351 -12q-144 0 -233.5 75t-89.5 213q0 189 121 313t307 124q148 0 236.5 -77.5t88.5 -219.5q0 -186 -123 -307t-307 -121
zM382 722q-42 0 -70.5 20t-28.5 60q0 51 31.5 79.5t83.5 28.5q44 0 73 -21q27 -23 27 -62q0 -50 -32.5 -77.5t-83.5 -27.5zM616 722q-42 0 -70.5 20t-28.5 60q0 51 31.5 79.5t83.5 28.5q44 0 73 -21q27 -23 27 -62q0 -50 -32.5 -77.5t-83.5 -27.5z" />
    <glyph glyph-name="uni00D9" unicode="&#xd9;" horiz-adv-x="733" 
d="M352 -8q-53 0 -95.5 6t-87.5 21.5t-76 48.5t-44 82q-16 61 6 157l90 393h276l-98 -429q-11 -46 2 -65q13 -21 56 -21q37 0 54 17t27 56l101 442h229l-105 -454q-33 -139 -113.5 -196.5t-221.5 -57.5zM576 726h-157l-102 108v44h216l43 -115v-37z" />
    <glyph glyph-name="uni00DA" unicode="&#xda;" horiz-adv-x="733" 
d="M352 -8q-53 0 -95.5 6t-87.5 21.5t-76 48.5t-44 82q-16 61 6 157l90 393h276l-98 -429q-11 -46 2 -65q13 -21 56 -21q37 0 54 17t27 56l101 442h229l-105 -454q-33 -139 -113.5 -196.5t-221.5 -57.5zM401 726v37l54 115h221v-44l-127 -108h-148z" />
    <glyph glyph-name="uni00DB" unicode="&#xdb;" horiz-adv-x="733" 
d="M352 -8q-53 0 -95.5 6t-87.5 21.5t-76 48.5t-44 82q-16 61 6 157l90 393h276l-98 -429q-11 -46 2 -65q13 -21 56 -21q37 0 54 17t27 56l101 442h229l-105 -454q-33 -139 -113.5 -196.5t-221.5 -57.5zM318 726v41l117 111h159l78 -111v-41h-139l-35 32l-50 -32h-130z" />
    <glyph glyph-name="uni00DC" unicode="&#xdc;" horiz-adv-x="733" 
d="M352 -8q-53 0 -95.5 6t-87.5 21.5t-76 48.5t-44 82q-16 61 6 157l90 393h276l-98 -429q-11 -46 2 -65q13 -21 56 -21q37 0 54 17t27 56l101 442h229l-105 -454q-33 -139 -113.5 -196.5t-221.5 -57.5zM365 722q-42 0 -70.5 20t-28.5 60q0 51 31.5 79.5t83.5 28.5
q44 0 73 -21q27 -23 27 -62q0 -50 -32.5 -77.5t-83.5 -27.5zM599 722q-42 0 -70.5 20t-28.5 60q0 51 31.5 79.5t83.5 28.5q45 0 73 -21q27 -23 27 -62q0 -50 -32.5 -77.5t-83.5 -27.5z" />
    <glyph glyph-name="uni00DD" unicode="&#xdd;" horiz-adv-x="700" 
d="M156 0l56 244l-113 403v53h261l51 -218h3l142 218h225v-53l-295 -413l-54 -234h-276zM377 726v37l54 115h221v-44l-127 -108h-148z" />
    <glyph glyph-name="uni00DF" unicode="&#xdf;" horiz-adv-x="734" 
d="M469 -10q-119 0 -191 43l30 129h89q9 -11 22 -15q12 -6 32 -6q24 0 24 17q0 9 -11 15q-20 10 -35 17q-89 41 -89 119q0 41 18.5 70.5t56.5 67.5q25 25 35 38q9 13 9 29q0 32 -44 32q-33 0 -49 -16.5t-23 -51.5l-109 -478h-258l111 485q15 65 47 111t79.5 70.5t101 35.5
t120.5 11q44 0 87.5 -6t92.5 -20.5t79.5 -47t30.5 -78.5q0 -48 -27 -84q-11 -13 -30 -29q-7 -5 -37 -26q-26 -16 -28 -18q-11 -8 -18 -12q-8 -6 -9 -10q-3 -5 -3 -10q0 -10 11 -16q10 -8 30 -18q53 -32 75.5 -63t22.5 -86q0 -103 -68.5 -151t-174.5 -48z" />
    <glyph glyph-name="uni00E0" unicode="&#xe0;" horiz-adv-x="606" 
d="M515 0h-129q-80 0 -98 61q-63 -69 -151 -69q-63 0 -103 34.5t-40 96.5q0 186 248 186q16 0 44 -2q25 -4 40 -5q4 30 -9 45q-14 14 -53 14q-34 0 -60 -6q-32 -9 -41 -14h-86l38 163q104 36 235 36q140 0 202 -54t36 -168zM265 127q11 0 22 6l17 74q-11 3 -25 3
q-40 0 -40 -54q0 -29 26 -29zM276 558l-102 108v44h216l43 -115v-37h-157z" />
    <glyph glyph-name="uni00E1" unicode="&#xe1;" horiz-adv-x="606" 
d="M515 0h-129q-80 0 -98 61q-63 -69 -151 -69q-63 0 -103 34.5t-40 96.5q0 186 248 186q16 0 44 -2q25 -4 40 -5q4 30 -9 45q-14 14 -53 14q-34 0 -60 -6q-32 -9 -41 -14h-86l38 163q104 36 235 36q140 0 202 -54t36 -168zM265 127q11 0 22 6l17 74q-11 3 -25 3
q-40 0 -40 -54q0 -29 26 -29zM268 558v37l54 115h221v-44l-127 -108h-148z" />
    <glyph glyph-name="uni00E2" unicode="&#xe2;" horiz-adv-x="606" 
d="M515 0h-129q-80 0 -98 61q-63 -69 -151 -69q-63 0 -103 34.5t-40 96.5q0 186 248 186q16 0 44 -2q25 -4 40 -5q4 30 -9 45q-14 14 -53 14q-34 0 -60 -6q-32 -9 -41 -14h-86l38 163q104 36 235 36q140 0 202 -54t36 -168zM265 127q11 0 22 6l17 74q-11 3 -25 3
q-40 0 -40 -54q0 -29 26 -29zM187 558v41l117 111h159l78 -111v-41h-139l-35 32l-50 -32h-130z" />
    <glyph glyph-name="uni00E3" unicode="&#xe3;" horiz-adv-x="606" 
d="M515 0h-129q-80 0 -98 61q-63 -69 -151 -69q-63 0 -103 34.5t-40 96.5q0 186 248 186q16 0 44 -2q25 -4 40 -5q4 30 -9 45q-14 14 -53 14q-34 0 -60 -6q-32 -9 -41 -14h-86l38 163q104 36 235 36q140 0 202 -54t36 -168zM265 127q11 0 22 6l17 74q-11 3 -25 3
q-40 0 -40 -54q0 -29 26 -29zM428 556q-42 0 -66 10t-43 10q-20 0 -29 -19h-113v46q34 125 141 125q36 0 62 -9q24 -10 42 -10q22 0 29 19h114v-46q-18 -59 -49.5 -92.5t-87.5 -33.5z" />
    <glyph glyph-name="uni00E4" unicode="&#xe4;" horiz-adv-x="606" 
d="M515 0h-129q-80 0 -98 61q-63 -69 -151 -69q-63 0 -103 34.5t-40 96.5q0 186 248 186q16 0 44 -2q25 -4 40 -5q4 30 -9 45q-14 14 -53 14q-34 0 -60 -6q-32 -9 -41 -14h-86l38 163q104 36 235 36q140 0 202 -54t36 -168zM265 127q11 0 22 6l17 74q-11 3 -25 3
q-40 0 -40 -54q0 -29 26 -29zM252 546q-42 0 -70.5 20t-28.5 60q0 51 31.5 79.5t83.5 28.5q44 0 73 -21q27 -23 27 -62q0 -50 -32.5 -77.5t-83.5 -27.5zM486 546q-42 0 -70.5 20t-28.5 60q0 51 31.5 79.5t83.5 28.5q44 0 73 -21q27 -23 27 -62q0 -50 -32.5 -77.5
t-83.5 -27.5z" />
    <glyph glyph-name="uni00E5" unicode="&#xe5;" horiz-adv-x="606" 
d="M515 0h-129q-80 0 -98 61q-63 -69 -151 -69q-63 0 -103 34.5t-40 96.5q0 186 248 186q16 0 44 -2q25 -4 40 -5q4 30 -9 45q-14 14 -53 14q-34 0 -60 -6q-32 -9 -41 -14h-86l38 163q104 36 235 36q140 0 202 -54t36 -168zM265 127q11 0 22 6l17 74q-11 3 -25 3
q-40 0 -40 -54q0 -29 26 -29zM378 629q30 0 30 33q0 26 -26 26q-29 0 -29 -34q0 -25 25 -25zM372 554q-44 0 -73.5 26.5t-29.5 69.5q0 49 35 81t84 32q45 0 74 -27t29 -71q0 -49 -35 -80t-84 -31z" />
    <glyph glyph-name="uni00E6" unicode="&#xe6;" horiz-adv-x="893" 
d="M147 -8q-72 0 -115.5 33t-43.5 102q0 183 248 183h85q1 26 -12 39q-13 12 -51 12q-34 0 -60 -6q-32 -9 -41 -14h-86l38 163q107 36 216 36q105 0 152 -43q68 41 165 44q176 0 229 -111q20 -44 19 -104q0 -64 -18 -117h-308q3 -35 24 -47.5t59 -12.5q55 0 112 22h83
l-32 -135q-87 -46 -212 -46q-168 0 -239 81q-76 -79 -212 -79zM318 153q-7 31 -7 56h-32q-46 0 -46 -53q0 -29 31 -29q25 0 54 26zM634 388q-42 0 -60 -74h87q3 8 3 28q0 16 -1 23.5t-8 15t-21 7.5z" />
    <glyph glyph-name="uni00E7" unicode="&#xe7;" horiz-adv-x="530" 
d="M286 -10h-11q-8 0 -11 1l-3 -16q67 -11 67 -62q0 -88 -132 -88q-59 0 -105 21l15 64h35q6 -4 10 -6q8 -2 17 -2q21 0 21 12q0 9 -17 9h-17l18 80q-161 42 -161 205q0 154 104.5 243t258.5 89q110 0 186 -40l-36 -155h-90q-20 20 -52 20q-52 0 -80.5 -43t-28.5 -98
q0 -69 63 -69q43 0 69 26h86l-35 -153q-27 -19 -77.5 -28.5t-93.5 -9.5z" />
    <glyph glyph-name="uni00E8" unicode="&#xe8;" horiz-adv-x="598" 
d="M300 -10q-127 0 -207.5 52.5t-79.5 171.5q0 150 94 236.5t243 89.5q170 0 223 -112q20 -42 19 -102q-2 -38 -4 -58q-6 -34 -14 -59h-308q3 -35 24 -47.5t59 -12.5q55 0 112 22h83l-32 -135q-87 -46 -212 -46zM336 388q-23 0 -37.5 -21.5t-21.5 -48.5h87q1 2 1.5 5.5
t0.5 5.5v13q0 16 -1 23.5t-8 15t-21 7.5zM271 558l-102 108v44h216l43 -115v-37h-157z" />
    <glyph glyph-name="uni00E9" unicode="&#xe9;" horiz-adv-x="598" 
d="M300 -10q-127 0 -207.5 52.5t-79.5 171.5q0 150 94 236.5t243 89.5q170 0 223 -112q20 -42 19 -102q-2 -38 -4 -58q-6 -34 -14 -59h-308q3 -35 24 -47.5t59 -12.5q55 0 112 22h83l-32 -135q-87 -46 -212 -46zM336 388q-23 0 -37.5 -21.5t-21.5 -48.5h87q1 2 1.5 5.5
t0.5 5.5v13q0 16 -1 23.5t-8 15t-21 7.5zM263 558v37l54 115h221v-44l-127 -108h-148z" />
    <glyph glyph-name="uni00EA" unicode="&#xea;" horiz-adv-x="598" 
d="M300 -10q-127 0 -207.5 52.5t-79.5 171.5q0 150 94 236.5t243 89.5q170 0 223 -112q20 -42 19 -102q-2 -38 -4 -58q-6 -34 -14 -59h-308q3 -35 24 -47.5t59 -12.5q55 0 112 22h83l-32 -135q-87 -46 -212 -46zM336 388q-23 0 -37.5 -21.5t-21.5 -48.5h87q1 2 1.5 5.5
t0.5 5.5v13q0 16 -1 23.5t-8 15t-21 7.5zM182 558v41l117 111h159l78 -111v-41h-139l-35 32l-50 -32h-130z" />
    <glyph glyph-name="uni00EB" unicode="&#xeb;" horiz-adv-x="598" 
d="M300 -10q-127 0 -207.5 52.5t-79.5 171.5q0 150 94 236.5t243 89.5q170 0 223 -112q20 -42 19 -102q-2 -38 -4 -58q-6 -34 -14 -59h-308q3 -35 24 -47.5t59 -12.5q55 0 112 22h83l-32 -135q-87 -46 -212 -46zM336 388q-23 0 -37.5 -21.5t-21.5 -48.5h87q1 2 1.5 5.5
t0.5 5.5v13q0 16 -1 23.5t-8 15t-21 7.5zM248 546q-42 0 -70.5 20t-28.5 60q0 51 31.5 79.5t83.5 28.5q44 0 73 -21q27 -23 27 -62q0 -50 -32.5 -77.5t-83.5 -27.5zM482 546q-42 0 -70.5 20t-28.5 60q0 51 31.5 79.5t83.5 28.5q44 0 73 -21q27 -23 27 -62q0 -50 -32.5 -77.5
t-83.5 -27.5z" />
    <glyph glyph-name="uni00EC" unicode="&#xec;" horiz-adv-x="328" 
d="M-20 0l122 530h150q61 0 79 -22q18 -23 3 -88l-96 -420h-258zM146 558l-102 108v44h216l43 -115v-37h-157z" />
    <glyph glyph-name="uni00ED" unicode="&#xed;" horiz-adv-x="328" 
d="M-20 0l122 530h150q61 0 79 -22q18 -23 3 -88l-96 -420h-258zM138 558v37l54 115h221v-44l-127 -108h-148z" />
    <glyph glyph-name="uni00EE" unicode="&#xee;" horiz-adv-x="328" 
d="M-20 0l122 530h150q61 0 79 -22q18 -23 3 -88l-96 -420h-258zM57 558v41l117 111h159l78 -111v-41h-139l-35 32l-50 -32h-130z" />
    <glyph glyph-name="uni00EF" unicode="&#xef;" horiz-adv-x="328" 
d="M-20 0l122 530h150q61 0 79 -22q18 -23 3 -88l-96 -420h-258zM123 546q-42 0 -70.5 20t-28.5 60q0 51 31.5 79.5t83.5 28.5q44 0 73 -21q27 -23 27 -62q0 -50 -32.5 -77.5t-83.5 -27.5zM357 546q-42 0 -70.5 20t-28.5 60q0 51 31.5 79.5t83.5 28.5q44 0 73 -21
q27 -23 27 -62q0 -50 -32.5 -77.5t-83.5 -27.5z" />
    <glyph glyph-name="uni00F1" unicode="&#xf1;" horiz-adv-x="648" 
d="M-24 0l122 530h129q52 0 75 -20.5t23 -71.5q45 50 91.5 76t106.5 26q65 0 100 -41q17 -23 23 -57q5 -37 -7 -87l-82 -355h-190q-34 0 -46 20q-13 19 -1 72l46 196q6 26 -2 40q-7 13 -42 13h-10l-78 -341h-258zM459 556q-42 0 -66 10t-43 10q-20 0 -29 -19h-113v46
q34 125 141 125q37 0 62 -9q24 -10 42 -10q22 0 29 19h114v-46q-18 -59 -49.5 -92.5t-87.5 -33.5z" />
    <glyph glyph-name="uni00F2" unicode="&#xf2;" horiz-adv-x="627" 
d="M295 141q19 0 33.5 22t22.5 53.5t12 60.5t4 49q0 48 -29 48q-26 0 -44 -38t-24 -77.5t-6 -69.5q0 -48 31 -48zM284 -10q-120 0 -196 58t-76 172q0 148 95.5 234t242.5 86q120 0 195.5 -59t75.5 -172q0 -148 -95 -233.5t-242 -85.5zM291 558l-102 108v44h216l43 -115v-37
h-157z" />
    <glyph glyph-name="uni00F3" unicode="&#xf3;" horiz-adv-x="627" 
d="M295 141q19 0 33.5 22t22.5 53.5t12 60.5t4 49q0 48 -29 48q-26 0 -44 -38t-24 -77.5t-6 -69.5q0 -48 31 -48zM284 -10q-120 0 -196 58t-76 172q0 148 95.5 234t242.5 86q120 0 195.5 -59t75.5 -172q0 -148 -95 -233.5t-242 -85.5zM283 558v37l54 115h221v-44l-127 -108
h-148z" />
    <glyph glyph-name="uni00F4" unicode="&#xf4;" horiz-adv-x="627" 
d="M295 141q19 0 33.5 22t22.5 53.5t12 60.5t4 49q0 48 -29 48q-26 0 -44 -38t-24 -77.5t-6 -69.5q0 -48 31 -48zM284 -10q-120 0 -196 58t-76 172q0 148 95.5 234t242.5 86q120 0 195.5 -59t75.5 -172q0 -148 -95 -233.5t-242 -85.5zM202 558v41l117 111h159l78 -111v-41
h-139l-35 32l-50 -32h-130z" />
    <glyph glyph-name="uni00F5" unicode="&#xf5;" horiz-adv-x="627" 
d="M295 141q19 0 33.5 22t22.5 53.5t12 60.5t4 49q0 48 -29 48q-26 0 -44 -38t-24 -77.5t-6 -69.5q0 -48 31 -48zM284 -10q-120 0 -196 58t-76 172q0 148 95.5 234t242.5 86q120 0 195.5 -59t75.5 -172q0 -148 -95 -233.5t-242 -85.5zM443 556q-42 0 -66 10t-43 10
q-20 0 -29 -19h-113v46q34 125 141 125q36 0 62 -9q24 -10 42 -10q22 0 29 19h114v-46q-18 -59 -49.5 -92.5t-87.5 -33.5z" />
    <glyph glyph-name="uni00F6" unicode="&#xf6;" horiz-adv-x="627" 
d="M295 141q19 0 33.5 22t22.5 53.5t12 60.5t4 49q0 48 -29 48q-26 0 -44 -38t-24 -77.5t-6 -69.5q0 -48 31 -48zM284 -10q-120 0 -196 58t-76 172q0 148 95.5 234t242.5 86q120 0 195.5 -59t75.5 -172q0 -148 -95 -233.5t-242 -85.5zM268 546q-42 0 -70.5 20t-28.5 60
q0 51 31.5 79.5t83.5 28.5q44 0 73 -21q27 -23 27 -62q0 -50 -32.5 -77.5t-83.5 -27.5zM502 546q-42 0 -70.5 20t-28.5 60q0 51 31.5 79.5t83.5 28.5q44 0 73 -21q27 -23 27 -62q0 -50 -32.5 -77.5t-83.5 -27.5z" />
    <glyph glyph-name="uni00F9" unicode="&#xf9;" horiz-adv-x="648" 
d="M553 0h-128q-92 0 -103 82q-84 -92 -187 -92q-113 0 -129 99q-6 35 6 86l82 355h189q33 0 47 -20q12 -20 0 -72l-49 -213q-6 -25 2 -39t38 -14h8l88 358h258zM308 558l-102 108v44h216l43 -115v-37h-157z" />
    <glyph glyph-name="uni00FA" unicode="&#xfa;" horiz-adv-x="648" 
d="M553 0h-128q-92 0 -103 82q-84 -92 -187 -92q-113 0 -129 99q-6 35 6 86l82 355h189q33 0 47 -20q12 -20 0 -72l-49 -213q-6 -25 2 -39t38 -14h8l88 358h258zM300 558v37l54 115h221v-44l-127 -108h-148z" />
    <glyph glyph-name="uni00FB" unicode="&#xfb;" horiz-adv-x="648" 
d="M553 0h-128q-92 0 -103 82q-84 -92 -187 -92q-113 0 -129 99q-6 35 6 86l82 355h189q33 0 47 -20q12 -20 0 -72l-49 -213q-6 -25 2 -39t38 -14h8l88 358h258zM210 558v41l117 111h159l78 -111v-41h-139l-35 32l-50 -32h-130z" />
    <glyph glyph-name="uni00FC" unicode="&#xfc;" horiz-adv-x="648" 
d="M553 0h-128q-92 0 -103 82q-84 -92 -187 -92q-113 0 -129 99q-6 35 6 86l82 355h189q33 0 47 -20q12 -20 0 -72l-49 -213q-6 -25 2 -39t38 -14h8l88 358h258zM274 546q-42 0 -70.5 20t-28.5 60q0 51 31.5 79.5t83.5 28.5q44 0 73 -21q27 -23 27 -62q0 -50 -32.5 -77.5
t-83.5 -27.5zM508 546q-42 0 -70.5 20t-28.5 60q0 51 31.5 79.5t83.5 28.5q44 0 73 -21q27 -23 27 -62q0 -50 -32.5 -77.5t-83.5 -27.5z" />
    <glyph glyph-name="uni00FD" unicode="&#xfd;" horiz-adv-x="622" 
d="M28 -162v47l106 150l-69 448v47h251l17 -226h4l115 226h217v-47l-392 -645h-249zM308 558v37l54 115h221v-44l-127 -108h-148z" />
    <glyph glyph-name="uni00FF" unicode="&#xff;" horiz-adv-x="622" 
d="M28 -162v47l106 150l-69 448v47h251l17 -226h4l115 226h217v-47l-392 -645h-249zM273 546q-42 0 -70.5 20t-28.5 60q0 51 31.5 79.5t83.5 28.5q44 0 73 -21q27 -23 27 -62q0 -50 -32.5 -77.5t-83.5 -27.5zM507 546q-42 0 -70.5 20t-28.5 60q0 51 31.5 79.5t83.5 28.5
q45 0 73 -21q27 -23 27 -62q0 -50 -32.5 -77.5t-83.5 -27.5z" />
    <glyph glyph-name="uni0100" unicode="&#x100;" horiz-adv-x="754" 
d="M-34 0v53l351 647h319l61 -647v-53h-273l-3 113h-189l-55 -113h-211zM411 477l-90 -183h97l-4 183h-3zM332 730l31 134h296l-31 -134h-296z" />
    <glyph glyph-name="uni0101" unicode="&#x101;" horiz-adv-x="606" 
d="M515 0h-129q-80 0 -98 61q-63 -69 -151 -69q-63 0 -103 34.5t-40 96.5q0 186 248 186q16 0 44 -2q25 -4 40 -5q4 30 -9 45q-14 14 -53 14q-34 0 -60 -6q-32 -9 -41 -14h-86l38 163q104 36 235 36q140 0 202 -54t36 -168zM265 127q11 0 22 6l17 74q-11 3 -25 3
q-40 0 -40 -54q0 -29 26 -29zM213 566l31 134h296l-31 -134h-296z" />
    <glyph glyph-name="uni0102" unicode="&#x102;" horiz-adv-x="754" 
d="M-34 0v53l351 647h319l61 -647v-53h-273l-3 113h-189l-55 -113h-211zM411 477l-90 -183h97l-4 183h-3zM489 724q-60 0 -106 28.5t-54 84.5v46h133q0 -11 9 -19q7 -9 28 -9q20 0 29 9q9 8 14 19h123v-46q-42 -113 -176 -113z" />
    <glyph glyph-name="uni0103" unicode="&#x103;" horiz-adv-x="606" 
d="M515 0h-129q-80 0 -98 61q-63 -69 -151 -69q-63 0 -103 34.5t-40 96.5q0 186 248 186q16 0 44 -2q25 -4 40 -5q4 30 -9 45q-14 14 -53 14q-34 0 -60 -6q-32 -9 -41 -14h-86l38 163q104 36 235 36q140 0 202 -54t36 -168zM265 127q11 0 22 6l17 74q-11 3 -25 3
q-40 0 -40 -54q0 -29 26 -29zM369 556q-63 0 -105.5 30.5t-50.5 90.5v46h134q0 -11 9 -19q8 -9 28 -9t29 9q9 8 14 19h122v-46q-43 -121 -180 -121z" />
    <glyph glyph-name="uni0104" unicode="&#x104;" horiz-adv-x="754" 
d="M571 -171q-22 0 -42 3t-42 10.5t-35 23.5t-13 39q0 36 34.5 60.5t78.5 34.5h-128l-3 113h-189l-55 -113h-211v53l351 647h319l61 -647v-53q-22 -7 -36 -20q-15 -10 -15 -23q0 -16 29 -16h13l-22 -96q-21 -7 -36 -11q-27 -5 -59 -5zM411 477l-90 -183h97l-4 183h-3z" />
    <glyph glyph-name="uni0105" unicode="&#x105;" horiz-adv-x="606" 
d="M392 -171q-22 0 -42 3t-42 10.5t-35 23.5t-13 39q0 37 36 61q25 19 77 34q-66 5 -85 61q-63 -69 -151 -69q-63 0 -103 34.5t-40 96.5q0 186 248 186q16 0 44 -2q25 -4 40 -5q4 30 -9 45q-14 14 -53 14q-34 0 -60 -6q-32 -9 -41 -14h-86l38 163q104 36 235 36
q140 0 202 -54t36 -168l-73 -318q-20 -8 -34 -20q-14 -11 -14 -23q0 -16 29 -16h13l-22 -96q-21 -7 -36 -11q-27 -5 -59 -5zM265 127q11 0 22 6l17 74q-11 3 -25 3q-40 0 -40 -54q0 -29 26 -29z" />
    <glyph glyph-name="uni0106" unicode="&#x106;" horiz-adv-x="673" 
d="M363 -12q-153 0 -244 73.5t-91 218.5q0 200 133 316t333 116q141 0 235 -52l-39 -172h-117q-33 33 -95 33q-56 0 -96 -42.5t-56 -96.5t-16 -109q0 -101 100 -101q64 0 106 42h112l-40 -179q-90 -47 -225 -47zM376 726v37l54 115h221v-44l-127 -108h-148z" />
    <glyph glyph-name="uni0107" unicode="&#x107;" horiz-adv-x="530" 
d="M286 -10q-121 0 -197.5 51.5t-76.5 166.5q0 154 104.5 243t258.5 89q110 0 186 -40l-36 -155h-90q-20 20 -52 20q-52 0 -80.5 -43t-28.5 -98q0 -69 63 -69q43 0 69 26h86l-35 -153q-27 -19 -77.5 -28.5t-93.5 -9.5zM267 558v37l54 115h221v-44l-127 -108h-148z" />
    <glyph glyph-name="uni0108" unicode="&#x108;" horiz-adv-x="673" 
d="M363 -12q-153 0 -244 73.5t-91 218.5q0 200 133 316t333 116q141 0 235 -52l-39 -172h-117q-33 33 -95 33q-56 0 -96 -42.5t-56 -96.5t-16 -109q0 -101 100 -101q64 0 106 42h112l-40 -179q-90 -47 -225 -47zM293 726v41l117 111h159l78 -111v-41h-139l-35 32l-50 -32
h-130z" />
    <glyph glyph-name="uni0109" unicode="&#x109;" horiz-adv-x="530" 
d="M286 -10q-121 0 -197.5 51.5t-76.5 166.5q0 154 104.5 243t258.5 89q110 0 186 -40l-36 -155h-90q-20 20 -52 20q-52 0 -80.5 -43t-28.5 -98q0 -69 63 -69q43 0 69 26h86l-35 -153q-27 -19 -77.5 -28.5t-93.5 -9.5zM186 558v41l117 111h159l78 -111v-41h-139l-35 32
l-50 -32h-130z" />
    <glyph glyph-name="uni010A" unicode="&#x10a;" horiz-adv-x="673" 
d="M363 -12q-153 0 -244 73.5t-91 218.5q0 200 133 316t333 116q141 0 235 -52l-39 -172h-117q-33 33 -95 33q-56 0 -96 -42.5t-56 -96.5t-16 -109q0 -101 100 -101q64 0 106 42h112l-40 -179q-90 -47 -225 -47zM478 722q-47 0 -81.5 21.5t-34.5 65.5q0 56 38 86t95 30
q49 0 83 -21.5t34 -68.5q0 -55 -38.5 -84t-95.5 -29z" />
    <glyph glyph-name="uni010B" unicode="&#x10b;" horiz-adv-x="530" 
d="M286 -10q-121 0 -197.5 51.5t-76.5 166.5q0 154 104.5 243t258.5 89q110 0 186 -40l-36 -155h-90q-20 20 -52 20q-52 0 -80.5 -43t-28.5 -98q0 -69 63 -69q43 0 69 26h86l-35 -153q-27 -19 -77.5 -28.5t-93.5 -9.5zM368 542q-47 0 -81.5 21.5t-34.5 65.5q0 56 38 86
t95 30q49 0 83 -21.5t34 -68.5q0 -55 -38.5 -84t-95.5 -29z" />
    <glyph glyph-name="uni010C" unicode="&#x10c;" horiz-adv-x="673" 
d="M363 -12q-153 0 -244 73.5t-91 218.5q0 200 133 316t333 116q141 0 235 -52l-39 -172h-117q-33 33 -95 33q-56 0 -96 -42.5t-56 -96.5t-16 -109q0 -101 100 -101q64 0 106 42h112l-40 -179q-90 -47 -225 -47zM659 878v-41l-117 -111h-159l-78 111v41h139l35 -32l50 32
h130z" />
    <glyph glyph-name="uni010D" unicode="&#x10d;" horiz-adv-x="530" 
d="M286 -10q-121 0 -197.5 51.5t-76.5 166.5q0 154 104.5 243t258.5 89q110 0 186 -40l-36 -155h-90q-20 20 -52 20q-52 0 -80.5 -43t-28.5 -98q0 -69 63 -69q43 0 69 26h86l-35 -153q-27 -19 -77.5 -28.5t-93.5 -9.5zM274 558l-78 111v41h139l35 -32l50 32h130v-41
l-117 -111h-159z" />
    <glyph glyph-name="uni0112" unicode="&#x112;" horiz-adv-x="617" 
d="M-14 0l161 700h525l-42 -182h-249l-19 -82h171l-39 -170h-171l-20 -89h264l-41 -177h-540zM270 730l31 134h296l-31 -134h-296z" />
    <glyph glyph-name="uni0113" unicode="&#x113;" horiz-adv-x="598" 
d="M300 -10q-127 0 -207.5 52.5t-79.5 171.5q0 150 94 236.5t243 89.5q170 0 223 -112q20 -42 19 -102q-2 -38 -4 -58q-6 -34 -14 -59h-308q3 -35 24 -47.5t59 -12.5q55 0 112 22h83l-32 -135q-87 -46 -212 -46zM336 388q-23 0 -37.5 -21.5t-21.5 -48.5h87q1 2 1.5 5.5
t0.5 5.5v13q0 16 -1 23.5t-8 15t-21 7.5zM208 566l31 134h296l-31 -134h-296z" />
    <glyph glyph-name="uni0114" unicode="&#x114;" horiz-adv-x="617" 
d="M-14 0l161 700h525l-42 -182h-249l-19 -82h171l-39 -170h-171l-20 -89h264l-41 -177h-540zM421 724q-60 0 -106 28.5t-54 84.5v46h133q0 -11 9 -19q7 -9 28 -9q20 0 29 9q9 8 14 19h123v-46q-42 -113 -176 -113z" />
    <glyph glyph-name="uni0115" unicode="&#x115;" horiz-adv-x="598" 
d="M300 -10q-127 0 -207.5 52.5t-79.5 171.5q0 150 94 236.5t243 89.5q170 0 223 -112q20 -42 19 -102q-2 -38 -4 -58q-6 -34 -14 -59h-308q3 -35 24 -47.5t59 -12.5q55 0 112 22h83l-32 -135q-87 -46 -212 -46zM336 388q-23 0 -37.5 -21.5t-21.5 -48.5h87q1 2 1.5 5.5
t0.5 5.5v13q0 16 -1 23.5t-8 15t-21 7.5zM354 556q-63 0 -105.5 30.5t-50.5 90.5v46h134q0 -11 9 -19q8 -9 28 -9t29 9q9 8 14 19h122v-46q-43 -121 -180 -121z" />
    <glyph glyph-name="uni0116" unicode="&#x116;" horiz-adv-x="617" 
d="M-14 0l161 700h525l-42 -182h-249l-19 -82h171l-39 -170h-171l-20 -89h264l-41 -177h-540zM430 722q-47 0 -81.5 21.5t-34.5 65.5q0 56 38 86t95 30q49 0 83 -21.5t34 -68.5q0 -55 -38.5 -84t-95.5 -29z" />
    <glyph glyph-name="uni0117" unicode="&#x117;" horiz-adv-x="598" 
d="M300 -10q-127 0 -207.5 52.5t-79.5 171.5q0 150 94 236.5t243 89.5q170 0 223 -112q20 -42 19 -102q-2 -38 -4 -58q-6 -34 -14 -59h-308q3 -35 24 -47.5t59 -12.5q55 0 112 22h83l-32 -135q-87 -46 -212 -46zM336 388q-23 0 -37.5 -21.5t-21.5 -48.5h87q1 2 1.5 5.5
t0.5 5.5v13q0 16 -1 23.5t-8 15t-21 7.5zM364 542q-47 0 -81.5 21.5t-34.5 65.5q0 56 38 86t95 30q49 0 83 -21.5t34 -68.5q0 -55 -38.5 -84t-95.5 -29z" />
    <glyph glyph-name="uni0118" unicode="&#x118;" horiz-adv-x="617" 
d="M-14 0l161 700h525l-42 -182h-249l-19 -82h171l-39 -170h-171l-20 -89h264l-41 -177h-40q-8 -5 -25 -20q-13 -10 -13 -23q0 -16 29 -16h13l-22 -96q-21 -7 -36 -11q-27 -5 -59 -5q-22 0 -42 3t-42 10.5t-35 23.5t-13 39q0 36 34.5 60.5t78.5 34.5h-368z" />
    <glyph glyph-name="uni0119" unicode="&#x119;" horiz-adv-x="598" 
d="M544 171l-32 -135q-10 -5 -30.5 -17t-31.5 -17q-23 -14 -31 -25q-9 -11 -9 -20q0 -16 29 -16h13l-22 -96q-21 -7 -36 -11q-27 -5 -59 -5q-22 0 -42 3t-42 10.5t-35 23.5t-13 39q0 15 9 29q18 32 87 56h-6q-58 0 -106.5 12t-89 37t-63 70t-21.5 105q0 150 94 236.5
t243 89.5q170 0 223 -112q20 -42 19 -102q-2 -38 -4 -58q-6 -34 -14 -59h-308q3 -35 24 -47.5t59 -12.5q55 0 112 22h83zM336 388q-23 0 -37.5 -21.5t-21.5 -48.5h87q1 2 1.5 5.5t0.5 5.5v13q0 16 -1 23.5t-8 15t-21 7.5z" />
    <glyph glyph-name="uni011A" unicode="&#x11a;" horiz-adv-x="617" 
d="M-14 0l161 700h525l-42 -182h-249l-19 -82h171l-39 -170h-171l-20 -89h264l-41 -177h-540zM611 878v-41l-117 -111h-159l-78 111v41h139l35 -32l50 32h130z" />
    <glyph glyph-name="uni011B" unicode="&#x11b;" horiz-adv-x="598" 
d="M300 -10q-127 0 -207.5 52.5t-79.5 171.5q0 150 94 236.5t243 89.5q170 0 223 -112q20 -42 19 -102q-2 -38 -4 -58q-6 -34 -14 -59h-308q3 -35 24 -47.5t59 -12.5q55 0 112 22h83l-32 -135q-87 -46 -212 -46zM336 388q-23 0 -37.5 -21.5t-21.5 -48.5h87q1 2 1.5 5.5
t0.5 5.5v13q0 16 -1 23.5t-8 15t-21 7.5zM270 558l-78 111v41h139l35 -32l50 32h130v-41l-117 -111h-159z" />
    <glyph glyph-name="uni011C" unicode="&#x11c;" horiz-adv-x="719" 
d="M376 -12q-347 0 -347 279q0 207 131.5 326t337.5 119q159 0 255 -53l-40 -172h-127q-39 33 -100 33q-46 0 -81.5 -27t-55.5 -69t-30 -87t-10 -88q0 -42 16.5 -64t56.5 -22q25 0 37 4l17 75h-51l34 149h303l-83 -359q-118 -44 -263 -44zM319 726v41l117 111h159l78 -111
v-41h-139l-35 32l-50 -32h-130z" />
    <glyph glyph-name="uni011D" unicode="&#x11d;" horiz-adv-x="650" 
d="M213 -170q-149 0 -242 40l36 157h83q43 -24 102 -24q108 0 123 57l8 34q-51 -51 -141 -51q-33 0 -60 10q-31 9 -53 31q-52 46 -52 138q0 81 29.5 152t91.5 118.5t143 47.5q93 0 144 -78q43 68 122 68h135l-111 -483q-49 -217 -358 -217zM332 184h12l40 172q-12 5 -25 5
q-37 0 -57 -40t-20 -83q0 -54 50 -54zM238 558v41l117 111h159l78 -111v-41h-139l-35 32l-50 -32h-130z" />
    <glyph glyph-name="uni011E" unicode="&#x11e;" horiz-adv-x="719" 
d="M376 -12q-347 0 -347 279q0 207 131.5 326t337.5 119q159 0 255 -53l-40 -172h-127q-39 33 -100 33q-46 0 -81.5 -27t-55.5 -69t-30 -87t-10 -88q0 -42 16.5 -64t56.5 -22q25 0 37 4l17 75h-51l34 149h303l-83 -359q-118 -44 -263 -44zM501 724q-60 0 -106 28.5t-54 84.5
v46h133q0 -11 9 -19q7 -9 28 -9q20 0 29 9q9 8 14 19h123v-46q-42 -113 -176 -113z" />
    <glyph glyph-name="uni011F" unicode="&#x11f;" horiz-adv-x="650" 
d="M213 -170q-149 0 -242 40l36 157h83q43 -24 102 -24q108 0 123 57l8 34q-51 -51 -141 -51q-33 0 -60 10q-31 9 -53 31q-52 46 -52 138q0 81 29.5 152t91.5 118.5t143 47.5q93 0 144 -78q43 68 122 68h135l-111 -483q-49 -217 -358 -217zM332 184h12l40 172q-12 5 -25 5
q-37 0 -57 -40t-20 -83q0 -54 50 -54zM395 556q-63 0 -105.5 30.5t-50.5 90.5v46h134q0 -11 9 -19q8 -9 28 -9t29 9q9 8 14 19h122v-46q-43 -121 -180 -121z" />
    <glyph glyph-name="uni0120" unicode="&#x120;" horiz-adv-x="719" 
d="M376 -12q-347 0 -347 279q0 207 131.5 326t337.5 119q159 0 255 -53l-40 -172h-127q-39 33 -100 33q-46 0 -81.5 -27t-55.5 -69t-30 -87t-10 -88q0 -42 16.5 -64t56.5 -22q25 0 37 4l17 75h-51l34 149h303l-83 -359q-118 -44 -263 -44zM504 722q-47 0 -81.5 21.5
t-34.5 65.5q0 56 38 86t95 30q49 0 83 -21.5t34 -68.5q0 -55 -38.5 -84t-95.5 -29z" />
    <glyph glyph-name="uni0121" unicode="&#x121;" horiz-adv-x="650" 
d="M213 -170q-149 0 -242 40l36 157h83q43 -24 102 -24q108 0 123 57l8 34q-51 -51 -141 -51q-33 0 -60 10q-31 9 -53 31q-52 46 -52 138q0 81 29.5 152t91.5 118.5t143 47.5q93 0 144 -78q43 68 122 68h135l-111 -483q-49 -217 -358 -217zM332 184h12l40 172q-12 5 -25 5
q-37 0 -57 -40t-20 -83q0 -54 50 -54zM420 542q-47 0 -81.5 21.5t-34.5 65.5q0 56 38 86t95 30q49 0 83 -21.5t34 -68.5q0 -55 -38.5 -84t-95.5 -29z" />
    <glyph glyph-name="uni0122" unicode="&#x122;" horiz-adv-x="719" 
d="M376 -12q-347 0 -347 279q0 207 131.5 326t337.5 119q159 0 255 -53l-40 -172h-127q-39 33 -100 33q-46 0 -81.5 -27t-55.5 -69t-30 -87t-10 -88q0 -42 16.5 -64t56.5 -22q25 0 37 4l17 75h-51l34 149h303l-83 -359q-118 -44 -263 -44zM176 -243l17 70q55 3 55 18
q0 5 -4 9t-14 9q-14 9 -19 18q-5 12 -5 26q0 19 9 33q22 41 91 41q42 0 67.5 -21.5t25.5 -61.5q0 -134 -223 -141z" />
    <glyph glyph-name="uni0123" unicode="&#x123;" horiz-adv-x="650" 
d="M213 -170q-149 0 -242 40l36 157h83q43 -24 102 -24q108 0 123 57l8 34q-51 -51 -141 -51q-33 0 -60 10q-31 9 -53 31q-52 46 -52 138q0 81 29.5 152t91.5 118.5t143 47.5q93 0 144 -78q43 68 122 68h135l-111 -483q-49 -217 -358 -217zM332 184h12l40 172q-12 5 -25 5
q-37 0 -57 -40t-20 -83q0 -54 50 -54zM521 769l-17 -70q-55 -3 -55 -18q0 -7 18 -18q16 -9 20 -18t4 -26q0 -19 -8 -33q-27 -41 -92 -41q-42 0 -67.5 21.5t-25.5 61.5q0 134 223 141z" />
    <glyph glyph-name="uni0124" unicode="&#x124;" horiz-adv-x="758" 
d="M-14 0l161 700h276l-57 -249h116l57 249h276l-161 -700h-276l58 255h-116l-58 -255h-276zM310 726v41l117 111h159l78 -111v-41h-139l-35 32l-50 -32h-130z" />
    <glyph glyph-name="uni0125" unicode="&#x125;" horiz-adv-x="653" 
d="M-24 0l161 700h149q32 0 49 -4q38 -9 41 -56q0 -24 -9 -63l-29 -125q82 88 185 88q65 0 100 -41q17 -23 23 -57q5 -37 -7 -87l-82 -355h-190q-34 0 -46 20q-13 19 -1 72l46 196q6 26 -2 40q-7 13 -42 13h-10l-78 -341h-258zM243 726v41l117 111h159l78 -111v-41h-139
l-35 32l-50 -32h-130z" />
    <glyph glyph-name="uni0128" unicode="&#x128;" horiz-adv-x="374" 
d="M-10 0l161 700h276l-161 -700h-276zM372 724q-42 0 -66 10t-43 10q-20 0 -29 -19h-113v46q33 122 141 122q36 0 62 -9q24 -10 42 -10q22 0 29 19h114v-46q-37 -123 -137 -123z" />
    <glyph glyph-name="uni0129" unicode="&#x129;" horiz-adv-x="328" 
d="M-20 0l122 530h150q61 0 79 -22q18 -23 3 -88l-96 -420h-258zM311 556q-42 0 -66 10t-43 10q-20 0 -29 -19h-113v46q34 125 141 125q37 0 62 -9q24 -10 42 -10q22 0 29 19h114v-46q-18 -59 -49.5 -92.5t-87.5 -33.5z" />
    <glyph glyph-name="uni012A" unicode="&#x12a;" horiz-adv-x="374" 
d="M-10 0l161 700h276l-161 -700h-276zM148 730l31 134h296l-31 -134h-296z" />
    <glyph glyph-name="uni012B" unicode="&#x12b;" horiz-adv-x="328" 
d="M86 566l31 134h296l-31 -134h-296zM-20 0l122 530h150q61 0 79 -22q18 -23 3 -88l-96 -420h-258z" />
    <glyph glyph-name="uni012C" unicode="&#x12c;" horiz-adv-x="374" 
d="M-10 0l161 700h276l-161 -700h-276zM304 724q-60 0 -106 28.5t-54 84.5v46h133q0 -11 9 -19q8 -9 28 -9t29 9q9 8 14 19h123v-46q-42 -113 -176 -113z" />
    <glyph glyph-name="uni012D" unicode="&#x12d;" horiz-adv-x="328" 
d="M-20 0l122 530h150q61 0 79 -22q18 -23 3 -88l-96 -420h-258zM246 556q-63 0 -105.5 30.5t-50.5 90.5v46h134q0 -11 9 -19q7 -9 28 -9q20 0 29 9q9 8 14 19h122v-46q-43 -121 -180 -121z" />
    <glyph glyph-name="uni012E" unicode="&#x12e;" horiz-adv-x="374" 
d="M-10 0l161 700h276l-161 -700q-25 -7 -41 -20q-15 -11 -15 -23q0 -16 29 -16h13l-22 -96q-21 -7 -36 -11q-27 -5 -59 -5q-22 0 -42 3t-42 10.5t-35 23.5t-13 39q0 36 34.5 60.5t78.5 34.5h-126z" />
    <glyph glyph-name="uni012F" unicode="&#x12f;" horiz-adv-x="328" 
d="M-20 0l122 530h150q61 0 79 -22q18 -23 3 -88l-96 -420q-27 -7 -43 -20q-16 -10 -16 -23q0 -16 29 -16h13l-22 -96q-21 -7 -36 -11q-27 -5 -59 -5q-22 0 -42 3t-42 10.5t-35 23.5t-13 39q0 37 34.5 61t78.5 34h-105zM238 542q-47 0 -81.5 21.5t-34.5 65.5q0 56 38 86
t95 30q49 0 83 -21.5t34 -68.5q0 -55 -38.5 -84t-95.5 -29z" />
    <glyph glyph-name="uni0130" unicode="&#x130;" horiz-adv-x="374" 
d="M-10 0l161 700h276l-161 -700h-276zM308 722q-47 0 -81.5 21.5t-34.5 65.5q0 56 38 86t95 30q49 0 83 -21.5t34 -68.5q0 -55 -38.5 -84t-95.5 -29z" />
    <glyph glyph-name="uni0131" unicode="&#x131;" horiz-adv-x="328" 
d="M-20 0l122 530h150q61 0 79 -22q18 -23 3 -88l-96 -420h-258z" />
    <glyph glyph-name="uni0136" unicode="&#x136;" horiz-adv-x="769" 
d="M-14 0l161 700h276l-54 -236l205 236h260v-44l-247 -256l117 -356v-44h-273l-75 231l-52 -47l-42 -184h-276zM180 -243l17 70q55 3 55 18q0 5 -4 9t-14 9q-14 9 -19 18q-5 12 -5 26q0 19 9 33q22 41 91 41q42 0 67.5 -21.5t25.5 -61.5q0 -134 -223 -141z" />
    <glyph glyph-name="uni0137" unicode="&#x137;" horiz-adv-x="649" 
d="M-24 0l161 700h149q32 0 49 -4q38 -9 41 -56q0 -24 -9 -63l-45 -196l131 149h222v-53l-170 -176l89 -252v-49h-248l-52 153l-33 -33l-27 -120h-258zM139 -243l17 70q55 3 55 18q0 5 -4 9t-14 9q-14 9 -19 18q-5 12 -5 26q0 19 9 33q22 41 91 41q42 0 67.5 -21.5
t25.5 -61.5q0 -134 -223 -141z" />
    <glyph glyph-name="uni0139" unicode="&#x139;" horiz-adv-x="586" 
d="M-14 0l161 700h276l-119 -518h237l-42 -182h-513zM230 726v37l54 115h221v-44l-127 -108h-148z" />
    <glyph glyph-name="uni013A" unicode="&#x13a;" horiz-adv-x="324" 
d="M-24 0l161 700h149q32 0 49 -4q38 -9 41 -56q0 -24 -9 -63l-133 -577h-258zM178 726v37l54 115h221v-44l-127 -108h-148z" />
    <glyph glyph-name="uni013B" unicode="&#x13b;" horiz-adv-x="586" 
d="M-14 0l161 700h276l-119 -518h237l-42 -182h-513zM88 -243l17 70q55 3 55 18q0 5 -4 9t-14 9q-14 9 -19 18q-5 12 -5 26q0 19 9 33q22 41 91 41q42 0 67.5 -21.5t25.5 -61.5q0 -134 -223 -141z" />
    <glyph glyph-name="uni013C" unicode="&#x13c;" horiz-adv-x="324" 
d="M-24 0l161 700h149q32 0 49 -4q38 -9 41 -56q0 -24 -9 -63l-133 -577h-258zM-44 -243l17 70q55 3 55 18q0 5 -4 9t-14 9q-16 9 -20 18t-4 26q0 19 8 33q27 41 92 41q42 0 67.5 -21.5t25.5 -61.5q0 -134 -223 -141z" />
    <glyph glyph-name="uni0143" unicode="&#x143;" horiz-adv-x="743" 
d="M-14 0l161 700h276l81 -313h3l72 313h221l-161 -700h-256l-93 348h-3l-80 -348h-221zM394 726v37l54 115h221v-44l-127 -108h-148z" />
    <glyph glyph-name="uni0144" unicode="&#x144;" horiz-adv-x="648" 
d="M-24 0l122 530h129q52 0 75 -20.5t23 -71.5q45 50 91.5 76t106.5 26q65 0 100 -41q17 -23 23 -57q5 -37 -7 -87l-82 -355h-190q-34 0 -46 20q-13 19 -1 72l46 196q6 26 -2 40q-7 13 -42 13h-10l-78 -341h-258zM299 558v37l54 115h221v-44l-127 -108h-148z" />
    <glyph glyph-name="uni0145" unicode="&#x145;" horiz-adv-x="743" 
d="M-14 0l161 700h276l81 -313h3l72 313h221l-161 -700h-256l-93 348h-3l-80 -348h-221zM174 -243l17 70q55 3 55 18q0 5 -4 9t-14 9q-14 9 -19 18q-5 12 -5 26q0 19 9 33q22 41 91 41q42 0 67.5 -21.5t25.5 -61.5q0 -134 -223 -141z" />
    <glyph glyph-name="uni0146" unicode="&#x146;" horiz-adv-x="648" 
d="M-24 0l122 530h129q52 0 75 -20.5t23 -71.5q45 50 91.5 76t106.5 26q65 0 100 -41q17 -23 23 -57q5 -37 -7 -87l-82 -355h-190q-34 0 -46 20q-13 19 -1 72l46 196q6 26 -2 40q-7 13 -42 13h-10l-78 -341h-258zM129 -243l17 70q55 3 55 18q0 5 -4 9t-14 9q-14 9 -19 18
q-5 12 -5 26q0 19 9 33q22 41 91 41q42 0 67.5 -21.5t25.5 -61.5q0 -134 -223 -141z" />
    <glyph glyph-name="uni0147" unicode="&#x147;" horiz-adv-x="743" 
d="M-14 0l161 700h276l81 -313h3l72 313h221l-161 -700h-256l-93 348h-3l-80 -348h-221zM677 878v-41l-117 -111h-159l-78 111v41h139l35 -32l50 32h130z" />
    <glyph glyph-name="uni0148" unicode="&#x148;" horiz-adv-x="648" 
d="M-24 0l122 530h129q52 0 75 -20.5t23 -71.5q45 50 91.5 76t106.5 26q65 0 100 -41q17 -23 23 -57q5 -37 -7 -87l-82 -355h-190q-34 0 -46 20q-13 19 -1 72l46 196q6 26 -2 40q-7 13 -42 13h-10l-78 -341h-258zM306 558l-78 111v41h139l35 -32l50 32h130v-41l-117 -111
h-159z" />
    <glyph glyph-name="uni014C" unicode="&#x14c;" horiz-adv-x="778" 
d="M368 172q35 0 63 27.5t43.5 69t23.5 82.5t8 76q0 37 -14 64.5t-48 27.5q-36 0 -64.5 -27.5t-44.5 -69t-24 -83t-8 -76.5q0 -38 15 -64.5t50 -26.5zM351 -12q-144 0 -233.5 75t-89.5 213q0 189 121 313t307 124q148 0 236.5 -77.5t88.5 -219.5q0 -186 -123 -307t-307 -121
zM339 730l31 134h296l-31 -134h-296z" />
    <glyph glyph-name="uni014D" unicode="&#x14d;" horiz-adv-x="627" 
d="M295 141q19 0 33.5 22t22.5 53.5t12 60.5t4 49q0 48 -29 48q-26 0 -44 -38t-24 -77.5t-6 -69.5q0 -48 31 -48zM284 -10q-120 0 -196 58t-76 172q0 148 95.5 234t242.5 86q120 0 195.5 -59t75.5 -172q0 -148 -95 -233.5t-242 -85.5zM228 566l31 134h296l-31 -134h-296z
" />
    <glyph glyph-name="uni014E" unicode="&#x14e;" horiz-adv-x="754" 
d="M368 172q35 0 63 27.5t43.5 69t23.5 82.5t8 76q0 37 -14 64.5t-48 27.5q-36 0 -64.5 -27.5t-44.5 -69t-24 -83t-8 -76.5q0 -38 15 -64.5t50 -26.5zM351 -12q-144 0 -233.5 75t-89.5 213q0 189 121 313t307 124q148 0 236.5 -77.5t88.5 -219.5q0 -186 -123 -307t-307 -121
zM476 724q-60 0 -106 28.5t-54 84.5v46h133q0 -11 9 -19q7 -9 28 -9q20 0 29 9q9 8 14 19h123v-46q-42 -113 -176 -113z" />
    <glyph glyph-name="uni014F" unicode="&#x14f;" horiz-adv-x="627" 
d="M295 141q19 0 33.5 22t22.5 53.5t12 60.5t4 49q0 48 -29 48q-26 0 -44 -38t-24 -77.5t-6 -69.5q0 -48 31 -48zM284 -10q-120 0 -196 58t-76 172q0 148 95.5 234t242.5 86q120 0 195.5 -59t75.5 -172q0 -148 -95 -233.5t-242 -85.5zM367 556q-63 0 -105.5 30.5t-50.5 90.5
v46h134q0 -11 9 -19q8 -9 28 -9t29 9q9 8 14 19h122v-46q-43 -121 -180 -121z" />
    <glyph glyph-name="uni0150" unicode="&#x150;" horiz-adv-x="778" 
d="M368 172q35 0 63 27.5t43.5 69t23.5 82.5t8 76q0 37 -14 64.5t-48 27.5q-36 0 -64.5 -27.5t-44.5 -69t-24 -83t-8 -76.5q0 -38 15 -64.5t50 -26.5zM351 -12q-144 0 -233.5 75t-89.5 213q0 189 121 313t307 124q148 0 236.5 -77.5t88.5 -219.5q0 -186 -123 -307t-307 -121
zM297 726v30l43 122h184v-42l-96 -110h-131zM515 726v30l42 122h184v-42l-96 -110h-130z" />
    <glyph glyph-name="uni0151" unicode="&#x151;" horiz-adv-x="627" 
d="M295 141q19 0 33.5 22t22.5 53.5t12 60.5t4 49q0 48 -29 48q-26 0 -44 -38t-24 -77.5t-6 -69.5q0 -48 31 -48zM284 -10q-120 0 -196 58t-76 172q0 148 95.5 234t242.5 86q120 0 195.5 -59t75.5 -172q0 -148 -95 -233.5t-242 -85.5zM190 558v30l43 122h174v-42l-96 -110
h-121zM398 558v30l42 122h174v-42l-96 -110h-120z" />
    <glyph glyph-name="uni0154" unicode="&#x154;" horiz-adv-x="719" 
d="M410 0l-73 231h-22l-53 -231h-276l161 700h303q47 0 84.5 -4t75.5 -17t63.5 -34.5t41.5 -58t16 -86.5q0 -158 -143 -226l80 -221v-53h-258zM346 384h42q38 0 56.5 26.5t18.5 66.5q0 49 -47 49h-36zM342 726v37l54 115h221v-44l-127 -108h-148z" />
    <glyph glyph-name="uni0155" unicode="&#x155;" horiz-adv-x="474" 
d="M-24 0l122 530h129q48 0 74 -20t24 -79q78 102 165 102q16 0 29 -3l-49 -211h-20q-87 0 -146 -15l-70 -304h-258zM238 558v37l54 115h221v-44l-127 -108h-148z" />
    <glyph glyph-name="uni0156" unicode="&#x156;" horiz-adv-x="719" 
d="M410 0l-73 231h-22l-53 -231h-276l161 700h303q47 0 84.5 -4t75.5 -17t63.5 -34.5t41.5 -58t16 -86.5q0 -158 -143 -226l80 -221v-53h-258zM346 384h42q38 0 56.5 26.5t18.5 66.5q0 49 -47 49h-36zM167 -243l17 70q55 3 55 18q0 5 -4 9t-14 9q-14 9 -19 18q-5 12 -5 26
q0 19 9 33q22 41 91 41q42 0 67.5 -21.5t25.5 -61.5q0 -134 -223 -141z" />
    <glyph glyph-name="uni0157" unicode="&#x157;" horiz-adv-x="474" 
d="M-24 0l122 530h129q48 0 74 -20t24 -79q78 102 165 102q16 0 29 -3l-49 -211h-20q-87 0 -146 -15l-70 -304h-258zM-39 -243l17 70q55 3 55 18q0 5 -4 9t-14 9q-16 9 -20 18t-4 26q0 19 8 33q27 41 92 41q42 0 67.5 -21.5t25.5 -61.5q0 -134 -223 -141z" />
    <glyph glyph-name="uni0158" unicode="&#x158;" horiz-adv-x="719" 
d="M410 0l-73 231h-22l-53 -231h-276l161 700h303q47 0 84.5 -4t75.5 -17t63.5 -34.5t41.5 -58t16 -86.5q0 -158 -143 -226l80 -221v-53h-258zM346 384h42q38 0 56.5 26.5t18.5 66.5q0 49 -47 49h-36zM625 878v-41l-117 -111h-159l-78 111v41h139l35 -32l50 32h130z" />
    <glyph glyph-name="uni0159" unicode="&#x159;" horiz-adv-x="474" 
d="M-24 0l122 530h129q48 0 74 -20t24 -79q78 102 165 102q16 0 29 -3l-49 -211h-20q-87 0 -146 -15l-70 -304h-258zM245 558l-78 111v41h139l35 -32l50 32h130v-41l-117 -111h-159z" />
    <glyph glyph-name="uni015A" unicode="&#x15a;" horiz-adv-x="608" 
d="M252 -12q-178 0 -270 67l35 156h122q18 -18 52.5 -28t64.5 -10t45 7q16 6 16 23q0 14 -20 22q-16 6 -67 21q-84 23 -125 67t-41 126q0 74 25.5 128.5t71.5 85.5t103 46t126 15q154 0 256 -64l-37 -156h-120q-40 37 -113 37q-55 0 -55 -29q0 -15 19 -22q25 -10 58 -19
q42 -11 74 -25t61 -36.5t44.5 -55.5t15.5 -76q0 -73 -28.5 -128.5t-77 -87.5t-108 -48t-127.5 -16zM320 726v37l54 115h221v-44l-127 -108h-148z" />
    <glyph glyph-name="uni015B" unicode="&#x15b;" horiz-adv-x="507" 
d="M210 -9q-149 0 -239 48l31 136h97q33 -33 105 -33q17 0 29 3q12 1 12 13q0 3 -2 7q-3 3 -11 6q-10 2 -23 6q-5 2 -39 10q-67 16 -103 50.5t-36 97.5q0 57 22.5 98.5t61.5 64t83.5 32.5t97.5 10q134 0 220 -41l-31 -133h-95q-19 12 -36 20q-21 8 -56 8q-38 0 -38 -16
q0 -8 14 -13q19 -6 55 -14q77 -16 115 -47.5t38 -100.5q0 -59 -22.5 -101.5t-62.5 -66t-86 -34t-101 -10.5zM228 558v37l54 115h221v-44l-127 -108h-148z" />
    <glyph glyph-name="uni015C" unicode="&#x15c;" horiz-adv-x="608" 
d="M252 -12q-178 0 -270 67l35 156h122q18 -18 52.5 -28t64.5 -10t45 7q16 6 16 23q0 14 -20 22q-16 6 -67 21q-84 23 -125 67t-41 126q0 74 25.5 128.5t71.5 85.5t103 46t126 15q154 0 256 -64l-37 -156h-120q-40 37 -113 37q-55 0 -55 -29q0 -15 19 -22q25 -10 58 -19
q42 -11 74 -25t61 -36.5t44.5 -55.5t15.5 -76q0 -73 -28.5 -128.5t-77 -87.5t-108 -48t-127.5 -16zM237 726v41l117 111h159l78 -111v-41h-139l-35 32l-50 -32h-130z" />
    <glyph glyph-name="uni015D" unicode="&#x15d;" horiz-adv-x="507" 
d="M210 -9q-149 0 -239 48l31 136h97q33 -33 105 -33q17 0 29 3q12 1 12 13q0 3 -2 7q-3 3 -11 6q-10 2 -23 6q-5 2 -39 10q-67 16 -103 50.5t-36 97.5q0 57 22.5 98.5t61.5 64t83.5 32.5t97.5 10q134 0 220 -41l-31 -133h-95q-19 12 -36 20q-21 8 -56 8q-38 0 -38 -16
q0 -8 14 -13q19 -6 55 -14q77 -16 115 -47.5t38 -100.5q0 -59 -22.5 -101.5t-62.5 -66t-86 -34t-101 -10.5zM147 558v41l117 111h159l78 -111v-41h-139l-35 32l-50 -32h-130z" />
    <glyph glyph-name="uni015E" unicode="&#x15e;" horiz-adv-x="608" 
d="M208 -175q-59 0 -105 21l15 64h35q6 -4 10 -6q8 -2 17 -2q21 0 21 12q0 9 -17 9h-17l16 68q-129 10 -201 64l35 156h122q18 -18 52.5 -28t64.5 -10t45 7q16 6 16 23q0 14 -20 22q-16 6 -67 21q-84 23 -125 67t-41 126q0 74 25.5 128.5t71.5 85.5t103 46t126 15
q154 0 256 -64l-37 -156h-120q-40 37 -113 37q-55 0 -55 -29q0 -15 19 -22q25 -10 58 -19q42 -11 74 -25t61 -36.5t44.5 -55.5t15.5 -76q0 -70 -25.5 -123.5t-70 -86t-100 -49.5t-121.5 -20l-3 -14q67 -11 67 -62q0 -88 -132 -88z" />
    <glyph glyph-name="uni015F" unicode="&#x15f;" horiz-adv-x="507" 
d="M157 -175q-59 0 -105 21l15 64h35q6 -4 10 -6q8 -2 17 -2q21 0 21 12q0 9 -17 9h-17l16 72q-104 10 -161 44l31 136h97q33 -33 105 -33q17 0 29 3q12 1 12 13q0 3 -2 7q-3 3 -11 6q-10 2 -23 6q-5 2 -39 10q-67 16 -103 50.5t-36 97.5q0 57 22.5 98.5t61.5 64t83.5 32.5
t97.5 10q134 0 220 -41l-31 -133h-95q-19 12 -36 20q-21 8 -56 8q-38 0 -38 -16q0 -8 14 -13q19 -6 55 -14q77 -16 115 -47.5t38 -100.5q0 -108 -72 -158.5t-184 -53.5l-4 -16q67 -11 67 -62q0 -88 -132 -88z" />
    <glyph glyph-name="uni0160" unicode="&#x160;" horiz-adv-x="608" 
d="M252 -12q-178 0 -270 67l35 156h122q18 -18 52.5 -28t64.5 -10t45 7q16 6 16 23q0 14 -20 22q-16 6 -67 21q-84 23 -125 67t-41 126q0 74 25.5 128.5t71.5 85.5t103 46t126 15q154 0 256 -64l-37 -156h-120q-40 37 -113 37q-55 0 -55 -29q0 -15 19 -22q25 -10 58 -19
q42 -11 74 -25t61 -36.5t44.5 -55.5t15.5 -76q0 -73 -28.5 -128.5t-77 -87.5t-108 -48t-127.5 -16zM593 878v-41l-117 -111h-159l-78 111v41h139l35 -32l50 32h130z" />
    <glyph glyph-name="uni0161" unicode="&#x161;" horiz-adv-x="507" 
d="M210 -9q-149 0 -239 48l31 136h97q33 -33 105 -33q17 0 29 3q12 1 12 13q0 3 -2 7q-3 3 -11 6q-10 2 -23 6q-5 2 -39 10q-67 16 -103 50.5t-36 97.5q0 57 22.5 98.5t61.5 64t83.5 32.5t97.5 10q134 0 220 -41l-31 -133h-95q-19 12 -36 20q-21 8 -56 8q-38 0 -38 -16
q0 -8 14 -13q19 -6 55 -14q77 -16 115 -47.5t38 -100.5q0 -59 -22.5 -101.5t-62.5 -66t-86 -34t-101 -10.5zM225 558l-78 111v41h139l35 -32l50 32h130v-41l-117 -111h-159z" />
    <glyph glyph-name="uni0162" unicode="&#x162;" horiz-adv-x="638" 
d="M122 0l118 513h-152l43 187h579l-43 -187h-151l-118 -513h-276zM112 -243l17 70q55 3 55 18q0 5 -4 9t-14 9q-14 9 -19 18q-5 12 -5 26q0 19 9 33q22 41 91 41q42 0 67.5 -21.5t25.5 -61.5q0 -134 -223 -141z" />
    <glyph glyph-name="uni0163" unicode="&#x163;" horiz-adv-x="413" 
d="M214 -12q-107 0 -146 37q-25 21 -33 59t6 98l45 193h-46l36 155h46l28 122h258l-28 -122h74l-36 -155h-74l-39 -171q-7 -33 0 -46t36 -13h26l-33 -142q-67 -15 -120 -15zM24 -243l17 70q55 3 55 18q0 5 -4 9t-14 9q-14 9 -19 18q-5 12 -5 26q0 19 9 33q22 41 91 41
q42 0 67.5 -21.5t25.5 -61.5q0 -134 -223 -141z" />
    <glyph glyph-name="uni0168" unicode="&#x168;" horiz-adv-x="733" 
d="M352 -8q-53 0 -95.5 6t-87.5 21.5t-76 48.5t-44 82q-16 61 6 157l90 393h276l-98 -429q-11 -46 2 -65q13 -21 56 -21q37 0 54 17t27 56l101 442h229l-105 -454q-33 -139 -113.5 -196.5t-221.5 -57.5zM568 724q-42 0 -66 10t-43 10q-20 0 -29 -19h-113v46q33 122 141 122
q36 0 62 -9q24 -10 42 -10q22 0 29 19h114v-46q-37 -123 -137 -123z" />
    <glyph glyph-name="uni0169" unicode="&#x169;" horiz-adv-x="648" 
d="M553 0h-128q-92 0 -103 82q-84 -92 -187 -92q-113 0 -129 99q-6 35 6 86l82 355h189q33 0 47 -20q12 -20 0 -72l-49 -213q-6 -25 2 -39t38 -14h8l88 358h258zM461 556q-42 0 -66 10t-43 10q-20 0 -29 -19h-113v46q34 125 141 125q37 0 62 -9q24 -10 42 -10q22 0 29 19
h114v-46q-18 -59 -49.5 -92.5t-87.5 -33.5z" />
    <glyph glyph-name="uni016A" unicode="&#x16a;" horiz-adv-x="733" 
d="M352 -8q-53 0 -95.5 6t-87.5 21.5t-76 48.5t-44 82q-16 61 6 157l90 393h276l-98 -429q-11 -46 2 -65q13 -21 56 -21q37 0 54 17t27 56l101 442h229l-105 -454q-33 -139 -113.5 -196.5t-221.5 -57.5zM343 730l31 134h296l-31 -134h-296z" />
    <glyph glyph-name="uni016B" unicode="&#x16b;" horiz-adv-x="648" 
d="M553 0h-128q-92 0 -103 82q-84 -92 -187 -92q-113 0 -129 99q-6 35 6 86l82 355h189q33 0 47 -20q12 -20 0 -72l-49 -213q-6 -25 2 -39t38 -14h8l88 358h258zM235 566l31 134h296l-31 -134h-296z" />
    <glyph glyph-name="uni016C" unicode="&#x16c;" horiz-adv-x="733" 
d="M352 -8q-53 0 -95.5 6t-87.5 21.5t-76 48.5t-44 82q-16 61 6 157l90 393h276l-98 -429q-11 -46 2 -65q13 -21 56 -21q37 0 54 17t27 56l101 442h229l-105 -454q-33 -139 -113.5 -196.5t-221.5 -57.5zM500 724q-60 0 -106 28.5t-54 84.5v46h133q0 -11 9 -19q8 -9 28 -9
t29 9q9 8 14 19h123v-46q-42 -113 -176 -113z" />
    <glyph glyph-name="uni016D" unicode="&#x16d;" horiz-adv-x="648" 
d="M553 0h-128q-92 0 -103 82q-84 -92 -187 -92q-113 0 -129 99q-6 35 6 86l82 355h189q33 0 47 -20q12 -20 0 -72l-49 -213q-6 -25 2 -39t38 -14h8l88 358h258zM375 556q-63 0 -105.5 30.5t-50.5 90.5v46h134q0 -11 9 -19q8 -9 28 -9t29 9q9 8 14 19h122v-46
q-43 -121 -180 -121z" />
    <glyph glyph-name="uni016E" unicode="&#x16e;" horiz-adv-x="733" 
d="M352 -8q-53 0 -95.5 6t-87.5 21.5t-76 48.5t-44 82q-16 61 6 157l90 393h276l-98 -429q-11 -46 2 -65q13 -21 56 -21q37 0 54 17t27 56l101 442h229l-105 -454q-33 -139 -113.5 -196.5t-221.5 -57.5zM490 702q-44 0 -73.5 26.5t-29.5 69.5q0 49 35 81t84 32q45 0 74 -27
t29 -71q0 -49 -35 -80t-84 -31zM496 777q30 0 30 33q0 26 -26 26q-29 0 -29 -34q0 -25 25 -25z" />
    <glyph glyph-name="uni016F" unicode="&#x16f;" horiz-adv-x="648" 
d="M553 0h-128q-92 0 -103 82q-84 -92 -187 -92q-113 0 -129 99q-6 35 6 86l82 355h189q33 0 47 -20q12 -20 0 -72l-49 -213q-6 -25 2 -39t38 -14h8l88 358h258zM388 629q30 0 30 33q0 26 -26 26q-29 0 -29 -34q0 -25 25 -25zM382 554q-44 0 -73.5 26.5t-29.5 69.5
q0 49 35 81t84 32q45 0 74 -27t29 -71q0 -49 -35 -80t-84 -31z" />
    <glyph glyph-name="uni0170" unicode="&#x170;" horiz-adv-x="733" 
d="M352 -8q-53 0 -95.5 6t-87.5 21.5t-76 48.5t-44 82q-16 61 6 157l90 393h276l-98 -429q-11 -46 2 -65q13 -21 56 -21q37 0 54 17t27 56l101 442h229l-105 -454q-33 -139 -113.5 -196.5t-221.5 -57.5zM299 726v30l43 122h184v-42l-96 -110h-131zM517 726v30l42 122h184
v-42l-96 -110h-130z" />
    <glyph glyph-name="uni0171" unicode="&#x171;" horiz-adv-x="648" 
d="M553 0h-128q-92 0 -103 82q-84 -92 -187 -92q-113 0 -129 99q-6 35 6 86l82 355h189q33 0 47 -20q12 -20 0 -72l-49 -213q-6 -25 2 -39t38 -14h8l88 358h258zM212 558v30l43 122h174v-42l-96 -110h-121zM420 558v30l42 122h174v-42l-96 -110h-120z" />
    <glyph glyph-name="uni0172" unicode="&#x172;" horiz-adv-x="733" 
d="M319 -171q-22 0 -42 3t-41.5 10.5t-34.5 23.5t-13 39q0 19 9 32q16 33 86 58q-209 15 -237 171q-10 57 9 141l90 393h276l-98 -429q-11 -46 2 -65q13 -21 56 -21q37 0 54 17t27 56l101 442h229l-105 -454q-23 -102 -75 -163t-147 -80q-70 -13 -70 -43q0 -19 29 -19h13
l-22 -96q-21 -7 -36 -11q-27 -5 -60 -5z" />
    <glyph glyph-name="uni0173" unicode="&#x173;" horiz-adv-x="648" 
d="M431 -171q-22 0 -42 3t-42 10.5t-35 23.5t-13 39q0 38 37 62q32 23 76 33q-26 2 -50 16t-32 37q-7 15 -8 29q-84 -92 -187 -92q-113 0 -129 99q-6 35 6 86l82 355h189q33 0 47 -20q12 -20 0 -72l-49 -213q-6 -25 2 -39t38 -14h8l88 358h258l-122 -530q-19 -7 -33 -20
q-14 -11 -14 -23q0 -16 29 -16h13l-22 -96q-21 -7 -36 -11q-27 -5 -59 -5z" />
    <glyph glyph-name="uni0174" unicode="&#x174;" horiz-adv-x="1014" 
d="M117 0l-11 647v53h274l-15 -353h3l150 353h200l3 -353h3l142 353h226v-53l-299 -647h-266l-5 301h-3l-140 -301h-262zM447 726v41l117 111h159l78 -111v-41h-139l-35 32l-50 -32h-130z" />
    <glyph glyph-name="uni0175" unicode="&#x175;" horiz-adv-x="879" 
d="M95 0l-29 480v50h252l-6 -238h3l112 238h176l2 -238h3l105 238h210v-50l-250 -480h-233l-7 207h-3l-105 -207h-230zM346 558v41l117 111h159l78 -111v-41h-139l-35 32l-50 -32h-130z" />
    <glyph glyph-name="uni0176" unicode="&#x176;" horiz-adv-x="700" 
d="M156 0l56 244l-113 403v53h261l51 -218h3l142 218h225v-53l-295 -413l-54 -234h-276zM287 726v41l117 111h159l78 -111v-41h-139l-35 32l-50 -32h-130z" />
    <glyph glyph-name="uni0177" unicode="&#x177;" horiz-adv-x="622" 
d="M28 -162v47l106 150l-69 448v47h251l17 -226h4l115 226h217v-47l-392 -645h-249zM216 558v41l117 111h159l78 -111v-41h-139l-35 32l-50 -32h-130z" />
    <glyph glyph-name="uni0178" unicode="&#x178;" horiz-adv-x="700" 
d="M156 0l56 244l-113 403v53h261l51 -218h3l142 218h225v-53l-295 -413l-54 -234h-276zM362 722q-42 0 -70.5 20t-28.5 60q0 51 31.5 79.5t83.5 28.5q45 0 73 -21q27 -23 27 -62q0 -50 -32.5 -77.5t-83.5 -27.5zM596 722q-42 0 -70.5 20t-28.5 60q0 51 31.5 79.5t83.5 28.5
q44 0 73 -21q27 -23 27 -62q0 -50 -32.5 -77.5t-83.5 -27.5z" />
    <glyph glyph-name="uni0179" unicode="&#x179;" horiz-adv-x="624" 
d="M-26 0l43 187l317 325v4h-226l42 184h543l-45 -197l-317 -315v-4h243l-42 -184h-558zM334 726v37l54 115h221v-44l-127 -108h-148z" />
    <glyph glyph-name="uni017A" unicode="&#x17a;" horiz-adv-x="544" 
d="M-36 0l39 169l234 189h-185l40 172h498l-40 -174l-235 -189h193l-38 -167h-506zM254 558v37l54 115h221v-44l-127 -108h-148z" />
    <glyph glyph-name="uni017B" unicode="&#x17b;" horiz-adv-x="624" 
d="M-26 0l43 187l317 325v4h-226l42 184h543l-45 -197l-317 -315v-4h243l-42 -184h-558zM436 722q-47 0 -81.5 21.5t-34.5 65.5q0 56 38 86t95 30q49 0 83 -21.5t34 -68.5q0 -55 -38.5 -84t-95.5 -29z" />
    <glyph glyph-name="uni017C" unicode="&#x17c;" horiz-adv-x="544" 
d="M-36 0l39 169l234 189h-185l40 172h498l-40 -174l-235 -189h193l-38 -167h-506zM355 542q-47 0 -81.5 21.5t-34.5 65.5q0 56 38 86t95 30q49 0 83 -21.5t34 -68.5q0 -55 -38.5 -84t-95.5 -29z" />
    <glyph glyph-name="uni017D" unicode="&#x17d;" horiz-adv-x="624" 
d="M-26 0l43 187l317 325v4h-226l42 184h543l-45 -197l-317 -315v-4h243l-42 -184h-558zM617 878v-41l-117 -111h-159l-78 111v41h139l35 -32l50 32h130z" />
    <glyph glyph-name="uni017E" unicode="&#x17e;" horiz-adv-x="544" 
d="M-36 0l39 169l234 189h-185l40 172h498l-40 -174l-235 -189h193l-38 -167h-506zM261 558l-78 111v41h139l35 -32l50 32h130v-41l-117 -111h-159z" />
    <glyph glyph-name="uni01FA" unicode="&#x1fa;" horiz-adv-x="754" 
d="M-34 0v53l351 647h319l61 -647v-53h-273l-3 113h-189l-55 -113h-211zM411 477l-90 -183h97l-4 183h-3zM493 722q-44 0 -73.5 26.5t-29.5 69.5q0 49 35 81t84 32q45 0 74 -27t29 -71q0 -49 -35 -80t-84 -31zM499 797q30 0 30 33q0 26 -26 26q-29 0 -29 -34q0 -25 25 -25z
M443 949v37l54 115h221v-44l-127 -108h-148z" />
    <glyph glyph-name="uni01FB" unicode="&#x1fb;" horiz-adv-x="606" 
d="M515 0h-129q-80 0 -98 61q-63 -69 -151 -69q-63 0 -103 34.5t-40 96.5q0 186 248 186q16 0 44 -2q25 -4 40 -5q4 30 -9 45q-14 14 -53 14q-34 0 -60 -6q-32 -9 -41 -14h-86l38 163q104 36 235 36q140 0 202 -54t36 -168zM265 127q11 0 22 6l17 74q-11 3 -25 3
q-40 0 -40 -54q0 -29 26 -29zM378 629q30 0 30 33q0 26 -26 26q-29 0 -29 -34q0 -25 25 -25zM372 554q-44 0 -73.5 26.5t-29.5 69.5q0 49 35 81t84 32q45 0 74 -27t29 -71q0 -49 -35 -80t-84 -31zM320 776v37l54 115h221v-44l-127 -108h-148z" />
    <glyph glyph-name="uni0218" unicode="&#x218;" horiz-adv-x="608" 
d="M252 -12q-178 0 -270 67l35 156h122q18 -18 52.5 -28t64.5 -10t45 7q16 6 16 23q0 14 -20 22q-16 6 -67 21q-84 23 -125 67t-41 126q0 74 25.5 128.5t71.5 85.5t103 46t126 15q154 0 256 -64l-37 -156h-120q-40 37 -113 37q-55 0 -55 -29q0 -15 19 -22q25 -10 58 -19
q42 -11 74 -25t61 -36.5t44.5 -55.5t15.5 -76q0 -73 -28.5 -128.5t-77 -87.5t-108 -48t-127.5 -16zM94 -243l17 70q55 3 55 18q0 5 -4 9t-14 9q-14 9 -19 18q-5 12 -5 26q0 19 9 33q22 41 91 41q42 0 67.5 -21.5t25.5 -61.5q0 -134 -223 -141z" />
    <glyph glyph-name="uni0219" unicode="&#x219;" horiz-adv-x="507" 
d="M210 -9q-149 0 -239 48l31 136h97q33 -33 105 -33q17 0 29 3q12 1 12 13q0 3 -2 7q-3 3 -11 6q-10 2 -23 6q-5 2 -39 10q-67 16 -103 50.5t-36 97.5q0 57 22.5 98.5t61.5 64t83.5 32.5t97.5 10q134 0 220 -41l-31 -133h-95q-19 12 -36 20q-21 8 -56 8q-38 0 -38 -16
q0 -8 14 -13q19 -6 55 -14q77 -16 115 -47.5t38 -100.5q0 -59 -22.5 -101.5t-62.5 -66t-86 -34t-101 -10.5zM43 -243l17 70q55 3 55 18q0 5 -4 9t-14 9q-14 9 -19 18q-5 12 -5 26q0 19 9 33q22 41 91 41q42 0 67.5 -21.5t25.5 -61.5q0 -134 -223 -141z" />
    <glyph glyph-name="uni0401" unicode="&#x401;" horiz-adv-x="617" 
d="M-14 0l161 700h525l-42 -182h-249l-19 -82h171l-39 -170h-171l-20 -89h264l-41 -177h-540zM301 722q-42 0 -70.5 20t-28.5 60q0 51 31.5 79.5t83.5 28.5q45 0 73 -21q27 -23 27 -62q0 -50 -32.5 -77.5t-83.5 -27.5zM535 722q-42 0 -70.5 20t-28.5 60q0 51 31.5 79.5
t83.5 28.5q45 0 73 -21q27 -23 27 -62q0 -50 -32.5 -77.5t-83.5 -27.5z" />
    <glyph glyph-name="uni0403" unicode="&#x403;" horiz-adv-x="577" 
d="M-14 0l161 700h505l-42 -182h-229l-118 -518h-277zM324 725v37l54 115h221v-44l-127 -108h-148z" />
    <glyph glyph-name="uni040E" unicode="&#x40e;" horiz-adv-x="691" 
d="M226 -10q-83 0 -121 27l34 146h39q54 0 83 34l-162 450v53h261l60 -266l129 266h227v-53l-282 -475q-54 -93 -113.5 -137.5t-154.5 -44.5zM443 716q-63 0 -105.5 30.5t-50.5 90.5v46h134q0 -11 9 -19q8 -9 28 -9t29 9q9 8 14 19h122v-46q-43 -121 -180 -121z" />
    <glyph glyph-name="uni0410" unicode="&#x410;" horiz-adv-x="754" 
d="M-34 0v53l351 647h319l61 -647v-53h-273l-3 113h-189l-55 -113h-211zM411 477l-90 -183h97l-4 183h-3z" />
    <glyph glyph-name="uni0411" unicode="&#x411;" horiz-adv-x="681" 
d="M658 245q0 -53 -17.5 -95t-47 -70t-70 -46t-84 -26t-91.5 -8h-362l161 700h544l-41 -181h-270l-19 -79h40q51 0 95.5 -10.5t81.5 -32t58.5 -60.5t21.5 -92zM295 155h34q33 0 51 20.5t18 53.5q0 57 -58 57h-14z" />
    <glyph glyph-name="uni0412" unicode="&#x412;" horiz-adv-x="685" 
d="M-14 0l161 700h290q47 0 88.5 -6.5t83.5 -23t66.5 -50.5t24.5 -83q0 -77 -39.5 -116t-116.5 -58v-4q121 -25 121 -131q0 -54 -22.5 -95.5t-57 -66t-82.5 -40t-93 -21t-94 -5.5h-330zM355 427h19q70 0 70 71q0 41 -45 41h-18zM293 156h30q34 0 52 18q22 19 22 64
q0 44 -51 44h-24z" />
    <glyph glyph-name="uni0413" unicode="&#x413;" horiz-adv-x="577" 
d="M-14 0l161 700h505l-42 -182h-229l-118 -518h-277z" />
    <glyph glyph-name="uni0414" unicode="&#x414;" horiz-adv-x="824" 
d="M304 196h128l70 308h-99q-19 -86 -37 -148q-33 -115 -62 -160zM187 0l-51 -140h-216l76 336h41q43 8 91 165q25 92 58 218q20 80 29 121h609l-116 -504h90l-78 -336h-216l13 140h-330z" />
    <glyph glyph-name="uni0415" unicode="&#x415;" horiz-adv-x="617" 
d="M-14 0l161 700h525l-42 -182h-249l-19 -82h171l-39 -170h-171l-20 -89h264l-41 -177h-540z" />
    <glyph glyph-name="uni0416" unicode="&#x416;" horiz-adv-x="1151" 
d="M383 0l59 255h-4l-209 -255h-274v44l294 346l-106 266v44h265l74 -250h5l57 250h276l-57 -249h3l190 249h260v-44l-248 -300l118 -312v-44h-273l-92 255h-3l-59 -255h-276z" />
    <glyph glyph-name="uni0417" unicode="&#x417;" horiz-adv-x="591" 
d="M251 -13q-71 0 -148 15t-123 47l38 165h103q30 -46 94 -46q31 0 52.5 13t21.5 42q0 24 -16 34q-17 9 -50 9h-60l37 161h58q81 0 81 51q0 42 -68 42q-50 0 -88 -32h-98l42 184q87 41 219 41q50 0 92.5 -8t82.5 -27.5t62.5 -56.5t22.5 -90q0 -146 -165 -186v-3
q62 -14 93 -46.5t31 -93.5q0 -59 -29.5 -103t-77.5 -67t-100 -34t-107 -11z" />
    <glyph glyph-name="uni0418" unicode="&#x418;" horiz-adv-x="763" 
d="M-14 0l161 700h271l-77 -329h3l200 329h276l-161 -700h-271l78 335h-3l-201 -335h-276z" />
    <glyph glyph-name="uni0419" unicode="&#x419;" horiz-adv-x="763" 
d="M485 724q-63 0 -105.5 30.5t-50.5 90.5v46h134q0 -12 9 -19q8 -9 28 -9t29 9q9 8 14 19h122v-46q-43 -121 -180 -121zM-14 0l161 700h271l-77 -329h3l200 329h276l-161 -700h-271l78 335h-3l-201 -335h-276z" />
    <glyph glyph-name="uni041A" unicode="&#x41a;" horiz-adv-x="769" 
d="M431 0l-100 255h-10l-59 -255h-276l161 700h276l-57 -249h11l197 249h260v-44l-255 -300l125 -312v-44h-273z" />
    <glyph glyph-name="uni041B" unicode="&#x41b;" horiz-adv-x="748" 
d="M483 504h-84q-11 -38 -25 -97q-23 -92 -51 -190q-31 -109 -91 -168t-165 -59q-80 0 -107 27l41 168h17q34 0 52 35q17 33 37 97q37 125 69 257q24 92 31 126h598l-161 -700h-276z" />
    <glyph glyph-name="uni041C" unicode="&#x41c;" horiz-adv-x="943" 
d="M-14 0l161 700h331l11 -298h3l150 298h358l-161 -700h-266l90 393h-3l-199 -393h-149l-17 393h-3l-90 -393h-216z" />
    <glyph glyph-name="uni041D" unicode="&#x41d;" horiz-adv-x="758" 
d="M-14 0l161 700h276l-57 -249h116l57 249h276l-161 -700h-276l58 255h-116l-58 -255h-276z" />
    <glyph glyph-name="uni041E" unicode="&#x41e;" horiz-adv-x="778" 
d="M351 -12q-144 0 -233.5 75t-89.5 213q0 189 121 313t307 124q148 0 236.5 -77.5t88.5 -219.5q0 -186 -123 -307t-307 -121zM368 172q35 0 63 27.5t43.5 69t23.5 82.5t8 76q0 37 -14 64.5t-48 27.5q-36 0 -64.5 -27.5t-44.5 -69t-24 -83t-8 -76.5q0 -38 15 -64.5t50 -26.5
z" />
    <glyph glyph-name="uni041F" unicode="&#x41f;" horiz-adv-x="758" 
d="M-14 0l161 700h668l-161 -700h-276l115 504h-116l-115 -504h-276z" />
    <glyph glyph-name="uni0420" unicode="&#x420;" horiz-adv-x="681" 
d="M-14 0l161 700h287q61 0 106.5 -7.5t87.5 -27.5t64.5 -62t22.5 -104q0 -76 -28 -132t-77.5 -88t-110 -47t-133.5 -15h-54l-50 -217h-276zM344 385h34q32 0 56 30q18 27 18 67q0 49 -46 49h-28z" />
    <glyph glyph-name="uni0421" unicode="&#x421;" horiz-adv-x="673" 
d="M363 -12q-153 0 -244 73.5t-91 218.5q0 200 133 316t333 116q141 0 235 -52l-39 -172h-117q-33 33 -95 33q-56 0 -96 -42.5t-56 -96.5t-16 -109q0 -101 100 -101q64 0 106 42h112l-40 -179q-90 -47 -225 -47z" />
    <glyph glyph-name="uni0422" unicode="&#x422;" horiz-adv-x="638" 
d="M122 0l118 513h-152l43 187h579l-43 -187h-151l-118 -513h-276z" />
    <glyph glyph-name="uni0423" unicode="&#x423;" horiz-adv-x="691" 
d="M226 -10q-83 0 -121 27l34 146h39q54 0 83 34l-162 450v53h261l60 -266l129 266h227v-53l-282 -475q-54 -93 -113.5 -137.5t-154.5 -44.5z" />
    <glyph glyph-name="uni0424" unicode="&#x424;" horiz-adv-x="977" 
d="M341 247h6l53 229h-3q-27 0 -46 -12q-61 -42 -61 -142q0 -28 12.5 -51.5t38.5 -23.5zM676 475h-6l-53 -229h3q27 0 46 13q61 38 61 141q0 38 -15 57q-16 18 -36 18zM594 76h-16l-20 -86h-271l20 87q-119 3 -195.5 65.5t-76.5 176.5q0 70 20.5 126t56 93t85 61.5
t105.5 35.5t121 11h16l15 64h271l-15 -65q124 -3 198 -64t74 -179q0 -87 -31 -151.5t-85.5 -101.5t-122.5 -55t-149 -18z" />
    <glyph glyph-name="uni0425" unicode="&#x425;" horiz-adv-x="745" 
d="M-33 0v53l239 306l-92 288v53h277l50 -191l132 191h236v-53l-224 -283l101 -311v-53h-278l-60 211l-146 -211h-235z" />
    <glyph glyph-name="uni0426" unicode="&#x426;" horiz-adv-x="815" 
d="M712 -140h-216l13 140h-523l161 700h276l-115 -504h116l115 504h276l-116 -504h91z" />
    <glyph glyph-name="uni0427" unicode="&#x427;" horiz-adv-x="725" 
d="M621 0h-276l59 256q-49 -19 -114 -19q-85 0 -144 38.5t-73 117.5q-10 50 5 116l42 191h276l-52 -219q-10 -40 3 -61q12 -22 44 -22q9 0 25 2q4 1 11.5 2.5t10.5 1.5l68 296h276z" />
    <glyph glyph-name="uni0428" unicode="&#x428;" horiz-adv-x="1092" 
d="M-14 0l161 700h271l-115 -504h95l116 504h268l-115 -504h95l116 504h271l-161 -700h-1002z" />
    <glyph glyph-name="uni0429" unicode="&#x429;" horiz-adv-x="1149" 
d="M1046 -140h-216l13 140h-857l161 700h271l-115 -504h95l116 504h268l-115 -504h96l115 504h271l-116 -504h91z" />
    <glyph glyph-name="uni042A" unicode="&#x42a;" horiz-adv-x="811" 
d="M482 0h-362l118 514h-160l44 186h434l-56 -240h39q53 0 97.5 -11t81 -34t57.5 -64t21 -96q0 -66 -26.5 -116.5t-71.5 -80t-99.5 -44t-116.5 -14.5zM429 155h22q85 0 85 92q0 59 -58 59h-14z" />
    <glyph glyph-name="uni042B" unicode="&#x42b;" horiz-adv-x="1012" 
d="M348 0h-362l161 700h275l-56 -240h39q53 0 97.5 -11t81 -34t57.5 -64t21 -96q0 -66 -26.5 -116.5t-71.5 -80t-99.5 -44t-116.5 -14.5zM295 155h22q85 0 85 92q0 59 -58 59h-14zM632 0l161 700h276l-161 -700h-276z" />
    <glyph glyph-name="uni042C" unicode="&#x42c;" horiz-adv-x="677" 
d="M348 0h-362l161 700h275l-56 -240h39q53 0 97.5 -11t81 -34t57.5 -64t21 -96q0 -66 -26.5 -116.5t-71.5 -80t-99.5 -44t-116.5 -14.5zM295 155h22q85 0 85 92q0 59 -58 59h-14z" />
    <glyph glyph-name="uni042D" unicode="&#x42d;" horiz-adv-x="682" 
d="M215 -12q-125 0 -191 31q-24 10 -44 21l39 172h117q33 -33 95 -33q87 0 140 89h-204l42 176h195q-15 84 -105 84q-64 0 -106 -42h-112l40 179q90 47 225 47q155 0 247 -72.5t92 -219.5q0 -101 -37.5 -184t-102 -136.5t-149 -82.5t-181.5 -29z" />
    <glyph glyph-name="uni042E" unicode="&#x42e;" horiz-adv-x="1116" 
d="M689 -12q-133 0 -226.5 70.5t-96.5 196.5h-46l-58 -255h-276l161 700h276l-57 -249h35q50 126 153.5 194t239.5 68q144 0 234.5 -74t90.5 -212q0 -190 -121.5 -314.5t-308.5 -124.5zM706 172q35 0 63 27.5t43.5 69t23.5 82.5t8 76q0 37 -14 64.5t-48 27.5
q-36 0 -64.5 -27.5t-44.5 -69t-24 -83t-8 -76.5q0 -38 15 -64.5t50 -26.5z" />
    <glyph glyph-name="uni042F" unicode="&#x42f;" horiz-adv-x="725" 
d="M414 384h21l33 143h-31q-80 0 -80 -82q0 -61 57 -61zM346 0l53 230h-11l-156 -230h-257v54l196 245q-78 50 -78 154q0 82 44.5 140t110.5 82.5t145 24.5h389l-161 -700h-275z" />
    <glyph glyph-name="uni0430" unicode="&#x430;" horiz-adv-x="606" 
d="M265 127q11 0 22 6l17 74q-11 3 -25 3q-40 0 -40 -54q0 -29 26 -29zM515 0h-129q-80 0 -98 61q-63 -69 -151 -69q-63 0 -103 34.5t-40 96.5q0 186 248 186q16 0 44 -2q25 -4 40 -5q5 32 -8 45q-14 14 -54 14q-34 0 -60 -6q-32 -9 -41 -14h-86l38 163q104 36 235 36
q140 0 202 -54t36 -168z" />
    <glyph glyph-name="uni0431" unicode="&#x431;" horiz-adv-x="639" 
d="M281 -10q-125 0 -194.5 67.5t-69.5 191.5v4q0 206 115 313.5t318 118.5q21 1 54 5q9 1 23.5 2.5t18.5 1.5q21 3 39 6h51l-35 -170q-72 -17 -154 -20q-43 -2 -73 -8t-60 -27t-43 -58q65 50 161 50q89 0 136.5 -46.5t47.5 -132.5q0 -142 -96 -220t-239 -78zM294 142
q14 0 28 14q18 20 29 53t11 63q0 18 -1.5 28t-10.5 19t-26 9q-24 0 -44 -20q-17 -50 -17 -109q0 -17 1 -26.5t8.5 -20t21.5 -10.5z" />
    <glyph glyph-name="uni0432" unicode="&#x432;" horiz-adv-x="645" 
d="M104 530h318q36 0 68 -5t64.5 -17.5t51.5 -38.5t19 -64q0 -54 -31 -88.5t-84 -41.5l-1 -4q44 -9 70.5 -34.5t26.5 -67.5q0 -85 -63 -127t-153 -42h-407zM310 324h15q52 0 52 44q0 12 -8 22q-10 8 -29 8h-14zM264 132h19q59 0 59 44q0 16 -9 26q-10 10 -34 10h-17z" />
    <glyph glyph-name="uni0433" unicode="&#x433;" horiz-adv-x="468" 
d="M480 374h-153l-86 -374h-258l122 530h413z" />
    <glyph glyph-name="uni0434" unicode="&#x434;" horiz-adv-x="703" 
d="M272 156h86l50 218h-64q0 -1 -5 -20t-8 -29q-2 -7 -6.5 -23.5t-7.5 -26.5q-19 -71 -45 -119zM186 0l-39 -120h-212l64 276h31q33 17 59 91q28 79 53 180q5 19 13.5 54t12.5 49h534l-86 -374h60l-64 -276h-212l17 120h-231z" />
    <glyph glyph-name="uni0435" unicode="&#x435;" horiz-adv-x="598" 
d="M336 388q-40 0 -58 -70h86q1 2 1.5 5.5t0.5 5.5v13q0 16 -1 23.5t-8 15t-21 7.5zM544 171l-32 -135q-87 -46 -212 -46q-127 0 -207.5 52.5t-79.5 171.5q0 150 94 236.5t243 89.5q170 0 223 -112q20 -42 19 -102q-2 -38 -4 -58q-6 -34 -14 -59h-308q6 -60 83 -60
q55 0 112 22h83z" />
    <glyph glyph-name="uni0436" unicode="&#x436;" horiz-adv-x="959" 
d="M294 0l42 184h-4l-138 -184h-228v49l198 252l-54 176v53h220l37 -190h5l44 190h258l-44 -190h4l125 190h222v-53l-155 -203l74 -225v-49h-248l-54 184h-4l-42 -184h-258z" />
    <glyph glyph-name="uni0437" unicode="&#x437;" horiz-adv-x="546" 
d="M59 349l35 153q54 38 219 38q52 0 97 -9.5t83 -41.5t38 -84q0 -55 -34 -87.5t-91 -39.5l-1 -4q50 -6 76 -33q24 -29 24 -72q0 -50 -25.5 -87t-67 -56t-85.5 -27.5t-91 -8.5q-98 0 -159 13q-49 8 -87 27l36 155h90q20 -20 76 -20q51 0 51 22q0 11 -9 15q-9 3 -25 3h-75
l30 132h68q37 0 37 19t-45 19q-18 0 -43 -7.5t-36 -18.5h-86z" />
    <glyph glyph-name="uni0438" unicode="&#x438;" horiz-adv-x="676" 
d="M440 530h256l-122 -530h-248l59 256h-2l-141 -256h-259l122 530h248l-62 -269h2z" />
    <glyph glyph-name="uni0439" unicode="&#x439;" horiz-adv-x="676" 
d="M440 530h256l-122 -530h-248l59 256h-2l-141 -256h-259l122 530h248l-62 -269h2zM390 556q-63 0 -105.5 30.5t-50.5 90.5v46h134q0 -11 9 -19q8 -9 28 -9t29 9q9 8 14 19h122v-46q-43 -121 -180 -121z" />
    <glyph glyph-name="uni043A" unicode="&#x43a;" horiz-adv-x="656" 
d="M353 0l-61 184h-9l-42 -184h-258l122 530h258l-44 -190h10l131 190h222v-53l-158 -203l77 -225v-49h-248z" />
    <glyph glyph-name="uni043B" unicode="&#x43b;" horiz-adv-x="667" 
d="M307 0l86 374h-54l-13 -52q-5 -20 -15 -55q-3 -12 -10 -35.5t-10 -32.5q-31 -102 -83 -155.5t-148 -53.5q-89 0 -110 21l39 172h14q10 0 19 4q18 6 37 42q21 46 44 129q4 14 11 41.5t11 40.5l22 90h540l-122 -530h-258z" />
    <glyph glyph-name="uni043C" unicode="&#x43c;" horiz-adv-x="855" 
d="M-11 0l121 530h307l31 -192h3l107 192h317l-122 -530h-258l56 243h-2l-136 -243h-158l-24 244h-2l-56 -244h-184z" />
    <glyph glyph-name="uni043D" unicode="&#x43d;" horiz-adv-x="666" 
d="M306 0l42 184h-65l-42 -184h-258l122 530h258l-44 -190h65l44 190h173q51 0 62 -26t0 -72l-99 -432h-258z" />
    <glyph glyph-name="uni043E" unicode="&#x43e;" horiz-adv-x="627" 
d="M284 -10q-120 0 -196 58t-76 172q0 148 95.5 234t242.5 86q120 0 195.5 -59t75.5 -172q0 -148 -95 -233.5t-242 -85.5zM295 141q19 0 33.5 22t22.5 53.5t12 60.5t4 49q0 48 -29 48q-26 0 -44 -38t-24 -77.5t-6 -69.5q0 -48 31 -48z" />
    <glyph glyph-name="uni043F" unicode="&#x43f;" horiz-adv-x="666" 
d="M392 374h-65l-86 -374h-258l122 530h581l-122 -530h-258z" />
    <glyph glyph-name="uni0440" unicode="&#x440;" horiz-adv-x="651" 
d="M298 153q31 0 50.5 28t25 58.5t5.5 61.5t-12 43t-43 12q-7 0 -9 -1q-1 -3 -1 -10q0 -1 -1 -5t-2 -5l-41 -177q12 -5 28 -5zM368 3q-84 0 -125 37l-47 -202h-258l160 692h129q49 0 73 -17.5t25 -64.5q74 92 172 92q79 0 114.5 -54t35.5 -136q0 -141 -73 -244t-206 -103z
" />
    <glyph glyph-name="uni0441" unicode="&#x441;" horiz-adv-x="530" 
d="M286 -10q-121 0 -197.5 51.5t-76.5 166.5q0 154 104.5 243t258.5 89q110 0 186 -40l-36 -155h-90q-20 20 -52 20q-52 0 -80.5 -43t-28.5 -98q0 -69 63 -69q43 0 69 26h86l-35 -153q-27 -19 -77.5 -28.5t-93.5 -9.5z" />
    <glyph glyph-name="uni0442" unicode="&#x442;" horiz-adv-x="524" 
d="M413 374l-86 -374h-258l86 374h-125l36 156h508l-38 -156h-123z" />
    <glyph glyph-name="uni0443" unicode="&#x443;" horiz-adv-x="622" 
d="M28 -162v47l106 150l-69 448v47h251l17 -226h4l115 226h217v-47l-392 -645h-249z" />
    <glyph glyph-name="uni0444" unicode="&#x444;" horiz-adv-x="916" 
d="M663 310q0 80 -47 80l-56 -248q52 0 77.5 54t25.5 114zM259 218q0 -80 47 -80l57 248q-37 0 -61.5 -30t-33.5 -65.5t-9 -72.5zM910 308q0 -83 -31.5 -146t-86 -100t-122 -55.5t-146.5 -18.5l-34 -150h-253l35 152q-119 4 -189.5 59.5t-70.5 170.5q0 82 31.5 145t86 100.5
t122 56t146.5 18.5l37 160h168q46 0 61 -27q6 -13 6 -31q0 -15 -5 -40l-15 -64q260 -9 260 -230z" />
    <glyph glyph-name="uni0445" unicode="&#x445;" horiz-adv-x="642" 
d="M-39 0v50l187 236l-80 194v50h256l36 -127l85 127h211v-50l-158 -205l86 -225v-50h-256l-42 135l-98 -135h-227z" />
    <glyph glyph-name="uni0446" unicode="&#x446;" horiz-adv-x="687" 
d="M596 -120h-212l17 120h-418l122 530h258l-86 -374h65l86 374h173q51 0 62 -26t0 -72l-63 -276h60z" />
    <glyph glyph-name="uni0447" unicode="&#x447;" horiz-adv-x="651" 
d="M549 0h-258l48 211q-73 -66 -171 -66q-74 0 -107 49q-19 23 -23 57q-6 34 4 76l48 203h173q48 0 61 -25q12 -25 1 -73l-18 -83q-7 -33 19 -33q21 0 43 22l44 192h258z" />
    <glyph glyph-name="uni0448" unicode="&#x448;" horiz-adv-x="969" 
d="M-17 0l122 530h258l-86 -374h55l86 374h258l-86 -374h55l86 374h173q51 0 62 -26q10 -26 0 -72l-99 -432h-884z" />
    <glyph glyph-name="uni0449" unicode="&#x449;" horiz-adv-x="990" 
d="M899 -120h-212l17 120h-721l122 530h258l-86 -374h55l86 374h258l-86 -374h55l86 374h173q51 0 62 -26q10 -26 0 -72l-63 -276h60z" />
    <glyph glyph-name="uni044A" unicode="&#x44a;" horiz-adv-x="715" 
d="M439 0h-370l86 374h-125l36 156h383l-36 -154h49q61 0 109.5 -14t83.5 -52.5t35 -98.5q0 -103 -73 -157t-178 -54zM379 239l-24 -102h23q55 0 55 58q0 44 -43 44h-11z" />
    <glyph glyph-name="uni044B" unicode="&#x44b;" horiz-adv-x="936" 
d="M363 530l-36 -154h49q61 0 109.5 -14t83.5 -52.5t35 -98.5q0 -103 -73 -157t-178 -54h-370l122 530h258zM293 239l-24 -102h23q55 0 55 58q0 44 -43 44h-11zM576 0l122 530h173q51 0 62 -26t0 -72l-99 -432h-258z" />
    <glyph glyph-name="uni044C" unicode="&#x44c;" horiz-adv-x="622" 
d="M356 530l-36 -154h49q61 0 109.5 -14t83.5 -52.5t35 -98.5q0 -103 -73 -157t-178 -54h-370l122 530h258zM286 239l-24 -102h23q55 0 55 58q0 44 -43 44h-11z" />
    <glyph glyph-name="uni044D" unicode="&#x44d;" horiz-adv-x="550" 
d="M181 -10q-111 0 -186 40l36 155h90q20 -20 52 -20q47 0 82 32h-117l34 143h115q-16 35 -68 35q-43 0 -69 -26h-86l35 153q55 38 171 38q123 0 198.5 -54t75.5 -169q0 -151 -105.5 -239t-257.5 -88z" />
    <glyph glyph-name="uni044E" unicode="&#x44e;" horiz-adv-x="923" 
d="M580 -10q-105 0 -175 47.5t-81 146.5h-41l-42 -184h-258l122 530h173q51 0 62 -26q10 -26 0 -72l-21 -92h23q34 99 115.5 149.5t188.5 50.5q120 0 195.5 -59t75.5 -172q0 -148 -95 -233.5t-242 -85.5zM591 141q19 0 33.5 22t22.5 53.5t12 60.5t4 49q0 48 -29 48
q-26 0 -44 -38t-24 -77.5t-6 -69.5q0 -48 31 -48z" />
    <glyph glyph-name="uni044F" unicode="&#x44f;" horiz-adv-x="662" 
d="M396 393h-17q-61 0 -61 -58q0 -44 43 -44h11zM337 160h-7l-108 -160h-247v40l149 177q-63 37 -63 118q0 53 21 92t57.5 60.5t79.5 32t93 10.5h370l-122 -530h-258z" />
    <glyph glyph-name="uni0451" unicode="&#x451;" horiz-adv-x="598" 
d="M337 389q-41 0 -58 -70h86q1 2 1.5 5.5t0.5 5.5v13q0 16 -1 23.5t-8 15t-21 7.5zM545 172l-32 -135q-87 -46 -212 -46q-127 0 -207.5 52.5t-79.5 171.5q0 150 94 236.5t243 89.5q170 0 223 -112q20 -42 19 -102q-2 -38 -4 -58q-6 -34 -14 -59h-308q6 -60 83 -60
q55 0 112 22h83zM233 547q-42 0 -70.5 20t-28.5 60q0 51 31.5 79.5t83.5 28.5q45 0 73 -21q27 -22 27 -62q0 -50 -32.5 -77.5t-83.5 -27.5zM467 547q-42 0 -70.5 20t-28.5 60q0 51 31.5 79.5t83.5 28.5q45 0 73 -21q27 -22 27 -62q0 -50 -32.5 -77.5t-83.5 -27.5z" />
    <glyph glyph-name="uni0453" unicode="&#x453;" horiz-adv-x="458" 
d="M470 374h-143l-86 -374h-258l122 530h403zM224 558v37l54 115h221v-44l-127 -108h-148z" />
    <glyph glyph-name="uni045E" unicode="&#x45e;" horiz-adv-x="622" 
d="M383 556q-63 0 -105.5 30.5t-50.5 90.5v46h134q0 -11 9 -19q8 -9 28 -9t29 9q9 8 14 19h122v-46q-43 -121 -180 -121zM28 -162v47l106 150l-69 448v47h251l17 -226h4l115 226h217v-47l-392 -645h-249z" />
    <glyph glyph-name="uni0490" unicode="&#x490;" horiz-adv-x="588" 
d="M381 518l-118 -518h-277l161 700h272l53 154h216l-76 -336h-231z" />
    <glyph glyph-name="uni1E80" unicode="&#x1e80;" horiz-adv-x="1014" 
d="M117 0l-11 647v53h274l-15 -353h3l150 353h200l3 -353h3l142 353h226v-53l-299 -647h-266l-5 301h-3l-140 -301h-262zM700 726h-157l-102 108v44h216l43 -115v-37z" />
    <glyph glyph-name="uni1E81" unicode="&#x1e81;" horiz-adv-x="879" 
d="M95 0l-29 480v50h252l-6 -238h3l112 238h176l2 -238h3l105 238h210v-50l-250 -480h-233l-7 207h-3l-105 -207h-230zM439 558l-102 108v44h216l43 -115v-37h-157z" />
    <glyph glyph-name="uni1E82" unicode="&#x1e82;" horiz-adv-x="1014" 
d="M117 0l-11 647v53h274l-15 -353h3l150 353h200l3 -353h3l142 353h226v-53l-299 -647h-266l-5 301h-3l-140 -301h-262zM550 726v37l54 115h221v-44l-127 -108h-148z" />
    <glyph glyph-name="uni1E83" unicode="&#x1e83;" horiz-adv-x="879" 
d="M95 0l-29 480v50h252l-6 -238h3l112 238h176l2 -238h3l105 238h210v-50l-250 -480h-233l-7 207h-3l-105 -207h-230zM446 558v37l54 115h221v-44l-127 -108h-148z" />
    <glyph glyph-name="uni1E84" unicode="&#x1e84;" horiz-adv-x="1014" 
d="M117 0l-11 647v53h274l-15 -353h3l150 353h200l3 -353h3l142 353h226v-53l-299 -647h-266l-5 301h-3l-140 -301h-262zM509 722q-42 0 -70.5 20t-28.5 60q0 51 31.5 79.5t83.5 28.5q45 0 73 -21q27 -23 27 -62q0 -50 -32.5 -77.5t-83.5 -27.5zM743 722q-42 0 -70.5 20
t-28.5 60q0 51 31.5 79.5t83.5 28.5q44 0 73 -21q27 -23 27 -62q0 -50 -32.5 -77.5t-83.5 -27.5z" />
    <glyph glyph-name="uni1E85" unicode="&#x1e85;" horiz-adv-x="879" 
d="M95 0l-29 480v50h252l-6 -238h3l112 238h176l2 -238h3l105 238h210v-50l-250 -480h-233l-7 207h-3l-105 -207h-230zM403 546q-42 0 -70.5 20t-28.5 60q0 51 31.5 79.5t83.5 28.5q44 0 73 -21q27 -23 27 -62q0 -50 -32.5 -77.5t-83.5 -27.5zM637 546q-42 0 -70.5 20
t-28.5 60q0 51 31.5 79.5t83.5 28.5q45 0 73 -21q27 -23 27 -62q0 -50 -32.5 -77.5t-83.5 -27.5z" />
    <glyph glyph-name="uni1EF2" unicode="&#x1ef2;" horiz-adv-x="700" 
d="M156 0l56 244l-113 403v53h261l51 -218h3l142 218h225v-53l-295 -413l-54 -234h-276zM544 726h-157l-102 108v44h216l43 -115v-37z" />
    <glyph glyph-name="uni1EF3" unicode="&#x1ef3;" horiz-adv-x="622" 
d="M28 -162v47l106 150l-69 448v47h251l17 -226h4l115 226h217v-47l-392 -645h-249zM305 558l-102 108v44h216l43 -115v-37h-157z" />
    <glyph glyph-name="uni2013" unicode="&#x2013;" horiz-adv-x="429" 
d="M4 192l41 177h391l-41 -177h-391z" />
    <glyph glyph-name="_45" 
d="M206 558l-102 108v44h216l43 -115v-37h-157z" />
    <glyph glyph-name="_73" 
d="M167 546q-42 0 -70.5 20t-28.5 60q0 51 31.5 79.5t83.5 28.5q45 0 73 -21q27 -23 27 -62q0 -50 -32.5 -77.5t-83.5 -27.5zM401 546q-42 0 -70.5 20t-28.5 60q0 51 31.5 79.5t83.5 28.5q45 0 73 -21q27 -23 27 -62q0 -50 -32.5 -77.5t-83.5 -27.5z" />
    <glyph glyph-name="_74" 
d="M127 566l31 134h296l-31 -134h-296z" />
    <glyph glyph-name="_75" 
d="M196 558v37l54 115h221v-44l-127 -108h-148z" />
    <glyph glyph-name="_132" 
d="M106 558v41l117 111h159l78 -111v-41h-139l-35 32l-50 -32h-130z" />
    <glyph glyph-name="_133" 
d="M200 558l-78 111v41h139l35 -32l50 32h130v-41l-117 -111h-159z" />
    <glyph glyph-name="_134" 
d="M289 556q-63 0 -105.5 30.5t-50.5 90.5v46h134q0 -11 9 -19q8 -9 28 -9t29 9q9 8 14 19h122v-46q-43 -121 -180 -121z" />
    <glyph glyph-name="_135" 
d="M285 542q-47 0 -81.5 21.5t-34.5 65.5q0 56 38 86t95 30q49 0 83 -21.5t34 -68.5q0 -55 -38.5 -84t-95.5 -29z" />
    <glyph glyph-name="_136" 
d="M294 629q30 0 30 33q0 26 -26 26q-29 0 -29 -34q0 -25 25 -25zM288 554q-44 0 -73.5 26.5t-29.5 69.5q0 49 35 81t84 32q45 0 74 -27t29 -71q0 -49 -35 -80t-84 -31z" />
    <glyph glyph-name="_137" 
d="M349 556q-42 0 -66 10t-43 10q-20 0 -29 -19h-113v46q34 125 141 125q37 0 62 -9q24 -10 42 -10q22 0 29 19h114v-46q-18 -59 -49.5 -92.5t-87.5 -33.5z" />
    <glyph glyph-name="_138" 
d="M114 558v30l43 122h174v-42l-96 -110h-121zM322 558v30l42 122h174v-42l-96 -110h-120z" />
    <glyph glyph-name="_254" 
d="M1 -243l17 70q55 3 55 18q0 5 -4 9t-14 9q-14 9 -19 18q-5 12 -5 26q0 19 9 33q22 41 91 41q42 0 67.5 -21.5t25.5 -61.5q0 -134 -223 -141z" />
    <glyph glyph-name="_255" 
d="M403 769l-17 -70q-55 -3 -55 -18q0 -7 18 -18q16 -9 20 -18t4 -26q0 -19 -8 -33q-27 -41 -92 -41q-42 0 -67.5 21.5t-25.5 61.5q0 134 223 141z" />
    <glyph glyph-name="_256" 
d="M408 726h-157l-102 108v44h216l43 -115v-37z" />
    <glyph glyph-name="_257" 
d="M208 722q-42 0 -70.5 20t-28.5 60q0 51 31.5 79.5t83.5 28.5q44 0 73 -21q27 -23 27 -62q0 -50 -32.5 -77.5t-83.5 -27.5zM442 722q-42 0 -70.5 20t-28.5 60q0 51 31.5 79.5t83.5 28.5q44 0 73 -21q27 -23 27 -62q0 -50 -32.5 -77.5t-83.5 -27.5z" />
    <glyph glyph-name="_258" 
d="M165 730l31 134h296l-31 -134h-296z" />
    <glyph glyph-name="_259" 
d="M235 726v37l54 115h221v-44l-127 -108h-148z" />
    <glyph glyph-name="_260" 
d="M145 726v41l117 111h159l78 -111v-41h-139l-35 32l-50 -32h-130z" />
    <glyph glyph-name="_261" 
d="M515 878v-41l-117 -111h-159l-78 111v41h139l35 -32l50 32h130z" />
    <glyph glyph-name="_262" 
d="M332 724q-60 0 -106 28.5t-54 84.5v46h133q0 -11 9 -19q8 -9 28 -9t29 9q9 8 14 19h123v-46q-42 -113 -176 -113z" />
    <glyph glyph-name="_263" 
d="M326 722q-47 0 -81.5 21.5t-34.5 65.5q0 56 38 86t95 30q49 0 83 -21.5t34 -68.5q0 -55 -38.5 -84t-95.5 -29z" />
    <glyph glyph-name="_264" 
d="M327 722q-44 0 -73.5 26.5t-29.5 69.5q0 49 35 81t84 32q45 0 74 -27t29 -71q0 -49 -35 -80t-84 -31zM333 797q30 0 30 33q0 26 -26 26q-29 0 -29 -34q0 -25 25 -25z" />
    <glyph glyph-name="_265" 
d="M390 724q-42 0 -66 10t-43 10q-20 0 -29 -19h-113v46q33 122 141 122q36 0 62 -9q24 -10 42 -10q22 0 29 19h114v-46q-37 -123 -137 -123z" />
    <glyph glyph-name="_266" 
d="M143 726v30l43 122h184v-42l-96 -110h-131zM361 726v30l42 122h184v-42l-96 -110h-130z" />
    <glyph glyph-name="_267" horiz-adv-x="380" 
d="M0 0l86 375h-46l36 155h46l3 13q24 99 83 136t162 37q39 0 67 -5q30 -7 46 -12l-30 -130h-16q-31 0 -41 -7q-11 -7 -16 -27l-1 -5h65l-36 -155h-64l-86 -375h-258z" />
    <glyph glyph-name="_268" horiz-adv-x="726" 
d="M0 0l86 375h-46l36 155h46l3 13q22 92 79.5 130t155.5 38q66 0 117 -16l-30 -131h-13q-28 0 -40 -5q-9 -4 -14 -24l-1 -5h89l3 13q24 99 83 136t162 37q39 0 67 -5q30 -7 46 -12l-30 -130h-16q-31 0 -41 -7q-11 -7 -16 -27l-1 -5h65l-36 -155h-64l-86 -375h-258l86 375
h-88l-86 -375h-258z" />
    <glyph glyph-name="_277" horiz-adv-x="787" 
d="M426 477l-138 -281h147l-6 281h-3zM187 0l-51 -140h-216l76 336h63l273 504h319l48 -504h78l-78 -336h-216l13 140h-309z" />
    <glyph glyph-name="_280" horiz-adv-x="1170" 
d="M387 0l41 180l-27 52l-173 -232h-273v44l304 383l-122 229v44h257l99 -239l55 239h276l-56 -241l207 241h260v-44l-251 -260l116 -352v-44h-268l-74 228l-55 -52l-40 -176h-276z" />
    <glyph glyph-name="_285" horiz-adv-x="769" 
d="M-14 0l161 700h276l-54 -236l205 236h260v-44l-247 -256l117 -356v-44h-273l-75 231l-52 -47l-42 -184h-276z" />
    <glyph glyph-name="_287" horiz-adv-x="754" 
d="M-34 0v53l351 647h319l61 -647v-53h-273l-10 477h-3l-234 -477h-211z" />
    <glyph glyph-name="_310" horiz-adv-x="627" 
d="M284 -10q-116 0 -194 56t-78 165q0 86 47.5 152t129.5 87q-88 31 -88 113q0 48 31 80.5t71.5 44.5t87.5 12h364l-41 -171h-245q-30 0 -30 -19q0 -12 11 -18q5 -4 19 -7q4 -2 32 -8q46 -9 82 -22t69 -34.5t50.5 -56.5t17.5 -81q0 -137 -98.5 -215t-237.5 -78zM289 141
q13 0 27 12q25 20 37 64t12 86q0 65 -40 65q-35 0 -56 -58t-21 -104q0 -25 9.5 -45t31.5 -20z" />
    <glyph glyph-name="_312" horiz-adv-x="604" 
d="M388 710q246 0 246 -179q0 -68 -45 -113.5t-113 -54.5v-2q53 -8 83 -43t30 -88q0 -50 -19 -91.5t-50.5 -68.5t-73.5 -46t-86 -27t-90 -8q-152 0 -212 79q-61 79 -25 234l42 180q51 228 313 228zM327 493l-14 -65h16q50 0 60 69q5 26 0 43q-4 16 -21 16q-18 0 -26 -15
q-8 -17 -15 -48zM286 146q39 0 49 83q3 31 -4 44q-8 14 -30 14h-19l-15 -70q-8 -42 -4 -55q4 -16 23 -16z" />
    <glyph glyph-name="_314" horiz-adv-x="502" 
d="M219 173q0 -6 11 -8q10 -3 27 -3q31 0 65 8q47 8 56 15h90l-36 -155q-92 -40 -201 -40q-236 0 -236 162q0 140 202 177q38 6 44 8q20 5 25 8q14 6 14 17q0 12 -28 12q-60 0 -110 -25h-86l35 153q71 38 197 38q88 0 149 -38t61 -120q0 -47 -17 -80t-50 -52.5t-65.5 -29.5
t-78.5 -18q-6 -1 -18.5 -3.5l-17.5 -3.5q-3 -1 -6.5 -2t-5.5 -2t-4.5 -1.5t-4.5 -1.5q-8 -5 -9 -7q-2 -6 -2 -8z" />
    <glyph glyph-name="_316" horiz-adv-x="650" 
d="M213 -170q-149 0 -242 40l36 157h83q43 -24 102 -24q108 0 123 57l8 34q-51 -51 -141 -51q-33 0 -60 10q-31 9 -53 31q-52 46 -52 138q0 81 29.5 152t91.5 118.5t143 47.5q93 0 144 -78q43 68 122 68h135l-111 -483q-49 -217 -358 -217zM332 184h12l40 172q-12 5 -25 5
q-37 0 -57 -40t-20 -83q0 -54 50 -54z" />
    <glyph glyph-name="_319" horiz-adv-x="976" 
d="M299 0l28 121l-22 42l-112 -163h-227v49l217 292l-85 136v53h220l69 -148l73 318h149q32 0 49 -4q38 -9 41 -56q0 -24 -9 -63l-46 -202l132 155h222v-53l-175 -181l94 -247v-49h-245l-55 150l-33 -35l-27 -115h-258z" />
    <glyph glyph-name="_321" horiz-adv-x="507" 
d="M199 61q0 51 -65 51h-52l36 156h68q71 0 71 60q0 47 -57 47q-41 0 -67 -26h-86l35 153q92 38 205 38q92 0 155.5 -43.5t63.5 -129.5q0 -67 -42 -119.5t-107 -64.5v-3q46 -13 70.5 -47t24.5 -83q0 -58 -25 -102t-67 -69t-91 -37.5t-103 -12.5q-151 0 -229 40l36 155h90
q33 -20 76 -20q27 0 43.5 15t16.5 42z" />
    <glyph glyph-name="_323" horiz-adv-x="655" 
d="M553 0h-128q-92 0 -103 82q-84 -92 -187 -92q-113 0 -129 99q-6 35 6 86l82 355h189q33 0 47 -20q12 -20 0 -72l-49 -213q-6 -25 2 -39t38 -14h8l88 358h258z" />
    <glyph glyph-name="_325" horiz-adv-x="655" 
d="M553 0h-128q-92 0 -103 82q-84 -92 -187 -92q-113 0 -129 99q-6 35 6 86l82 355h189q33 0 47 -20q12 -20 0 -72l-49 -213q-6 -25 2 -39t38 -14h8l88 358h258zM372 558q-63 0 -105.5 30.5t-50.5 90.5v46h134q0 -11 9 -19q7 -9 28 -9q20 0 29 9q9 8 14 19h122v-46
q-43 -121 -180 -121z" />
    <glyph glyph-name="_327" horiz-adv-x="656" 
d="M-17 0l161 700h149q32 0 49 -4q38 -9 41 -56q0 -24 -9 -63l-45 -196l131 149h222v-53l-170 -176l89 -252v-49h-248l-52 153l-33 -33l-27 -120h-258z" />
    <glyph glyph-name="_329" horiz-adv-x="609" 
d="M493 530l66 -483v-47h-252l-12 252h-3l-118 -252h-219v47l280 483h258z" />
    <glyph glyph-name="_332" horiz-adv-x="666" 
d="M306 0l42 184h-65l-42 -184h-258l122 530h258l-44 -190h65l44 190h173q51 0 62 -26t0 -72l-99 -432h-258z" />
    <glyph glyph-name="_335" horiz-adv-x="655" 
d="M-17 0l122 530h129q52 0 75 -20.5t23 -71.5q45 50 91.5 76t106.5 26q65 0 100 -41q17 -23 23 -57q5 -37 -7 -87l-82 -355h-190q-34 0 -46 20q-13 19 -1 72l46 196q6 26 -2 40q-7 13 -42 13h-10l-78 -341h-258z" />
    <glyph glyph-name="_339" horiz-adv-x="959" 
d="M-17 0l122 530h129q52 0 75 -20t23 -71q45 50 90.5 75.5t104.5 25.5q50 0 80.5 -27t34.5 -77q91 104 198 104q50 0 80 -25t36 -73q5 -37 -7 -87l-82 -355h-190q-34 0 -46 20q-13 19 -1 72l46 196q6 26 0 40q-6 13 -35 13h-8l-79 -341h-258l67 288q6 26 0 40q-6 13 -35 13
h-9l-78 -341h-258z" />
    <glyph glyph-name="_344" horiz-adv-x="676" 
d="M585 -120h-212l17 120v4q-60 13 -68 78q-84 -92 -187 -92q-113 0 -129 99q-6 35 6 86l82 355h189q33 0 47 -20q12 -20 0 -72l-49 -213q-6 -25 2 -39t38 -14h14l82 358h258l-86 -374h60z" />
    <glyph glyph-name="_346" horiz-adv-x="651" 
d="M549 0h-258l48 211q-73 -66 -171 -66q-74 0 -107 49q-19 23 -23 57q-6 34 4 76l48 203h173q48 0 61 -25q12 -25 1 -73l-18 -83q-7 -33 19 -33q21 0 43 22l44 192h258z" />
    <glyph glyph-name="_348" horiz-adv-x="959" 
d="M857 0h-129q-52 0 -74.5 20t-23.5 71q-45 -50 -90.5 -75.5t-104.5 -25.5q-50 0 -80.5 27t-35.5 77q-45 -51 -91 -77.5t-106 -26.5q-50 0 -80 25.5t-36 73.5q-5 36 7 86l82 355h190q33 0 47 -20q12 -20 0 -72l-46 -196q-6 -26 0 -39q6 -14 35 -14h8l79 341h258l-67 -288
q-6 -26 0 -39q6 -14 35 -14h9l78 341h258z" />
    <glyph glyph-name="_350" horiz-adv-x="980" 
d="M889 -120h-212l17 120v2q-64 9 -64 89q-45 -50 -90.5 -75.5t-104.5 -25.5q-50 0 -80.5 27t-35.5 77q-45 -51 -91 -77.5t-106 -26.5q-50 0 -80 25.5t-36 73.5q-5 36 7 86l82 355h190q33 0 47 -20q12 -20 0 -72l-46 -196q-6 -26 0 -39q6 -14 35 -14h8l79 341h258l-67 -288
q-6 -26 0 -39q6 -14 35 -14h9l78 341h258l-86 -374h60z" />
    <glyph glyph-name="_354" horiz-adv-x="622" 
d="M356 530l-36 -154h49q61 0 109.5 -14t83.5 -52.5t35 -98.5q0 -62 -27.5 -107t-75 -69t-98.5 -34.5t-109 -10.5q-167 0 -225 64q-58 63 -27 199l63 277h258zM286 239l-12 -56q-5 -26 -1 -40q3 -16 20 -16q23 0 35 19t12 44q0 49 -43 49h-11z" />
    <glyph glyph-name="_357" horiz-adv-x="923" 
d="M580 -10q-105 0 -175 47.5t-81 146.5h-41l-42 -184h-258l160 701h180q40 0 54 -23q13 -22 1 -77l-59 -261h23q34 99 115.5 149.5t188.5 50.5q120 0 195.5 -59t75.5 -172q0 -148 -95 -233.5t-242 -85.5zM591 141q19 0 33.5 22t22.5 53.5t12 60.5t4 49q0 48 -29 48
q-26 0 -44 -38t-24 -77.5t-6 -69.5q0 -48 31 -48z" />
    <glyph glyph-name="_363" horiz-adv-x="328" 
d="M-20 0l122 530h150q61 0 79 -22q18 -23 3 -88l-96 -420h-258zM238 542q-47 0 -81.5 21.5t-34.5 65.5q0 56 38 86t95 30q49 0 83 -21.5t34 -68.5q0 -55 -38.5 -84t-95.5 -29z" />
    </font>
</defs>
</svg>
